<?xml version="1.0" encoding="UTF-8"?>
<svg id="Camada_2" data-name="Camada 2" xmlns="http://www.w3.org/2000/svg" xmlns:xlink="http://www.w3.org/1999/xlink" viewBox="0 0 2755.44 627.15">
  <defs>
    <style>
      .cls-1 {
        fill: url(#Gradiente_sem_nome_422-5);
      }

      .cls-2 {
        fill: url(#Gradiente_sem_nome_422-6);
      }

      .cls-3 {
        fill: url(#Gradiente_sem_nome_422-7);
      }

      .cls-4 {
        fill: url(#Gradiente_sem_nome_422-4);
      }

      .cls-5 {
        fill: url(#Gradiente_sem_nome_422);
      }

      .cls-6 {
        fill: url(#Gradiente_sem_nome_422-3);
      }

      .cls-7 {
        fill: url(#Gradiente_sem_nome_422-8);
      }

      .cls-8 {
        fill: url(#Gradiente_sem_nome_422-2);
      }

      .cls-9 {
        fill: url(#Gradiente_sem_nome_422-9);
      }

      .cls-10 {
        fill: url(#Gradiente_sem_nome_422-10);
      }
    </style>
    <linearGradient id="Gradiente_sem_nome_422" data-name="Gradiente sem nome 422" x1="366.23" y1="205.65" x2="509.72" y2="205.65" gradientUnits="userSpaceOnUse">
      <stop offset="0" stop-color="#623189"/>
      <stop offset="1" stop-color="#e84d95"/>
    </linearGradient>
    <linearGradient id="Gradiente_sem_nome_422-2" data-name="Gradiente sem nome 422" x1="361.55" y1="279.57" x2="514.4" y2="279.57" xlink:href="#Gradiente_sem_nome_422"/>
    <linearGradient id="Gradiente_sem_nome_422-3" data-name="Gradiente sem nome 422" x1="23.62" y1="342.93" x2="282.07" y2="342.93" xlink:href="#Gradiente_sem_nome_422"/>
    <linearGradient id="Gradiente_sem_nome_422-4" data-name="Gradiente sem nome 422" x1="275.9" y1="526" x2="293" y2="526" xlink:href="#Gradiente_sem_nome_422"/>
    <linearGradient id="Gradiente_sem_nome_422-5" data-name="Gradiente sem nome 422" x1="393.23" y1="142.28" x2="482.72" y2="142.28" xlink:href="#Gradiente_sem_nome_422"/>
    <linearGradient id="Gradiente_sem_nome_422-6" data-name="Gradiente sem nome 422" x1="382.67" y1="57.8" x2="493.28" y2="57.8" xlink:href="#Gradiente_sem_nome_422"/>
    <linearGradient id="Gradiente_sem_nome_422-7" data-name="Gradiente sem nome 422" x1="313.44" y1="575.26" x2="598.88" y2="575.26" xlink:href="#Gradiente_sem_nome_422"/>
    <linearGradient id="Gradiente_sem_nome_422-8" data-name="Gradiente sem nome 422" x1="2.5" y1="575.26" x2="303.19" y2="575.26" xlink:href="#Gradiente_sem_nome_422"/>
    <linearGradient id="Gradiente_sem_nome_422-9" data-name="Gradiente sem nome 422" x1="144.74" y1="290.13" x2="324.31" y2="290.13" xlink:href="#Gradiente_sem_nome_422"/>
    <linearGradient id="Gradiente_sem_nome_422-10" data-name="Gradiente sem nome 422" x1="308.75" y1="427.42" x2="567.2" y2="427.42" xlink:href="#Gradiente_sem_nome_422"/>
  </defs>
  <g id="Camada_1-2" data-name="Camada 1">
    <g>
      <g>
        <g>
          <path class="cls-5" d="M392.49,239.83c-1.04,0-1.97-.65-2.34-1.62l-23.76-63.36c-.29-.77-.18-1.63.29-2.3s1.23-1.08,2.05-1.08h138.49c.82,0,1.59.4,2.05,1.08s.57,1.53.29,2.3l-23.76,63.36c-.37.98-1.3,1.62-2.34,1.62h-90.97Z"/>
          <path d="M507.22,173.97h0M507.22,173.97l-23.76,63.36h-90.97l-23.76-63.36h138.49M507.23,168.97h-138.5c-1.64,0-3.18.8-4.11,2.15-.93,1.35-1.15,3.07-.57,4.6l23.76,63.36c.73,1.95,2.6,3.24,4.68,3.24h90.97c2.08,0,3.95-1.29,4.68-3.24l23.7-63.19c.25-.59.38-1.24.38-1.92,0-2.76-2.24-5-5-5h0ZM507.22,178.97h0,0Z"/>
        </g>
        <g>
          <path class="cls-8" d="M385.17,303.19c-13.02,0-23.62-10.6-23.62-23.62s10.6-23.62,23.62-23.62h105.6c13.02,0,23.62,10.6,23.62,23.62s-10.6,23.62-23.62,23.62h-105.6Z"/>
          <path d="M490.78,258.45c11.66,0,21.12,9.46,21.12,21.12s-9.46,21.12-21.12,21.12h-105.6c-11.66,0-21.12-9.46-21.12-21.12s9.46-21.12,21.12-21.12h105.6M490.78,253.45h-105.6c-14.4,0-26.12,11.72-26.12,26.12s11.72,26.12,26.12,26.12h105.6c14.4,0,26.12-11.72,26.12-26.12s-11.72-26.12-26.12-26.12h0Z"/>
        </g>
        <g>
          <path class="cls-6" d="M51.56,535.52c-.66,0-1.3-.26-1.77-.73l-11.62-11.62c-9.3-9.25-14.61-22.09-14.56-35.21.04-15.52,7.46-30.36,19.85-39.71l16.9-12.68c.38-.29.84-.46,1.31-.49,25.96-1.96,46.35-23.88,46.43-49.9v-25.7c0-.88.46-1.69,1.21-2.14l47.68-28.61c2.41-1.45,3.91-4.09,3.91-6.91v-29.18h-16.12v23.21c0,.88-.46,1.69-1.21,2.14l-47.68,28.61c-2.41,1.45-3.91,4.09-3.91,6.91v31.68c0,18.85-15.33,34.18-34.18,34.18h-21.12c-7.2,0-13.06-5.86-13.06-13.06v-137.28c.04-36.28,29.58-65.83,65.86-65.86,4.45,0,8.06-3.62,8.06-8.06v-42.24c0-1.38,1.12-2.5,2.5-2.5,24.67,0,44.74,20.07,44.74,44.74,0,4.44,3.62,8.06,8.06,8.06h10.56c65.35.08,118.58,53.31,118.66,118.66v158.41c-.04,30.46-24.84,55.26-55.3,55.3H51.56ZM61.37,464.94c-10.6,9.11-14.4,24.02-9.26,37.18l14.89-6.19c-2.37-6.64-.54-13.82,4.48-18.44l-10.1-12.55ZM65.86,340.43v-68.92h-16.12v68.92h16.12ZM73.65,251.49c3.7-3.34,8.38-5.43,13.33-5.97v-16.18c-9.53.62-18.56,4.66-25.37,11.35l12.04,10.79Z"/>
          <path d="M100.04,152.85c23.33,0,42.24,18.91,42.24,42.24,0,5.83,4.73,10.56,10.56,10.56h10.56c64.13.08,116.09,52.04,116.16,116.16v158.41c-.04,29.15-23.65,52.77-52.8,52.8H51.56l-11.62-11.62c-8.89-8.85-13.87-20.89-13.82-33.43.04-14.83,7.01-28.79,18.85-37.73l16.89-12.67c27.43-2.07,48.66-24.89,48.74-52.39v-25.7l47.68-28.61c3.18-1.91,5.12-5.34,5.12-9.05v-31.68h-21.12v25.71l-47.68,28.61c-3.18,1.91-5.12,5.34-5.12,9.05v31.68c0,17.5-14.19,31.68-31.68,31.68h-21.12c-5.83,0-10.56-4.73-10.56-10.56v-137.29c.04-34.98,28.38-63.33,63.36-63.36,5.83,0,10.56-4.73,10.56-10.56v-42.24M73.75,254.93c4.01-4.47,9.73-7.03,15.74-7.04v-21.12c-12.01.02-23.45,5.14-31.46,14.08l15.72,14.09M47.24,342.93h21.12v-73.92h-21.12v73.92M50.75,505.39l19.5-8.11-.83-1.99c-2.42-6.4-.11-13.62,5.57-17.42l-13.24-16.45c-13.03,9.66-17.89,26.91-11.84,41.95l.84,2.01M100.04,147.85c-2.76,0-5,2.24-5,5v42.24c0,3.07-2.49,5.56-5.56,5.56-37.66.04-68.32,30.7-68.36,68.36v137.29c0,8.58,6.98,15.56,15.56,15.56h21.12c20.23,0,36.68-16.46,36.68-36.68v-31.68c0-1.94,1.03-3.76,2.69-4.76l47.68-28.61c1.51-.9,2.43-2.53,2.43-4.29v-20.71h11.12v26.68c0,1.94-1.03,3.77-2.7,4.76l-47.68,28.61c-1.51.9-2.43,2.53-2.43,4.29v25.7c-.07,24.72-19.45,45.54-44.11,47.4-.95.07-1.86.41-2.62.99l-16.89,12.67c-13.02,9.83-20.81,25.42-20.85,41.72-.05,13.78,5.53,27.27,15.3,36.99l11.61,11.61c.94.94,2.21,1.46,3.54,1.46h175.21c31.84-.04,57.76-25.97,57.8-57.8v-158.41c-.04-32.35-12.66-62.76-35.53-85.64s-53.28-35.49-85.63-35.53h-10.57c-3.07,0-5.56-2.49-5.56-5.56,0-26.05-21.19-47.24-47.24-47.24h0ZM65.34,240.68c5.43-4.62,12.09-7.6,19.15-8.57v11.27c-3.9.77-7.59,2.42-10.76,4.82l-8.38-7.51h0ZM52.24,274.01h11.12v63.92h-11.12v-63.92h0ZM53.6,498.79c-3.18-10.71-.25-22.28,7.51-30.19l7.03,8.74c-4,4.69-5.6,11.02-4.18,17.14l-10.36,4.31h0Z"/>
        </g>
        <g>
          <path class="cls-4" d="M290.13,537.02c-.22,0-.45-.03-.67-.09-3.21-.89-6.55-1.37-9.92-1.41h-1.14c-1.02,0-1.93-.61-2.31-1.55-.38-.94-.16-2.02.56-2.73,4.55-4.47,8.49-9.52,11.7-15.01.46-.78,1.29-1.24,2.16-1.24.25,0,.5.04.75.11,1.11.35,1.84,1.42,1.74,2.58-.04.51-.12,1.02-.19,1.53-.09.57-.17,1.1-.17,1.58v13.73c0,.78-.37,1.52-.99,1.99-.44.33-.97.51-1.51.51Z"/>
          <path d="M290.5,517.48c-.09,1.11-.37,2.18-.37,3.31v13.73c-3.44-.95-6.99-1.45-10.56-1.5h-1.17c4.7-4.62,8.78-9.84,12.1-15.54M290.5,512.48c-1.74,0-3.4.91-4.32,2.48-3.09,5.3-6.89,10.17-11.29,14.49-1.45,1.42-1.89,3.58-1.12,5.46.77,1.88,2.6,3.11,4.63,3.11h1.14c3.15.04,6.26.49,9.26,1.32.44.12.89.18,1.34.18,1.08,0,2.15-.35,3.03-1.02,1.24-.95,1.97-2.42,1.97-3.98v-13.73c0-.29.07-.73.14-1.2.08-.5.16-1.07.22-1.71.18-2.32-1.26-4.47-3.49-5.17-.49-.16-1-.23-1.5-.23h0ZM290.5,522.48h0,0Z"/>
        </g>
        <g>
          <rect class="cls-1" x="393.23" y="129.22" width="89.48" height="26.12" rx="2.5" ry="2.5"/>
          <path d="M480.22,131.72v21.12h-84.48v-21.12h84.48M480.22,126.72h-84.48c-2.76,0-5,2.24-5,5v21.12c0,2.76,2.24,5,5,5h84.48c2.76,0,5-2.24,5-5v-21.12c0-2.76-2.24-5-5-5h0Z"/>
        </g>
        <g>
          <path class="cls-2" d="M419.82,113.1c-.77,0-1.5-.35-1.97-.96-.47-.61-.64-1.4-.46-2.14l7.28-29.11c.68-2.73-.13-5.67-2.12-7.66-1.5-1.5-3.58-2.36-5.7-2.36-.66,0-1.31.08-1.95.24l-29.12,7.28c-.2.05-.4.07-.61.07-.55,0-1.09-.18-1.54-.53-.61-.47-.96-1.2-.96-1.97v-36.31c0-.77.35-1.5.96-1.97.44-.35.99-.53,1.54-.53.2,0,.41.02.61.07l29.12,7.28c.64.16,1.29.24,1.95.24,2.16,0,4.18-.84,5.71-2.37,1.99-1.99,2.8-4.92,2.12-7.66l-7.28-29.11c-.19-.75-.02-1.54.46-2.14.47-.61,1.2-.96,1.97-.96h36.31c.77,0,1.5.35,1.97.96.47.61.64,1.4.46,2.14l-7.28,29.11c-.68,2.73.13,5.67,2.12,7.66,1.52,1.52,3.55,2.36,5.71,2.36.66,0,1.31-.08,1.95-.24l29.12-7.28c.2-.05.4-.07.61-.07.55,0,1.09.18,1.54.53.61.47.96,1.2.96,1.97v36.31c0,.77-.35,1.5-.96,1.97-.44.35-.99.53-1.54.53-.2,0-.41-.02-.61-.07l-29.12-7.28c-.64-.16-1.29-.24-1.95-.24-2.16,0-4.18.84-5.71,2.37-1.99,1.99-2.8,4.92-2.12,7.66l7.28,29.11c.19.75.02,1.54-.46,2.14-.47.61-1.2.96-1.97.96h-36.31Z"/>
          <path d="M456.13,5l-7.28,29.11c-.9,3.6.15,7.4,2.77,10.03,2.01,2.01,4.71,3.1,7.48,3.1.85,0,1.71-.1,2.55-.31l29.12-7.28v36.31l-29.12-7.28c-.85-.21-1.7-.31-2.55-.31-2.77,0-5.47,1.09-7.48,3.1-2.62,2.62-3.67,6.43-2.77,10.03l7.28,29.11h-36.31l7.28-29.11c.9-3.6-.15-7.41-2.78-10.03-2-2-4.7-3.09-7.47-3.09-.85,0-1.71.1-2.55.31l-29.12,7.28v-36.31l29.12,7.28c.85.21,1.7.31,2.55.31,2.77,0,5.47-1.09,7.48-3.1,2.62-2.62,3.67-6.43,2.77-10.03l-7.28-29.11h36.31M456.13,0h-36.31c-1.54,0-2.99.71-3.94,1.92-.95,1.21-1.28,2.8-.91,4.29l7.28,29.11c.47,1.88-.09,3.91-1.46,5.28-1.05,1.05-2.45,1.63-3.94,1.63-.45,0-.9-.06-1.34-.17l-29.12-7.28c-.4-.1-.81-.15-1.21-.15-1.1,0-2.19.37-3.08,1.06-1.21.95-1.92,2.4-1.92,3.94v36.31c0,1.54.71,2.99,1.92,3.94.89.69,1.97,1.06,3.08,1.06.4,0,.81-.05,1.21-.15l29.12-7.28c.44-.11.89-.16,1.34-.16,1.46,0,2.9.59,3.93,1.63,1.37,1.37,1.93,3.4,1.46,5.29l-7.28,29.11c-.37,1.49-.04,3.08.91,4.29.95,1.21,2.4,1.92,3.94,1.92h36.31c1.54,0,2.99-.71,3.94-1.92.95-1.21,1.28-2.8.91-4.29l-7.28-29.11c-.47-1.88.09-3.91,1.46-5.28,1.05-1.05,2.45-1.63,3.94-1.63.45,0,.9.06,1.34.17l29.12,7.28c.4.1.81.15,1.21.15,1.1,0,2.19-.37,3.08-1.06,1.21-.95,1.92-2.4,1.92-3.94v-36.31c0-1.54-.71-2.99-1.92-3.94-.89-.69-1.97-1.06-3.08-1.06-.4,0-.81.05-1.21.15l-29.12,7.28c-.44.11-.89.16-1.34.16-1.49,0-2.89-.58-3.94-1.63-1.37-1.37-1.93-3.4-1.46-5.28l7.28-29.11c.37-1.49.04-3.08-.91-4.29-.95-1.21-2.4-1.92-3.94-1.92h0ZM456.13,10h0,0Z"/>
        </g>
        <g>
          <path class="cls-3" d="M315.94,598.88c-.9,0-1.73-.49-2.18-1.27s-.43-1.75.04-2.52c7.37-12.23,7.37-27.43,0-39.66-.47-.77-.48-1.74-.04-2.52s1.28-1.27,2.18-1.27h259.32c13.02,0,23.62,10.6,23.62,23.62s-10.6,23.62-23.62,23.62h-259.32Z"/>
          <path d="M575.26,554.14c11.66,0,21.12,9.46,21.12,21.12s-9.46,21.12-21.12,21.12h-259.32c7.83-12.99,7.83-29.25,0-42.24h259.32M575.26,549.14h-259.32c-1.8,0-3.47.97-4.35,2.54-.89,1.57-.86,3.5.07,5.04,6.89,11.44,6.89,25.64,0,37.08-.93,1.54-.96,3.47-.07,5.04.89,1.57,2.55,2.54,4.35,2.54h259.32c14.4,0,26.12-11.72,26.12-26.12s-11.72-26.12-26.12-26.12h0Z"/>
        </g>
        <g>
          <path class="cls-7" d="M26.12,598.88c-13.02,0-23.62-10.6-23.62-23.62s10.6-23.62,23.62-23.62h253.45c13.02,0,23.62,10.6,23.62,23.62s-10.6,23.62-23.62,23.62H26.12Z"/>
          <path d="M279.57,554.14c11.66,0,21.12,9.46,21.12,21.12s-9.46,21.12-21.12,21.12H26.12c-11.66,0-21.12-9.46-21.12-21.12s9.46-21.12,21.12-21.12h253.45M279.57,549.14H26.12c-14.4,0-26.12,11.72-26.12,26.12s11.72,26.12,26.12,26.12h253.45c14.4,0,26.12-11.72,26.12-26.12s-11.72-26.12-26.12-26.12h0Z"/>
        </g>
        <g>
          <path class="cls-9" d="M300.69,429.92c-.38,0-.76-.09-1.12-.26-.85-.42-1.38-1.29-1.38-2.24v-105.6c-.08-74.25-60.54-134.72-134.79-134.81h-.87c-1.21,0-2.25-.87-2.46-2.07-.56-3.21-1.41-6.42-2.5-9.55-.23-.68-.51-1.33-.8-2.03-.12-.29-.24-.57-.36-.86-.84-2.12-1.78-4.16-2.82-6.11-.44-.83-.91-1.61-1.4-2.45l-.34-.57c-1.13-1.84-2.4-3.66-3.74-5.37-.24-.31-.47-.62-.71-.93-.41-.54-.79-1.06-1.2-1.53-.16-.17-.35-.42-.54-.67-.09-.12-.18-.24-.28-.35-.66-.73-.82-1.79-.42-2.69.4-.9,1.3-1.48,2.28-1.48h16.17c42.96.05,83.35,16.8,113.72,47.18,30.38,30.38,47.13,70.76,47.18,113.72v100.33c0,.79-.37,1.53-1,2l-21.12,15.84c-.44.33-.97.5-1.5.5Z"/>
          <path d="M163.41,152.85c87.44.1,158.31,70.96,158.41,158.41v100.32l-21.12,15.84v-105.6c-.08-75.79-61.49-137.22-137.28-137.31h-.88c-.59-3.38-1.47-6.71-2.61-9.95-.36-1.04-.8-2.01-1.21-3.01-.86-2.17-1.83-4.28-2.93-6.34-.57-1.07-1.17-2.06-1.79-3.11-1.2-1.95-2.51-3.83-3.92-5.64-.67-.85-1.27-1.73-1.99-2.55-.29-.32-.54-.72-.84-1.06h16.17M163.41,147.85h-16.17c-1.97,0-3.76,1.16-4.56,2.96-.81,1.8-.48,3.9.84,5.37.03.04.08.11.13.18.17.23.39.53.69.85.34.4.69.86,1.05,1.35.25.33.49.65.74.98,1.27,1.62,2.47,3.36,3.58,5.15l.33.56c.47.8.92,1.55,1.32,2.31,1,1.87,1.9,3.83,2.69,5.83,0,.02.02.04.02.06.12.3.25.61.38.91.27.65.53,1.26.73,1.83,1.07,3.03,1.87,6.11,2.41,9.19.42,2.39,2.5,4.14,4.92,4.14h.88c72.87.08,132.21,59.44,132.28,132.31v105.6c0,1.89,1.07,3.62,2.76,4.47.71.35,1.47.53,2.24.53,1.06,0,2.12-.34,3-1l21.12-15.84c1.26-.94,2-2.43,2-4v-100.32c-.05-43.63-17.06-84.64-47.91-115.49-30.85-30.85-71.86-47.86-115.49-47.91h0Z"/>
        </g>
        <g>
          <path class="cls-10" d="M311.25,535.52c-1.38,0-2.5-1.12-2.5-2.5v-12.23c-.02-7.22,3.21-13.94,8.86-18.45l14.88-11.89c38.72-30.83,60.86-76.9,60.74-126.39v-42.25c0-1.38,1.12-2.5,2.5-2.5h84.48c1.38,0,2.5,1.12,2.5,2.5v42.24c-.04,38.02,13.46,74.95,38.02,103.99.63.74.77,1.78.36,2.67-.41.88-1.29,1.45-2.27,1.45h-141.71v16.12h162.98c.57,0,1.13.2,1.58.56.35.29.69.6,1.01.91.25.24.51.48.78.7l14.86,11.89c5.66,4.5,8.89,11.23,8.87,18.46v12.22c0,1.38-1.12,2.5-2.5,2.5h-253.45ZM413.62,449.03c11.21-18.34,18.25-39.16,20.46-60.54l-16.03-1.75c-1.92,18.71-8,36.96-17.68,53.09l13.25,9.2ZM435.48,361.55v-16.12h-16.12v16.12h16.12Z"/>
          <path d="M480.22,321.81v42.24c-.04,38.66,13.64,76.08,38.61,105.6h-144.21v21.12h165.48c.63.52,1.17,1.11,1.82,1.62l14.86,11.89c5.03,4,7.95,10.08,7.93,16.5v12.23h-253.45v-12.23c-.02-6.42,2.9-12.49,7.92-16.5l14.88-11.89c39.08-31.12,61.8-78.39,61.68-128.35v-42.24h84.48M416.85,364.05h21.12v-21.12h-21.12v21.12M414.35,452.58c12.72-19.97,20.42-42.72,22.45-66.31l-21.01-2.3c-1.65,20.08-8.1,39.48-18.8,56.56l17.35,12.05M480.22,316.81h-84.48c-2.76,0-5,2.24-5,5v42.24c.12,48.73-21.68,94.09-59.8,124.44l-14.89,11.9c-6.25,4.98-9.82,12.42-9.8,20.42v12.22c0,2.76,2.24,5,5,5h253.45c2.76,0,5-2.24,5-5v-12.23c.03-7.98-3.55-15.43-9.82-20.41l-14.85-11.88c-.17-.14-.39-.34-.63-.57-.33-.31-.7-.66-1.16-1.03-.89-.72-2.01-1.12-3.15-1.12h-160.48v-11.12h139.21c1.95,0,3.72-1.13,4.54-2.9s.54-3.85-.72-5.33c-24.17-28.59-37.46-64.94-37.42-102.37v-42.25c0-2.76-2.24-5-5-5h0ZM421.85,347.93h11.12v11.12h-11.12v-11.12h0ZM403.7,439.1c8.76-15.21,14.43-32.19,16.56-49.6l11.06,1.21c-2.34,19.26-8.66,38-18.47,54.75l-9.15-6.35h0Z"/>
        </g>
      </g>
      <g>
        <path d="M827.94,323.64h-25.39l75.86-93.99-75.86-120.58h47.15l55.61,88.25,64.07-88.25h22.67l-80.39,97.31,80.39,117.26h-53.19l-54.4-84.62-56.51,84.62Z"/>
        <path d="M1073.03,300.37c0,4.23.3,9.37,3.02,12.69h38.99c35.06,0,39.29-7.86,58.63-37.17v47.75h-141.44V109.07h141.44v44.73c-16.62-24.78-29.32-34.45-62.26-34.15l-35.36.3c-3.32,3.32-3.02,8.46-3.02,12.69v76.16h24.18c9.67,0,24.48-5.14,32.04-15.41h2.72v48.35h-1.51s-18.74-23.88-33.24-23.88h-24.18v82.5Z"/>
        <path d="M1408.49,376.23l-53.19-58.03-3.02,1.21c-13,4.84-26.59,7.25-40.5,7.25-55.61,0-111.22-39.29-111.22-110.31s55.61-110.31,111.22-110.31,110.91,38.99,110.91,110.31c0,35.36-13.9,63.16-34.75,81.6-6.35,5.74-13,10.58-20.55,14.51l55.91,56.21-14.81,7.56ZM1321.15,265.92l30.83,31.13c2.12-2.72,4.23-5.44,6.04-8.46,9.97-17.23,15.11-42.01,15.11-72.23,0-60.44-20.25-99.73-61.35-99.73s-61.65,39.29-61.65,99.73,20.85,99.73,61.65,99.73c10.28,0,19.34-2.42,26.9-7.25,1.51-.91,3.32-2.12,4.84-3.32l-30.52-33.24,8.16-6.35Z"/>
        <path d="M1622.15,248.69c0,47.75-28.71,77.97-76.76,77.97s-87.34-28.41-87.34-77.97V109.07h40.8v131.46c0,34.15,13.3,69.51,52.89,69.51s58.63-27.5,58.63-63.47c0-48.35-13-96.71-43.52-137.51h55.31v139.62Z"/>
        <path d="M1710.09,300.37c0,4.23.3,9.37,3.02,12.69h38.99c35.06,0,39.29-7.86,58.63-37.17v47.75h-141.44V109.07h141.44v44.73c-16.62-24.78-29.32-34.45-62.26-34.15l-35.36.3c-3.32,3.32-3.02,8.46-3.02,12.69v76.16h24.18c9.67,0,24.48-5.14,32.04-15.41h2.72v48.35h-1.51s-18.74-23.88-33.24-23.88h-24.18v82.5Z"/>
        <path d="M1829.16,224.51h100.03v24.78h-100.03v-24.78Z"/>
        <path d="M2057.33,326.36l-87.34-185.56v65.28c0,25.08,6.04,78.88,32.34,117.56h-42.31V109.07h39.59l76.46,164.1,69.21-164.1h36.27l2.12,214.57h-41.4v-179.21l-75.86,181.93h-9.07Z"/>
        <path d="M2248.63,263.5c-11.48,34.15,2.42,55.61,10.28,60.14h-46.84l77.67-214.57h33.55l91.27,214.57h-48.35l-36.27-86.43h-72.53l-8.76,26.29ZM2325.69,227.23l-35.96-85.22-28.71,85.22h64.67Z"/>
        <path d="M2510.04,323.64h-40.8V123.88c0-1.51-.3-2.72-.3-4.23-38.99,0-54.7,9.07-73.14,46.54v-57.12h184.35v57.42c-19.64-33.85-31.43-46.24-68.91-46.84-1.21,1.21-1.21,3.32-1.21,4.83v199.16Z"/>
        <path d="M2654.8,300.37c0,4.23.3,9.37,3.02,12.69h38.99c35.06,0,39.29-7.86,58.63-37.17v47.75h-141.44V109.07h141.44v44.73c-16.62-24.78-29.32-34.45-62.26-34.15l-35.36.3c-3.32,3.32-3.02,8.46-3.02,12.69v76.16h24.18c9.67,0,24.48-5.14,32.04-15.41h2.72v48.35h-1.51s-18.74-23.88-33.24-23.88h-24.18v82.5Z"/>
        <path d="M813.13,490.55c0,50.17,16.02,104.26,32.34,133.58h-42.31v-214.57h37.17l136.9,158.36v-52.28c0-23.27-12.09-90.06-31.73-106.08h42.31v214.57h-13.9l-160.78-176.49v42.92Z"/>
        <path d="M1037.37,563.99c-11.48,34.15,2.42,55.61,10.28,60.14h-46.84l77.67-214.57h33.55l91.27,214.57h-48.35l-36.27-86.43h-72.53l-8.76,26.29ZM1114.44,527.72l-35.96-85.22-28.71,85.22h64.67Z"/>
        <path d="M1430.54,479.06c5.14-26.59-10.28-61.35-47.15-62.86h-2.12c-31.13,0-60.44,24.78-60.44,81.6,0,48.35,27.2,99.13,80.99,99.13,34.75,0,60.75-17.53,73.44-49.87l5.14,2.42c-12.39,45.63-47.15,77.67-95.8,77.67-62.86,0-110.31-48.96-110.31-111.22,0-78.58,54.4-109.4,109.7-109.4,37.17,0,91.27,12.69,97.31,72.53h-50.77Z"/>
        <path d="M1523.02,563.99c-11.48,34.15,2.42,55.61,10.28,60.14h-46.84l77.67-214.57h33.55l91.27,214.57h-48.35l-36.27-86.43h-72.53l-8.76,26.29ZM1600.08,527.72l-35.96-85.22-28.71,85.22h64.67Z"/>
        <path d="M1814.05,626.85l-87.34-185.56v65.28c0,25.08,6.04,78.88,32.34,117.56h-42.31v-214.57h39.59l76.46,164.1,69.21-164.1h36.27l2.12,214.57h-41.4v-179.21l-75.86,181.93h-9.07Z"/>
        <path d="M2005.34,563.99c-11.48,34.15,2.42,55.61,10.28,60.14h-46.84l77.67-214.57h33.55l91.27,214.57h-48.35l-36.27-86.43h-72.53l-8.76,26.29ZM2082.41,527.72l-35.96-85.22-28.71,85.22h64.67Z"/>
      </g>
    </g>
  </g>
</svg>