<?xml version="1.0" encoding="UTF-8"?>
<svg id="Camada_2" data-name="Camada 2" xmlns="http://www.w3.org/2000/svg" xmlns:xlink="http://www.w3.org/1999/xlink" viewBox="0 0 2285.37 788.81">
  <defs>
    <style>
      .cls-1 {
        fill: #f3d55b;
      }

      .cls-2 {
        fill: #cfd8dc;
      }

      .cls-3 {
        fill: url(#Gradiente_sem_nome_3-7);
      }

      .cls-4 {
        fill: #fff;
      }

      .cls-5 {
        fill: url(#Gradiente_sem_nome_3-2);
      }

      .cls-6 {
        fill: url(#Gradiente_sem_nome_3-3);
      }

      .cls-7 {
        fill: url(#Gradiente_sem_nome_3-5);
      }

      .cls-8 {
        fill: url(#Gradiente_sem_nome_3-8);
      }

      .cls-9 {
        fill: #f5f5f5;
      }

      .cls-10 {
        fill: url(#Gradiente_sem_nome_3);
      }

      .cls-11 {
        fill: #fefefe;
      }

      .cls-12 {
        fill: url(#Gradiente_sem_nome_3-4);
      }

      .cls-13 {
        fill: url(#Gradiente_sem_nome_18);
      }

      .cls-14 {
        fill: url(#Gradiente_sem_nome_18-2);
      }

      .cls-15 {
        fill: url(#Gradiente_sem_nome_3-6);
      }
    </style>
    <linearGradient id="Gradiente_sem_nome_18" data-name="Gradiente sem nome 18" x1="69.78" y1="200.61" x2="410.68" y2="200.61" gradientUnits="userSpaceOnUse">
      <stop offset="0" stop-color="#662c91"/>
      <stop offset="1" stop-color="#392c8d"/>
    </linearGradient>
    <linearGradient id="Gradiente_sem_nome_3" data-name="Gradiente sem nome 3" x1="69.78" y1="210.66" x2="375.86" y2="210.66" gradientUnits="userSpaceOnUse">
      <stop offset="0" stop-color="#fb74ab"/>
      <stop offset="1" stop-color="#662c91"/>
    </linearGradient>
    <linearGradient id="Gradiente_sem_nome_3-2" data-name="Gradiente sem nome 3" x1="157.7" y1="105.13" x2="210.27" y2="105.13" xlink:href="#Gradiente_sem_nome_3"/>
    <linearGradient id="Gradiente_sem_nome_3-3" data-name="Gradiente sem nome 3" x1="78.82" y1="157.71" x2="131.42" y2="157.71" xlink:href="#Gradiente_sem_nome_3"/>
    <linearGradient id="Gradiente_sem_nome_3-4" data-name="Gradiente sem nome 3" x1="13.14" y1="236.55" x2="65.71" y2="236.55" xlink:href="#Gradiente_sem_nome_3"/>
    <linearGradient id="Gradiente_sem_nome_3-5" data-name="Gradiente sem nome 3" x1="249.69" y1="65.71" x2="302.26" y2="65.71" xlink:href="#Gradiente_sem_nome_3"/>
    <linearGradient id="Gradiente_sem_nome_3-6" data-name="Gradiente sem nome 3" x1="341.69" y1="39.43" x2="394.25" y2="39.43" xlink:href="#Gradiente_sem_nome_3"/>
    <linearGradient id="Gradiente_sem_nome_3-7" data-name="Gradiente sem nome 3" x1="175.17" y1="534.79" x2="531.22" y2="534.79" xlink:href="#Gradiente_sem_nome_3"/>
    <linearGradient id="Gradiente_sem_nome_18-2" data-name="Gradiente sem nome 18" x1="175.17" y1="528.43" x2="491.79" y2="528.43" xlink:href="#Gradiente_sem_nome_18"/>
    <linearGradient id="Gradiente_sem_nome_3-8" data-name="Gradiente sem nome 3" x1="275.98" y1="525.67" x2="328.55" y2="525.67" xlink:href="#Gradiente_sem_nome_3"/>
  </defs>
  <g id="Camada_1-2" data-name="Camada 1">
    <g>
      <g>
        <path class="cls-11" d="M844.13,391.38h-40.8v-199.76c0-1.51-.3-2.72-.3-4.23-38.99,0-54.7,9.07-73.14,46.54v-57.12h184.35v57.42c-19.64-33.85-31.43-46.24-68.91-46.84-1.21,1.21-1.21,3.32-1.21,4.83v199.16Z"/>
        <path class="cls-11" d="M948.09,391.38v-214.57h91.57c13,0,64.37,8.16,67.7,46.24,3.02,38.08-58.33,49.26-74.65,65.58-9.07,9.37,5.74,24.48,25.69,41.1,24.48,20.55,50.47,43.52,55.91,61.65h-50.17l-39.59-39.59c-34.15-34.15-18.13-53.19,1.51-69.21,17.53-14.2,33.55-28.41,33.55-56.21,0-36.27-33.85-38.68-33.85-38.68h-33.85c-3.02,4.23-3.02,9.97-3.02,14.81v188.88h-40.8Z"/>
        <path class="cls-11" d="M1142.41,391.38v-214.57h40.8v214.57h-40.8ZM1191.37,103.37l25.08,23.88-58.03,38.68-3.32-3.32,36.27-59.23Z"/>
        <path class="cls-11" d="M1248.48,331.24c-11.48,34.15,2.42,55.61,10.28,60.14h-46.84l77.67-214.57h33.55l91.27,214.57h-48.35l-36.27-86.43h-72.53l-8.76,26.29ZM1325.55,294.98l-35.96-85.22-28.71,85.22h64.67Z"/>
        <path class="cls-11" d="M1441.59,391.38v-214.57h55.91c69.51,0,128.74,30.83,128.74,107.89s-58.63,106.68-128.74,106.68h-55.91ZM1497.5,380.81c57.12,0,80.99-44.43,80.99-96.1s-24.78-97.01-80.99-97.01h-13c-2.12,3.32-2.12,8.46-2.12,12.39v168.03c0,3.93,0,9.37,2.42,12.69h12.69Z"/>
        <path class="cls-11" d="M1705.42,368.11c0,4.23.3,9.37,3.02,12.69h38.99c35.06,0,39.29-7.86,58.63-37.17v47.75h-141.44v-214.57h141.44v44.73c-16.62-24.78-29.32-34.45-62.26-34.15l-35.36.3c-3.32,3.32-3.02,8.46-3.02,12.69v76.16h24.18c9.67,0,24.48-5.14,32.04-15.41h2.72v48.35h-1.51s-18.74-23.88-33.24-23.88h-24.18v82.5Z"/>
        <path class="cls-11" d="M1898.53,391.38v-214.57h55.91c69.51,0,128.74,30.83,128.74,107.89s-58.63,106.68-128.74,106.68h-55.91ZM1954.44,380.81c57.12,0,80.99-44.43,80.99-96.1s-24.78-97.01-80.99-97.01h-13c-2.12,3.32-2.12,8.46-2.12,12.39v168.03c0,3.93,0,9.37,2.42,12.69h12.69Z"/>
        <path class="cls-11" d="M2119.45,331.24c-11.48,34.15,2.42,55.61,10.28,60.14h-46.84l77.67-214.57h33.55l91.27,214.57h-48.35l-36.27-86.43h-72.53l-8.76,26.29ZM2196.51,294.98l-35.96-85.22-28.71,85.22h64.67Z"/>
        <path class="cls-11" d="M745.61,691.87v-214.57h91.57c13,0,64.37,8.16,67.7,46.24,3.02,38.08-58.33,49.26-74.65,65.58-9.07,9.37,5.74,24.48,25.69,41.1,24.48,20.55,50.47,43.52,55.91,61.65h-50.17l-39.59-39.59c-34.15-34.15-18.13-53.19,1.51-69.21,17.53-14.2,33.55-28.41,33.55-56.21,0-36.27-33.85-38.68-33.85-38.68h-33.85c-3.02,4.23-3.02,9.97-3.02,14.81v188.88h-40.8Z"/>
        <path class="cls-11" d="M955.34,631.73c-11.48,34.15,2.42,55.61,10.28,60.14h-46.84l77.67-214.57h33.55l91.27,214.57h-48.35l-36.27-86.43h-72.53l-8.76,26.29ZM1032.41,595.46l-35.96-85.22-28.71,85.22h64.67Z"/>
        <path class="cls-11" d="M1148.45,691.87v-214.57h40.8v214.57h-40.8Z"/>
        <path class="cls-11" d="M1249.69,558.29c0,50.17,16.02,104.26,32.34,133.58h-42.31v-214.57h37.17l136.9,158.36v-52.28c0-23.27-12.09-90.06-31.73-106.08h42.31v214.57h-13.9l-160.78-176.49v42.92Z"/>
        <path class="cls-11" d="M1515.33,692.17h-40.8v-214.88h40.8v98.82h95.2v-98.82h40.8v214.88h-40.8v-105.17l-95.2-.3v105.47Z"/>
        <path class="cls-11" d="M1716.61,631.73c-11.48,34.15,2.42,55.61,10.28,60.14h-46.84l77.67-214.57h33.55l91.27,214.57h-48.35l-36.27-86.43h-72.53l-8.76,26.29ZM1793.67,595.46l-35.96-85.22-28.71,85.22h64.67Z"/>
      </g>
      <g>
        <path class="cls-13" d="M142.06,336.83v-.13l-3.28-3.55-69-72.68c6.74-1.96,12.65-6.06,16.82-11.69,18.93-.26,39.56-6.97,41.27-34.56.32-12.39-1.64-24.72-5.78-36.4v-.13c.54-.37,1.03-.81,1.44-1.32,9.35,10.03,20.98,17.64,33.91,22.21,9.48,3.25,19.97,1.25,27.59-5.26,8.52-8.42,12.98-20.11,12.22-32.06-.09-10.63-1.41-21.21-3.94-31.54,3.54-1.38,6.73-3.54,9.33-6.3,10.49,11.41,23.18,20.57,37.32,26.94,7.73,3.77,16.9,3.02,23.92-1.97,7.34-5.81,12.78-13.68,15.64-22.6,3.63-11.28,5.1-23.14,4.34-34.96,2.02-.66,3.96-1.54,5.78-2.63,7.65,12.16,19.18,21.37,32.73,26.15,4.52,1.17,9.26,1.21,13.8.13,5.05-1.19,9.73-3.57,13.66-6.97,11.53-11.51,19.35-26.2,22.48-42.18,1.35-.15,2.67-.46,3.94-.92l34.43,118.01-268.62,154.42Z"/>
        <path class="cls-1" d="M86.6,248.77c-4.17,5.64-10.08,9.74-16.82,11.69l-8.67-9.07c1.05-1.52,1.94-3.15,2.63-4.86,7.53,1.52,15.19,2.27,22.87,2.23Z"/>
        <path class="cls-10" d="M375.86,196.86l-237.08,136.28-69-72.68c6.74-1.96,12.65-6.06,16.82-11.69,18.93-.26,39.56-6.97,41.27-34.56.32-12.39-1.64-24.72-5.78-36.4v-.13c.54-.37,1.03-.81,1.44-1.32,9.35,10.03,20.98,17.64,33.91,22.21,9.48,3.25,19.97,1.25,27.59-5.26,8.52-8.42,12.98-20.11,12.22-32.06-.09-10.63-1.41-21.21-3.94-31.54,3.54-1.38,6.73-3.54,9.33-6.3,10.49,11.41,23.18,20.57,37.32,26.94,7.73,3.77,16.9,3.02,23.92-1.97,7.34-5.81,12.78-13.68,15.64-22.6,3.63-11.28,5.1-23.14,4.34-34.96,2.02-.66,3.96-1.54,5.78-2.63,7.65,12.16,19.18,21.37,32.73,26.15,4.52,1.17,9.26,1.21,13.8.13,5.05-1.19,9.73-3.57,13.66-6.97l26.02,89.36Z"/>
        <g>
          <path class="cls-5" d="M210.27,105.13c.05,6.88-2.7,13.48-7.62,18.27-2.6,2.77-5.79,4.93-9.33,6.3-2.99,1.11-6.15,1.69-9.33,1.71-14.52,0-26.28-11.77-26.28-26.28s11.77-26.28,26.28-26.28,26.28,11.77,26.28,26.28Z"/>
          <path class="cls-6" d="M131.42,157.7c-.01,7.03-2.86,13.76-7.89,18.66-.42.51-.9.95-1.44,1.32v.13c-9.43,7.96-23.12,8.3-32.92.81-9.81-7.49-13.1-20.78-7.9-31.97,5.19-11.2,17.46-17.27,29.51-14.61,12.05,2.65,20.63,13.33,20.64,25.66Z"/>
          <path class="cls-12" d="M65.71,236.55c.02,3.42-.65,6.82-1.97,9.99-.69,1.71-1.58,3.34-2.63,4.86-7.35,10.73-21.42,14.47-33.12,8.81-11.71-5.66-17.51-19.02-13.67-31.44,3.85-12.42,16.19-20.15,29.04-18.21,12.85,1.95,22.35,12.99,22.35,25.99Z"/>
          <path class="cls-7" d="M302.26,65.71c-.07,9.16-4.83,17.64-12.62,22.47-1.82,1.09-3.76,1.97-5.78,2.63-2.55.8-5.21,1.2-7.89,1.19-14.52,0-26.28-11.77-26.28-26.28s11.77-26.28,26.28-26.28,26.28,11.77,26.28,26.28Z"/>
          <path class="cls-15" d="M394.25,39.43c-.07,11.3-7.3,21.33-18.01,24.97-1.27.46-2.59.77-3.94.92-1.43.26-2.88.4-4.34.4-14.52,0-26.28-11.77-26.28-26.28s11.77-26.28,26.28-26.28,26.28,11.77,26.28,26.28Z"/>
        </g>
        <path class="cls-3" d="M526.59,460.35c-51.78-46.92-49.94-131.02-46.52-166.37-12.91,3.84-26.36,5.53-39.82,4.99-5.75-.04-11.5-.39-17.22-1.05h-.13c-2.5-.26-3.94-.52-3.94-.52l-6.3,1.44-223.67,50.99,7.36,138.91c-9.6,9.46,31.81,52.17,23.92,57.96,2.2,29.83,2.15,59.79-.13,89.62-4.34,50.33-43.76,32.85-44.94,48.49-.05.71.04,1.43.26,2.11,2.89,6.7,24.97,1.05,52.43-1.45h.26c18.93-2.39,38.13-1.23,56.64,3.42,29.31,8.41,81.61,51.91,117.88,73.99,24.71,14.99,41.92,19.98,39.3-3.15-5.91-50.73-57.82-91.21-71.23-101.32-1.64-1.25-2.56-3.2-2.5-5.26v-44.29c-.02-2.12.99-4.13,2.71-5.38s3.94-1.59,5.96-.92c15.3,5.44,30.93,9.97,46.78,13.54h.13c16.83,3.68,32.73,5.13,39.43,0,17.22-13.14,1.71-42.84,31.14-76.22,16.5-19.17,28.85-41.54,36.28-65.71,1.49-5-.1-10.41-4.08-13.8Z"/>
        <path class="cls-14" d="M487.17,460.35c-49.55-44.81-49.94-123.66-46.92-161.38.13-1.84.26-3.42.4-4.99-5.75,1.84-11.63,3.16-17.61,3.94h-.13c-3.54.4-6.96.79-10.24.92l-223.67,50.99,7.36,138.91c-9.6,9.46,31.81,52.17,23.92,57.96,2.2,29.83,2.15,59.79-.13,89.62-4.34,50.33-43.76,32.85-44.94,48.49-.05.71.04,1.43.26,2.11,17.35-2.62,34.96-3.11,52.43-1.45h.26c18.93-2.39,38.13-1.23,56.64,3.42,29.31,8.41,81.61,51.91,117.88,73.99.08-1.05.04-2.11-.13-3.15-5.91-50.73-57.82-91.21-71.23-101.32-1.63-1.25-2.56-3.2-2.5-5.26v-44.29c-.02-2.12.99-4.13,2.71-5.38s3.94-1.59,5.96-.92c7.36,2.63,18.66,6.3,30.75,9.6,21.95,6.04,46.52,10.64,55.46,3.94h.13c17.22-13.14,1.71-42.84,31.15-76.22,16.5-19.17,28.85-41.54,36.27-65.71,1.5-5-.1-10.41-4.07-13.8Z"/>
        <path class="cls-2" d="M480.07,293.98c-6.55,2.04-13.28,3.45-20.1,4.21-5.5.62-11.03.93-16.56.92-8.18.02-16.34-.55-24.44-1.71h-1.97c-.22,5.73-1.28,11.4-3.15,16.82-5.78,16.3-20.63,31.15-54.27,35.48-3.02.4-6.31.66-9.73.92h-.26c.61,1.53,1.09,3.12,1.44,4.73,2.31,6.89,3.33,14.16,3.03,21.42-1.19,15.9-11.17,32.06-46.92,33.38-15.68.25-31.33-1.3-46.65-4.6v.13c-1.47,6.58-2.48,13.25-3.03,19.97-.26,2.05-.39,4.11-.39,6.18-.26,22.47,7.75,44.16,45.2,30.36v6.05l-55.85,55.85c-8.16,8.16-16.9,15.71-26.15,22.61-11.32,10.04-25.87,15.68-41,15.9-29.57-2.89-31.41-49.28-31.41-49.28-82.92-23.79-16.42-77.14-16.42-77.14-59.14-48.49,10.64-99.35,10.64-99.35,71.43-54.84,148.8-101.48,230.64-139.04h.13c24.18-10.77,37.85-15.38,37.85-15.38,0,0,91.21-8.28,101.06,61.51,2.5,10.85.56,22.24-5.39,31.64-5.95,9.41-15.41,16.04-26.28,18.43Z"/>
        <path class="cls-9" d="M459.96,298.19c-5.85,5.25-12.82,9.11-20.37,11.3-8.37,2.59-17.02,4.17-25.76,4.73-3.81.26-7.49.4-10.91.4-8.18.02-16.34-.55-24.44-1.71h-1.97c-.04,14.14-6.23,27.57-16.95,36.79-2.62,2.21-5.48,4.11-8.54,5.65-12.89,6.7-27.14,10.39-41.66,10.77h-.26c3.21,8.34,4.73,17.22,4.47,26.15-.28,6.47-2.53,12.71-6.44,17.87-7.36,9.46-22.08,16.43-49.68,15.51-10.51-.26,6.7,10.91-7.75,8.02v13.14c-1.58,7.1,13.41-8.93,13.14.53-.26,22.47-5.39,26.41,32.07,12.62v23.79l-84.64,68.2c-9.6,9.46-22.61,4.47-30.49,10.25-.13.13-.4.26-.53.4-29.57-2.89-31.41-49.28-31.41-49.28-82.92-23.79-16.42-77.14-16.42-77.14-59.14-48.49,10.64-99.35,10.64-99.35,71.43-54.84,148.8-101.48,230.64-139.04h.13c15.12-.79,89.63-1.05,98.44,61.64,3.16,14-1.11,28.65-11.3,38.77Z"/>
        <path class="cls-8" d="M328.55,525.67c0,14.52-11.77,26.28-26.29,26.28s-26.28-11.77-26.28-26.28,11.77-26.28,26.28-26.28,26.29,11.77,26.29,26.28Z"/>
        <path class="cls-4" d="M433.08,788.8c-17.32,0-41.73-16.54-80.47-43.89-25.59-18.07-54.59-38.54-71.46-43.4-23.99-4.97-48.72-5.14-72.77-.51-20.54,2.67-32.91,4.28-41.02-3.32-3.77-3.54-5.71-8.6-5.28-13.75,1.14-15.14,15.03-18.67,22.5-20.56,11.44-2.91,20.48-5.2,22.47-28.19,2.26-29.14,2.29-58.41.11-87.55-.34-4.68,1.85-9.19,5.74-11.82,3.89-2.63,8.89-3,13.11-.94,4.23,2.05,7.04,6.2,7.38,10.88,2.27,30.51,2.23,61.16-.14,91.67-.43,13-5.07,25.51-13.2,35.65,22.81-3.38,46.05-2.29,68.44,3.19,21.1,6.08,50.7,26.97,79.31,47.18,19.08,14.7,39.55,27.52,61.11,38.25l-.05-.44c-4.86-42.1-47.8-78.66-66.04-92.42-4.92-3.71-7.8-9.52-7.76-15.68v-44.35c0-6.39,3.09-12.38,8.31-16.07,5.21-3.7,11.89-4.64,17.92-2.53,45.01,15.78,69.45,17.71,74.28,15.25,2.71-2.09,3.59-6.58,5.02-17.06,1.58-21.17,9.99-41.26,23.97-57.22,15.28-17.77,26.72-38.5,33.61-60.9-56.71-51.29-54.66-141.25-51.16-177.54.45-4.67,3.36-8.75,7.63-10.7s9.26-1.47,13.08,1.26,5.9,7.29,5.45,11.96c-3.12,32.36-5.23,112.27,42.28,155.35,7.78,6.83,10.84,17.58,7.83,27.48-8.01,25.95-21.3,49.97-39.04,70.53-10.53,12.1-16.72,27.36-17.61,43.37,0,13.18-5.59,25.74-15.38,34.56-4.93,3.76-19.51,14.93-89.91-8.53v31.91c26.27,20.31,68.02,59.72,73.63,108.34,2.76,10.41-1.36,21.42-10.27,27.47-3.51,2.08-7.53,3.14-11.6,3.08Z"/>
        <path class="cls-4" d="M182.18,575.87c-5.14.02-10.24-.93-15.02-2.82-22.41-8.89-29.37-35.29-31.52-49.8-24.44-8.61-38.51-21.43-41.87-38.18-1.7-18.29,5.16-36.32,18.58-48.86-11.62-11.75-18.04-27.66-17.82-44.18,1.05-37.18,38.24-64.74,39.82-65.89,152.82-115.36,267.34-154.63,272.14-156.25.97-.32,1.99-.54,3.01-.63,35.81-3.24,106.03,7.83,115.22,72.86,3.66,17.82-1.76,36.31-14.47,49.32-28.8,28.26-86.89,19.92-93.44,18.87-7.17-1.14-12.06-7.88-10.91-15.05,1.14-7.17,7.88-12.05,15.05-10.91,14.16,2.25,54.48,4.48,70.91-11.7,6.6-7.27,9.16-17.34,6.83-26.88-7.49-53.05-74.01-51.2-85.29-50.47-13.87,4.99-123.29,46.17-263.38,151.94-8.06,5.93-28.7,25.47-29.21,45.6.66,13.43,7.7,25.75,18.94,33.13,3.07,2.51,4.84,6.27,4.81,10.23-.02,3.96-1.82,7.7-4.91,10.18-7.53,6.1-22.37,22.34-20.09,33.52,1.61,7.98,12.95,15.36,31.91,20.81,5.45,1.56,9.28,6.44,9.5,12.1.45,9.79,4.9,31.47,15.9,35.79,5.53,2.16,22.48,3.23,60.32-33.97,5.19-5.01,13.45-4.9,18.5.25,5.06,5.14,5.02,13.4-.08,18.5-28.94,28.44-53.14,42.48-73.43,42.48Z"/>
        <path class="cls-4" d="M337.98,364.19c-4.07,0-8.27-.11-12.59-.34-4.75-.17-9.03-2.88-11.21-7.1s-1.91-9.28.69-13.25c2.61-3.96,7.15-6.22,11.89-5.9,35.88,1.84,60.3-4.96,70.68-19.79,13.91-19.85,1.28-50.32,1.15-50.62-2.86-6.67.22-14.4,6.89-17.27,6.67-2.86,14.4.22,17.26,6.89.76,1.78,18.55,44-3.67,75.92-14.54,20.9-41.8,31.46-81.1,31.46Z"/>
        <path class="cls-4" d="M302.64,423.4c-15.02-.23-29.98-1.88-44.68-4.95-7.79-1.47-16.34-3.37-25.42-5.68-7.04-1.78-11.29-8.93-9.5-15.97,1.79-7.03,8.94-11.29,15.97-9.5,8.52,2.16,16.54,3.94,23.92,5.34,51.69,10.08,68.44.91,73.82-5.45,7.81-9.21,2.97-25.43.52-31.97-2.54-6.8.92-14.37,7.72-16.9,6.8-2.54,14.37.92,16.91,7.72,5.04,13.52,11.09,39.05-5.1,58.15-10.88,12.84-28.76,19.22-54.15,19.22Z"/>
        <path class="cls-4" d="M281.63,479.71c-8.15.22-16.12-2.38-22.58-7.35-18.87-14.77-16.62-46.03-11.42-69.64,1.01-4.58,4.39-8.28,8.87-9.7,4.48-1.42,9.37-.34,12.83,2.83,3.47,3.17,4.98,7.95,3.96,12.53-5.42,24.59-2.92,39.46,1.97,43.28,1.82,1.43,9.67,5.14,33.79-6.77,6.49-3.1,14.26-.41,17.45,6.04,3.18,6.44.6,14.26-5.81,17.52-12.01,6.64-25.36,10.49-39.06,11.26Z"/>
        <path class="cls-4" d="M167.03,213.21c-20.57-1.9-39.56-11.82-52.86-27.62-3.37-3.33-4.69-8.21-3.46-12.78,1.24-4.57,4.84-8.13,9.43-9.3s9.46.21,12.74,3.63c6.68,6.78,29.62,28,43.68,16.13,8.41-7.04,9.84-25.45,3.95-50.55-1.66-7.07,2.73-14.14,9.79-15.8,7.06-1.66,14.14,2.73,15.8,9.79,8.6,36.67,4.34,62.47-12.64,76.68-7.34,6.36-16.73,9.84-26.43,9.82Z"/>
        <path class="cls-4" d="M85.18,261.92c-8.06-.06-16.09-.89-23.99-2.48-4.61-.91-8.37-4.21-9.89-8.66-1.51-4.45-.54-9.36,2.56-12.89s7.83-5.15,12.44-4.24c20.47,4.05,36.68,1.94,43.45-5.61,7-7.83,6.93-23.82-.19-46.26-.41-1.28-.61-2.62-.61-3.96-.02-6.68,4.96-12.33,11.6-13.11,6.64-.78,12.81,3.53,14.35,10.04,9.91,31.79,8.04,55.62-5.56,70.82-11.71,11.5-27.78,17.45-44.16,16.36Z"/>
        <path class="cls-4" d="M251.29,165.86c-14.03,0-33-8.04-57.97-33.2-5.01-5.17-4.93-13.4.17-18.47s13.34-5.1,18.47-.05c19.71,19.85,36.96,29.19,43.89,23.82,14.91-11.3,15.37-36.31,14.88-46.52-.35-7.25,5.25-13.41,12.5-13.76s13.41,5.25,13.76,12.5c.85,17.87-1.29,50.54-25.16,68.66-5.85,4.59-13.1,7.06-20.54,7.01Z"/>
        <path class="cls-4" d="M410.68,195.55c-5.84,0-10.97-3.86-12.61-9.46l-34.44-118.01c-2.03-6.97,1.97-14.26,8.94-16.3,6.97-2.03,14.26,1.97,16.3,8.94l34.43,118.01c1.15,3.97.37,8.25-2.11,11.56-2.48,3.3-6.37,5.25-10.5,5.26Z"/>
        <path class="cls-4" d="M329.4,128.4c-13.93,0-31.9-6.88-50.41-32.52-2.75-3.81-3.26-8.8-1.34-13.08s5.99-7.22,10.66-7.69c4.67-.48,9.24,1.58,11.99,5.38,6.64,9.22,19.74,24.19,32.89,21.18,16.46-3.78,24.32-31.16,26.34-39.45,1.11-4.56,4.57-8.18,9.07-9.5,4.51-1.32,9.37-.14,12.77,3.1,3.39,3.24,4.8,8.05,3.69,12.62-4.64,19.1-16.8,52.15-45.97,58.85-3.18.75-6.44,1.12-9.72,1.12Z"/>
        <path class="cls-4" d="M142.06,349.83c-3.6,0-7.05-1.47-9.53-4.09l-80.95-85.29c-3.33-3.39-4.58-8.31-3.26-12.87,1.32-4.57,5-8.06,9.63-9.14,4.63-1.08,9.47.42,12.69,3.92l80.95,85.29c3.62,3.81,4.61,9.4,2.54,14.23-2.08,4.82-6.82,7.95-12.07,7.95Z"/>
        <path class="cls-4" d="M183.99,144.56c-21.78,0-39.43-17.65-39.43-39.43s17.65-39.42,39.43-39.42,39.42,17.65,39.42,39.42c-.02,21.77-17.66,39.4-39.42,39.43ZM183.99,91.99c-7.26,0-13.14,5.88-13.14,13.14s5.88,13.14,13.14,13.14,13.14-5.88,13.14-13.14c0-7.26-5.88-13.13-13.14-13.14Z"/>
        <path class="cls-4" d="M105.13,197.13c-21.77,0-39.42-17.65-39.42-39.43s17.65-39.42,39.42-39.42,39.43,17.65,39.43,39.42c-.02,21.77-17.66,39.4-39.43,39.43ZM105.13,144.56c-7.26,0-13.14,5.88-13.14,13.14s5.88,13.14,13.14,13.14,13.14-5.88,13.14-13.14c-.01-7.25-5.89-13.13-13.14-13.14Z"/>
        <path class="cls-4" d="M39.43,275.98c-21.78,0-39.43-17.65-39.43-39.42s17.65-39.43,39.43-39.43,39.42,17.65,39.42,39.43c-.02,21.76-17.66,39.4-39.42,39.42ZM39.43,223.41c-7.26,0-13.14,5.88-13.14,13.14s5.88,13.14,13.14,13.14,13.14-5.88,13.14-13.14c0-7.26-5.88-13.13-13.14-13.14Z"/>
        <path class="cls-4" d="M275.98,105.13c-21.77,0-39.42-17.65-39.42-39.42s17.65-39.43,39.42-39.43,39.43,17.65,39.43,39.43c-.02,21.76-17.66,39.4-39.43,39.42ZM275.98,52.57c-7.26,0-13.14,5.88-13.14,13.14s5.88,13.14,13.14,13.14,13.14-5.88,13.14-13.14c-.01-7.26-5.89-13.13-13.14-13.14Z"/>
        <path class="cls-4" d="M367.97,78.85c-21.77,0-39.42-17.65-39.42-39.42S346.2,0,367.97,0s39.43,17.65,39.43,39.43c-.02,21.76-17.66,39.4-39.43,39.42ZM367.97,26.28c-7.26,0-13.14,5.88-13.14,13.14s5.88,13.14,13.14,13.14,13.14-5.88,13.14-13.14c-.01-7.26-5.89-13.13-13.14-13.14Z"/>
        <path class="cls-4" d="M302.26,512.53c-7.26,0-13.14-5.88-13.14-13.14v-37.19c0-7.26,5.88-13.14,13.14-13.14s13.14,5.88,13.14,13.14v37.19c0,7.26-5.88,13.14-13.14,13.14Z"/>
        <path class="cls-4" d="M302.26,565.1c-21.77,0-39.42-17.65-39.42-39.43s17.65-39.42,39.42-39.42,39.43,17.65,39.43,39.42c-.02,21.77-17.66,39.4-39.43,39.43ZM302.26,512.53c-7.26,0-13.14,5.88-13.14,13.14s5.88,13.14,13.14,13.14,13.14-5.88,13.14-13.14c-.01-7.26-5.89-13.13-13.14-13.14Z"/>
      </g>
    </g>
  </g>
</svg>