<?xml version="1.0" encoding="UTF-8"?>
<svg id="Camada_2" data-name="Camada 2" xmlns="http://www.w3.org/2000/svg" xmlns:xlink="http://www.w3.org/1999/xlink" viewBox="0 0 1698.79 587.74">
  <defs>
    <style>
      .cls-1 {
        fill: url(#Gradiente_sem_nome_3-7);
      }

      .cls-2 {
        fill: url(#Gradiente_sem_nome_3-2);
      }

      .cls-3 {
        fill: url(#Gradiente_sem_nome_3-3);
      }

      .cls-4 {
        fill: url(#Gradiente_sem_nome_3-5);
      }

      .cls-5 {
        fill: #212121;
      }

      .cls-6 {
        fill: none;
        stroke: #111;
        stroke-linecap: round;
        stroke-linejoin: round;
        stroke-width: 10.07px;
      }

      .cls-7 {
        fill: url(#Gradiente_sem_nome_3-9);
      }

      .cls-8 {
        fill: url(#Gradiente_sem_nome_3-8);
      }

      .cls-9 {
        fill: #321b41;
      }

      .cls-10 {
        fill: url(#Gradiente_sem_nome_3);
      }

      .cls-11 {
        fill: url(#Gradiente_sem_nome_3-4);
      }

      .cls-12 {
        fill: url(#Gradiente_sem_nome_3-10);
      }

      .cls-13 {
        fill: url(#Gradiente_sem_nome_18-3);
      }

      .cls-14 {
        fill: url(#Gradiente_sem_nome_18-4);
      }

      .cls-15 {
        fill: url(#Gradiente_sem_nome_18);
      }

      .cls-16 {
        fill: url(#Gradiente_sem_nome_18-2);
      }

      .cls-17 {
        fill: url(#Gradiente_sem_nome_3-6);
      }
    </style>
    <linearGradient id="Gradiente_sem_nome_3" data-name="Gradiente sem nome 3" x1="51.62" y1="172.75" x2="262.64" y2="172.75" gradientUnits="userSpaceOnUse">
      <stop offset="0" stop-color="#fb74ab"/>
      <stop offset="1" stop-color="#662c91"/>
    </linearGradient>
    <linearGradient id="Gradiente_sem_nome_3-2" data-name="Gradiente sem nome 3" x1="325.04" y1="174.46" x2="541.18" y2="174.46" xlink:href="#Gradiente_sem_nome_3"/>
    <linearGradient id="Gradiente_sem_nome_3-3" data-name="Gradiente sem nome 3" x1="411.7" y1="253.47" x2="541.37" y2="253.47" xlink:href="#Gradiente_sem_nome_3"/>
    <linearGradient id="Gradiente_sem_nome_3-4" data-name="Gradiente sem nome 3" x1="325.01" y1="294.97" x2="415.19" y2="294.97" xlink:href="#Gradiente_sem_nome_3"/>
    <linearGradient id="Gradiente_sem_nome_3-5" data-name="Gradiente sem nome 3" x1="51.45" y1="253.49" x2="180.97" y2="253.49" xlink:href="#Gradiente_sem_nome_3"/>
    <linearGradient id="Gradiente_sem_nome_3-6" data-name="Gradiente sem nome 3" x1="177.72" y1="295.02" x2="262.16" y2="295.02" xlink:href="#Gradiente_sem_nome_3"/>
    <linearGradient id="Gradiente_sem_nome_18" data-name="Gradiente sem nome 18" x1="5.03" y1="294" x2="274.41" y2="294" gradientUnits="userSpaceOnUse">
      <stop offset="0" stop-color="#662c91"/>
      <stop offset="1" stop-color="#392c8d"/>
    </linearGradient>
    <linearGradient id="Gradiente_sem_nome_3-7" data-name="Gradiente sem nome 3" x1="36.37" y1="462.11" x2="215.33" y2="462.11" xlink:href="#Gradiente_sem_nome_3"/>
    <linearGradient id="Gradiente_sem_nome_3-8" data-name="Gradiente sem nome 3" x1="150.35" y1="408.95" x2="255.81" y2="408.95" xlink:href="#Gradiente_sem_nome_3"/>
    <linearGradient id="Gradiente_sem_nome_18-2" data-name="Gradiente sem nome 18" x1="67.23" y1="487.02" x2="134.94" y2="487.02" xlink:href="#Gradiente_sem_nome_18"/>
    <linearGradient id="Gradiente_sem_nome_18-3" data-name="Gradiente sem nome 18" x1="312.99" y1="293.95" x2="582.93" y2="293.95" xlink:href="#Gradiente_sem_nome_18"/>
    <linearGradient id="Gradiente_sem_nome_3-9" data-name="Gradiente sem nome 3" x1="373.57" y1="462.17" x2="552.43" y2="462.17" xlink:href="#Gradiente_sem_nome_3"/>
    <linearGradient id="Gradiente_sem_nome_3-10" data-name="Gradiente sem nome 3" x1="332.91" y1="408.99" x2="438.33" y2="408.99" xlink:href="#Gradiente_sem_nome_3"/>
    <linearGradient id="Gradiente_sem_nome_18-4" data-name="Gradiente sem nome 18" x1="454.12" y1="484.45" x2="521.51" y2="484.45" xlink:href="#Gradiente_sem_nome_18"/>
  </defs>
  <g id="Camada_1-2" data-name="Camada 1">
    <g>
      <g>
        <g>
          <g>
            <path d="M824.76,218.99l-60.27-128.05v45.05c0,17.31,4.17,54.43,22.32,81.13h-29.2V69.04h27.32l52.76,113.25,47.76-113.25h25.03l1.46,148.08h-28.57v-123.67l-52.35,125.55h-6.26Z"/>
            <path d="M956.77,175.61c-7.93,23.57,1.67,38.38,7.09,41.5h-32.33l53.6-148.08h23.15l62.98,148.08h-33.37l-25.03-59.65h-50.05l-6.05,18.14ZM1009.95,150.59l-24.82-58.81-19.81,58.81h44.63ZM1034.56,34.21c0,9.38-3.55,24.4-16.27,24.4-8.13,0-18.56-10.22-25.24-11.26h-.83c-3.34,0-8.76,1.46-13.14,10.43h-1.46c0-10.64,3.34-25.65,15.85-25.65,8.13,0,21.06,11.47,28.99,11.47,3.13,0,8.76-2.92,10.64-9.38h1.46Z"/>
            <path d="M1170.11,66.96c43.8,0,76.54,32.33,76.54,76.12s-32.95,76.12-76.54,76.12-76.75-32.33-76.75-76.12,32.74-76.12,76.75-76.12ZM1185.96,208.36c4.17,0,8.13-.83,12.1-2.5,21.9-9.59,26.7-43.8,10.64-79.88-13.35-30.03-35.04-48.38-54.43-48.38-4.17,0-8.34.83-12.1,2.5-22.32,10.01-26.9,43.8-10.84,80.09,13.35,29.82,35.04,48.18,54.64,48.18Z"/>
            <path d="M1293.16,172.28c.21,21.9,9.38,40.67,31.08,40.67,12.93,0,31.49-4.8,31.49-20.86,0-36.29-89.89-35.25-89.89-86.55,0-31.28,35.46-38.58,60.27-38.58,28.16,0,56.73,8.97,58.81,42.34h-31.7c-.42-17.73-5.63-36.08-27.74-36.08-16.06,0-28.78,8.55-28.78,25.65,0,32.54,90.51,37.12,90.51,82.17,0,20.86-30.24,38.17-63.4,38.17-30.66,0-61.32-11.47-62.36-46.93h31.7Z"/>
            <path d="M1447.27,217.12V69.04h38.58c47.97,0,88.85,21.27,88.85,74.45s-40.46,73.62-88.85,73.62h-38.58ZM1485.86,209.82c39.42,0,55.89-30.66,55.89-66.32s-17.1-66.95-55.89-66.95h-8.97c-1.46,2.29-1.46,5.84-1.46,8.55v115.96c0,2.71,0,6.46,1.67,8.76h8.76Z"/>
            <path d="M1629.34,201.06c0,2.92.21,6.46,2.09,8.76h26.9c24.19,0,27.11-5.42,40.46-25.65v32.95h-97.6V69.04h97.6v30.87c-11.47-17.1-20.23-23.78-42.96-23.57l-24.4.21c-2.29,2.29-2.09,5.84-2.09,8.76v52.56h16.68c6.67,0,16.89-3.54,22.11-10.64h1.88v33.37h-1.04s-12.93-16.48-22.94-16.48h-16.68v56.94Z"/>
          </g>
          <g>
            <path d="M757.44,472.14v-222.8h146.86v46.44c-17.26-25.73-30.44-35.77-64.64-35.46l-36.71.31c-3.45,3.45-3.14,8.79-3.14,13.18v79.08h25.1c10.04,0,25.42-5.33,33.26-16h2.82v50.21h-1.57s-19.46-24.79-34.52-24.79h-25.1v109.83h-42.36Z"/>
            <path d="M919.98,409.69c-11.92,35.46,2.51,57.74,10.67,62.45h-48.64l80.65-222.8h34.83l94.77,222.8h-50.21l-37.66-89.75h-75.31l-9.1,27.3ZM1000,372.03l-37.34-88.49-29.81,88.49h67.15Z"/>
            <path d="M1120.49,472.14v-222.8h58.05c72.17,0,133.68,32.01,133.68,112.03s-60.88,110.77-133.68,110.77h-58.05ZM1178.55,461.15c59.31,0,84.1-46.13,84.1-99.79s-25.73-100.73-84.1-100.73h-13.49c-2.2,3.45-2.2,8.79-2.2,12.87v174.47c0,4.08,0,9.73,2.51,13.18h13.18Z"/>
            <path d="M1349.87,409.69c-11.92,35.46,2.51,57.74,10.67,62.45h-48.64l80.65-222.8h34.83l94.77,222.8h-50.21l-37.66-89.75h-75.31l-9.1,27.3ZM1429.89,372.03l-37.34-88.49-29.81,88.49h67.15Z"/>
          </g>
        </g>
        <g>
          <g>
            <path class="cls-10" d="M262.16,218.67c.83,19.16.37,38.33.21,58.78-2.12-.18-3.7-1.05-6.13-2.45l-186.33-107.54c-10.94-6.32-18.04-17.45-18.09-29.91l-.2-51.73c-.03-8.19,5.89-13.65,11.73-16.09,7.46-3.1,13.81-1.86,20.07,3.25l178.74,145.69Z"/>
            <path class="cls-2" d="M325.04,281.22v-58.37s186.71-151.85,186.71-151.85c5.92-4.81,13.09-3.7,19.1-.79,5.06,2.45,10.18,7.61,10.2,14.44l.14,50.39c.04,13.65-6.86,25.97-18.98,32.93l-197.16,113.24Z"/>
          </g>
          <g>
            <path class="cls-9" d="M301.93,108.59c5.52,1.12,14.27,5.84,18.53,9.02,6.59,4.93,10.52,13.15,13.32,19.71,2.93,6.86.47,12.19.1,17.62-.95,13.95-9.04,24.01-20.89,31.71,8.32,7.14,11.42,15.45,11.73,25.52l.33,10.68v58.37c-.02,8.79-.63,16.32-.05,23.9.29,3.79.06,6.81.05,9.39l-.54,117.31c-.02,5.14-2.96,12.15-5.28,15.94-7.63,7.77-18.46,13.08-28.58,11.68-9.44-1.3-15.92-6.28-22.2-11.68-3.44-6.66-5.72-12.8-5.76-20.32l-.57-112.89c-.02-4.42-.26-9.3.04-13.1.68-8.81.15-16.41.21-23.99.16-20.45.63-39.61-.21-58.78-.57-13.08,2.33-23.55,12.25-32.71-11.77-7.15-19.75-18.55-21.77-32.05-2.21-14.71,5.03-27.3,14.77-36.35,4.92-4.57,12.94-7.37,18.56-8.99,4.71-1.36,12.3-.72,15.97.02Z"/>
            <path class="cls-5" d="M320.46,117.61c-4.25-3.18-13.01-7.9-18.53-9.02,7.07-35.92,24.78-69.78,47.3-99.03,4.41-5.74,11.08-5.57,15.35-1.81,5.28,4.64,4.48,10.14.23,15.84-15.29,20.46-27.96,42.22-35.68,66.63l-8.67,27.4Z"/>
            <path class="cls-5" d="M285.96,108.57c-5.62,1.62-13.64,4.42-18.56,8.99-8.81-34.11-23.11-66.26-44.9-94.71-4.22-5.51-3.39-11.63,1.56-15.68,4.54-3.72,11.09-2.49,15.25,3.08,21.88,29.31,39.75,62.72,46.65,98.33Z"/>
          </g>
          <g>
            <path class="cls-3" d="M444.16,300.83l-28.26-28.29c-3.15-3.15-4.64-7.27-4.1-11.18.55-4.04,2.68-7.6,6.8-9.97l100.65-57.68c5.18-2.97,11.23.01,14.86,2.49,4.85,3.32,7.2,8.34,7.2,14.58l.05,38.77c.04,36.09-28.79,66.25-64.94,64.87-12.43-.47-23.38-4.69-32.27-13.59Z"/>
            <path class="cls-11" d="M325.06,314.51c.01-2.58.24-5.6-.05-9.39l48.63-27.53c6.98-3.95,15.5-2.41,20.97,3.09l18.58,18.67c2.92,2.93,2.2,7.29.55,10.46-1.67,3.2-4.87,4.76-9.32,4.75l-79.37-.05Z"/>
          </g>
          <g>
            <path class="cls-4" d="M148.85,300.6c-8.87,8.9-19.61,13.22-32.12,13.81-34.48,1.62-65.05-26.17-65.16-60.81l-.12-42.81c-.02-5.95,2.13-10.88,6.58-14.17,3.94-2.9,10.27-5.96,15.86-2.75l100.49,57.69c4.05,2.33,6.02,5.95,6.44,9.25.58,4.52-.63,8.34-3.81,11.53l-28.18,28.25Z"/>
            <path class="cls-17" d="M262.16,301.44c-.29,3.8-.06,8.68-.04,13.1l-74.67.12c-4.4,0-7.57-2.87-8.66-5.39-1.58-3.66-1.59-7.58,1.09-10.25l18.61-18.55c5.59-5.57,13.85-6.69,20.85-2.81l42.81,23.78Z"/>
          </g>
          <g>
            <path class="cls-15" d="M252.63,153.91c2.03,13.49,10,24.9,21.77,32.05-9.92,9.16-12.82,19.63-12.25,32.71L83.43,72.98c-6.26-5.1-12.61-6.35-20.07-3.25-5.85,2.43-11.77,7.89-11.73,16.09l.2,51.73c.05,12.47,7.14,23.59,18.09,29.91l186.33,107.54c2.43,1.4,4.01,2.27,6.13,2.45-.06,7.58.48,15.18-.21,23.99l-42.81-23.78c-7-3.89-15.26-2.77-20.85,2.81l-18.61,18.55c-2.68,2.67-2.67,6.59-1.09,10.25,1.09,2.52,4.26,5.4,8.66,5.39l74.67-.12.57,112.89c.04,7.52,2.33,13.66,5.76,20.32l-24.8,58.74c-7.01,16.6-16.93,29.77-29.86,42.24-25.93,25.02-60.7,36.71-96.98,33.4-33.49-3.06-60.76-18.63-82.68-43.79-38.12-43.75-39.21-113.17-.87-158.03,18.72-21.91,41.99-39.87,70.39-42.98l20-2.19c-31.16-3.03-59.34,7.66-87.99-15.53-15.5-12.55-29.82-31.54-29.86-53.49l-.44-214.41c-.04-19.73,20.38-43.42,43.53-45.99,16.14-1.79,30.35,1.83,42.73,12.36l159.39,135.63c.59,1.44,1.58,1.48,1.61.19ZM148.85,300.6l28.18-28.25c3.18-3.19,4.39-7.01,3.81-11.53-.42-3.3-2.39-6.92-6.44-9.25l-100.49-57.69c-5.6-3.21-11.92-.16-15.86,2.75-4.45,3.28-6.6,8.22-6.58,14.17l.12,42.81c.1,34.64,30.68,62.42,65.16,60.81,12.51-.59,23.24-4.92,32.12-13.81ZM253.66,400.3c3.71-8.93,2.48-17.22-2.7-24.39-4.64-6.42-11.73-10.07-20.98-10.03l-69.14.28c-5.37.02-8.56,4.92-9.8,8.63-1.59,4.74-.38,9.21,3.37,12.98l59.73,60.03c3.57,3.59,7.49,5.04,12.52,3.8,2.81-.69,6.93-2.95,8.61-6.99l18.41-44.31ZM211.66,500.79c5.75-10.69,4.87-21.48-3.56-29.89l-91.11-90.96c-7.5-7.49-18.19-9.36-27.6-4.77-24.84,12.11-43.76,34.35-50.25,61.32-7.33,30.43.08,61.05,20.29,83.88,19.52,22.06,48.36,33.5,78.94,30.77,31.55-2.82,58.18-22.23,73.3-50.34Z"/>
            <g>
              <path class="cls-1" d="M211.66,500.79c-15.12,28.11-41.75,47.53-73.3,50.34-30.59,2.73-59.42-8.71-78.94-30.77-20.21-22.83-27.62-53.45-20.29-83.88,6.5-26.97,25.41-49.21,50.25-61.32,9.41-4.59,20.1-2.72,27.6,4.77l91.11,90.96c8.42,8.41,9.31,19.2,3.56,29.89ZM134.94,487.02c0-18.7-15.16-33.86-33.86-33.86s-33.86,15.16-33.86,33.86,15.16,33.86,33.86,33.86,33.86-15.16,33.86-33.86Z"/>
              <path class="cls-8" d="M253.66,400.3l-18.41,44.31c-1.68,4.04-5.8,6.3-8.61,6.99-5.03,1.24-8.95-.21-12.52-3.8l-59.73-60.03c-3.75-3.77-4.95-8.24-3.37-12.98,1.24-3.71,4.43-8.61,9.8-8.63l69.14-.28c9.25-.04,16.34,3.62,20.98,10.03,5.18,7.17,6.41,15.46,2.7,24.39Z"/>
              <circle class="cls-16" cx="101.08" cy="487.02" r="33.86"/>
            </g>
            <g>
              <path class="cls-13" d="M319.24,447.76c2.32-3.79,5.26-10.81,5.28-15.94l.54-117.31,79.37.05c4.45,0,7.65-1.55,9.32-4.75,1.65-3.17,2.37-7.53-.55-10.46l-18.58-18.67c-5.48-5.5-14-7.04-20.97-3.09l-48.63,27.53c-.58-7.58.03-15.11.03-23.9l197.16-113.24c12.11-6.96,19.01-19.27,18.98-32.93l-.14-50.39c-.02-6.83-5.14-11.99-10.2-14.44-6-2.91-13.18-4.02-19.1.79l-186.7,151.85-.33-10.68c-.31-10.07-3.41-18.38-11.73-25.52,11.85-7.7,19.94-17.76,20.89-31.71,1.75.11,2.72-.84,4.52-2.37L493.39,20.6c13.51-11.5,27.58-17.24,45.72-14.91,23.02,2.96,43.46,25.8,43.42,46l-.45,214.44c-.05,21.95-14.35,40.94-29.86,53.48-28.22,22.83-55.63,12.8-87.97,15.43l25.56,3.49c16.49,2.25,43.63,19.72,56.88,33.47,3.1,3.21,6.25,5.96,9.19,9.58,37.82,46.7,35.73,115.21-4.62,159.6-21.65,23.82-49.44,38.66-81.49,41.11-35.95,2.74-70-8.8-95.68-33.58-12.9-12.45-22.98-25.58-29.85-42.23-8.27-20.05-15.79-39.86-24.99-58.74ZM444.16,300.83c8.89,8.91,19.84,13.12,32.27,13.59,36.14,1.38,64.98-28.78,64.94-64.87l-.05-38.77c0-6.24-2.35-11.27-7.2-14.58-3.63-2.48-9.68-5.46-14.86-2.49l-100.65,57.68c-4.12,2.36-6.25,5.92-6.8,9.97-.53,3.91.95,8.03,4.1,11.18l28.26,28.29ZM434.79,387.27c4.11-4.14,4.26-9.09,2.37-13.95-1.26-3.26-4.93-7.27-10.13-7.28l-69.15-.11c-9.35-.01-16.4,4.25-20.96,11.19s-5.3,14.87-1.93,22.95l18.74,44.94c1.84,4.42,6.7,6.43,10.13,6.91,4.46.62,7.86-1.2,11.11-4.47l59.83-60.18ZM377.67,501.91c15.1,27.29,41.15,46.1,71.9,49.17,45.34,4.52,86.39-22.95,98.94-65.3,12.79-43.18-6.54-88.19-46.44-109.33-10.19-5.4-21.52-5.28-30.18,3.36l-90.95,90.78c-8.92,8.9-9.39,20.24-3.26,31.32Z"/>
              <path class="cls-7" d="M377.67,501.91c-6.13-11.08-5.66-22.42,3.26-31.32l90.95-90.78c8.66-8.64,19.99-8.76,30.18-3.36,39.91,21.14,59.23,66.16,46.44,109.33-12.55,42.36-53.6,69.83-98.94,65.3-30.76-3.07-56.81-21.88-71.9-49.17ZM521.51,484.45c0-18.61-15.09-33.69-33.69-33.69s-33.69,15.09-33.69,33.69,15.09,33.69,33.69,33.69,33.69-15.09,33.69-33.69Z"/>
              <path class="cls-12" d="M434.79,387.27l-59.83,60.18c-3.25,3.27-6.65,5.1-11.11,4.47-3.43-.48-8.29-2.5-10.13-6.91l-18.74-44.94c-3.37-8.07-2.57-16.1,1.93-22.95s11.62-11.21,20.96-11.19l69.15.11c5.2,0,8.87,4.02,10.13,7.28,1.89,4.86,1.74,9.81-2.37,13.95Z"/>
              <circle class="cls-14" cx="487.82" cy="484.45" r="33.69"/>
            </g>
          </g>
        </g>
      </g>
      <path class="cls-6" d="M555.87,381.6c-2.93-3.62-6.09-6.37-9.19-9.58-13.25-13.75-40.39-31.22-56.88-33.47l-25.56-3.49c32.34-2.62,59.75,7.4,87.97-15.43,15.51-12.55,29.81-31.54,29.86-53.48l.45-214.44c.04-20.2-20.4-43.04-43.42-46-18.14-2.33-32.22,3.41-45.72,14.91l-154.99,131.96c-1.8,1.53-2.77,2.48-4.52,2.37.37-5.42,2.83-10.76-.1-17.62-2.8-6.56-6.72-14.79-13.32-19.71l8.67-27.4c7.72-24.41,20.39-46.17,35.68-66.63,4.26-5.7,5.05-11.2-.23-15.84-4.27-3.75-10.94-3.92-15.35,1.81-22.52,29.26-40.22,63.12-47.3,99.03-3.67-.74-11.26-1.38-15.97-.02-6.9-35.61-24.77-69.02-46.65-98.33-4.16-5.57-10.71-6.79-15.25-3.07-4.95,4.05-5.78,10.17-1.56,15.68,21.79,28.45,36.1,60.6,44.9,94.71-9.75,9.05-16.98,21.65-14.77,36.35-.03,1.29-1.02,1.25-1.61-.19L91.64,18.09c-12.38-10.53-26.59-14.15-42.73-12.36C25.77,8.3,5.34,32,5.38,51.73l.44,214.41c.04,21.95,14.36,40.94,29.86,53.49,28.66,23.19,56.83,12.5,87.99,15.53l-20,2.19c-28.4,3.11-51.67,21.07-70.39,42.98-38.34,44.86-37.25,114.29.87,158.03,21.92,25.16,49.19,40.74,82.68,43.79,36.28,3.31,71.04-8.38,96.98-33.4,12.93-12.48,22.85-25.65,29.86-42.24l24.8-58.74c6.28,5.4,12.76,10.38,22.2,11.68,10.13,1.4,20.96-3.91,28.58-11.68,9.2,18.88,16.72,38.69,24.99,58.74,6.87,16.65,16.95,29.78,29.85,42.23,25.68,24.77,59.73,36.32,95.68,33.58,32.05-2.45,59.84-17.29,81.49-41.11,40.35-44.4,42.44-112.9,4.62-159.6Z"/>
    </g>
  </g>
</svg>