<?xml version="1.0" encoding="UTF-8"?>
<svg id="Camada_2" data-name="Camada 2" xmlns="http://www.w3.org/2000/svg" xmlns:xlink="http://www.w3.org/1999/xlink" viewBox="0 0 2046.47 438.02">
  <defs>
    <style>
      .cls-1 {
        fill: url(#Gradiente_sem_nome_422);
      }

      .cls-2 {
        fill: url(#Gradiente_sem_nome_422-3);
      }

      .cls-3 {
        fill: url(#Gradiente_sem_nome_422-2);
      }
    </style>
    <linearGradient id="Gradiente_sem_nome_422" data-name="Gradiente sem nome 422" x1="215.01" y1="31.45" x2="269.9" y2="31.45" gradientUnits="userSpaceOnUse">
      <stop offset="0" stop-color="#623189"/>
      <stop offset="1" stop-color="#e84d95"/>
    </linearGradient>
    <linearGradient id="Gradiente_sem_nome_422-2" data-name="Gradiente sem nome 422" x1="50.89" y1="406.58" x2="434.02" y2="406.58" xlink:href="#Gradiente_sem_nome_422"/>
    <linearGradient id="Gradiente_sem_nome_422-3" data-name="Gradiente sem nome 422" x1="4" y1="195.57" x2="480.92" y2="195.57" xlink:href="#Gradiente_sem_nome_422"/>
  </defs>
  <g id="Camada_1-2" data-name="Camada 1">
    <g>
      <g>
        <g>
          <path d="M586.44,227V65h69.13c9.81,0,48.6,6.16,51.11,34.91,2.28,28.75-44.04,37.19-56.36,49.51-6.85,7.07,4.33,18.48,19.39,31.03,18.48,15.52,38.1,32.86,42.21,46.55h-37.88l-29.89-29.89c-25.78-25.78-13.69-40.16,1.14-52.25,13.23-10.72,25.33-21.45,25.33-42.44,0-27.38-25.55-29.21-25.55-29.21h-25.55c-2.28,3.19-2.28,7.53-2.28,11.18v142.6h-30.8Z"/>
          <path d="M744.79,181.59c-8.67,25.78,1.83,41.98,7.76,45.4h-35.37l58.64-162h25.33l68.91,162h-36.51l-27.38-65.25h-54.76l-6.62,19.85ZM802.97,154.21l-27.15-64.34-21.68,64.34h48.83Z"/>
          <path d="M890.58,227V65h30.8v162h-30.8Z"/>
          <path d="M967.02,126.15c0,37.88,12.09,78.72,24.41,100.85h-31.94V65h28.06l103.36,119.56v-39.47c0-17.57-9.13-67.99-23.96-80.09h31.94v162h-10.5l-121.38-133.25v32.4Z"/>
          <path d="M1167.57,227.23h-30.8V65h30.8v74.61h71.87v-74.61h30.8v162.23h-30.8v-79.4l-71.87-.23v79.63Z"/>
          <path d="M1319.53,181.59c-8.67,25.78,1.83,41.98,7.76,45.4h-35.37l58.64-162h25.33l68.91,162h-36.51l-27.38-65.25h-54.76l-6.62,19.85ZM1377.71,154.21l-27.15-64.34-21.68,64.34h48.83Z"/>
          <path d="M1506.4,227V65h42.21c52.48,0,97.2,23.27,97.2,81.46s-44.26,80.54-97.2,80.54h-42.21ZM1548.61,219.01c43.12,0,61.15-33.54,61.15-72.56s-18.71-73.24-61.15-73.24h-9.81c-1.6,2.51-1.6,6.39-1.6,9.35v126.86c0,2.97,0,7.07,1.83,9.58h9.58Z"/>
          <path d="M1750.3,62.72c47.91,0,83.74,35.37,83.74,83.28s-36.05,83.28-83.74,83.28-83.96-35.37-83.96-83.28,35.82-83.28,83.96-83.28ZM1767.65,217.41c4.56,0,8.9-.91,13.23-2.74,23.96-10.5,29.21-47.91,11.64-87.39-14.6-32.86-38.33-52.93-59.55-52.93-4.56,0-9.13.91-13.23,2.74-24.41,10.95-29.43,47.92-11.86,87.62,14.6,32.63,38.33,52.71,59.78,52.71Z"/>
        </g>
        <g>
          <path d="M586.44,270.45h30.8v162h-30.8v-162ZM674.06,432.45l-36.73-39.02c-25.1-26.69-13.69-40.16,1.14-52.25,16.43-13.23,31.49-21.9,31.94-32.86.46-9.36.23-20.76-7.3-37.88h31.94c12.55,14.15,17.57,33.31,2.28,47.46-13.69,12.55-45.4,19.39-53.85,27.84-6.84,7.07,4.34,18.48,19.39,31.03,18.48,15.51,44.95,38.1,49.06,55.67h-37.88Z"/>
          <path d="M752.32,387.05c-8.67,25.78,1.83,41.98,7.76,45.4h-35.37l58.64-162h25.33l68.91,162h-36.51l-27.38-65.25h-54.76l-6.62,19.85ZM810.5,359.67l-27.15-64.34-21.68,64.34h48.83Z"/>
          <path d="M972.04,434.5l-65.94-140.09v49.28c0,18.94,4.56,59.55,24.41,88.76h-31.94v-162h29.89l57.73,123.89,52.25-123.89h27.38l1.6,162h-31.26v-135.3l-57.27,137.36h-6.85Z"/>
          <path d="M1116.47,387.05c-8.67,25.78,1.83,41.98,7.76,45.4h-35.37l58.64-162h25.33l68.91,162h-36.51l-27.38-65.25h-54.76l-6.62,19.85ZM1174.65,359.67l-27.15-64.34-21.68,64.34h48.83Z"/>
          <path d="M1325.24,383.4c.23,23.96,10.27,44.49,34,44.49,14.15,0,34.45-5.25,34.45-22.82,0-39.7-98.34-38.56-98.34-94.69,0-34.22,38.79-42.21,65.94-42.21,30.8,0,62.06,9.81,64.34,46.32h-34.68c-.46-19.39-6.16-39.47-30.35-39.47-17.57,0-31.49,9.35-31.49,28.06,0,35.59,99.02,40.61,99.02,89.9,0,22.82-33.08,41.75-69.36,41.75-33.54,0-67.08-12.55-68.22-51.34h34.68Z"/>
          <path d="M1574.39,375.87c0,36.05-21.68,58.87-57.95,58.87s-65.94-21.45-65.94-58.87v-105.41h30.8v99.25c0,25.78,10.04,52.48,39.93,52.48s44.26-20.76,44.26-47.91c0-36.51-9.81-73.01-32.86-103.82h41.75v105.41Z"/>
          <path d="M1684.37,432.45h-30.8v-150.82c0-1.14-.23-2.05-.23-3.19-29.43,0-41.3,6.84-55.22,35.14v-43.12h139.18v43.35c-14.83-25.55-23.73-34.91-52.02-35.37-.91.91-.91,2.51-.91,3.65v150.36Z"/>
          <path d="M1762.86,432.45v-162h69.13c9.81,0,48.6,6.16,51.11,34.91,2.28,28.75-44.04,37.19-56.36,49.51-6.85,7.07,4.33,18.48,19.39,31.03,18.48,15.52,38.1,32.86,42.21,46.55h-37.88l-29.89-29.89c-25.78-25.78-13.69-40.16,1.14-52.25,13.23-10.72,25.33-21.45,25.33-42.44,0-27.38-25.55-29.21-25.55-29.21h-25.55c-2.28,3.19-2.28,7.53-2.28,11.18v142.6h-30.8Z"/>
          <path d="M1921.2,387.05c-8.67,25.78,1.83,41.98,7.76,45.4h-35.37l58.64-162h25.33l68.91,162h-36.51l-27.38-65.25h-54.76l-6.62,19.85ZM1979.38,359.67l-27.15-64.34-21.68,64.34h48.83Z"/>
        </g>
      </g>
      <g>
        <g>
          <path class="cls-1" d="M242.46,58.89c-15.13,0-27.45-12.31-27.45-27.45s12.31-27.45,27.45-27.45,27.45,12.31,27.45,27.45-12.31,27.45-27.45,27.45Z"/>
          <path d="M242.46,8c12.95,0,23.45,10.49,23.45,23.45s-10.49,23.45-23.45,23.45-23.45-10.49-23.45-23.45,10.49-23.45,23.45-23.45M242.46,0c-17.34,0-31.45,14.11-31.45,31.45s14.11,31.45,31.45,31.45,31.45-14.11,31.45-31.45S259.8,0,242.46,0h0Z"/>
        </g>
        <g>
          <rect class="cls-3" x="50.89" y="379.13" width="383.13" height="54.89" rx="4" ry="4"/>
          <path d="M430.02,383.13v46.89H54.89v-46.89h375.13M430.02,375.13H54.89c-4.42,0-8,3.58-8,8v46.89c0,4.42,3.58,8,8,8h375.13c4.42,0,8-3.58,8-8v-46.89c0-4.42-3.58-8-8-8h0Z"/>
        </g>
        <g>
          <path class="cls-2" d="M54.89,340.24c-1.88,0-3.5-1.3-3.9-3.13L4.1,126.1c-.32-1.45.18-2.96,1.31-3.92.74-.62,1.66-.95,2.59-.95.5,0,1,.09,1.48.29l69.22,27.67c1.43.57,2.4,1.9,2.51,3.44.11,1.53-.67,2.99-2.01,3.75-13.69,7.82-22.19,22.3-22.19,37.79,0,24.07,19.58,43.65,43.65,43.65,13.97,0,26.75-6.84,34.96-18.51-8.78-4.71-14.41-13.76-14.41-23.8,0-15.13,12.31-27.45,27.45-27.45s27.45,12.31,27.45,27.45c0,7.78-3.24,14.93-8.7,19.99,1.57.18,3.14.28,4.7.28,24.07,0,43.65-19.58,43.65-43.65,0-20.29-13.82-37.73-33.61-42.41-1.35-.32-2.44-1.32-2.87-2.63-.44-1.32-.16-2.76.73-3.83l59.38-70.92c.76-.91,1.88-1.43,3.07-1.43h0c1.18,0,2.31.53,3.07,1.44l59.32,70.98c.89,1.06,1.16,2.51.73,3.83-.44,1.32-1.52,2.31-2.87,2.63-19.79,4.7-33.62,22.14-33.62,42.41,0,24.07,19.58,43.65,43.65,43.65,1.57,0,3.15-.09,4.74-.28-5.49-5.08-8.74-12.23-8.74-19.99,0-15.13,12.31-27.45,27.45-27.45s27.45,12.31,27.45,27.45c0,10.04-5.62,19.09-14.4,23.8,8.22,11.67,21,18.51,34.96,18.51,24.07,0,43.65-19.58,43.65-43.65,0-15.52-8.5-30-22.19-37.79-1.33-.76-2.12-2.22-2.01-3.75.1-1.53,1.08-2.87,2.5-3.44l69.28-27.72c.48-.19.99-.29,1.49-.29.93,0,1.86.33,2.59.95,1.13.96,1.64,2.47,1.31,3.92l-46.89,211.01c-.41,1.83-2.03,3.13-3.9,3.13H54.89ZM242.46,307.14l41.35-41.35-41.35-41.35-41.35,41.35,41.35,41.35Z"/>
          <path d="M242.46,54.89l59.32,70.98c-20.98,4.98-36.69,23.74-36.69,46.31,0,26.32,21.34,47.65,47.65,47.65,5.28,0,10.26-.94,14.95-2.52-8.73-3.46-14.95-11.84-14.95-21.75,0-12.95,10.49-23.45,23.45-23.45s23.45,10.49,23.45,23.45c0,10.37-6.92,18.93-16.3,21.98,8.21,14.36,23.15,24.33,40.85,24.33,26.32,0,47.65-21.34,47.65-47.65,0-17.76-9.79-33.06-24.21-41.27l69.28-27.73-46.89,211.01H54.89L8,125.23l69.22,27.67c-14.36,8.21-24.21,23.5-24.21,41.27,0,26.32,21.34,47.65,47.65,47.65,17.7,0,32.65-9.96,40.85-24.33-9.38-3.05-16.3-11.55-16.3-21.98,0-12.95,10.49-23.45,23.45-23.45s23.45,10.49,23.45,23.45c0,9.96-6.21,18.35-14.95,21.75,4.69,1.58,9.73,2.52,14.95,2.52,26.32,0,47.65-21.34,47.65-47.65,0-22.57-15.65-41.32-36.69-46.31l59.38-70.92M242.46,312.79l47.01-47.01-47.01-47.01-47.01,47.01,47.01,47.01M476.92,125.23h0M242.46,46.89c-2.37,0-4.61,1.05-6.13,2.86l-59.38,70.92c-1.78,2.13-2.33,5.02-1.46,7.66s3.05,4.62,5.75,5.26c17.98,4.26,30.54,20.1,30.54,38.52,0,20.66-15.89,37.69-36.09,39.5,2.85-4.75,4.44-10.27,4.44-16.11,0-17.34-14.11-31.45-31.45-31.45s-31.45,14.11-31.45,31.45c0,9.94,4.79,19.03,12.55,24.8-7.42,8.57-17.84,13.5-29.11,13.5-21.87,0-39.65-17.79-39.65-39.65,0-14.06,7.73-27.21,20.18-34.32,2.67-1.52,4.22-4.44,4.01-7.5s-2.16-5.73-5.01-6.87L10.97,117.8c-.96-.38-1.97-.57-2.97-.57-1.87,0-3.71.65-5.18,1.91-2.26,1.92-3.27,4.94-2.63,7.83l46.89,211.01c.81,3.66,4.06,6.26,7.81,6.26h375.13c3.75,0,7-2.6,7.81-6.26l46.83-210.76c.16-.64.25-1.3.25-1.99,0-4.38-3.52-7.94-7.89-8-.04,0-.08,0-.12,0-.13,0-.25,0-.38,0-.97.05-1.9.27-2.76.63l-69.11,27.66c-2.85,1.14-4.8,3.82-5.01,6.88-.21,3.06,1.35,5.98,4.02,7.5,12.63,7.19,20.17,20.01,20.17,34.31,0,21.87-17.79,39.65-39.65,39.65-11.26,0-21.68-4.93-29.11-13.5,7.76-5.78,12.55-14.87,12.55-24.8,0-17.34-14.11-31.45-31.45-31.45s-31.45,14.11-31.45,31.45c0,5.83,1.6,11.35,4.47,16.11-20.22-1.79-36.12-18.82-36.12-39.5,0-18.41,12.56-34.25,30.54-38.52,2.7-.64,4.87-2.63,5.74-5.26.87-2.63.32-5.53-1.45-7.65l-59.32-70.98c-1.52-1.82-3.77-2.87-6.14-2.87h0ZM206.76,265.79l35.69-35.69,35.69,35.69-35.69,35.69-35.69-35.69h0Z"/>
        </g>
      </g>
    </g>
  </g>
</svg>