<?xml version="1.0" encoding="UTF-8"?>
<svg id="Camada_2" data-name="Camada 2" xmlns="http://www.w3.org/2000/svg" xmlns:xlink="http://www.w3.org/1999/xlink" viewBox="0 0 2573.26 548.62">
  <defs>
    <style>
      .cls-1 {
        fill: url(#Gradiente_sem_nome_3-2);
      }

      .cls-2 {
        fill: url(#Gradiente_sem_nome_3-3);
      }

      .cls-3 {
        fill: none;
        stroke: #fff;
        stroke-linecap: round;
        stroke-linejoin: round;
        stroke-width: 8px;
      }

      .cls-4 {
        fill: #efefef;
      }

      .cls-5 {
        fill: url(#Gradiente_sem_nome_3);
      }

      .cls-6 {
        fill: #fefefe;
      }
    </style>
    <linearGradient id="Gradiente_sem_nome_3" data-name="Gradiente sem nome 3" x1="178.06" y1="129.3" x2="545.02" y2="129.3" gradientUnits="userSpaceOnUse">
      <stop offset="0" stop-color="#fb74ab"/>
      <stop offset="1" stop-color="#662c91"/>
    </linearGradient>
    <linearGradient id="Gradiente_sem_nome_3-2" data-name="Gradiente sem nome 3" x1="255.12" y1="418.97" x2="506.08" y2="418.97" xlink:href="#Gradiente_sem_nome_3"/>
    <linearGradient id="Gradiente_sem_nome_3-3" data-name="Gradiente sem nome 3" x1="4" y1="351.52" x2="196.97" y2="351.52" xlink:href="#Gradiente_sem_nome_3"/>
  </defs>
  <g id="Camada_1-2" data-name="Camada 1">
    <g>
      <g>
        <g>
          <g>
            <path class="cls-4" d="M691.16,220.18c-8.67,25.78,1.83,41.98,7.76,45.4h-35.37l58.64-162h25.33l68.91,162h-36.51l-27.38-65.25h-54.76l-6.62,19.85ZM749.34,192.8l-27.15-64.34-21.68,64.34h48.83Z"/>
            <path class="cls-4" d="M935.53,156.06c3.88-20.08-7.76-46.32-35.59-47.46h-1.6c-23.5,0-45.63,18.71-45.63,61.6,0,36.51,20.53,74.84,61.15,74.84,26.24,0,45.86-13.23,55.44-37.65l3.88,1.83c-9.35,34.45-35.59,58.64-72.33,58.64-47.46,0-83.28-36.96-83.28-83.96,0-59.32,41.07-82.6,82.82-82.6,28.06,0,68.91,9.58,73.47,54.76h-38.33Z"/>
            <path class="cls-4" d="M1029.07,248.01c0,3.2.23,7.07,2.28,9.58h29.43c26.47,0,29.66-5.93,44.26-28.06v36.05h-106.78V103.58h106.78v33.77c-12.55-18.71-22.13-26.01-47-25.78l-26.7.23c-2.51,2.51-2.28,6.39-2.28,9.58v57.5h18.25c7.3,0,18.48-3.88,24.19-11.64h2.05v36.51h-1.14s-14.15-18.03-25.1-18.03h-18.25v62.29Z"/>
            <path class="cls-4" d="M1133.8,265.58V103.58h30.8v144.43c0,3.42,0,7.76,2.51,10.27h17.8c26.47,0,40.84-9.81,51.57-31.94v39.24h-102.67Z"/>
            <path class="cls-4" d="M1294.66,248.01c0,3.2.23,7.07,2.28,9.58h29.43c26.47,0,29.66-5.93,44.26-28.06v36.05h-106.78V103.58h106.78v33.77c-12.55-18.71-22.13-26.01-47-25.78l-26.7.23c-2.51,2.51-2.28,6.39-2.28,9.58v57.5h18.25c7.3,0,18.48-3.88,24.19-11.64h2.05v36.51h-1.14s-14.15-18.03-25.1-18.03h-18.25v62.29Z"/>
            <path class="cls-4" d="M1399.38,265.58V103.58h69.13c9.81,0,48.6,6.16,51.11,34.91,2.28,28.75-44.04,37.19-56.36,49.51-6.85,7.07,4.33,18.48,19.39,31.03,18.48,15.52,38.1,32.86,42.21,46.54h-37.88l-29.89-29.89c-25.78-25.78-13.69-40.16,1.14-52.25,13.23-10.72,25.33-21.45,25.33-42.44,0-27.38-25.55-29.21-25.55-29.21h-25.55c-2.28,3.2-2.28,7.53-2.28,11.18v142.6h-30.8Z"/>
            <path class="cls-4" d="M1576.89,248.01c0,3.2.23,7.07,2.28,9.58h29.43c26.47,0,29.66-5.93,44.26-28.06v36.05h-106.78V103.58h106.78v33.77c-12.55-18.71-22.13-26.01-47-25.78l-26.7.23c-2.51,2.51-2.28,6.39-2.28,9.58v57.5h18.25c7.3,0,18.48-3.88,24.19-11.64h2.05v36.51h-1.14s-14.15-18.03-25.1-18.03h-18.25v62.29Z"/>
            <path class="cls-4" d="M1744.59,216.53c.23,23.96,10.27,44.49,34,44.49,14.15,0,34.45-5.25,34.45-22.82,0-39.7-98.34-38.56-98.34-94.69,0-34.22,38.79-42.21,65.94-42.21,30.8,0,62.06,9.81,64.34,46.32h-34.68c-.46-19.39-6.16-39.47-30.35-39.47-17.57,0-31.49,9.36-31.49,28.06,0,35.59,99.02,40.61,99.02,89.9,0,22.82-33.08,41.75-69.36,41.75-33.54,0-67.08-12.55-68.22-51.34h34.68Z"/>
            <path class="cls-4" d="M1902.94,248.01c0,3.2.23,7.07,2.28,9.58h29.43c26.47,0,29.66-5.93,44.26-28.06v36.05h-106.78V103.58h106.78v33.77c-12.55-18.71-22.13-26.01-47-25.78l-26.7.23c-2.51,2.51-2.28,6.39-2.28,9.58v57.5h18.25c7.3,0,18.48-3.88,24.19-11.64h2.05v36.51h-1.14s-14.15-18.03-25.1-18.03h-18.25v62.29Z"/>
            <path class="cls-4" d="M2129.28,209c0,36.05-21.68,58.87-57.95,58.87s-65.94-21.45-65.94-58.87v-105.41h30.8v99.25c0,25.78,10.04,52.48,39.93,52.48s44.26-20.76,44.26-47.91c0-36.51-9.81-73.01-32.86-103.81h41.75v105.41Z"/>
          </g>
          <g>
            <path class="cls-4" d="M755.05,306.76c47.91,0,83.74,35.37,83.74,83.28s-36.05,83.28-83.74,83.28-83.96-35.37-83.96-83.28,35.82-83.28,83.96-83.28ZM772.39,461.45c4.56,0,8.9-.91,13.23-2.74,23.96-10.49,29.21-47.91,11.64-87.39-14.6-32.86-38.33-52.93-59.55-52.93-4.56,0-9.13.91-13.23,2.74-24.41,10.95-29.43,47.91-11.86,87.62,14.6,32.63,38.33,52.71,59.78,52.71Z"/>
            <path class="cls-4" d="M867.76,471.04v-162h69.13c9.81,0,48.6,6.16,51.11,34.91,2.28,28.75-44.04,37.19-56.36,49.51-6.85,7.07,4.33,18.48,19.39,31.03,18.48,15.52,38.1,32.86,42.21,46.55h-37.88l-29.89-29.89c-25.78-25.78-13.69-40.16,1.14-52.25,13.23-10.72,25.33-21.45,25.33-42.44,0-27.38-25.55-29.21-25.55-29.21h-25.55c-2.28,3.19-2.28,7.53-2.28,11.18v142.6h-30.8Z"/>
            <path class="cls-4" d="M1130.15,405.78c0-9.13-6.62-14.15-14.6-14.15v-3.19h47.69l.23,46.54c.23,31.49-47.46,38.33-70.96,38.33-50.42,0-86.47-31.94-86.47-83.51,0-55.22,34.22-83.28,86.7-83.28,34.91,0,69.82,16.88,70.96,54.99h-38.33c5.93-29.43-7.53-47.91-36.96-47.91-38.56,0-44.95,35.59-44.95,67.99,0,37.19,15.97,81.23,59.78,81.23,8.21,0,26.92-2.74,26.92-13.69v-43.35Z"/>
            <path class="cls-4" d="M1207.5,425.63c-8.67,25.78,1.83,41.98,7.76,45.4h-35.37l58.64-162h25.33l68.91,162h-36.51l-27.38-65.26h-54.76l-6.62,19.85ZM1265.68,398.25l-27.15-64.34-21.68,64.34h48.83Z"/>
            <path class="cls-4" d="M1361.51,421.98c.23,23.96,10.27,44.49,34,44.49,14.15,0,34.45-5.25,34.45-22.82,0-39.7-98.34-38.56-98.34-94.69,0-34.22,38.79-42.21,65.94-42.21,30.8,0,62.06,9.81,64.34,46.32h-34.68c-.46-19.39-6.16-39.47-30.35-39.47-17.57,0-31.49,9.35-31.49,28.06,0,35.59,99.02,40.61,99.02,89.9,0,22.82-33.08,41.75-69.36,41.75-33.54,0-67.08-12.55-68.22-51.34h34.68Z"/>
            <path class="cls-4" d="M1562.98,473.09l-65.94-140.09v49.29c0,18.94,4.56,59.55,24.41,88.76h-31.94v-162h29.89l57.73,123.89,52.25-123.89h27.38l1.6,162h-31.26v-135.3l-57.27,137.36h-6.85Z"/>
            <path class="cls-4" d="M1771.29,306.76c47.91,0,83.74,35.37,83.74,83.28s-36.05,83.28-83.74,83.28-83.96-35.37-83.96-83.28,35.82-83.28,83.96-83.28ZM1788.63,461.45c4.56,0,8.9-.91,13.23-2.74,23.96-10.49,29.21-47.91,11.64-87.39-14.6-32.86-38.33-52.93-59.55-52.93-4.56,0-9.13.91-13.23,2.74-24.41,10.95-29.43,47.91-11.86,87.62,14.6,32.63,38.33,52.71,59.78,52.71Z"/>
          </g>
        </g>
        <g>
          <g>
            <g>
              <path class="cls-5" d="M525.65,194.23c-37.8,58.49-113.37,77.07-173.92,44.26l-159.93-86.63c-8.68-4.7-13.71-13.51-13.73-22.44-.02-8.52,4.8-17.94,13.43-22.64L350.82,19.87c12.86-7.01,26.67-10.37,40.48-13.62,13.09-3.08,24.84-2.54,38.12-1.1,51.19,5.56,95.72,40.39,110.48,89.99,10.22,34.35,4.96,69.35-14.26,99.08ZM487.2,140.03c.19,12.03,11.19,19.08,21.05,18.06,11.2-1.16,17.63-10.44,17.28-21.74-.87-27.79-10.55-52.92-28.93-73.63-22.38-25.21-53.35-40.23-87.49-39.72-11.15.17-19.16,10.19-18.54,20.37.67,10.95,9.81,18.53,21.05,18.39,15.23-.19,29.01,4.79,41.2,13.19,21.69,14.95,33.97,38.36,34.38,65.07Z"/>
              <path class="cls-6" d="M487.2,140.03c-.42-26.71-12.7-50.12-34.38-65.07-12.19-8.4-25.97-13.39-41.2-13.19-11.24.14-20.38-7.44-21.05-18.39-.62-10.18,7.4-20.2,18.54-20.37,34.14-.51,65.12,14.51,87.49,39.72,18.38,20.71,28.06,45.84,28.93,73.63.35,11.29-6.08,20.58-17.28,21.74-9.86,1.02-20.86-6.03-21.05-18.06Z"/>
            </g>
            <g>
              <g>
                <path class="cls-1" d="M494.61,485.41c-12.71,24.97-33.31,43.28-58.86,52.65-57.85,21.22-122.82-10.76-139.42-70.75l-40.45-146.2c-2.25-8.12.66-15.5,5.71-20.96,4.94-5.34,13.02-8.34,21.33-6.03l147.04,40.74c62.9,17.43,94.76,91.38,64.64,150.56ZM448.56,448.81c.05,11.49,10.8,19.43,21.03,18.33,11.79-1.27,17.8-10.9,17.35-22.79-1.92-50.93-43.35-91.59-94.32-93.09-10.94-.32-19.46,6.13-21.15,16.83-1.44,9.1,5.48,21.4,16.45,21.34,33.63-.18,60.5,25.61,60.64,59.37Z"/>
                <path class="cls-6" d="M448.56,448.81c-.14-33.77-27.01-59.56-60.64-59.37-10.97.06-17.89-12.23-16.45-21.34,1.7-10.7,10.22-17.15,21.15-16.83,50.97,1.5,92.39,42.16,94.32,93.09.45,11.89-5.57,21.51-17.35,22.79-10.23,1.11-20.98-6.83-21.03-18.33Z"/>
              </g>
              <g>
                <path class="cls-2" d="M139.74,478.31c-20.7,9.16-43.25,10.58-64.31,5.2-15.11-3.86-28.36-12.15-39.61-22.25-33.55-30.13-41.57-78.31-19.31-117.53l65.95-116.22c3.98-7.02,9.92-10.83,16.82-11.1,8-.31,14.83,2.88,19.06,10.33l66.04,116.6c28.9,51.02,5.54,112.75-44.64,134.97ZM104.45,467.28c41.71-2.28,74.36-37.3,73.32-78.4-.28-10.92-10.04-18.67-19.91-18.26-9.66.4-18.18,8.41-18.4,18.93-.44,21.85-17.13,38.63-38.94,39.31-11.6.36-20.33,10.24-19.11,20.98,1.27,11.25,10.46,18.12,23.05,17.43Z"/>
                <path class="cls-6" d="M104.45,467.28c-12.59.69-21.77-6.19-23.05-17.43-1.22-10.74,7.51-20.62,19.11-20.98,21.81-.68,38.5-17.46,38.94-39.31.21-10.52,8.74-18.52,18.4-18.93,9.88-.41,19.64,7.34,19.91,18.26,1.04,41.09-31.61,76.11-73.32,78.4Z"/>
              </g>
            </g>
          </g>
          <g>
            <path class="cls-3" d="M539.91,95.14c-14.76-49.61-59.29-84.43-110.48-89.99-13.28-1.44-25.03-1.98-38.12,1.1-13.81,3.25-27.62,6.61-40.48,13.62l-159.33,86.9c-8.63,4.71-13.45,14.12-13.43,22.64.02,8.93,5.05,17.74,13.73,22.44l159.93,86.63c60.56,32.8,136.12,14.23,173.92-44.26,19.22-29.74,24.48-64.73,14.26-99.08Z"/>
            <path class="cls-3" d="M429.97,334.84l-147.04-40.74c-8.31-2.3-16.39.69-21.33,6.03-5.06,5.47-7.96,12.84-5.71,20.96l40.45,146.2c16.6,59.99,81.57,91.97,139.42,70.75,25.54-9.37,46.15-27.68,58.86-52.65,30.12-59.18-1.74-133.13-64.64-150.56Z"/>
            <path class="cls-3" d="M118.34,226.74c-4.22-7.45-11.06-10.65-19.06-10.33-6.9.27-12.84,4.08-16.82,11.1l-65.95,116.22c-22.25,39.22-14.24,87.39,19.31,117.53,11.25,10.11,24.5,18.39,39.61,22.25,21.05,5.38,43.61,3.97,64.31-5.2,50.18-22.22,73.54-83.95,44.64-134.97l-66.04-116.6Z"/>
          </g>
        </g>
      </g>
      <g>
        <path class="cls-4" d="M1956.33,453.47c0,3.19.23,7.07,2.28,9.58h29.43c26.47,0,29.66-5.93,44.26-28.06v36.05h-106.78v-162h106.78v33.77c-12.55-18.71-22.13-26.01-47-25.78l-26.7.23c-2.51,2.51-2.28,6.39-2.28,9.58v57.5h18.25c7.3,0,18.48-3.88,24.19-11.64h2.05v36.51h-1.14s-14.15-18.02-25.1-18.02h-18.25v62.29Z"/>
        <path class="cls-4" d="M2134.98,473.09l-65.94-140.09v49.28c0,18.94,4.56,59.55,24.41,88.76h-31.94v-162h29.89l57.73,123.89,52.25-123.89h27.38l1.6,162h-31.26v-135.3l-57.27,137.36h-6.85Z"/>
        <path class="cls-4" d="M2343.5,471.03h-36.05l81.68-130.97h-93.09v-30.8h113.63v1.14l-66.17,160.63Z"/>
        <path class="cls-4" d="M2449.37,471.03h-19.17l57.27-70.96-57.27-91.04h35.59l41.98,66.62,48.37-66.62h17.11l-60.69,73.47,60.69,88.53h-40.16l-41.07-63.89-42.67,63.89Z"/>
      </g>
    </g>
  </g>
</svg>