<?xml version="1.0" encoding="UTF-8"?>
<svg id="Camada_2" data-name="Camada 2" xmlns="http://www.w3.org/2000/svg" xmlns:xlink="http://www.w3.org/1999/xlink" viewBox="0 0 2273.61 514.82">
  <defs>
    <style>
      .cls-1 {
        fill: url(#Gradiente_sem_nome_67);
      }

      .cls-2 {
        fill: none;
        stroke: #fff;
        stroke-linecap: round;
        stroke-linejoin: round;
        stroke-width: 8px;
      }

      .cls-3 {
        fill: #efefef;
      }

      .cls-4 {
        fill: #fe8c2e;
      }

      .cls-5 {
        fill: #fefefe;
      }
    </style>
    <linearGradient id="Gradiente_sem_nome_67" data-name="Gradiente sem nome 67" x1="260.79" y1="71.02" x2="260.79" y2="510.82" gradientUnits="userSpaceOnUse">
      <stop offset="0" stop-color="#fb74ab"/>
      <stop offset="1" stop-color="#662c91"/>
    </linearGradient>
  </defs>
  <g id="Camada_1-2" data-name="Camada 1">
    <g>
      <g>
        <g>
          <path class="cls-3" d="M426.69,94.83c-52.4-27.82-111.78-32.1-166.33-7.94-.39-.15-1.01.06-1.35-.17-.23-.54-.62-1.1-1.19-1.34-.74-.3-1.74,0-2.45-.33-17.96-8.49-38.32-12.79-58.92-13.79-33.48-1.63-65.71,5.12-94.73,21.18-2.41,1.33-4.96,1.9-6.87,2.62-26.41-17.7-48.15-51.27-49.64-83.82-.12-2.63,3.73-7.23,6.12-7.22l115.08.09c44.14,4.84,82.44,40.68,94.38,81.47,12.01-41.22,50.25-75.88,93.2-81.52l116.19.2c6.03.01,6.47,9.42,5.81,13.32-1.86,11.03-5.81,21.1-10.6,31.02l-4.61,9.55c-7.49,15.51-20.52,26.98-34.09,36.69Z"/>
          <path class="cls-1" d="M510.14,203.37c-5.51-18.66-12.54-37.86-25.51-52.6,6.36,7.22-9.71-14.32-9.84-13.35-5.37-10.97-40.67-38.65-48.1-42.6-52.4-27.82-111.78-32.1-166.33-7.94-.39-.15-1,.06-1.35-.17-.49-.32-.8-.91-1.19-1.34-.74-.3-1.74,0-2.45-.33-17.96-8.49-38.32-12.79-58.92-13.79-33.48-1.63-65.71,5.12-94.73,21.18-2.41,1.33-4.96,1.9-6.87,2.62-30.95,21.83-41.98,30.75-62.54,62.38-10.78,16.59-18.9,34.9-22.48,54.31-2.18,11.82-6.06,23.29-5,36.45.28,3.53-1.82,7.02-.21,11.27,1.09,2.88-2.24,20.92,13.79,63.55l4.06,10.8c8.67,23.06,42.51,59.88,61.98,77.44,31.25,28.19,64.5,53.47,100.91,74.79,31.58,18.48,60.07,27.54,97.09,24.06,43.54-4.09,73.59-20.05,105.27-47.89l12.01-10.56,47.52-47.92c10.55-10.64,40.71-47.09,45.56-59.72.03-.23.04-.55.11-.79-.07.24-.08.57-.11.79.15-.39.62-.66.75-1.07-.09-.04-.17-.06-.24-.07.07,0,.15.03.24.07.1-.32-.04-.73.03-1.06,3.15-.31,2.54-4.05,3.76-6.04,9.7-15.8,12.99-32.82,16.71-49.7,6.04-27.39,4.07-55.71-3.92-82.76ZM395.06,227.07c3.19.61,6.25,1.03,9.01,1.29-2.75-.26-5.82-.68-9.01-1.29ZM493.03,342.99c.05-.07.12-.12.2-.13-.09.01-.15.06-.2.13Z"/>
          <path class="cls-4" d="M259.01,86.71c-.49-.32-.8-.91-1.19-1.34.56.23.96.8,1.19,1.34Z"/>
        </g>
        <path class="cls-2" d="M510.14,203.37c-5.51-18.66-12.54-37.86-25.52-52.6,6.36,7.22-9.71-14.32-9.84-13.35-5.37-10.97-40.67-38.65-48.1-42.6h0c13.57-9.71,26.59-21.18,34.09-36.69l4.61-9.55c4.79-9.92,8.74-19.99,10.6-31.02.66-3.9.23-13.31-5.81-13.32l-116.19-.2c-42.94,5.63-81.18,40.3-93.2,81.52-11.94-40.78-50.24-76.62-94.38-81.47l-115.08-.09c-2.39,0-6.24,4.6-6.12,7.22,1.5,32.55,23.23,66.12,49.64,83.82-30.95,21.83-41.98,30.75-62.54,62.38-10.78,16.59-18.9,34.9-22.48,54.31-2.18,11.82-6.06,23.29-5,36.45.28,3.53-1.82,7.02-.21,11.27,1.09,2.88-2.24,20.92,13.79,63.55l4.06,10.8c8.67,23.06,42.51,59.88,61.98,77.44,31.25,28.19,64.5,53.47,100.92,74.79,31.58,18.48,60.07,27.54,97.09,24.06,43.54-4.09,73.59-20.05,105.27-47.89l12.01-10.56,47.52-47.92c10.55-10.64,40.71-47.09,45.56-59.72.03-.23.04-.55.11-.79-.07.24-.08.57-.11.79.15-.39.62-.67.75-1.07.1-.32-.04-.73.03-1.06,3.15-.31,2.54-4.05,3.76-6.04,9.7-15.8,12.99-32.82,16.71-49.7,6.04-27.39,4.07-55.71-3.92-82.76ZM160.12,72.91c-.57.08-1.14.17-1.7.26.57-.09,1.13-.18,1.7-.26ZM137.24,77.8c-1.15.33-2.3.67-3.45,1.03,1.15-.35,2.3-.7,3.45-1.03ZM259.01,86.71c-.12-.08-.23-.18-.34-.28.1.11.22.2.34.28.17.11.41.12.66.11-.25,0-.49,0-.66-.11ZM260.03,86.82c.12,0,.23.02.33.06-.1-.04-.21-.05-.33-.06ZM301.99,74.02c-3.51.64-7.02,1.39-10.52,2.24,3.5-.85,7-1.6,10.52-2.24,3.51-.64,7.04-1.17,10.56-1.6-3.53.43-7.05.96-10.56,1.6ZM317.84,71.85c5.29-.49,10.6-.74,15.89-.76-5.3.02-10.6.27-15.89.76Z"/>
      </g>
      <g>
        <g>
          <path class="cls-5" d="M669.84,177.48c.23,23.96,10.27,44.49,34,44.49,14.15,0,34.45-5.25,34.45-22.82,0-39.7-98.34-38.56-98.34-94.69,0-34.22,38.79-42.21,65.94-42.21,30.8,0,62.06,9.81,64.34,46.32h-34.68c-.46-19.39-6.16-39.47-30.35-39.47-17.57,0-31.49,9.35-31.49,28.06,0,35.59,99.02,40.61,99.02,89.9,0,22.82-33.08,41.75-69.36,41.75-33.54,0-67.08-12.55-68.22-51.34h34.68Z"/>
          <path class="cls-5" d="M828.19,208.97c0,3.19.23,7.07,2.28,9.58h29.43c26.47,0,29.66-5.93,44.26-28.06v36.05h-106.78V64.54h106.78v33.77c-12.55-18.71-22.13-26.01-47-25.78l-26.7.23c-2.51,2.51-2.28,6.39-2.28,9.58v57.5h18.25c7.3,0,18.48-3.88,24.19-11.64h2.05v36.51h-1.14s-14.15-18.02-25.1-18.02h-18.25v62.29Z"/>
          <path class="cls-5" d="M1048.59,161.29c0-9.13-6.62-14.15-14.6-14.15v-3.19h47.69l.23,46.55c.23,31.49-47.46,38.33-70.96,38.33-50.42,0-86.47-31.94-86.47-83.51,0-55.22,34.22-83.28,86.7-83.28,34.91,0,69.82,16.88,70.96,54.99h-38.33c5.93-29.43-7.53-47.92-36.96-47.92-38.56,0-44.95,35.59-44.95,67.99,0,37.19,15.97,81.23,59.78,81.23,8.21,0,26.92-2.74,26.92-13.69v-43.35Z"/>
          <path class="cls-5" d="M1116.59,226.54V64.54h69.13c9.81,0,48.6,6.16,51.11,34.91,2.28,28.75-44.04,37.19-56.36,49.51-6.85,7.07,4.33,18.48,19.39,31.03,18.48,15.52,38.1,32.86,42.21,46.55h-37.88l-29.89-29.89c-25.78-25.78-13.69-40.16,1.14-52.25,13.23-10.72,25.33-21.45,25.33-42.44,0-27.38-25.55-29.21-25.55-29.21h-25.55c-2.28,3.19-2.28,7.53-2.28,11.18v142.6h-30.8Z"/>
          <path class="cls-5" d="M1294.1,208.97c0,3.19.23,7.07,2.28,9.58h29.43c26.47,0,29.66-5.93,44.26-28.06v36.05h-106.78V64.54h106.78v33.77c-12.55-18.71-22.13-26.01-47-25.78l-26.7.23c-2.51,2.51-2.28,6.39-2.28,9.58v57.5h18.25c7.3,0,18.48-3.88,24.19-11.64h2.05v36.51h-1.14s-14.15-18.02-25.1-18.02h-18.25v62.29Z"/>
          <path class="cls-5" d="M1398.83,226.54V64.54h42.21c52.48,0,97.2,23.27,97.2,81.46s-44.26,80.54-97.2,80.54h-42.21ZM1441.04,218.56c43.12,0,61.15-33.54,61.15-72.56s-18.71-73.24-61.15-73.24h-9.81c-1.6,2.51-1.6,6.39-1.6,9.35v126.86c0,2.97,0,7.07,1.82,9.58h9.58Z"/>
          <path class="cls-5" d="M1642.73,62.26c47.92,0,83.74,35.37,83.74,83.28s-36.05,83.28-83.74,83.28-83.96-35.37-83.96-83.28,35.82-83.28,83.96-83.28ZM1660.07,216.96c4.56,0,8.9-.91,13.23-2.74,23.96-10.5,29.21-47.91,11.64-87.39-14.6-32.86-38.33-52.93-59.55-52.93-4.56,0-9.13.91-13.23,2.74-24.41,10.95-29.43,47.92-11.86,87.62,14.6,32.63,38.33,52.71,59.78,52.71Z"/>
          <path class="cls-5" d="M1777.35,177.48c.23,23.96,10.27,44.49,34,44.49,14.15,0,34.45-5.25,34.45-22.82,0-39.7-98.34-38.56-98.34-94.69,0-34.22,38.79-42.21,65.94-42.21,30.8,0,62.06,9.81,64.34,46.32h-34.68c-.46-19.39-6.16-39.47-30.35-39.47-17.57,0-31.49,9.35-31.49,28.06,0,35.59,99.02,40.61,99.02,89.9,0,22.82-33.08,41.75-69.36,41.75-33.54,0-67.08-12.55-68.22-51.34h34.68Z"/>
          <path class="cls-5" d="M1945.96,226.54V64.54h42.21c52.48,0,97.2,23.27,97.2,81.46s-44.26,80.54-97.2,80.54h-42.21ZM1988.17,218.56c43.12,0,61.15-33.54,61.15-72.56s-18.71-73.24-61.15-73.24h-9.81c-1.6,2.51-1.6,6.39-1.6,9.35v126.86c0,2.97,0,7.07,1.82,9.58h9.58Z"/>
          <path class="cls-5" d="M2189.87,62.26c47.92,0,83.74,35.37,83.74,83.28s-36.05,83.28-83.74,83.28-83.96-35.37-83.96-83.28,35.82-83.28,83.96-83.28ZM2207.21,216.96c4.56,0,8.9-.91,13.23-2.74,23.96-10.5,29.21-47.91,11.64-87.39-14.6-32.86-38.33-52.93-59.55-52.93-4.56,0-9.13.91-13.23,2.74-24.41,10.95-29.43,47.92-11.86,87.62,14.6,32.63,38.33,52.71,59.78,52.71Z"/>
        </g>
        <g>
          <path class="cls-5" d="M647.94,431.99v-162h53.85c30.8,0,63.89,4.33,63.89,42.9,0,42.67-57.5,43.12-86.93,43.12v75.98h-30.8ZM699.73,348.94c23.27,0,30.35-15.29,30.35-36.28,0-18.03-7.99-34.45-28.29-34.45h-19.85c-2.97,2.97-3.19,4.11-3.19,8.21v62.52h20.99Z"/>
          <path class="cls-5" d="M789.85,431.99v-162h69.13c9.81,0,48.6,6.16,51.11,34.91,2.28,28.75-44.04,37.19-56.36,49.51-6.85,7.07,4.33,18.48,19.39,31.03,18.48,15.52,38.1,32.86,42.21,46.55h-37.88l-29.89-29.89c-25.78-25.78-13.69-40.16,1.14-52.25,13.23-10.72,25.33-21.45,25.33-42.44,0-27.38-25.55-29.21-25.55-29.21h-25.55c-2.28,3.19-2.28,7.53-2.28,11.18v142.6h-30.8Z"/>
          <path class="cls-5" d="M948.2,386.59c-8.67,25.78,1.83,41.98,7.76,45.4h-35.37l58.64-162h25.33l68.91,162h-36.51l-27.38-65.25h-54.76l-6.62,19.85ZM1006.38,359.21l-27.15-64.34-21.68,64.34h48.83Z"/>
          <path class="cls-5" d="M1076.88,428.57l94.46-151.27h-19.85c-39.47,0-60.46,11.64-71.87,26.47v-33.77h129.83v3.42l-93.55,151.04h20.76c35.14,0,62.97-7.3,72.56-24.64v32.17h-132.33v-3.42Z"/>
          <path class="cls-5" d="M1263.75,414.43c0,3.19.23,7.07,2.28,9.58h29.43c26.47,0,29.66-5.93,44.26-28.06v36.05h-106.78v-162h106.78v33.77c-12.55-18.71-22.13-26.01-47-25.78l-26.7.23c-2.51,2.51-2.28,6.39-2.28,9.58v57.5h18.25c7.3,0,18.48-3.88,24.18-11.64h2.05v36.51h-1.14s-14.15-18.02-25.1-18.02h-18.25v62.29Z"/>
          <path class="cls-5" d="M1368.48,431.99v-162h69.13c9.81,0,48.6,6.16,51.11,34.91,2.28,28.75-44.04,37.19-56.36,49.51-6.84,7.07,4.34,18.48,19.39,31.03,18.48,15.52,38.1,32.86,42.21,46.55h-37.88l-29.89-29.89c-25.78-25.78-13.69-40.16,1.14-52.25,13.23-10.72,25.33-21.45,25.33-42.44,0-27.38-25.55-29.21-25.55-29.21h-25.55c-2.28,3.19-2.28,7.53-2.28,11.18v142.6h-30.8Z"/>
          <path class="cls-5" d="M1567.89,386.59c-8.67,25.78,1.83,41.98,7.76,45.4h-35.37l58.64-162h25.33l68.91,162h-36.51l-27.38-65.25h-54.76l-6.62,19.85ZM1626.07,359.21l-27.15-64.34-21.68,64.34h48.83Z"/>
          <path class="cls-5" d="M1715.74,331.15c0,37.88,12.09,78.72,24.41,100.85h-31.94v-162h28.06l103.36,119.56v-39.47c0-17.57-9.13-67.99-23.96-80.09h31.94v162h-10.5l-121.38-133.25v32.4Z"/>
          <path class="cls-5" d="M1885.04,386.59c-8.67,25.78,1.83,41.98,7.76,45.4h-35.37l58.64-162h25.33l68.91,162h-36.51l-27.38-65.25h-54.76l-6.62,19.85ZM1943.22,359.21l-27.15-64.34-21.68,64.34h48.83Z"/>
          <path class="cls-5" d="M2030.84,431.99v-162h30.8v144.43c0,3.42,0,7.76,2.51,10.27h17.8c26.47,0,40.84-9.81,51.56-31.94v39.24h-102.67Z"/>
        </g>
      </g>
    </g>
  </g>
</svg>