<?xml version="1.0" encoding="UTF-8"?>
<svg id="Camada_2" data-name="Camada 2" xmlns="http://www.w3.org/2000/svg" xmlns:xlink="http://www.w3.org/1999/xlink" viewBox="0 0 1881.04 562.09">
  <defs>
    <style>
      .cls-1 {
        fill: #111;
      }

      .cls-2 {
        fill: url(#Gradiente_sem_nome_196-2);
      }

      .cls-3 {
        fill: #b3abbb;
      }

      .cls-4 {
        fill: #998ea3;
      }

      .cls-5 {
        fill: #ccc3d5;
      }

      .cls-6 {
        fill: url(#Gradiente_sem_nome_196);
      }

      .cls-7 {
        fill: #efefef;
      }

      .cls-8 {
        fill: #f2edf6;
      }

      .cls-9 {
        fill: url(#Gradiente_sem_nome_3);
      }

      .cls-10 {
        fill: url(#Gradiente_sem_nome_18);
      }
    </style>
    <linearGradient id="Gradiente_sem_nome_18" data-name="Gradiente sem nome 18" x1="387.59" y1="269.64" x2="516.6" y2="269.64" gradientUnits="userSpaceOnUse">
      <stop offset="0" stop-color="#662c91"/>
      <stop offset="1" stop-color="#392c8d"/>
    </linearGradient>
    <linearGradient id="Gradiente_sem_nome_196" data-name="Gradiente sem nome 196" x1="356.46" y1="299.06" x2="461.09" y2="299.06" gradientUnits="userSpaceOnUse">
      <stop offset="0" stop-color="#fac9a7"/>
      <stop offset=".99" stop-color="#ec6594"/>
    </linearGradient>
    <linearGradient id="Gradiente_sem_nome_3" data-name="Gradiente sem nome 3" x1="151.91" y1="386.44" x2="430.15" y2="386.44" gradientUnits="userSpaceOnUse">
      <stop offset="0" stop-color="#fb74ab"/>
      <stop offset="1" stop-color="#662c91"/>
    </linearGradient>
    <linearGradient id="Gradiente_sem_nome_196-2" data-name="Gradiente sem nome 196" x1="128.67" y1="463.38" x2="225.34" y2="463.38" xlink:href="#Gradiente_sem_nome_196"/>
  </defs>
  <g id="Camada_1-2" data-name="Camada 1">
    <g>
      <g>
        <g>
          <path class="cls-3" d="M49.54,556.92c-12.67,0-23.67-5.16-33.62-15.77-7.02-7.47-8.59-15.81-10.26-24.63-.18-.97-.37-1.95-.57-2.96-.06-.32-.09-.64-.09-.96l.21-463.16c.01-23.96,20.29-44.22,44.28-44.24l242.96-.2c5.31,0,12.79,2.12,16.85,6.17l125.76,125.72c5.36,5.36,5.85,14.08,5.87,16.63l.4,49.65c.02,1.97-1.13,3.77-2.92,4.59-7.45,3.4-15.09,8.74-18.99,11.62-.88.65-1.92.98-2.97.98-.73,0-1.47-.16-2.15-.49-1.67-.79-2.76-2.45-2.84-4.29-.36-8.17-.2-16.42-.04-24.4.24-12.52.47-24.35-1.1-36.11-.08-.61-1.51-1.84-2.65-2.82-.43-.37-.87-.75-1.31-1.14-.08-.07-.16-.15-.24-.23l-66.41-68.08c-4.59-4.71-9.13-9.48-13.51-14.1-11.2-11.79-21.79-22.96-33.5-33.29l-242.74-.58c-6.69,0-14.83,5.83-14.84,12.65l-.22,463.32c0,4.84,1.55,8.92,4.49,11.78,2.93,2.87,7.07,4.38,11.96,4.38l344.89-.05c8.9,0,15.12-6.04,15.12-14.7v-139.12c0-1.59.75-3.08,2.03-4.03,2.66-1.95,5.34-4.3,7.95-6.57,1.85-1.62,3.77-3.29,5.71-4.86,1.4-1.13,4.25-3.03,7.57-3.03,1.87,0,3.59.62,4.97,1.78,1.13.95,1.77,2.35,1.77,3.83l-.39,152.52c-.06,23.82-19.35,43.31-43.92,44.37-.07,0-.15,0-.22,0l-347.25-.18Z"/>
          <path class="cls-7" d="M292.46,9.99c4.36,0,10.43,1.84,13.3,4.71l125.76,125.72c3.2,3.2,4.37,8.9,4.4,13.14l.4,49.65c-6.64,3.03-13.96,7.77-19.89,12.15-.89-20.35,1.49-40.94-1.18-60.96-.4-2.98-3.05-4.75-5.58-7.02l-66.41-68.08c-16.44-16.85-31.46-33.9-48.7-48.9l-244.62-.59s-.03,0-.04,0c-9.14,0-19.8,7.78-19.81,17.64l-.22,463.32c0,12.75,8.84,21.16,21.44,21.16h0l344.88-.05c11.58,0,20.12-8.24,20.12-19.69v-139.12c4.74-3.49,9.23-7.86,13.82-11.57,1.19-.96,2.92-1.93,4.43-1.93.64,0,1.24.17,1.74.6l-.39,152.52c-.05,21.36-17.17,38.44-39.14,39.39l-347.25-.18c-12.84,0-22.19-5.89-29.98-14.19-6.69-7.13-7.59-15.04-9.56-25.13l.21-463.16c0-20.97,17.9-39.23,39.29-39.25l242.96-.2h.01M292.46,0h-.01L49.48.2C22.78.23.22,22.77.21,49.44L0,512.6c0,.65.06,1.29.19,1.92.2,1,.38,1.97.56,2.93,1.73,9.14,3.51,18.59,11.53,27.12,10.95,11.66,23.14,17.34,37.26,17.34l347.25.18c.15,0,.29,0,.44,0,13.16-.57,25.39-5.89,34.44-14.98,9.16-9.2,14.23-21.41,14.26-34.37l.39-152.52c0-2.95-1.29-5.75-3.54-7.65-2.29-1.94-5.12-2.96-8.19-2.96-4.85,0-8.79,2.6-10.71,4.14-2.01,1.62-3.97,3.33-5.85,4.98-2.64,2.31-5.13,4.48-7.62,6.31-2.56,1.88-4.07,4.87-4.07,8.05v139.12c0,5.89-3.97,9.7-10.12,9.7l-344.88.05c-3.56,0-6.49-1.02-8.47-2.96-2.47-2.41-2.98-5.79-2.98-8.21l.22-463.32c0-3.5,5.32-7.65,9.81-7.65.02,0,.04,0,.05,0l240.83.58c11,9.85,21.12,20.51,31.79,31.75,4.39,4.63,8.93,9.41,13.55,14.14l66.41,68.08c.15.16.31.31.48.46.47.42.93.82,1.4,1.22.35.3.78.67,1.12.98,1.34,10.97,1.12,22.2.89,34.06-.16,8.06-.32,16.4.05,24.72.16,3.69,2.35,6.99,5.68,8.58,1.37.65,2.84.97,4.3.97,2.1,0,4.19-.66,5.94-1.96,6.36-4.7,12.95-8.75,18.09-11.09,3.59-1.64,5.88-5.23,5.85-9.17l-.4-49.65c-.03-3.88-.81-13.6-7.33-20.12L312.82,7.63c-5.25-5.25-14.23-7.63-20.36-7.63h0Z"/>
        </g>
        <path class="cls-8" d="M294.56,30.41l.04,92.89c0,18.62,16.53,31.48,34.46,31.42l86.19-.32c2.67,20.01.29,40.61,1.18,60.96l-28.73,21.26-31.25,23.84c-1.34,1.02-3.68,1.53-4.89,2.5-1.17-.87-2.63-1.55-5.18-1.55l-246.37.06c-5.83,0-10.24,3.02-11.3,7.33s1.36,11.85,7.48,11.86l231.41.31c-16.75,13.78-34.97,25.77-52.35,38.69l-177.62-.04c-5.54,0-8.98,5.11-9.22,8.89-.3,4.69,3.37,10.3,9.29,10.31l151.69.07c-17.48,13-34.54,26.72-52.66,38.84l-98.17-.09c-6.28,0-10.35,4.13-10.24,9.31s3.99,9.6,10.16,9.66l72.26.73c-5.41,3.21-9.83,8.66-15.87,11.72-2.41,1.22-2.33,3.09-2.97,4.78-9.06,23.96-15.51,49.04-23.23,73.57l-7.93,25.17c9.3,1.42,18.53-.45,27.34-.2,25.71.73,51.53.83,77.25.08,2.15-.06,3.22-1.33,5.41-2.94l185.57-136.42v139.12c0,11.45-8.53,19.69-20.11,19.69l-344.88.05c-12.61,0-21.45-8.41-21.45-21.16l.22-463.32c0-9.87,10.7-17.66,19.85-17.64l244.62.59ZM346.93,203.79l-248.24.04c-6.63,0-10.4,4.23-10.3,9.88.08,4.66,3.96,9.66,10.41,9.66h248.73c6.59.01,10.56-4.77,10.65-9.66.1-5.81-3.76-9.92-11.24-9.92Z"/>
        <path class="cls-5" d="M415.26,154.39l-86.19.32c-17.93.07-34.45-12.8-34.46-31.42l-.04-92.89c17.24,15,32.26,32.05,48.7,48.9l66.41,68.08c2.53,2.27,5.18,4.04,5.58,7.02Z"/>
        <path class="cls-4" d="M346.93,203.79c7.48,0,11.34,4.11,11.24,9.92-.09,4.89-4.05,9.67-10.65,9.67H98.8c-6.45-.01-10.33-5.01-10.41-9.67-.09-5.65,3.67-9.88,10.3-9.88l248.24-.04Z"/>
        <path class="cls-4" d="M351.57,262.95c-6.66,7.51-16.32,11.71-23.97,18.01l-231.41-.31c-6.12,0-8.57-7.4-7.48-11.86s5.47-7.33,11.3-7.33l246.37-.06c2.55,0,4.01.68,5.18,1.55Z"/>
        <path class="cls-4" d="M275.25,319.64l-25.86,19.23-151.69-.07c-5.91,0-9.59-5.62-9.29-10.31.24-3.78,3.68-8.9,9.22-8.89l177.62.04Z"/>
        <path class="cls-4" d="M196.73,377.71c-8.91,5.96-16.64,14.05-25.99,19.6l-72.26-.73c-6.17-.06-10.04-4.26-10.16-9.66s3.96-9.31,10.24-9.31l98.17.09Z"/>
        <g>
          <path class="cls-10" d="M461.09,338.99l-71.28-96.55c-1.57-2.12-2.57-3.66-2.1-5.82l28.73-21.26c5.92-4.38,13.25-9.12,19.89-12.15,13.09-5.97,31.64-2.71,40.54,9.04l30.16,39.81c14.81,19.54,12.51,45-7.44,59.31l-38.5,27.62Z"/>
          <path class="cls-6" d="M461.09,338.99c-7.1,5.09-13.58,11.97-21.89,16.52-1.95,1.06-2.87,3.01-2.87,4.68-1.68-1.42-4.49-.03-6.17,1.33l-73.69-101.06,31.25-23.84c-.47,2.16.53,3.7,2.1,5.82l71.28,96.55Z"/>
          <path class="cls-9" d="M430.15,361.51c-4.59,3.71-9.08,8.08-13.83,11.57l-185.57,136.42c-2.19,1.61-3.26,2.88-5.41,2.94l-73.43-98.62c.64-1.69.56-3.56,2.97-4.78,6.04-3.06,10.46-8.51,15.87-11.72,9.35-5.55,17.08-13.64,25.99-19.6,18.12-12.12,35.18-25.84,52.66-38.84l25.86-19.23c17.38-12.92,35.6-24.9,52.35-38.69,7.64-6.29,17.31-10.5,23.97-18.01,1.21-.97,3.55-1.48,4.89-2.5l73.69,101.06Z"/>
          <path class="cls-2" d="M225.34,512.44c-25.72.75-51.54.64-77.25-.08l-19.41-24.97c7.72-24.52,14.17-49.61,23.23-73.57l73.43,98.62Z"/>
          <path class="cls-1" d="M148.09,512.35c-8.81-.25-18.04,1.62-27.34.2l7.93-25.17,19.41,24.97Z"/>
        </g>
      </g>
      <g>
        <g>
          <path class="cls-7" d="M589.53,105.71c0-18.62,14.26-32.8,32.72-32.8s32.8,14.09,32.8,33.05c0,9.06-3.44,17.11-9.14,22.82l8.47,8.39v.08h-6.96l-5.12-5.29c-5.45,4.03-12.25,6.38-19.71,6.38-18.96,0-33.05-13.93-33.05-32.63ZM638.27,127.86l-14.18-14.35v-.08h6.8l10.99,11.33c4.53-4.87,7.38-11.49,7.38-18.79,0-15.52-12-27.68-26.93-27.68s-27.01,11.91-27.01,27.6,11.75,27.18,27.27,27.18c5.87,0,11.33-1.93,15.69-5.2Z"/>
          <path class="cls-7" d="M670.65,74v41.28c0,8.3,3.61,17.87,16.86,17.87s17.2-9.65,17.2-17.62v-41.53h5.54v42.62c0,10.07-6.63,21.73-22.9,21.73s-22.23-11.07-22.23-21.64v-42.7h5.54Z"/>
          <path class="cls-7" d="M729.11,74v63.25h-5.54v-63.25h5.54Z"/>
          <path class="cls-7" d="M737.84,137.01l37.75-57.97h-34.14v-5.03h43.46l.08.25-37.84,57.97h36.75v5.03h-45.97l-.08-.25Z"/>
        </g>
        <g>
          <g>
            <path class="cls-7" d="M596.81,230.02l9.66-61.1h65.32v23.88h-61.63l-4.74,28.62c7.2-6.67,21.07-9.31,30.73-9.31,23.18,0,47.41,13.34,47.41,38.98s-23,44.25-48.81,44.25c-17.73,0-45.3-7.55-45.3-29.85h26.16c0,11.41,7.9,23.7,19.84,23.7,19.31,0,22.12-23.7,22.12-37.22,0-18.96-16.33-28.27-33.71-28.27-9.13,0-15.98,2.11-23.88,6.85l-3.16-.53Z"/>
            <path class="cls-7" d="M733.06,293.58v-124.66h23.7v111.14c0,2.63,0,5.97,1.93,7.9h13.7c20.37,0,31.43-7.55,39.68-24.58v30.2h-79.01Z"/>
            <path class="cls-7" d="M833.14,293.58v-124.66h23.7v124.66h-23.7Z"/>
            <path class="cls-7" d="M891.96,215.97c0,29.15,9.31,60.58,18.79,77.61h-24.58v-124.66h21.6l79.54,92.01v-30.38c0-13.52-7.02-52.32-18.44-61.63h24.58v124.66h-8.08l-93.41-102.54v24.93Z"/>
            <path class="cls-7" d="M1111.62,243.36c0-7.02-5.09-10.89-11.24-10.89v-2.46h36.7l.18,35.82c.18,24.23-36.52,29.5-54.61,29.5-38.8,0-66.55-24.58-66.55-64.26,0-42.49,26.34-64.09,66.72-64.09,26.86,0,53.73,12.99,54.61,42.32h-29.5c4.57-22.65-5.79-36.87-28.44-36.87-29.67,0-34.59,27.39-34.59,52.32,0,28.62,12.29,62.51,46,62.51,6.32,0,20.72-2.11,20.72-10.53v-33.36Z"/>
            <path class="cls-7" d="M1257.53,250.04c0,27.74-16.68,45.3-44.6,45.3s-50.74-16.5-50.74-45.3v-81.12h23.7v76.38c0,19.84,7.73,40.38,30.73,40.38s34.06-15.98,34.06-36.87c0-28.09-7.55-56.19-25.28-79.89h32.13v81.12Z"/>
            <path class="cls-7" d="M1293.88,258.64c-6.67,19.84,1.4,32.31,5.97,34.94h-27.22l45.12-124.66h19.49l53.03,124.66h-28.09l-21.07-50.22h-42.14l-5.09,15.28ZM1338.66,237.57l-20.89-49.51-16.68,49.51h37.57Z"/>
            <path class="cls-7" d="M1491.59,243.36c0-7.02-5.09-10.89-11.24-10.89v-2.46h36.7l.18,35.82c.18,24.23-36.52,29.5-54.61,29.5-38.8,0-66.55-24.58-66.55-64.26,0-42.49,26.34-64.09,66.72-64.09,26.86,0,53.73,12.99,54.61,42.32h-29.5c4.57-22.65-5.79-36.87-28.44-36.87-29.67,0-34.59,27.39-34.59,52.32,0,28.62,12.29,62.51,46,62.51,6.32,0,20.72-2.11,20.72-10.53v-33.36Z"/>
            <path class="cls-7" d="M1567.62,280.06c0,2.46.18,5.44,1.76,7.37h22.65c20.37,0,22.83-4.57,34.06-21.6v27.74h-82.17v-124.66h82.17v25.99c-9.66-14.4-17.03-20.02-36.17-19.84l-20.54.18c-1.93,1.93-1.76,4.92-1.76,7.37v44.25h14.05c5.62,0,14.22-2.98,18.61-8.95h1.58v28.09h-.88s-10.89-13.87-19.31-13.87h-14.05v47.93Z"/>
            <path class="cls-7" d="M1654.36,215.97c0,29.15,9.31,60.58,18.79,77.61h-24.58v-124.66h21.6l79.54,92.01v-30.38c0-13.52-7.02-52.32-18.44-61.63h24.58v124.66h-8.08l-93.41-102.54v24.93Z"/>
            <path class="cls-7" d="M1801.85,255.83c.18,18.44,7.9,34.24,26.16,34.24,10.89,0,26.51-4.04,26.51-17.56,0-30.55-75.68-29.67-75.68-72.87,0-26.34,29.85-32.48,50.74-32.48,23.7,0,47.76,7.55,49.51,35.64h-26.69c-.35-14.92-4.74-30.38-23.35-30.38-13.52,0-24.23,7.2-24.23,21.6,0,27.39,76.2,31.25,76.2,69.18,0,17.56-25.46,32.13-53.38,32.13-25.81,0-51.62-9.66-52.5-39.51h26.69Z"/>
          </g>
          <g>
            <path class="cls-7" d="M617.18,413.94c.18,18.44,7.9,34.24,26.16,34.24,10.89,0,26.51-4.04,26.51-17.56,0-30.55-75.68-29.67-75.68-72.87,0-26.34,29.85-32.48,50.74-32.48,23.7,0,47.76,7.55,49.51,35.64h-26.69c-.35-14.92-4.74-30.38-23.35-30.38-13.52,0-24.23,7.2-24.23,21.6,0,27.39,76.2,31.25,76.2,69.18,0,17.56-25.46,32.13-53.38,32.13-25.81,0-51.62-9.66-52.5-39.51h26.69Z"/>
            <path class="cls-7" d="M739.03,438.17c0,2.46.18,5.44,1.76,7.37h22.65c20.37,0,22.83-4.57,34.06-21.6v27.74h-82.17v-124.66h82.17v25.99c-9.66-14.4-17.03-20.02-36.17-19.84l-20.54.18c-1.93,1.93-1.76,4.92-1.76,7.37v44.25h14.05c5.62,0,14.22-2.98,18.61-8.95h1.58v28.09h-.88s-10.89-13.87-19.31-13.87h-14.05v47.93Z"/>
            <path class="cls-7" d="M834.38,451.69h-14.75l44.07-54.61-44.07-70.06h27.39l32.31,51.27,37.22-51.27h13.17l-46.71,56.54,46.71,68.13h-30.9l-31.6-49.16-32.83,49.16Z"/>
            <path class="cls-7" d="M1046.66,408.15c0,27.74-16.68,45.3-44.6,45.3s-50.74-16.5-50.74-45.3v-81.12h23.7v76.38c0,19.84,7.73,40.38,30.73,40.38s34.06-15.98,34.06-36.87c0-28.09-7.55-56.19-25.28-79.89h32.13v81.12Z"/>
            <path class="cls-7" d="M1083.01,416.75c-6.67,19.84,1.4,32.31,5.97,34.94h-27.22l45.12-124.66h19.49l53.03,124.66h-28.09l-21.07-50.22h-42.14l-5.09,15.28ZM1127.78,395.68l-20.89-49.51-16.68,49.51h37.57Z"/>
            <path class="cls-7" d="M1195.21,451.69v-124.66h23.7v124.66h-23.7Z"/>
            <path class="cls-7" d="M1264.74,413.94c.18,18.44,7.9,34.24,26.16,34.24,10.89,0,26.51-4.04,26.51-17.56,0-30.55-75.68-29.67-75.68-72.87,0-26.34,29.85-32.48,50.74-32.48,23.7,0,47.76,7.55,49.51,35.64h-26.69c-.35-14.92-4.74-30.38-23.35-30.38-13.52,0-24.23,7.2-24.23,21.6,0,27.39,76.2,31.25,76.2,69.18,0,17.56-25.46,32.13-53.38,32.13-25.81,0-51.62-9.66-52.5-39.51h26.69Z"/>
          </g>
        </g>
      </g>
    </g>
  </g>
</svg>