<?xml version="1.0" encoding="UTF-8"?>
<svg id="Camada_2" data-name="Camada 2" xmlns="http://www.w3.org/2000/svg" xmlns:xlink="http://www.w3.org/1999/xlink" viewBox="0 0 2016.52 450.4">
  <defs>
    <style>
      .cls-1 {
        fill: url(#Gradiente_sem_nome_422);
      }

      .cls-2 {
        fill: url(#Gradiente_sem_nome_422-3);
      }

      .cls-3 {
        fill: none;
        stroke: #111;
        stroke-linecap: round;
        stroke-linejoin: round;
        stroke-width: 10.07px;
      }

      .cls-4 {
        fill: url(#Gradiente_sem_nome_422-2);
      }

      .cls-5 {
        fill: url(#Gradiente_sem_nome_18);
      }
    </style>
    <linearGradient id="Gradiente_sem_nome_422" data-name="Gradiente sem nome 422" x1="151.06" y1="290.27" x2="452.73" y2="290.27" gradientUnits="userSpaceOnUse">
      <stop offset="0" stop-color="#623189"/>
      <stop offset="1" stop-color="#e84d95"/>
    </linearGradient>
    <linearGradient id="Gradiente_sem_nome_18" data-name="Gradiente sem nome 18" x1="5.03" y1="179.49" x2="346.37" y2="179.49" gradientUnits="userSpaceOnUse">
      <stop offset="0" stop-color="#662c91"/>
      <stop offset="1" stop-color="#392c8d"/>
    </linearGradient>
    <linearGradient id="Gradiente_sem_nome_422-2" data-name="Gradiente sem nome 422" x1="98.53" y1="171.5" x2="252.87" y2="171.5" xlink:href="#Gradiente_sem_nome_422"/>
    <linearGradient id="Gradiente_sem_nome_422-3" data-name="Gradiente sem nome 422" x1="230.95" y1="196.75" x2="120.31" y2="196.75" xlink:href="#Gradiente_sem_nome_422"/>
  </defs>
  <g id="Camada_1-2" data-name="Camada 1">
    <g>
      <g>
        <g>
          <path class="cls-1" d="M414.21,419.23c2.56,11.59-4.75,23.06-16.34,25.63-1.43.32-2.89.49-4.35.51-3.29-.02-6.54-.78-9.49-2.24l-37.76-18.45c-72.72,26.56-154.11-1.37-195.2-66.99,105.16,13.63,201.46-60.56,215.09-165.72.88-6.77,1.39-13.59,1.55-20.41.01-12.22-1.24-24.41-3.73-36.37,52.03,25.24,86.06,76.95,88.64,134.72,1.71,43.48-14.94,85.67-45.87,116.27l7.47,33.07Z"/>
          <path class="cls-5" d="M175.7,5.04C82.66,4.01,6.32,78.46,5.03,171.5c-.03,45.88,19.32,89.63,53.27,120.48l-6.87,36.67c-2.16,11.61,5.51,22.78,17.12,24.93,1.26.23,2.54.35,3.82.36,3.54,0,7.03-.89,10.14-2.57l40.41-21.71c17.06,5.47,34.86,8.27,52.78,8.3,93.05,1.04,169.38-73.42,170.67-166.46-1.29-93.04-77.62-167.49-170.67-166.45Z"/>
        </g>
        <g>
          <path class="cls-3" d="M406.74,386.17c30.93-30.6,47.57-72.79,45.87-116.27-2.58-57.77-36.61-109.48-88.64-134.72,2.49,11.96,3.74,24.15,3.73,36.37-.15,6.83-.67,13.64-1.55,20.41-13.63,105.16-109.94,179.35-215.09,165.72,41.09,65.61,122.48,93.54,195.2,66.99l37.76,18.45c2.95,1.46,6.2,2.22,9.49,2.24,1.46-.02,2.92-.19,4.35-.51,11.59-2.56,18.91-14.04,16.34-25.63l-7.47-33.07Z"/>
          <path class="cls-3" d="M346.37,171.5c-1.29-93.04-77.62-167.49-170.67-166.45C82.66,4.01,6.32,78.46,5.03,171.5c-.03,45.88,19.32,89.63,53.27,120.48l-6.87,36.67c-2.16,11.61,5.51,22.78,17.12,24.93,1.26.23,2.54.35,3.82.36,3.54,0,7.03-.89,10.14-2.57l40.41-21.71c17.06,5.47,34.86,8.27,52.78,8.3,93.05,1.04,169.38-73.42,170.67-166.46Z"/>
        </g>
        <g>
          <g>
            <path class="cls-4" d="M177.96,274.15c-.65,0-1.23-.14-1.79-.44-1.07.05-2.15.08-3.21.08-11.14,0-22.14-2.9-32.68-8.63-7.96-4.32-13.93-9.84-18.72-14.67-14.34-14.47-23.32-37.48-22.88-58.62.01-.52-.03-1-.07-1.51-.06-.73-.12-1.49-.04-2.44l.59-6.45c1.19-13.15,6.74-31.11,13.49-43.67,4.89-9.12,10.47-18.85,18.05-28.21.2-.25.5-.38.8-.38.22,0,.44.07.62.21,1.6,1.22,1.99,2.93,2.27,4.18l2.67,11.71c.3,1.34.56,2.55,1.17,3.75l6.13-9.76,26.36-45.45c1.43-2.47,3.28-4.99,6.18-4.99.37,0,.74.04,1.12.13,3.07.71,9.54,6.37,14.83,11.23l6.48,5.95c1.16,1.06,2.06,1.97,3.13,3.08l10.09,10.46c10.76,11.15,24.04,32.1,30.88,48.73,5,12.16,7.98,24.41,9.09,37.47,2.05,24.11-4.67,45.52-19.46,61.94-2.1,2.63-4.12,4.65-6.72,6.71-12.65,11.43-29,18.3-46,19.31-.35.02-.68.08-.99.13-.44.07-.89.15-1.38.15ZM175.59,129.22c-21.27,14.65-45.79,39.99-51.46,67.74-6.18,24.28,4.27,48.86,25.99,61.2,6.01,3.41,12.51,5.41,19.9,6.09,1.84.17,3.69.26,5.52.26,16.99,0,32.15-7.17,42.68-20.19,7.65-9.46,11.32-21.28,10.6-34.17-.5-9.06-2.05-16.33-4.87-22.88-7.76-20.82-24.91-41.4-48.36-58.05Z"/>
            <path d="M176.89,69.88c.29,0,.58.03.89.1,3.26.75,11.59,8.44,14.53,11.13l6.32,5.8c1.13,1.04,2.02,1.93,3.08,3.03l10.09,10.46c11.38,11.8,24.23,32.77,30.67,48.41,4.93,11.98,7.91,24.18,9.01,37.17,1.94,22.73-3.81,44.08-19.2,61.16-2.06,2.58-4.01,4.55-6.59,6.59-12.55,11.34-28.49,18.09-45.42,19.1-.84.05-1.57.28-2.31.28-.5,0-1-.11-1.54-.45-1.16.06-2.31.09-3.46.09-11.27,0-22.03-2.98-32.2-8.5-7.22-3.92-12.88-8.84-18.48-14.5-14.34-14.48-23.01-37.43-22.59-57.87.03-1.36-.24-2.39-.11-3.87l.59-6.45c1.23-13.56,6.95-31.32,13.37-43.28,5.3-9.87,10.8-19.23,17.94-28.05,1.25.96,1.6,2.27,1.9,3.59l2.52,11.04c.49,2.13.79,4.07,2.31,6.13l7-11.15,26.38-45.48c1.17-2.01,2.83-4.48,5.3-4.48M175.53,265.53c16.84,0,32.62-7.15,43.48-20.57,8.16-10.08,11.53-22.17,10.83-34.88-.45-8.13-1.75-15.79-4.95-23.22-8.89-23.86-28.51-44.25-49.29-58.9-22.79,15.52-46.89,41.48-52.47,68.78-6.24,24.51,4.51,49.81,26.49,62.3,6.26,3.56,13.01,5.54,20.31,6.22,1.88.18,3.75.26,5.61.26M176.89,67.84c-3.88,0-6.11,3.85-7.07,5.5l-26.36,45.45-5.01,7.98c-.15-.53-.27-1.08-.4-1.68l-.15-.67-2.52-11.04c-.3-1.32-.75-3.31-2.65-4.76-.37-.28-.81-.42-1.24-.42-.6,0-1.19.26-1.59.76-7.63,9.42-13.23,19.2-18.15,28.37-6.8,12.68-12.4,30.8-13.6,44.07l-.59,6.45c-.09,1.03-.03,1.87.03,2.61.04.48.07.93.07,1.4-.44,21.4,8.65,44.7,23.18,59.36,4.84,4.88,10.87,10.47,18.95,14.85,10.7,5.81,21.86,8.75,33.17,8.75.99,0,2-.02,2.99-.07.62.28,1.29.42,2,.42.57,0,1.09-.09,1.55-.17.31-.05.61-.1.88-.12,17.21-1.02,33.76-7.98,46.62-19.58,2.62-2.08,4.67-4.12,6.83-6.83,14.95-16.62,21.76-38.29,19.68-62.66-1.12-13.16-4.12-25.52-9.16-37.77-7-17.01-20.07-37.64-31.09-49.06l-10.09-10.46c-1.09-1.13-2-2.05-3.17-3.12l-6.32-5.8-.15-.14c-8.11-7.45-12.69-10.88-15.3-11.48-.45-.1-.9-.16-1.35-.16h0ZM175.53,263.48c-1.79,0-3.62-.08-5.42-.25-7.23-.68-13.61-2.63-19.48-5.97-21.32-12.11-31.57-36.23-25.51-60.01,0-.03.02-.06.02-.1,5.56-27.19,29.48-52.1,50.45-66.69,22.98,16.47,39.78,36.7,47.39,57.11.01.03.02.06.04.09,2.77,6.43,4.29,13.59,4.79,22.53.7,12.64-2.89,24.21-10.38,33.47-10.33,12.77-25.21,19.81-41.88,19.81h0Z"/>
          </g>
          <g>
            <path class="cls-2" d="M175.53,266.56c-1.89,0-3.81-.09-5.71-.27-7.68-.72-14.45-2.79-20.72-6.35-22.54-12.8-33.38-38.3-26.97-63.44,5.84-28.55,31.15-54.57,52.89-69.38.17-.12.38-.18.58-.18s.41.06.59.19c24.08,16.96,41.71,38.05,49.66,59.38,2.9,6.73,4.5,14.22,5.01,23.53.74,13.41-3.08,25.71-11.06,35.58-10.77,13.31-26.91,20.95-44.27,20.95Z"/>
            <path d="M175.6,127.97c20.78,14.64,40.4,35.03,49.29,58.9,3.2,7.44,4.5,15.09,4.95,23.22.7,12.7-2.67,24.79-10.83,34.88-10.86,13.42-26.63,20.57-43.48,20.57-1.86,0-3.73-.09-5.61-.26-7.3-.68-14.04-2.67-20.31-6.22-21.98-12.48-32.73-37.78-26.49-62.3,5.58-27.31,29.68-53.26,52.47-68.78M175.6,125.92c-.4,0-.8.12-1.15.35-21.89,14.91-47.39,41.13-53.32,70.02-3.16,12.45-2.2,25.22,2.77,36.92,4.98,11.72,13.52,21.27,24.7,27.62,6.39,3.63,13.3,5.75,21.13,6.48,1.93.18,3.88.27,5.8.27,17.68,0,34.1-7.77,45.07-21.33,8.14-10.06,12.04-22.61,11.28-36.28-.52-9.41-2.14-17-5.09-23.87-8.03-21.5-25.79-42.74-50.01-59.81-.35-.25-.77-.37-1.18-.37h0Z"/>
          </g>
        </g>
      </g>
      <g>
        <path d="M712.08,277.34c.35,36.74,15.75,68.23,52.14,68.23,21.69,0,52.84-8.05,52.84-34.99,0-60.88-150.81-59.13-150.81-145.21,0-52.49,59.49-64.73,101.13-64.73,47.24,0,95.18,15.04,98.68,71.03h-53.19c-.7-29.74-9.45-60.54-46.54-60.54-26.94,0-48.29,14.35-48.29,43.04,0,54.59,151.86,62.28,151.86,137.87,0,34.99-50.74,64.04-106.37,64.04-51.44,0-102.88-19.25-104.62-78.73h53.19Z"/>
        <path d="M954.91,325.63c0,4.9.35,10.85,3.5,14.7h45.14c40.59,0,45.49-9.1,67.88-43.04v55.29h-163.76V104.13h163.76v51.79c-19.25-28.69-33.94-39.89-72.08-39.54l-40.94.35c-3.85,3.85-3.5,9.8-3.5,14.7v88.18h27.99c11.2,0,28.34-5.95,37.09-17.85h3.15v55.99h-1.75s-21.69-27.64-38.49-27.64h-27.99v95.53Z"/>
        <path d="M1144.91,352.57h-29.39l87.83-108.82-87.83-139.62h54.59l64.38,102.18,74.18-102.18h26.24l-93.08,112.67,93.08,135.77h-61.58l-62.98-97.98-65.43,97.98Z"/>
        <path d="M1355.2,347.32l144.86-231.99h-30.44c-60.54,0-92.73,17.85-110.22,40.59v-51.79h199.1v5.25l-143.46,231.64h31.84c53.89,0,96.58-11.2,111.27-37.79v49.34h-202.95v-5.25Z"/>
        <path d="M1612.38,282.94c-13.3,39.54,2.8,64.38,11.9,69.63h-54.24l89.93-248.44h38.84l105.67,248.44h-55.99l-41.99-100.07h-83.98l-10.15,30.44ZM1701.61,240.95l-41.64-98.68-33.24,98.68h74.88Z"/>
        <path d="M1835.97,352.57V104.13h82.58c47.24,0,97.98,6.65,97.98,65.79,0,65.43-88.18,66.13-133.32,66.13v116.52h-47.24ZM1915.4,225.2c35.69,0,46.54-23.44,46.54-55.63,0-27.64-12.25-52.84-43.39-52.84h-30.44c-4.55,4.55-4.9,6.3-4.9,12.6v95.88h32.19Z"/>
      </g>
    </g>
  </g>
</svg>