<?xml version="1.0" encoding="UTF-8"?>
<svg id="Camada_2" data-name="Camada 2" xmlns="http://www.w3.org/2000/svg" viewBox="0 0 887.56 212.79">
  <defs>
    <style>
      .cls-1 {
        fill: #111;
      }

      .cls-2 {
        fill: red;
      }
    </style>
  </defs>
  <g id="Camada_1-2" data-name="Camada 1">
    <g>
      <path class="cls-1" d="M0,28.94h40.06v120.59h47.87v34.31H0V28.94Z"/>
      <path class="cls-1" d="M160.87,28.94h41.5l57.11,154.9h-41.71l-9.86-28.35h-56.5l-10.27,28.35h-40.88L160.87,28.94ZM197.23,124.88l-16.64-47.87h-.41l-17.46,47.87h34.51Z"/>
      <path class="cls-1" d="M271.81,28.94h65.33c27.12,0,47.25,19.52,47.25,45.81s-13.56,39.86-32.25,46.23l48.07,62.86h-50.74l-37.6-58.14v58.14h-40.06V28.94ZM318.03,98.79c16.85,0,24.45-6.57,24.45-20.95,0-10.89-7.19-16.85-19.93-16.85h-10.68v37.8h6.16Z"/>
      <path class="cls-1" d="M452.6,28.94v154.9h-40.06V28.94h40.06Z"/>
      <rect class="cls-2" x="491.6" y="0" width="395.96" height="212.79"/>
      <g>
        <path class="cls-1" d="M599.07,28.94v12.33h-52.18v53.21h51.15v12.12h-51.15v77.25h-13.56V28.94h65.74Z"/>
        <path class="cls-1" d="M623.74,28.94h13.56v142.58h40.68v12.33h-54.24V28.94Z"/>
        <path class="cls-1" d="M716.19,28.94v154.9h-13.56V28.94h13.56Z"/>
        <path class="cls-1" d="M785.64,102.9l-41.29-73.96h15.82l33.08,62.25h.41l33.28-62.25h15.61l-41.09,74.37,44.38,80.53h-15.41l-36.77-68.62-.62-.2-36.36,68.82h-15.82l44.79-80.94Z"/>
      </g>
    </g>
  </g>
</svg>