<?xml version="1.0" encoding="UTF-8"?>
<svg id="Camada_2" data-name="Camada 2" xmlns="http://www.w3.org/2000/svg" xmlns:xlink="http://www.w3.org/1999/xlink" viewBox="0 0 1948.91 440.9">
  <defs>
    <style>
      .cls-1 {
        fill: none;
        stroke: #111;
        stroke-linecap: round;
        stroke-linejoin: round;
        stroke-width: 8px;
      }

      .cls-2 {
        fill: url(#Gradiente_sem_nome_422);
      }
    </style>
    <linearGradient id="Gradiente_sem_nome_422" data-name="Gradiente sem nome 422" x1="4" y1="219.57" x2="435.27" y2="219.57" gradientUnits="userSpaceOnUse">
      <stop offset="0" stop-color="#623189"/>
      <stop offset="1" stop-color="#e84d95"/>
    </linearGradient>
  </defs>
  <g id="Camada_1-2" data-name="Camada 1">
    <g>
      <g>
        <g>
          <path d="M709.06,178.41l-65.94-140.09v49.28c0,18.94,4.56,59.55,24.41,88.76h-31.94V14.36h29.89l57.73,123.89,52.25-123.89h27.38l1.6,162h-31.26V41.05l-57.27,137.36h-6.84Z"/>
          <path d="M853.49,130.95c-8.67,25.78,1.83,41.98,7.76,45.4h-35.37l58.64-162h25.33l68.91,162h-36.51l-27.38-65.25h-54.76l-6.62,19.85ZM911.67,103.57l-27.15-64.34-21.68,64.34h48.83Z"/>
          <path d="M1001.34,75.5c0,37.88,12.09,78.72,24.41,100.85h-31.94V14.36h28.06l103.36,119.56v-39.47c0-17.57-9.13-67.99-23.96-80.09h31.94v162h-10.49l-121.38-133.25v32.4Z"/>
          <path d="M1292.71,119.77c0,36.05-21.68,58.87-57.95,58.87s-65.94-21.45-65.94-58.87V14.36h30.8v99.25c0,25.78,10.04,52.48,39.93,52.48s44.26-20.76,44.26-47.91c0-36.51-9.81-73.01-32.86-103.82h41.75v105.41Z"/>
          <path d="M1339.94,130.95c-8.67,25.78,1.83,41.98,7.76,45.4h-35.37l58.64-162h25.33l68.91,162h-36.51l-27.38-65.25h-54.76l-6.62,19.85ZM1398.12,103.57l-27.15-64.34-21.68,64.34h48.83Z"/>
          <path d="M1485.73,176.35V14.36h30.8v144.43c0,3.42,0,7.76,2.51,10.27h17.8c26.47,0,40.84-9.81,51.57-31.94v39.24h-102.67Z"/>
          <path d="M1656.85,176.35V14.36h42.21c52.48,0,97.2,23.27,97.2,81.46s-44.26,80.54-97.2,80.54h-42.21ZM1699.06,168.37c43.12,0,61.15-33.54,61.15-72.56s-18.71-73.24-61.15-73.24h-9.81c-1.6,2.51-1.6,6.39-1.6,9.35v126.86c0,2.97,0,7.07,1.83,9.58h9.58Z"/>
          <path d="M1823.64,130.95c-8.67,25.78,1.83,41.98,7.76,45.4h-35.37l58.64-162h25.33l68.91,162h-36.51l-27.38-65.25h-54.76l-6.62,19.85ZM1881.82,103.57l-27.15-64.34-21.68,64.34h48.83Z"/>
        </g>
        <g>
          <path d="M657.04,332.75c.23,23.96,10.27,44.49,34,44.49,14.15,0,34.45-5.25,34.45-22.82,0-39.7-98.34-38.56-98.34-94.69,0-34.22,38.79-42.21,65.94-42.21,30.8,0,62.06,9.81,64.34,46.32h-34.68c-.46-19.39-6.16-39.47-30.35-39.47-17.57,0-31.49,9.35-31.49,28.06,0,35.59,99.02,40.61,99.02,89.9,0,22.82-33.08,41.75-69.36,41.75-33.54,0-67.08-12.55-68.22-51.34h34.68Z"/>
          <path d="M815.39,364.24c0,3.19.23,7.07,2.28,9.58h29.43c26.47,0,29.66-5.93,44.26-28.06v36.05h-106.78v-162h106.78v33.77c-12.55-18.71-22.13-26.01-47-25.78l-26.7.23c-2.51,2.51-2.28,6.39-2.28,9.58v57.5h18.25c7.3,0,18.48-3.88,24.19-11.64h2.05v36.51h-1.14s-14.15-18.02-25.1-18.02h-18.25v62.29Z"/>
          <path d="M920.11,381.81v-162h42.21c52.48,0,97.2,23.27,97.2,81.46s-44.26,80.54-97.2,80.54h-42.21ZM962.33,373.82c43.12,0,61.15-33.54,61.15-72.56s-18.71-73.24-61.15-73.24h-9.81c-1.6,2.51-1.6,6.39-1.6,9.35v126.86c0,2.97,0,7.07,1.82,9.58h9.58Z"/>
          <path d="M1210.11,325.22c0,36.05-21.68,58.87-57.95,58.87s-65.94-21.45-65.94-58.87v-105.41h30.8v99.25c0,25.78,10.04,52.48,39.93,52.48s44.26-20.76,44.26-47.91c0-36.51-9.81-73.01-32.86-103.82h41.75v105.41Z"/>
          <path d="M1355.68,272.29c3.88-20.08-7.76-46.32-35.59-47.46h-1.6c-23.5,0-45.63,18.71-45.63,61.6,0,36.51,20.54,74.84,61.15,74.84,26.24,0,45.86-13.23,55.44-37.65l3.88,1.83c-9.81,36.05-36.28,58.64-74.15,58.64l-8.44,11.64c13.69,0,30.12,7.76,30.12,20.08,0,11.64-8.67,25.1-28.75,25.1-11.18,0-23.73-10.04-26.24-22.36l2.28-1.37c3.19,5.02,11.86,13.46,21.9,13.46,5.25,0,8.9-1.37,10.72-4.33,1.6-2.97,2.51-5.25,2.51-7.3,0-.91-.23-1.83-.46-2.74-1.6-4.79-7.76-9.13-16.88-9.13-3.65,0-7.76.46-12.32,2.28l20.31-25.55c-43.81-3.42-76.21-39.24-76.21-83.74,0-59.32,41.07-82.6,82.82-82.6,28.06,0,68.91,9.58,73.47,54.76h-38.33Z"/>
          <path d="M1430.06,336.4c-8.67,25.78,1.83,41.98,7.76,45.4h-35.37l58.64-162h25.33l68.91,162h-36.51l-27.38-65.25h-54.76l-6.62,19.85ZM1488.24,309.02l-27.15-64.34-21.68,64.34h48.83ZM1515.17,181.71c0,10.27-3.88,26.7-17.8,26.7-8.9,0-20.31-11.18-27.61-12.32h-.91c-3.65,0-9.58,1.6-14.38,11.41h-1.6c0-11.64,3.65-28.06,17.34-28.06,8.9,0,23.04,12.55,31.71,12.55,3.42,0,9.58-3.19,11.64-10.27h1.6Z"/>
          <path d="M1663.47,217.53c47.91,0,83.74,35.37,83.74,83.28s-36.05,83.28-83.74,83.28-83.96-35.37-83.96-83.28,35.82-83.28,83.96-83.28ZM1680.81,372.22c4.56,0,8.9-.91,13.23-2.74,23.96-10.5,29.21-47.91,11.64-87.39-14.6-32.86-38.33-52.93-59.55-52.93-4.56,0-9.13.91-13.23,2.74-24.41,10.95-29.43,47.92-11.87,87.62,14.6,32.63,38.33,52.71,59.78,52.71Z"/>
        </g>
      </g>
      <path class="cls-2" d="M336.23,382.79c-42.67,33.47-100.49,48.39-154.08,51.64-46.23,2.81-91.64-2.84-134.97-18.42-5.07-1.82-8.35-4.44-9.58-9.86l-27.06-119.5c-2.55-11.25-5.39-21.38-6.18-32.89C-.7,184.96,48.59,125.95,116.21,116.21c3.98-25.57,13.76-48.56,30.6-67.39,12.71-14.22,27.06-25.64,44.39-33.45,19.89-8.26,40.26-12.83,61.85-10.96,10.82.94,20.59,3.26,31.25,5.67l121.92,27.54c4.61,1.04,7.94,4.1,9.53,8.53,26.15,73.08,25.92,156.49-.04,229.52-11.14,31.33-28.37,58.64-52.11,81.63-9.18,8.89-17.31,17.59-27.38,25.49ZM241.64,276.34c44.07-40.92,81.84-86.98,112.96-138.43,13.1-21.66,24.43-43.2,36.38-66.13l-85.97,42.42c-82.66,40.79-149.59,107.16-190.31,189.85l-42.76,86.81c64.04-32.65,117.77-65.97,169.7-114.53Z"/>
      <path class="cls-1" d="M336.23,382.79c-42.67,33.47-100.49,48.39-154.08,51.64-46.23,2.81-91.64-2.84-134.97-18.42-5.07-1.82-8.35-4.44-9.58-9.86l-27.06-119.5c-2.55-11.25-5.39-21.38-6.18-32.89C-.7,184.96,48.59,125.95,116.21,116.21c3.98-25.57,13.76-48.56,30.6-67.39,12.71-14.22,27.06-25.64,44.39-33.45,19.89-8.26,40.26-12.83,61.85-10.96,10.82.94,20.59,3.26,31.25,5.67l121.92,27.54c4.61,1.04,7.94,4.1,9.53,8.53,26.15,73.08,25.92,156.49-.04,229.52-11.14,31.33-28.37,58.64-52.11,81.63-9.18,8.89-17.31,17.59-27.38,25.49ZM241.64,276.34c44.07-40.92,81.84-86.98,112.96-138.43,13.1-21.66,24.43-43.2,36.38-66.13l-85.97,42.42c-82.66,40.79-149.59,107.16-190.31,189.85l-42.76,86.81c64.04-32.65,117.77-65.97,169.7-114.53Z"/>
    </g>
  </g>
</svg>