<?xml version="1.0" encoding="UTF-8"?>
<svg id="Camada_2" data-name="Camada 2" xmlns="http://www.w3.org/2000/svg" xmlns:xlink="http://www.w3.org/1999/xlink" viewBox="0 0 1872.75 527.44">
  <defs>
    <style>
      .cls-1 {
        fill: url(#Gradiente_sem_nome_196-4);
      }

      .cls-2 {
        fill: url(#Gradiente_sem_nome_196-2);
      }

      .cls-3 {
        fill: url(#Gradiente_sem_nome_3-7);
      }

      .cls-4 {
        fill: #8b90f7;
      }

      .cls-5 {
        fill: url(#Gradiente_sem_nome_3-2);
      }

      .cls-6 {
        fill: url(#Gradiente_sem_nome_18-7);
      }

      .cls-7 {
        fill: #f3c07b;
      }

      .cls-8 {
        fill: url(#Gradiente_sem_nome_3-3);
      }

      .cls-9 {
        fill: url(#Gradiente_sem_nome_3-5);
      }

      .cls-10 {
        fill: url(#Gradiente_sem_nome_196-3);
      }

      .cls-11 {
        fill: none;
        stroke: #fff;
        stroke-linecap: round;
        stroke-linejoin: round;
        stroke-width: 8px;
      }

      .cls-12 {
        fill: url(#Gradiente_sem_nome_18-6);
      }

      .cls-13 {
        fill: url(#Gradiente_sem_nome_196);
      }

      .cls-14 {
        fill: #efefef;
      }

      .cls-15 {
        fill: #c68ff0;
      }

      .cls-16 {
        fill: url(#Gradiente_sem_nome_18-5);
      }

      .cls-17 {
        fill: url(#Gradiente_sem_nome_3);
      }

      .cls-18 {
        fill: url(#Gradiente_sem_nome_3-4);
      }

      .cls-19 {
        fill: url(#Gradiente_sem_nome_18-3);
      }

      .cls-20 {
        fill: url(#Gradiente_sem_nome_18-4);
      }

      .cls-21 {
        fill: url(#Gradiente_sem_nome_18);
      }

      .cls-22 {
        fill: url(#Gradiente_sem_nome_18-2);
      }

      .cls-23 {
        fill: url(#Gradiente_sem_nome_3-6);
      }
    </style>
    <linearGradient id="Gradiente_sem_nome_18" data-name="Gradiente sem nome 18" x1="4.03" y1="141.16" x2="188.32" y2="141.16" gradientUnits="userSpaceOnUse">
      <stop offset="0" stop-color="#662c91"/>
      <stop offset="1" stop-color="#392c8d"/>
    </linearGradient>
    <linearGradient id="Gradiente_sem_nome_3" data-name="Gradiente sem nome 3" x1="30.22" y1="108.58" x2="191.64" y2="108.58" gradientUnits="userSpaceOnUse">
      <stop offset="0" stop-color="#fb74ab"/>
      <stop offset="1" stop-color="#662c91"/>
    </linearGradient>
    <linearGradient id="Gradiente_sem_nome_196" data-name="Gradiente sem nome 196" x1="192.01" y1="158.72" x2="375.2" y2="158.72" gradientUnits="userSpaceOnUse">
      <stop offset="0" stop-color="#fac9a7"/>
      <stop offset=".99" stop-color="#ec6594"/>
    </linearGradient>
    <linearGradient id="Gradiente_sem_nome_18-2" data-name="Gradiente sem nome 18" x1="190.63" y1="96.46" x2="285.39" y2="96.46" xlink:href="#Gradiente_sem_nome_18"/>
    <linearGradient id="Gradiente_sem_nome_3-2" data-name="Gradiente sem nome 3" x1="183.53" y1="111.66" x2="351.09" y2="111.66" xlink:href="#Gradiente_sem_nome_3"/>
    <linearGradient id="Gradiente_sem_nome_18-3" data-name="Gradiente sem nome 18" x1="191.12" y1="237.75" x2="375.17" y2="237.75" xlink:href="#Gradiente_sem_nome_18"/>
    <linearGradient id="Gradiente_sem_nome_196-2" data-name="Gradiente sem nome 196" x1="4" y1="219.86" x2="188.36" y2="219.86" xlink:href="#Gradiente_sem_nome_196"/>
    <linearGradient id="Gradiente_sem_nome_3-3" data-name="Gradiente sem nome 3" x1="27.45" y1="268.78" x2="183.53" y2="268.78" xlink:href="#Gradiente_sem_nome_3"/>
    <linearGradient id="Gradiente_sem_nome_18-4" data-name="Gradiente sem nome 18" x1="94.61" y1="282.7" x2="188.42" y2="282.7" xlink:href="#Gradiente_sem_nome_18"/>
    <linearGradient id="Gradiente_sem_nome_3-4" data-name="Gradiente sem nome 3" x1="188.54" y1="271.11" x2="348.87" y2="271.11" xlink:href="#Gradiente_sem_nome_3"/>
    <linearGradient id="Gradiente_sem_nome_18-5" data-name="Gradiente sem nome 18" x1="190.63" y1="96.46" x2="285.39" y2="96.46" xlink:href="#Gradiente_sem_nome_18"/>
    <linearGradient id="Gradiente_sem_nome_3-5" data-name="Gradiente sem nome 3" x1="183.53" y1="111.66" x2="351.09" y2="111.66" xlink:href="#Gradiente_sem_nome_3"/>
    <linearGradient id="Gradiente_sem_nome_196-3" data-name="Gradiente sem nome 196" x1="291.05" y1="411.82" x2="523.59" y2="411.82" xlink:href="#Gradiente_sem_nome_196"/>
    <linearGradient id="Gradiente_sem_nome_18-6" data-name="Gradiente sem nome 18" x1="191.12" y1="237.75" x2="375.17" y2="237.75" xlink:href="#Gradiente_sem_nome_18"/>
    <linearGradient id="Gradiente_sem_nome_196-4" data-name="Gradiente sem nome 196" x1="4" y1="219.86" x2="188.36" y2="219.86" xlink:href="#Gradiente_sem_nome_196"/>
    <linearGradient id="Gradiente_sem_nome_3-6" data-name="Gradiente sem nome 3" x1="27.45" y1="268.78" x2="183.53" y2="268.78" xlink:href="#Gradiente_sem_nome_3"/>
    <linearGradient id="Gradiente_sem_nome_18-7" data-name="Gradiente sem nome 18" x1="94.61" y1="282.7" x2="188.42" y2="282.7" xlink:href="#Gradiente_sem_nome_18"/>
    <linearGradient id="Gradiente_sem_nome_3-7" data-name="Gradiente sem nome 3" x1="188.54" y1="271.11" x2="348.87" y2="271.11" xlink:href="#Gradiente_sem_nome_3"/>
  </defs>
  <g id="Camada_1-2" data-name="Camada 1">
    <g>
      <g>
        <path class="cls-4" d="M193.11,4.03c2.22,6.66,5.64,12.12,8.68,18.57,26.18,55.51,24.09,116.03-11.15,166.28-.62.26-1.69.3-2.37.3-.08-.42.18-.95.05-1.35-3.16-9.7-8.57-18.38-14.97-27.05-33.85-45.8-87.71-66.55-143.13-66.29C64.35,37.3,126.51,2.77,193.11,4.03Z"/>
        <path class="cls-21" d="M188.32,187.83c-59.13-39.56-123.35-34.61-184.29-1.37.55-32.42,9.58-64.12,26.19-91.96,55.41-.27,109.28,20.49,143.13,66.29,6.4,8.67,11.82,17.35,14.97,27.05Z"/>
        <path class="cls-17" d="M190.02,189.45c-31.36-64.55-89.8-92.93-159.79-95.01,16.98-27.95,40.98-50.97,69.62-66.75,48.39,27.98,84.74,73.47,90.9,130.58,1.17,10.81,1.46,21.13-.73,31.18Z"/>
        <path class="cls-13" d="M375.17,193.01l-19.38,9.28c-50.31,24.58-119.44,24.22-163.78-11.67,36.94,2.26,72.68-6.54,103.36-28.4,21.3-15.18,38.32-33.63,51.95-56.06,1.68-2.76,4.04-5.01,3.75-8.07,16.39,28.91,24.71,61.7,24.1,94.93Z"/>
        <path class="cls-22" d="M285.39,30.63c-1.5,23.9-3.91,46.76-12.29,69.45-14.7,39.8-43.79,72.54-82.46,88.81,35.24-50.25,37.33-110.77,11.15-166.28-3.04-6.45-6.46-11.91-8.68-18.57,32.56.62,64.39,9.79,92.28,26.6Z"/>
        <path class="cls-5" d="M351.07,98.08c.29,3.06-2.07,5.3-3.75,8.07-13.63,22.43-30.65,40.88-51.95,56.06-30.68,21.86-66.42,30.66-103.36,28.4-.28-.02-.61.2-.88.11l-1.61-.5c-.29-.09-.81-.11-1.1,0-1.71.66-3.24,1.69-4.89,2.47v-3.69c1.57.13,3.17.17,4.74.17.68,0,1.75-.03,2.37-.3,38.68-16.27,67.76-49,82.46-88.81,8.38-22.68,10.79-45.55,12.29-69.45,27.33,16.47,49.95,39.7,65.68,67.45Z"/>
        <g>
          <path class="cls-7" d="M291.05,345.02c18.39-12.01,34.51-27.18,47.59-44.82l28.01,26.48,27.53,26.33,27.6,26.38,28.66,27.46,26.41,25.21,27.94,26.92c4.7,4.53,9.05,8.02,13.14,13.64,10.08,13.85,6.06,34.08-7.21,44.21-14.16,10.81-32.36,7.62-44.84-4.41l-25.05-24.16-29.86-28.63-27.56-26.42-25.14-23.99-28.72-27.5-26.13-25.27c-4.03-3.9-8.22-7.1-12.39-11.45Z"/>
          <path class="cls-19" d="M375.17,193.01c-.6,32.39-9.66,64.07-26.29,91.87-63.64.52-125.45-27.83-155.28-86.53-1.39-2.74-2.58-5.1-2.46-7.62.27.08.59-.13.88-.11,44.34,35.89,113.47,36.25,163.78,11.67l19.38-9.28Z"/>
          <path class="cls-2" d="M188.32,187.83c.13.4-.13.93-.05,1.35-1.57,0-3.17-.04-4.73-.17-66.56-5.47-123.6,34.46-156.08,90.89-15.9-28.54-23.97-60.78-23.42-93.44,60.95-33.24,125.16-38.19,184.29,1.37Z"/>
          <path class="cls-15" d="M279.44,352c-28.52,15.78-60.69,23.77-93.28,23.16.14-1.61-.96-3.61-2.14-5.76-32.37-58.95-33.75-123.46,4.4-179.18.29-.11.8-.09,1.1,0-6.93,60.22,23.5,115.53,72.68,149.87,6.01,4.2,11.89,7.27,17.24,11.91Z"/>
          <path class="cls-8" d="M183.53,189.01v3.69c-40.25,18.92-69.29,55.87-81.38,99.2-5.34,19.13-7.38,37.88-7.54,57.16-28.09-16.73-51.26-40.59-67.16-69.15,32.48-56.43,89.53-96.36,156.08-90.89Z"/>
          <path class="cls-20" d="M186.16,375.17c-32.27-.6-63.82-9.6-91.55-26.12.16-19.27,2.2-38.03,7.54-57.16,12.09-43.33,41.13-80.28,81.38-99.2,1.65-.78,3.18-1.81,4.89-2.47-38.15,55.72-36.77,120.23-4.4,179.18,1.18,2.15,2.28,4.15,2.14,5.76Z"/>
          <path class="cls-18" d="M348.87,284.88c-3.15,5.27-6.57,10.38-10.23,15.32-13.09,17.64-29.2,32.81-47.59,44.82-3.78,2.47-7.65,4.8-11.61,6.99-5.35-4.64-11.23-7.71-17.24-11.91-49.18-34.34-79.61-89.65-72.68-149.87l1.61.5c-.12,2.52,1.07,4.89,2.46,7.62,29.83,58.7,91.64,87.05,155.28,86.53Z"/>
        </g>
      </g>
      <g>
        <g>
          <g>
            <path class="cls-14" d="M625.15,228.18V66.19h69.13c9.81,0,48.6,6.16,51.11,34.91,2.28,28.75-44.04,37.19-56.36,49.51-6.85,7.07,4.33,18.48,19.39,31.03,18.48,15.52,38.1,32.86,42.21,46.55h-37.88l-29.89-29.89c-25.78-25.78-13.69-40.16,1.14-52.25,13.23-10.72,25.33-21.45,25.33-42.44,0-27.38-25.55-29.21-25.55-29.21h-25.55c-2.28,3.19-2.28,7.53-2.28,11.18v142.6h-30.8Z"/>
            <path class="cls-14" d="M783.5,182.78c-8.67,25.78,1.83,41.98,7.76,45.4h-35.37l58.64-162h25.33l68.91,162h-36.51l-27.38-65.25h-54.76l-6.62,19.85ZM841.68,155.4l-27.15-64.34-21.68,64.34h48.83Z"/>
            <path class="cls-14" d="M929.29,228.18V66.19h30.8v162h-30.8Z"/>
            <path class="cls-14" d="M1005.73,127.34c0,37.88,12.09,78.72,24.41,100.85h-31.94V66.19h28.06l103.36,119.56v-39.47c0-17.57-9.13-67.99-23.96-80.09h31.94v162h-10.5l-121.38-133.25v32.4Z"/>
            <path class="cls-14" d="M1206.28,228.41h-30.8V66.19h30.8v74.61h71.87v-74.61h30.8v162.23h-30.8v-79.4l-71.87-.23v79.63Z"/>
            <path class="cls-14" d="M1358.24,182.78c-8.67,25.78,1.83,41.98,7.76,45.4h-35.37l58.64-162h25.33l68.91,162h-36.51l-27.38-65.25h-54.76l-6.62,19.85ZM1416.42,155.4l-27.15-64.34-21.68,64.34h48.83Z"/>
            <path class="cls-14" d="M1545.11,228.18V66.19h42.21c52.48,0,97.2,23.27,97.2,81.46s-44.26,80.54-97.2,80.54h-42.21ZM1587.32,220.2c43.12,0,61.15-33.54,61.15-72.56s-18.71-73.24-61.15-73.24h-9.81c-1.6,2.51-1.6,6.39-1.6,9.35v126.86c0,2.97,0,7.07,1.83,9.58h9.58Z"/>
            <path class="cls-14" d="M1789.01,63.91c47.91,0,83.74,35.37,83.74,83.28s-36.05,83.28-83.74,83.28-83.96-35.37-83.96-83.28,35.82-83.28,83.96-83.28ZM1806.35,218.6c4.56,0,8.9-.91,13.23-2.74,23.96-10.5,29.21-47.91,11.64-87.39-14.6-32.86-38.33-52.93-59.55-52.93-4.56,0-9.13.91-13.23,2.74-24.41,10.95-29.43,47.92-11.86,87.62,14.6,32.63,38.33,52.71,59.78,52.71Z"/>
          </g>
          <g>
            <path class="cls-14" d="M625.15,433.64v-162h50.88c23.27,0,65.71,2.51,65.71,34.22,0,25.55-25.55,34.22-46.55,36.51,24.64,2.74,56.36,14.15,56.36,43.81,0,38.33-41.75,47.46-72.33,47.46h-54.08ZM670.56,338.04c20.08,0,38.56-6.39,38.56-29.66,0-19.17-15.52-28.52-33.08-28.52h-17.8c-2.28,2.28-2.28,5.7-2.28,8.67v49.51h14.6ZM679.23,425.65c27.84,0,36.73-12.09,36.73-38.79,0-28.75-18.48-40.84-45.4-40.84h-14.6v69.13c0,3.65,0,7.53,2.51,10.5h20.76Z"/>
            <path class="cls-14" d="M851.72,269.36c47.91,0,83.74,35.37,83.74,83.28s-36.05,83.28-83.74,83.28-83.96-35.37-83.96-83.28,35.82-83.28,83.96-83.28ZM869.06,424.06c4.56,0,8.9-.91,13.23-2.74,23.96-10.5,29.21-47.91,11.64-87.39-14.6-32.86-38.33-52.93-59.55-52.93-4.56,0-9.13.91-13.23,2.74-24.41,10.95-29.43,47.92-11.86,87.62,14.6,32.63,38.33,52.71,59.78,52.71Z"/>
            <path class="cls-14" d="M1112.97,473.34l-40.16-43.81-2.28.91c-9.81,3.65-20.08,5.48-30.57,5.48-41.98,0-83.96-29.66-83.96-83.28s41.98-83.28,83.96-83.28,83.74,29.43,83.74,83.28c0,26.7-10.5,47.69-26.24,61.6-4.79,4.33-9.81,7.99-15.52,10.95l42.21,42.44-11.18,5.7ZM1047.03,390.06l23.27,23.5c1.6-2.05,3.19-4.11,4.56-6.39,7.53-13.01,11.41-31.71,11.41-54.53,0-45.63-15.29-75.29-46.32-75.29s-46.55,29.66-46.55,75.29,15.74,75.29,46.55,75.29c7.76,0,14.6-1.83,20.31-5.48,1.14-.68,2.51-1.6,3.65-2.51l-23.04-25.1,6.16-4.79Z"/>
            <path class="cls-14" d="M1274.28,377.05c0,36.05-21.68,58.87-57.95,58.87s-65.94-21.45-65.94-58.87v-105.41h30.8v99.25c0,25.78,10.04,52.48,39.93,52.48s44.26-20.76,44.26-47.91c0-36.51-9.81-73.01-32.86-103.82h41.75v105.41Z"/>
            <path class="cls-14" d="M1340.68,416.07c0,3.19.23,7.07,2.28,9.58h29.43c26.47,0,29.66-5.93,44.26-28.06v36.05h-106.78v-162h106.78v33.77c-12.55-18.71-22.13-26.01-47-25.78l-26.7.23c-2.51,2.51-2.28,6.39-2.28,9.58v57.5h18.25c7.3,0,18.48-3.88,24.19-11.64h2.05v36.51h-1.14s-14.15-18.02-25.1-18.02h-18.25v62.29Z"/>
            <path class="cls-14" d="M1519.79,433.64h-30.8v-150.82c0-1.14-.23-2.05-.23-3.19-29.43,0-41.3,6.84-55.22,35.14v-43.12h139.18v43.35c-14.83-25.55-23.73-34.91-52.02-35.37-.91.91-.91,2.51-.91,3.65v150.36Z"/>
            <path class="cls-14" d="M1629.08,416.07c0,3.19.23,7.07,2.28,9.58h29.43c26.47,0,29.66-5.93,44.26-28.06v36.05h-106.78v-162h106.78v33.77c-12.55-18.71-22.13-26.01-47-25.78l-26.7.23c-2.51,2.51-2.28,6.39-2.28,9.58v57.5h18.25c7.3,0,18.48-3.88,24.19-11.64h2.05v36.51h-1.14s-14.15-18.02-25.1-18.02h-18.25v62.29Z"/>
          </g>
        </g>
        <g>
          <path class="cls-4" d="M193.11,4.03c2.22,6.66,5.64,12.12,8.68,18.57,26.18,55.51,24.09,116.03-11.15,166.28-.62.26-1.69.3-2.37.3-.08-.42.18-.95.05-1.35-3.16-9.7-8.57-18.38-14.97-27.05-33.85-45.8-87.71-66.55-143.13-66.29C64.35,37.3,126.51,2.77,193.11,4.03Z"/>
          <path class="cls-21" d="M188.32,187.83c-59.13-39.56-123.35-34.61-184.29-1.37.55-32.42,9.58-64.12,26.19-91.96,55.41-.27,109.28,20.49,143.13,66.29,6.4,8.67,11.82,17.35,14.97,27.05Z"/>
          <path class="cls-17" d="M190.02,189.45c-31.36-64.55-89.8-92.93-159.79-95.01,16.98-27.95,40.98-50.97,69.62-66.75,48.39,27.98,84.74,73.47,90.9,130.58,1.17,10.81,1.46,21.13-.73,31.18Z"/>
          <path class="cls-13" d="M375.17,193.01l-19.38,9.28c-50.31,24.58-119.44,24.22-163.78-11.67,36.94,2.26,72.68-6.54,103.36-28.4,21.3-15.18,38.32-33.63,51.95-56.06,1.68-2.76,4.04-5.01,3.75-8.07,16.39,28.91,24.71,61.7,24.1,94.93Z"/>
          <path class="cls-16" d="M285.39,30.63c-1.5,23.9-3.91,46.76-12.29,69.45-14.7,39.8-43.79,72.54-82.46,88.81,35.24-50.25,37.33-110.77,11.15-166.28-3.04-6.45-6.46-11.91-8.68-18.57,32.56.62,64.39,9.79,92.28,26.6Z"/>
          <path class="cls-9" d="M351.07,98.08c.29,3.06-2.07,5.3-3.75,8.07-13.63,22.43-30.65,40.88-51.95,56.06-30.68,21.86-66.42,30.66-103.36,28.4-.28-.02-.61.2-.88.11l-1.61-.5c-.29-.09-.81-.11-1.1,0-1.71.66-3.24,1.69-4.89,2.47v-3.69c1.57.13,3.17.17,4.74.17.68,0,1.75-.03,2.37-.3,38.68-16.27,67.76-49,82.46-88.81,8.38-22.68,10.79-45.55,12.29-69.45,27.33,16.47,49.95,39.7,65.68,67.45Z"/>
          <g>
            <path class="cls-10" d="M291.05,345.02c18.39-12.01,34.51-27.18,47.59-44.82l28.01,26.48,27.53,26.33,27.6,26.38,28.66,27.46,26.41,25.21,27.94,26.92c4.7,4.53,9.05,8.02,13.14,13.64,10.08,13.85,6.06,34.08-7.21,44.21-14.16,10.81-32.36,7.62-44.84-4.41l-25.05-24.16-29.86-28.63-27.56-26.42-25.14-23.99-28.72-27.5-26.13-25.27c-4.03-3.9-8.22-7.1-12.39-11.45Z"/>
            <path class="cls-12" d="M375.17,193.01c-.6,32.39-9.66,64.07-26.29,91.87-63.64.52-125.45-27.83-155.28-86.53-1.39-2.74-2.58-5.1-2.46-7.62.27.08.59-.13.88-.11,44.34,35.89,113.47,36.25,163.78,11.67l19.38-9.28Z"/>
            <path class="cls-1" d="M188.32,187.83c.13.4-.13.93-.05,1.35-1.57,0-3.17-.04-4.73-.17-66.56-5.47-123.6,34.46-156.08,90.89-15.9-28.54-23.97-60.78-23.42-93.44,60.95-33.24,125.16-38.19,184.29,1.37Z"/>
            <path class="cls-15" d="M279.44,352c-28.52,15.78-60.69,23.77-93.28,23.16.14-1.61-.96-3.61-2.14-5.76-32.37-58.95-33.75-123.46,4.4-179.18.29-.11.8-.09,1.1,0-6.93,60.22,23.5,115.53,72.68,149.87,6.01,4.2,11.89,7.27,17.24,11.91Z"/>
            <path class="cls-23" d="M183.53,189.01v3.69c-40.25,18.92-69.29,55.87-81.38,99.2-5.34,19.13-7.38,37.88-7.54,57.16-28.09-16.73-51.26-40.59-67.16-69.15,32.48-56.43,89.53-96.36,156.08-90.89Z"/>
            <path class="cls-6" d="M186.16,375.17c-32.27-.6-63.82-9.6-91.55-26.12.16-19.27,2.2-38.03,7.54-57.16,12.09-43.33,41.13-80.28,81.38-99.2,1.65-.78,3.18-1.81,4.89-2.47-38.15,55.72-36.77,120.23-4.4,179.18,1.18,2.15,2.28,4.15,2.14,5.76Z"/>
            <path class="cls-3" d="M348.87,284.88c-3.15,5.27-6.57,10.38-10.23,15.32-13.09,17.64-29.2,32.81-47.59,44.82-3.78,2.47-7.65,4.8-11.61,6.99-5.35-4.64-11.23-7.71-17.24-11.91-49.18-34.34-79.61-89.65-72.68-149.87l1.61.5c-.12,2.52,1.07,4.89,2.46,7.62,29.83,58.7,91.64,87.05,155.28,86.53Z"/>
          </g>
        </g>
      </g>
      <path class="cls-11" d="M517.94,472.63c-4.09-5.62-8.44-9.11-13.14-13.64l-27.94-26.92-26.41-25.21-28.66-27.46-27.6-26.38-27.53-26.33-28.01-26.48h0c3.66-4.93,7.07-10.05,10.23-15.32,16.63-27.8,25.7-59.48,26.29-91.87.61-33.23-7.71-66.01-24.1-94.93-15.73-27.76-38.35-50.99-65.68-67.45-27.89-16.81-59.72-25.98-92.28-26.6C127.39,2.79,66.01,36.41,31.6,92.26c-.46.73-.93,1.45-1.38,2.19,0,0,.01,0,.02,0,0,.01-.02.03-.03.04-16.61,27.84-25.64,59.55-26.19,91.96-.55,32.67,7.53,64.9,23.42,93.44,15.91,28.56,39.08,52.42,67.16,69.15,27.73,16.52,59.28,25.52,91.55,26.12,32.59.6,64.76-7.39,93.28-23.16,3.95-2.19,7.82-4.52,11.61-6.99,4.6-3,9.05-6.2,13.35-9.59,2.15-1.69,4.26-3.43,6.34-5.22-2.07,1.79-4.18,3.53-6.34,5.22-4.3,3.39-8.76,6.59-13.35,9.59,4.18,4.35,8.36,7.55,12.39,11.45l26.13,25.27,28.72,27.5,25.14,23.99,27.56,26.42,29.86,28.63,25.05,24.16c12.48,12.03,30.68,15.22,44.84,4.41,13.27-10.13,17.29-30.36,7.21-44.21Z"/>
    </g>
  </g>
</svg>