<?xml version="1.0" encoding="UTF-8"?>
<svg id="Camada_2" data-name="Camada 2" xmlns="http://www.w3.org/2000/svg" xmlns:xlink="http://www.w3.org/1999/xlink" viewBox="0 0 1277.26 513.79">
  <defs>
    <style>
      .cls-1 {
        fill: #111;
      }

      .cls-2 {
        fill: url(#Gradiente_sem_nome_196-2);
      }

      .cls-3 {
        fill: none;
        stroke: #111;
        stroke-linecap: round;
        stroke-linejoin: round;
        stroke-width: 8px;
      }

      .cls-4 {
        fill: url(#Gradiente_sem_nome_422);
      }

      .cls-5 {
        fill: url(#Gradiente_sem_nome_196-3);
      }

      .cls-6 {
        fill: url(#Gradiente_sem_nome_196);
      }
    </style>
    <linearGradient id="Gradiente_sem_nome_196" data-name="Gradiente sem nome 196" x1="206.07" y1="262.77" x2="492.43" y2="262.77" gradientUnits="userSpaceOnUse">
      <stop offset="0" stop-color="#fac9a7"/>
      <stop offset=".99" stop-color="#ec6594"/>
    </linearGradient>
    <linearGradient id="Gradiente_sem_nome_196-2" data-name="Gradiente sem nome 196" x1="108.56" y1="249.9" x2="390.26" y2="249.9" xlink:href="#Gradiente_sem_nome_196"/>
    <linearGradient id="Gradiente_sem_nome_422" data-name="Gradiente sem nome 422" x1="235.17" y1="319.66" x2="237.52" y2="319.66" gradientUnits="userSpaceOnUse">
      <stop offset="0" stop-color="#623189"/>
      <stop offset="1" stop-color="#e84d95"/>
    </linearGradient>
    <linearGradient id="Gradiente_sem_nome_196-3" data-name="Gradiente sem nome 196" x1="4" y1="229.4" x2="248.17" y2="229.4" xlink:href="#Gradiente_sem_nome_196"/>
  </defs>
  <g id="Camada_1-2" data-name="Camada 1">
    <g>
      <g>
        <g>
          <path class="cls-6" d="M489.65,177.79c-5.08-21.98-12.5-43.6-27.33-59.69-2.04-2.21-2.79-5.67-5.5-8.35L361.45,15.75c.32,3.91,3.05,6.67,5.58,10.43,32.19,47.84,30.58,108.21,1.45,156.88-6.1,10.19-16.78,18.91-25.35,27.73l-51.91,53.44c-14.43,14.86-31.27,27.77-44.84,44.55-2.11,2.61-5.65,3.88-7.84,4.87-.03,2.85-1.33,5.17-3.38,7.84-40.15,52.53-37.51,121.78.26,174.3,3.52,4.89,5.83,10.59,13.46,13.99,16.96-16.4,32.84-32.95,48.76-49.15l9.55-9.72,64.43-65.94,21.47-20.78,16.34-16.83,16.13-15.7,18.2-18.62c7.21-7.38,19.78-23.22,19.78-23.22,24.62-25.06,34.1-77.38,26.09-112.03Z"/>
          <path class="cls-2" d="M367.03,26.18c-2.53-3.76-5.26-6.52-5.58-10.43-3.81-3.75-6.03-10.08-13.12-11.75l-100.16,99.16-88.02,90.49h0c-.67.99-1.45,1.92-2.31,2.64-57.55,47.62-69.29,131.15-25.83,192.47,1.9,2.68,3.16,5.74,4.23,8.02l99.19,99.03c-37.78-52.52-40.41-121.78-.26-174.3.97-1.27,1.77-2.47,2.35-3.67h.03s7.74-7.92,7.74-7.92c.39-.35.76-.71,1.09-1.12,13.57-16.79,30.41-29.7,44.84-44.55l51.91-53.44c8.57-8.83,19.25-17.54,25.35-27.73,29.13-48.67,30.75-109.05-1.45-156.88Z"/>
          <g>
            <path class="cls-4" d="M237.52,317.83c-.58,1.21-1.38,2.4-2.35,3.67.97-1.27,1.77-2.47,2.35-3.67Z"/>
            <path class="cls-5" d="M158.91,62.81c-7.77-.52-13.76-1.24-21.24-.42-23.62,2.61-47.06,7.68-65.34,21.79-5.67,4.38-12.91,6.69-19.3,12.47-26.41,23.92-43.48,56.05-49.03,91.08v38.3c4.52,24.98,12.84,50.54,31.4,69.41l79.79,81.14c7.1,7.22,12.27,16.35,21.05,20.18-1.08-2.28-2.34-5.34-4.23-8.02-43.46-61.33-31.71-144.86,25.83-192.47.86-.71,1.64-1.64,2.31-2.64l88.02-90.49c-24.3-22.77-55.2-38.06-89.27-40.35Z"/>
          </g>
        </g>
        <path class="cls-3" d="M489.65,177.79c-5.08-21.98-12.5-43.6-27.33-59.69-2.04-2.21-2.79-5.67-5.5-8.35L361.45,15.75c-3.81-3.75-6.03-10.08-13.12-11.75l-100.16,99.16-42.28,43.47,42.28-43.47c-24.3-22.77-55.2-38.06-89.27-40.35-7.77-.52-13.76-1.24-21.24-.42-23.62,2.61-47.06,7.68-65.34,21.79-5.67,4.38-12.91,6.69-19.3,12.47-26.41,23.92-43.48,56.05-49.03,91.08v38.3c4.52,24.98,12.84,50.54,31.4,69.41l79.79,81.14c7.1,7.22,12.27,16.35,21.05,20.18-.27-.57-.55-1.19-.85-1.84.3.65.58,1.27.85,1.84l99.19,99.03c3.52,4.89,5.83,10.59,13.46,13.99,16.96-16.4,32.84-32.95,48.76-49.15l9.55-9.72,64.43-65.94,21.47-20.78,16.34-16.83,16.13-15.7,18.2-18.62c7.21-7.38,19.78-23.22,19.78-23.22,24.62-25.06,34.1-77.38,26.09-112.03Z"/>
      </g>
      <g>
        <g>
          <g>
            <path class="cls-1" d="M688.78,200.07c3.11-16.07-6.21-37.09-28.5-38.01h-1.28c-18.83,0-36.55,14.98-36.55,49.34,0,29.23,16.45,59.93,48.96,59.93,21.02,0,36.72-10.6,44.4-30.15l3.11,1.46c-7.48,27.59-28.5,46.96-57.93,46.96-38.01,0-66.68-29.59-66.68-67.24,0-47.5,32.89-66.14,66.33-66.14,22.47,0,55.19,7.67,58.83,43.84h-30.7v.02Z"/>
            <path class="cls-1" d="M763.68,287.97h-24.66v-129.91h24.66v59.74h57.55v-59.74h24.66v129.91h-24.66v-63.59l-57.55-.19v63.78Z"/>
            <path class="cls-1" d="M885.36,251.42c-6.94,20.65,1.46,33.62,6.21,36.36h-28.32l46.96-129.73h20.29l55.19,129.73h-29.23l-21.92-52.26h-43.84l-5.31,15.9h-.02ZM931.96,229.5l-21.75-51.53-17.36,51.53h39.12Z"/>
            <path class="cls-1" d="M1061.29,289.43l-52.81-112.19v39.47c0,15.17,3.66,47.69,19.56,71.07h-25.58v-129.73h23.93l46.22,99.22,41.84-99.22h21.92l1.28,129.73h-25.03v-108.35l-45.87,110h-5.48.02Z"/>
            <path class="cls-1" d="M1176.94,251.42c-6.94,20.65,1.46,33.62,6.21,36.36h-28.32l46.96-129.73h20.29l55.19,129.73h-29.23l-21.92-52.26h-43.84l-5.31,15.9h-.02ZM1223.54,229.5l-21.75-51.53-17.36,51.53h39.12Z"/>
          </g>
          <g>
            <path class="cls-1" d="M610.02,392.52c-6.94,20.65,1.46,33.62,6.21,36.36h-28.32l46.96-129.73h20.29l55.19,129.73h-29.23l-21.92-52.26h-43.84l-5.31,15.9h-.02ZM656.62,370.58l-21.75-51.53-17.36,51.53h39.12Z"/>
            <path class="cls-1" d="M805.7,341.18c3.11-16.09-6.21-37.09-28.5-38.01h-1.28c-18.83,0-36.55,14.98-36.55,49.34,0,29.23,16.45,59.93,48.96,59.93,21.02,0,36.72-10.6,44.4-30.15l3.11,1.46c-7.48,27.59-28.5,46.96-57.93,46.96-38.01,0-66.68-29.61-66.68-67.24,0-47.5,32.89-66.14,66.33-66.14,22.47,0,55.19,7.67,58.83,43.86h-30.7Z"/>
            <path class="cls-1" d="M880.61,414.8c0,2.55.19,5.66,1.84,7.67h23.57c21.19,0,23.76-4.74,35.44-22.47v28.88h-85.51v-129.73h85.51v27.04c-10.05-14.98-17.72-20.83-37.64-20.65l-21.38.19c-2.01,2.01-1.84,5.12-1.84,7.67v46.04h14.63c5.85,0,14.8-3.11,19.37-9.32h1.65v29.23h-.92s-11.33-14.44-20.1-14.44h-14.63v49.88h0Z"/>
            <path class="cls-1" d="M982.01,389.6c.19,19.18,8.21,35.63,27.23,35.63,11.33,0,27.58-4.2,27.58-18.27,0-31.79-78.74-30.88-78.74-75.83,0-27.41,31.05-33.81,52.81-33.81,24.66,0,49.69,7.86,51.53,37.09h-27.77c-.36-15.53-4.93-31.62-24.3-31.62-14.06,0-25.22,7.5-25.22,22.47,0,28.5,79.3,32.52,79.3,71.99,0,18.27-26.5,33.44-55.54,33.44-26.85,0-53.72-10.05-54.63-41.11h27.77l-.02.02Z"/>
            <path class="cls-1" d="M1093.45,392.52c-6.94,20.65,1.46,33.62,6.21,36.36h-28.32l46.96-129.73h20.29l55.19,129.73h-29.23l-21.92-52.26h-43.84l-5.31,15.9h-.02ZM1140.05,370.58l-21.75-51.53-17.36,51.53h39.12Z"/>
          </g>
        </g>
        <g>
          <path class="cls-1" d="M614.27,134.37c-3.79,0-7.3-.64-10.52-1.91-3.22-1.27-6-3.06-8.35-5.37-2.35-2.3-4.19-5.02-5.51-8.14-1.32-3.12-1.98-6.53-1.98-10.23s.66-7.11,1.98-10.23c1.32-3.12,3.17-5.83,5.55-8.14s5.17-4.09,8.39-5.37c3.22-1.27,6.72-1.91,10.52-1.91s7.08.61,10.3,1.84c3.22,1.22,5.93,3.06,8.14,5.51l-3.39,3.38c-2.07-2.11-4.35-3.64-6.84-4.57-2.5-.94-5.19-1.4-8.07-1.4-3.02,0-5.83.52-8.43,1.55-2.59,1.03-4.85,2.5-6.77,4.39-1.92,1.9-3.42,4.1-4.5,6.63-1.08,2.52-1.62,5.29-1.62,8.32s.54,5.8,1.62,8.32c1.08,2.52,2.58,4.73,4.5,6.63,1.92,1.9,4.18,3.36,6.77,4.39,2.59,1.03,5.4,1.55,8.43,1.55s5.57-.48,8.07-1.44c2.5-.96,4.78-2.5,6.84-4.61l3.39,3.38c-2.21,2.45-4.92,4.3-8.14,5.55-3.22,1.25-6.67,1.87-10.37,1.87Z"/>
          <path class="cls-1" d="M662.96,134.37c-3.79,0-7.31-.64-10.55-1.91-3.24-1.27-6.05-3.07-8.43-5.4-2.38-2.33-4.23-5.04-5.55-8.14-1.32-3.1-1.98-6.49-1.98-10.19s.66-7.09,1.98-10.19c1.32-3.1,3.17-5.81,5.55-8.14,2.38-2.33,5.17-4.13,8.39-5.4,3.22-1.27,6.75-1.91,10.59-1.91s7.3.64,10.52,1.91c3.22,1.27,6.01,3.06,8.39,5.37,2.38,2.3,4.22,5.02,5.55,8.14,1.32,3.12,1.98,6.53,1.98,10.23s-.66,7.11-1.98,10.23c-1.32,3.12-3.17,5.83-5.55,8.14-2.38,2.3-5.17,4.09-8.39,5.37-3.22,1.27-6.72,1.91-10.52,1.91ZM662.96,129.61c3.02,0,5.82-.52,8.39-1.55,2.57-1.03,4.8-2.5,6.7-4.39,1.9-1.9,3.37-4.11,4.43-6.63,1.06-2.52,1.58-5.29,1.58-8.32s-.53-5.8-1.58-8.32c-1.06-2.52-2.53-4.73-4.43-6.63-1.9-1.9-4.13-3.36-6.7-4.39-2.57-1.03-5.37-1.55-8.39-1.55s-5.83.52-8.43,1.55c-2.59,1.03-4.85,2.5-6.77,4.39-1.92,1.9-3.41,4.1-4.47,6.63-1.06,2.52-1.58,5.29-1.58,8.32s.53,5.74,1.58,8.28c1.06,2.55,2.54,4.77,4.47,6.66,1.92,1.9,4.18,3.36,6.77,4.39,2.59,1.03,5.4,1.55,8.43,1.55Z"/>
          <path class="cls-1" d="M701.35,133.93v-50.42h4.39l34.79,43.79h-2.3v-43.79h5.26v50.42h-4.39l-34.71-43.79h2.3v43.79h-5.33Z"/>
          <path class="cls-1" d="M773.8,134.37c-3.75,0-7.33-.61-10.77-1.84-3.43-1.22-6.09-2.8-7.96-4.72l2.09-4.1c1.78,1.73,4.17,3.18,7.17,4.36,3,1.18,6.16,1.76,9.47,1.76s5.75-.4,7.74-1.19c1.99-.79,3.46-1.86,4.39-3.21.94-1.34,1.4-2.83,1.4-4.47,0-1.97-.56-3.55-1.69-4.75-1.13-1.2-2.61-2.15-4.43-2.84-1.83-.7-3.84-1.31-6.05-1.84-2.21-.53-4.42-1.09-6.63-1.69-2.21-.6-4.24-1.4-6.09-2.41-1.85-1.01-3.34-2.34-4.47-4-1.13-1.66-1.69-3.83-1.69-6.52,0-2.5.66-4.79,1.98-6.88,1.32-2.09,3.35-3.77,6.09-5.04,2.74-1.27,6.24-1.91,10.52-1.91,2.83,0,5.64.4,8.43,1.19,2.78.79,5.19,1.89,7.2,3.28l-1.8,4.25c-2.16-1.44-4.45-2.5-6.88-3.17-2.43-.67-4.77-1.01-7.02-1.01-3.02,0-5.52.41-7.49,1.22-1.97.82-3.42,1.91-4.36,3.28s-1.4,2.92-1.4,4.65c0,1.97.56,3.55,1.69,4.75,1.13,1.2,2.62,2.14,4.47,2.81,1.85.67,3.88,1.27,6.09,1.8,2.21.53,4.4,1.1,6.59,1.73,2.18.62,4.2,1.43,6.05,2.41,1.85.98,3.34,2.29,4.47,3.92,1.13,1.63,1.69,3.77,1.69,6.41,0,2.45-.67,4.72-2.02,6.81-1.34,2.09-3.4,3.77-6.16,5.04-2.76,1.27-6.3,1.91-10.62,1.91Z"/>
          <path class="cls-1" d="M824.5,134.37c-6.43,0-11.5-1.85-15.2-5.55-3.7-3.7-5.55-9.17-5.55-16.42v-28.88h5.33v28.67c0,5.95,1.34,10.35,4.03,13.18,2.69,2.83,6.48,4.25,11.38,4.25s8.76-1.42,11.45-4.25c2.69-2.83,4.03-7.23,4.03-13.18v-28.67h5.19v28.88c0,7.25-1.84,12.72-5.51,16.42-3.67,3.7-8.73,5.55-15.16,5.55Z"/>
          <path class="cls-1" d="M861.23,133.93v-50.42h5.33v45.81h28.23v4.61h-33.56Z"/>
          <path class="cls-1" d="M907.9,133.93v-45.81h-17.72v-4.61h40.76v4.61h-17.72v45.81h-5.33Z"/>
          <path class="cls-1" d="M960.77,134.37c-3.79,0-7.31-.64-10.55-1.91-3.24-1.27-6.05-3.07-8.43-5.4-2.38-2.33-4.23-5.04-5.55-8.14-1.32-3.1-1.98-6.49-1.98-10.19s.66-7.09,1.98-10.19c1.32-3.1,3.17-5.81,5.55-8.14,2.38-2.33,5.17-4.13,8.39-5.4,3.22-1.27,6.75-1.91,10.59-1.91s7.3.64,10.52,1.91c3.22,1.27,6.01,3.06,8.39,5.37,2.38,2.3,4.22,5.02,5.55,8.14,1.32,3.12,1.98,6.53,1.98,10.23s-.66,7.11-1.98,10.23c-1.32,3.12-3.17,5.83-5.55,8.14-2.38,2.3-5.17,4.09-8.39,5.37-3.22,1.27-6.72,1.91-10.52,1.91ZM960.77,129.61c3.02,0,5.82-.52,8.39-1.55,2.57-1.03,4.8-2.5,6.7-4.39,1.9-1.9,3.37-4.11,4.43-6.63,1.06-2.52,1.58-5.29,1.58-8.32s-.53-5.8-1.58-8.32c-1.06-2.52-2.53-4.73-4.43-6.63-1.9-1.9-4.13-3.36-6.7-4.39-2.57-1.03-5.37-1.55-8.39-1.55s-5.83.52-8.43,1.55c-2.59,1.03-4.85,2.5-6.77,4.39-1.92,1.9-3.41,4.1-4.47,6.63-1.06,2.52-1.58,5.29-1.58,8.32s.53,5.74,1.58,8.28c1.06,2.55,2.54,4.77,4.47,6.66,1.92,1.9,4.18,3.36,6.77,4.39,2.59,1.03,5.4,1.55,8.43,1.55Z"/>
          <path class="cls-1" d="M999.16,133.93v-50.42h18.87c6.39,0,11.42,1.52,15.09,4.57,3.67,3.05,5.51,7.29,5.51,12.71,0,3.55-.83,6.61-2.48,9.18-1.66,2.57-4.02,4.54-7.09,5.91-3.07,1.37-6.75,2.05-11.02,2.05h-15.92l2.38-2.45v18.44h-5.33ZM1004.49,115.93l-2.38-2.52h15.77c5.04,0,8.87-1.1,11.49-3.31,2.62-2.21,3.93-5.31,3.93-9.29s-1.31-7.15-3.93-9.36c-2.62-2.21-6.45-3.31-11.49-3.31h-15.77l2.38-2.52v30.32ZM1033.58,133.93l-12.96-18.29h5.76l13.04,18.29h-5.83Z"/>
          <path class="cls-1" d="M1051.23,133.93v-50.42h5.33v50.42h-5.33Z"/>
          <path class="cls-1" d="M1064.91,133.93l23.05-50.42h5.26l23.05,50.42h-5.62l-21.17-47.32h2.16l-21.17,47.32h-5.55ZM1073.99,120.47l1.58-4.32h29.31l1.58,4.32h-32.48Z"/>
        </g>
      </g>
    </g>
  </g>
</svg>