<?xml version="1.0" encoding="UTF-8"?>
<svg id="Camada_2" data-name="Camada 2" xmlns="http://www.w3.org/2000/svg" xmlns:xlink="http://www.w3.org/1999/xlink" viewBox="0 0 1645.71 513.79">
  <defs>
    <style>
      .cls-1 {
        fill: url(#Gradiente_sem_nome_196-2);
      }

      .cls-2 {
        fill: none;
        stroke: #111;
        stroke-linecap: round;
        stroke-linejoin: round;
        stroke-width: 8px;
      }

      .cls-3 {
        fill: url(#Gradiente_sem_nome_422);
      }

      .cls-4 {
        fill: url(#Gradiente_sem_nome_196-3);
      }

      .cls-5 {
        fill: url(#Gradiente_sem_nome_196);
      }
    </style>
    <linearGradient id="Gradiente_sem_nome_196" data-name="Gradiente sem nome 196" x1="206.07" y1="262.77" x2="492.43" y2="262.77" gradientUnits="userSpaceOnUse">
      <stop offset="0" stop-color="#fac9a7"/>
      <stop offset=".99" stop-color="#ec6594"/>
    </linearGradient>
    <linearGradient id="Gradiente_sem_nome_196-2" data-name="Gradiente sem nome 196" x1="108.56" y1="249.9" x2="390.26" y2="249.9" xlink:href="#Gradiente_sem_nome_196"/>
    <linearGradient id="Gradiente_sem_nome_422" data-name="Gradiente sem nome 422" x1="235.17" y1="319.66" x2="237.52" y2="319.66" gradientUnits="userSpaceOnUse">
      <stop offset="0" stop-color="#623189"/>
      <stop offset="1" stop-color="#e84d95"/>
    </linearGradient>
    <linearGradient id="Gradiente_sem_nome_196-3" data-name="Gradiente sem nome 196" x1="4" y1="229.4" x2="248.17" y2="229.4" xlink:href="#Gradiente_sem_nome_196"/>
  </defs>
  <g id="Camada_1-2" data-name="Camada 1">
    <g>
      <path d="M622.38,280.45V69.36h90.08c12.78,0,63.33,8.03,66.6,45.49,2.97,37.46-57.38,48.46-73.43,64.52-8.92,9.22,5.65,24.08,25.27,40.43,24.08,20.22,49.65,42.81,55,60.65h-49.35l-38.95-38.95c-33.6-33.6-17.84-52.33,1.49-68.08,17.24-13.97,33-27.95,33-55.3,0-35.68-33.3-38.06-33.3-38.06h-33.3c-2.97,4.16-2.97,9.81-2.97,14.57v185.82h-40.14Z"/>
      <path d="M813.54,280.45V69.36h40.14v211.09h-40.14Z"/>
      <path d="M999.66,280.45h-40.14V83.93c0-1.49-.3-2.68-.3-4.16-38.35,0-53.81,8.92-71.95,45.79v-56.19h181.36v56.49c-19.33-33.3-30.92-45.49-67.79-46.08-1.19,1.19-1.19,3.27-1.19,4.76v195.93Z"/>
      <path d="M1260.4,206.72c0,46.97-28.24,76.7-75.52,76.7s-85.92-27.95-85.92-76.7V69.36h40.14v129.33c0,33.59,13.08,68.38,52.03,68.38s57.68-27.06,57.68-62.43c0-47.57-12.78-95.14-42.81-135.28h54.41v137.36Z"/>
      <path d="M1321.94,221.28c-11.3,33.6,2.38,54.7,10.11,59.16h-46.08l76.41-211.09h33l89.79,211.09h-47.57l-35.68-85.03h-71.35l-8.62,25.87ZM1397.75,185.61l-35.38-83.84-28.24,83.84h63.62Z"/>
      <path d="M1511.92,280.45V69.36h40.14v188.2c0,4.46,0,10.11,3.27,13.38h23.19c34.49,0,53.22-12.79,67.19-41.62v51.14h-133.79Z"/>
      <path d="M685.8,442.48h-26.26v-128.6c0-.97-.19-1.75-.19-2.72-25.1,0-35.21,5.84-47.08,29.96v-36.77h118.68v36.96c-12.65-21.79-20.23-29.77-44.36-30.16-.78.78-.78,2.14-.78,3.11v128.21Z"/>
      <path d="M762.65,403.77c-7.39,21.98,1.56,35.8,6.61,38.72h-30.16l50-138.13h21.6l58.75,138.13h-31.13l-23.35-55.64h-46.69l-5.64,16.93ZM812.26,380.42l-23.15-54.86-18.48,54.86h41.63ZM778.99,292.49l21.59-28.21h17.12l21.59,28.21-1.75,1.75-28.4-16.34-28.4,16.34-1.75-1.75Z"/>
      <path d="M904.09,356.49c0,32.29,10.31,67.12,20.82,85.99h-27.24v-138.13h23.93l88.13,101.94v-33.66c0-14.98-7.78-57.98-20.43-68.29h27.24v138.13h-8.95l-103.5-113.62v27.63Z"/>
      <path d="M1112.25,442.48h-26.26v-128.6c0-.97-.19-1.75-.19-2.72-25.1,0-35.21,5.84-47.08,29.96v-36.77h118.68v36.96c-12.65-21.79-20.23-29.77-44.36-30.16-.78.78-.78,2.14-.78,3.11v128.21Z"/>
      <path d="M1179.18,442.48v-138.13h58.95c8.37,0,41.44,5.25,43.58,29.77,1.95,24.51-37.55,31.71-48.05,42.22-5.84,6.03,3.7,15.76,16.54,26.46,15.76,13.23,32.49,28.02,35.99,39.69h-32.3l-25.49-25.49c-21.98-21.98-11.67-34.24.97-44.55,11.28-9.14,21.6-18.29,21.6-36.19,0-23.35-21.79-24.9-21.79-24.9h-21.79c-1.95,2.72-1.95,6.42-1.95,9.53v121.59h-26.26Z"/>
      <path d="M1304.27,442.48v-138.13h26.26v138.13h-26.26Z"/>
      <path d="M1456.41,349.1c3.31-17.12-6.61-39.49-30.35-40.47h-1.36c-20.04,0-38.91,15.95-38.91,52.53,0,31.13,17.51,63.81,52.14,63.81,22.37,0,39.1-11.28,47.28-32.1l3.31,1.56c-7.98,29.38-30.35,50-61.67,50-40.47,0-71.01-31.52-71.01-71.59,0-50.58,35.02-70.43,70.62-70.43,23.93,0,58.75,8.17,62.65,46.69h-32.68Z"/>
      <path d="M1574.31,302.41c40.86,0,71.4,30.16,71.4,71.01s-30.74,71.01-71.4,71.01-71.59-30.16-71.59-71.01,30.54-71.01,71.59-71.01ZM1589.09,434.31c3.89,0,7.59-.78,11.28-2.33,20.43-8.95,24.9-40.86,9.92-74.51-12.45-28.01-32.68-45.14-50.78-45.14-3.89,0-7.78.78-11.28,2.33-20.82,9.34-25.1,40.86-10.12,74.71,12.45,27.82,32.68,44.94,50.97,44.94Z"/>
    </g>
    <g>
      <g>
        <path class="cls-5" d="M489.65,177.79c-5.08-21.98-12.5-43.6-27.33-59.69-2.04-2.21-2.79-5.67-5.5-8.35L361.45,15.75c.32,3.91,3.05,6.67,5.58,10.43,32.19,47.84,30.58,108.21,1.45,156.88-6.1,10.19-16.78,18.91-25.35,27.73l-51.91,53.44c-14.43,14.86-31.27,27.77-44.84,44.55-2.11,2.61-5.65,3.88-7.84,4.87-.03,2.85-1.33,5.17-3.38,7.84-40.15,52.53-37.51,121.78.26,174.3,3.52,4.89,5.83,10.59,13.46,13.99,16.96-16.4,32.84-32.95,48.76-49.15l9.55-9.72,64.43-65.94,21.47-20.78,16.34-16.83,16.13-15.7,18.2-18.62c7.21-7.38,19.78-23.22,19.78-23.22,24.62-25.06,34.1-77.38,26.09-112.03Z"/>
        <path class="cls-1" d="M367.03,26.18c-2.53-3.76-5.26-6.52-5.58-10.43-3.81-3.75-6.03-10.08-13.12-11.75l-100.16,99.16-88.02,90.49h0c-.67.99-1.45,1.92-2.31,2.64-57.55,47.62-69.29,131.15-25.83,192.47,1.9,2.68,3.16,5.74,4.23,8.02l99.19,99.03c-37.78-52.52-40.41-121.78-.26-174.3.97-1.27,1.77-2.47,2.35-3.67h.03s7.74-7.92,7.74-7.92c.39-.35.76-.71,1.09-1.12,13.57-16.79,30.41-29.7,44.84-44.55l51.91-53.44c8.57-8.83,19.25-17.54,25.35-27.73,29.13-48.67,30.75-109.05-1.45-156.88Z"/>
        <g>
          <path class="cls-3" d="M237.52,317.83c-.58,1.21-1.38,2.4-2.35,3.67.97-1.27,1.77-2.47,2.35-3.67Z"/>
          <path class="cls-4" d="M158.91,62.81c-7.77-.52-13.76-1.24-21.24-.42-23.62,2.61-47.06,7.68-65.34,21.79-5.67,4.38-12.91,6.69-19.3,12.47-26.41,23.92-43.48,56.05-49.03,91.08v38.3c4.52,24.98,12.84,50.54,31.4,69.41l79.79,81.14c7.1,7.22,12.27,16.35,21.05,20.18-1.08-2.28-2.34-5.34-4.23-8.02-43.46-61.33-31.71-144.86,25.83-192.47.86-.71,1.64-1.64,2.31-2.64l88.02-90.49c-24.3-22.77-55.2-38.06-89.27-40.35Z"/>
        </g>
      </g>
      <path class="cls-2" d="M489.65,177.79c-5.08-21.98-12.5-43.6-27.33-59.69-2.04-2.21-2.79-5.67-5.5-8.35L361.45,15.75c-3.81-3.75-6.03-10.08-13.12-11.75l-100.16,99.16-42.28,43.47,42.28-43.47c-24.3-22.77-55.2-38.06-89.27-40.35-7.77-.52-13.76-1.24-21.24-.42-23.62,2.61-47.06,7.68-65.34,21.79-5.67,4.38-12.91,6.69-19.3,12.47-26.41,23.92-43.48,56.05-49.03,91.08v38.3c4.52,24.98,12.84,50.54,31.4,69.41l79.79,81.14c7.1,7.22,12.27,16.35,21.05,20.18-.27-.57-.55-1.19-.85-1.84.3.65.58,1.27.85,1.84l99.19,99.03c3.52,4.89,5.83,10.59,13.46,13.99,16.96-16.4,32.84-32.95,48.76-49.15l9.55-9.72,64.43-65.94,21.47-20.78,16.34-16.83,16.13-15.7,18.2-18.62c7.21-7.38,19.78-23.22,19.78-23.22,24.62-25.06,34.1-77.38,26.09-112.03Z"/>
    </g>
  </g>
</svg>