<?xml version="1.0" encoding="UTF-8"?>
<svg id="Camada_2" data-name="Camada 2" xmlns="http://www.w3.org/2000/svg" xmlns:xlink="http://www.w3.org/1999/xlink" viewBox="0 0 2483.73 463.76">
  <defs>
    <style>
      .cls-1 {
        fill: #fff;
      }

      .cls-2 {
        fill: url(#Gradiente_sem_nome_67);
      }

      .cls-3 {
        fill: #efefef;
      }
    </style>
    <linearGradient id="Gradiente_sem_nome_67" data-name="Gradiente sem nome 67" x1="5.68" y1="231.88" x2="583.74" y2="231.88" gradientUnits="userSpaceOnUse">
      <stop offset="0" stop-color="#fb74ab"/>
      <stop offset="1" stop-color="#662c91"/>
    </linearGradient>
  </defs>
  <g id="Camada_1-2" data-name="Camada 1">
    <g>
      <g>
        <g>
          <path class="cls-3" d="M735.54,210.15V48.16h69.13c9.81,0,48.6,6.16,51.11,34.91,2.28,28.75-44.04,37.19-56.36,49.51-6.84,7.07,4.33,18.48,19.39,31.03,18.48,15.52,38.1,32.86,42.21,46.55h-37.88l-29.89-29.89c-25.78-25.78-13.69-40.16,1.14-52.25,13.23-10.72,25.33-21.45,25.33-42.44,0-27.38-25.55-29.21-25.55-29.21h-25.55c-2.28,3.19-2.28,7.53-2.28,11.18v142.6h-30.8Z"/>
          <path class="cls-3" d="M893.89,164.75c-8.67,25.78,1.83,41.98,7.76,45.4h-35.37l58.64-162h25.33l68.91,162h-36.51l-27.38-65.25h-54.76l-6.62,19.85ZM952.07,137.37l-27.15-64.34-21.68,64.34h48.83Z"/>
          <path class="cls-3" d="M1039.68,210.15V48.16h30.8v162h-30.8Z"/>
          <path class="cls-3" d="M1116.11,109.3c0,37.88,12.09,78.72,24.41,100.85h-31.94V48.16h28.06l103.36,119.56v-39.47c0-17.57-9.13-67.99-23.96-80.09h31.94v162h-10.5l-121.38-133.25v32.4Z"/>
          <path class="cls-3" d="M1316.67,210.38h-30.8V48.16h30.8v74.61h71.87V48.16h30.8v162.23h-30.8v-79.4l-71.87-.23v79.63Z"/>
          <path class="cls-3" d="M1468.63,164.75c-8.67,25.78,1.83,41.98,7.76,45.4h-35.37l58.64-162h25.33l68.91,162h-36.51l-27.38-65.25h-54.76l-6.62,19.85ZM1526.81,137.37l-27.15-64.34-21.68,64.34h48.83Z"/>
          <path class="cls-3" d="M1655.49,210.15V48.16h42.21c52.48,0,97.2,23.27,97.2,81.46s-44.26,80.54-97.2,80.54h-42.21ZM1697.7,202.17c43.12,0,61.15-33.54,61.15-72.56s-18.71-73.24-61.15-73.24h-9.81c-1.6,2.51-1.6,6.39-1.6,9.35v126.86c0,2.97,0,7.07,1.83,9.58h9.58Z"/>
          <path class="cls-3" d="M1899.4,45.87c47.92,0,83.74,35.37,83.74,83.28s-36.05,83.28-83.74,83.28-83.96-35.37-83.96-83.28,35.82-83.28,83.96-83.28ZM1916.74,200.57c4.56,0,8.9-.91,13.23-2.74,23.96-10.5,29.21-47.91,11.64-87.39-14.6-32.86-38.33-52.93-59.55-52.93-4.56,0-9.13.91-13.23,2.74-24.41,10.95-29.43,47.92-11.86,87.62,14.6,32.63,38.33,52.71,59.78,52.71Z"/>
        </g>
        <g>
          <path class="cls-3" d="M735.54,415.61v-162h53.85c30.8,0,63.89,4.33,63.89,42.9,0,42.67-57.5,43.12-86.93,43.12v75.98h-30.8ZM787.33,332.56c23.27,0,30.35-15.29,30.35-36.28,0-18.03-7.99-34.45-28.29-34.45h-19.85c-2.97,2.97-3.19,4.11-3.19,8.21v62.52h20.99Z"/>
          <path class="cls-3" d="M952.98,251.33c47.92,0,83.74,35.37,83.74,83.28s-36.05,83.28-83.74,83.28-83.96-35.37-83.96-83.28,35.82-83.28,83.96-83.28ZM970.32,406.02c4.56,0,8.9-.91,13.23-2.74,23.96-10.5,29.21-47.91,11.64-87.39-14.6-32.86-38.33-52.93-59.55-52.93-4.56,0-9.13.91-13.23,2.74-24.41,10.95-29.43,47.92-11.86,87.62,14.6,32.63,38.33,52.71,59.78,52.71Z"/>
          <path class="cls-3" d="M1139.62,417.66l-65.94-140.09v49.28c0,18.94,4.56,59.55,24.41,88.76h-31.94v-162h29.89l57.73,123.89,52.25-123.89h27.38l1.6,162h-31.26v-135.3l-57.27,137.36h-6.84Z"/>
          <path class="cls-3" d="M1272.41,415.61v-162h53.85c30.8,0,63.89,4.33,63.89,42.9,0,42.67-57.5,43.12-86.93,43.12v75.98h-30.8ZM1324.21,332.56c23.27,0,30.35-15.29,30.35-36.28,0-18.03-7.99-34.45-28.29-34.45h-19.85c-2.97,2.97-3.19,4.11-3.19,8.21v62.52h20.99Z"/>
          <path class="cls-3" d="M1489.85,251.33c47.92,0,83.74,35.37,83.74,83.28s-36.05,83.28-83.74,83.28-83.96-35.37-83.96-83.28,35.82-83.28,83.96-83.28ZM1507.19,406.02c4.56,0,8.9-.91,13.23-2.74,23.96-10.5,29.21-47.91,11.64-87.39-14.6-32.86-38.33-52.93-59.55-52.93-4.56,0-9.13.91-13.23,2.74-24.41,10.95-29.43,47.92-11.86,87.62,14.6,32.63,38.33,52.71,59.78,52.71Z"/>
          <path class="cls-3" d="M1607.36,370.2c-8.67,25.78,1.83,41.98,7.76,45.4h-35.37l58.64-162h25.33l68.91,162h-36.51l-27.38-65.25h-54.76l-6.62,19.85ZM1665.54,342.82l-27.15-64.34-21.68,64.34h48.83Z"/>
          <path class="cls-3" d="M1753.15,415.61v-162h69.13c9.81,0,48.6,6.16,51.11,34.91,2.28,28.75-44.04,37.19-56.36,49.51-6.85,7.07,4.33,18.48,19.39,31.03,18.48,15.52,38.1,32.86,42.21,46.55h-37.88l-29.89-29.89c-25.78-25.78-13.69-40.16,1.14-52.25,13.23-10.72,25.33-21.45,25.33-42.44,0-27.38-25.55-29.21-25.55-29.21h-25.55c-2.28,3.19-2.28,7.53-2.28,11.18v142.6h-30.8Z"/>
          <path class="cls-3" d="M1899.86,415.61v-162h30.8v162h-30.8Z"/>
          <path class="cls-3" d="M1990.21,366.55c.23,23.96,10.27,44.49,34,44.49,14.15,0,34.45-5.25,34.45-22.82,0-39.7-98.34-38.56-98.34-94.69,0-34.22,38.79-42.21,65.94-42.21,30.8,0,62.06,9.81,64.34,46.32h-34.68c-.46-19.39-6.16-39.47-30.35-39.47-17.57,0-31.49,9.35-31.49,28.06,0,35.59,99.02,40.61,99.02,89.9,0,22.82-33.08,41.75-69.36,41.75-33.54,0-67.08-12.55-68.22-51.34h34.68Z"/>
          <path class="cls-3" d="M2191.68,417.66l-65.94-140.09v49.28c0,18.94,4.56,59.55,24.41,88.76h-31.94v-162h29.89l57.73,123.89,52.25-123.89h27.38l1.6,162h-31.26v-135.3l-57.27,137.36h-6.85Z"/>
          <path class="cls-3" d="M2400,251.33c47.91,0,83.74,35.37,83.74,83.28s-36.05,83.28-83.74,83.28-83.96-35.37-83.96-83.28,35.82-83.28,83.96-83.28ZM2417.34,406.02c4.56,0,8.9-.91,13.23-2.74,23.96-10.5,29.21-47.91,11.64-87.39-14.6-32.86-38.33-52.93-59.55-52.93-4.56,0-9.13.91-13.23,2.74-24.41,10.95-29.43,47.92-11.86,87.62,14.6,32.63,38.33,52.71,59.78,52.71Z"/>
        </g>
      </g>
      <g id="icon">
        <path class="cls-2" d="M356.4,458.08c-4.55,0-9.12-.04-13.71-.08-4.58-.04-9.18-.08-13.78-.08H83.12c-25.91,0-45.76-7.03-59.01-20.9-13.32-13.93-19.46-34.25-18.28-60.38,3.3-75.8,33.17-148.17,84.1-203.78,50.88-55.55,120.33-91.71,195.59-101.83,2.14-.42,6.58-4.26,7.9-7.3,13.48-36.35,43.4-58.05,80.06-58.05.33,0,.67,0,1,0,36.51.4,66.2,22.08,79.44,58.02,1.71,3.86,6.17,8.3,10.02,9.95,13.43,5.97,27.14,11.64,40.4,17.13,13.33,5.52,27.11,11.22,40.6,17.22,25.4,11.43,38.81,31.53,38.81,58.16s-12.29,44.77-36.54,57.95c-36.97,20.32-73.09,40.71-111.33,62.29-9.92,5.6-19.89,11.23-29.94,16.89,1.06,1.11,2.11,2.19,3.14,3.26,2.85,2.95,5.54,5.73,8.27,8.66,7.19,7.64,14.44,15.45,21.45,23,16.18,17.43,32.9,35.45,50.02,52.57.05.05.09.09.14.14,3.65,3.92,11.09,7.17,18.95,8.31,2.68.3,5.6.44,9.17.44,2.7,0,5.49-.08,8.19-.16,2.77-.08,5.63-.16,8.46-.16,5.51,0,9.95.33,13.97,1.04.06,0,.12.02.17.03,10.74,2.24,21.64,8.35,28.44,15.95.03.03.05.06.08.09,6.25,7.29,7.08,20.93,3.92,28.61-.03.07-.06.14-.09.22-3.63,7.87-16.79,11.46-24.24,11.87-10.28.48-20.99.71-32.8.71h0c-11.57,0-24.15-.22-39.59-.71-7.3-.03-16.11-3.77-21.45-9.12-.03-.03-.06-.06-.08-.09-41.3-43.09-72.72-76.48-101.91-108.25-5.43-5.92-7.8-14.93-8.2-21.39-1.83-39.86-19.5-68.75-52.53-85.95-14.71-7.74-29.67-11.66-44.48-11.66-18.1,0-36.33,5.83-54.2,17.33-12.5,8.46-24.54,17.87-36.18,26.96-.04.03-.08.06-.12.09-2.6,1.92-5.8,4.93-6.24,8.31-.29,2.23.66,4.74,2.83,7.45,2.23,2.73,4.61,4.08,7.22,4.08s5.38-1.22,8.37-3.53c.05-.04.09-.07.14-.11,4.17-3.02,8.36-6.15,12.42-9.18,6.42-4.8,13.07-9.77,19.77-14.39,14.79-10.39,31.29-15.89,47.67-15.89,19.75,0,38.65,8.14,53.22,22.92,13.62,13.81,21.23,30.88,22,49.35.77,18.31-5.24,36.68-17.38,53.13-5.08,6.84-10.06,13.67-15.32,20.9-2.79,3.83-5.64,7.75-8.61,11.81h40.62c4.35,0,8.65.1,12.81.19,4.09.09,8.33.18,12.56.18.04,0,.08,0,.12,0,20.14.43,34.04,11.39,37.18,29.32,1.42,9.01.13,15.73-3.94,20.62-4.11,4.93-10.58,7.44-19.79,7.67-4.05.11-8.53.17-13.68.17ZM372.92,71.51c-9.04,0-17.53,8.57-17.82,17.99-.13,4.6,1.65,9.04,5.01,12.5,3.41,3.51,8.12,5.52,12.9,5.52.16,0,.33,0,.49,0,10.08-.29,17.32-7.53,17.6-17.61.13-4.85-1.69-9.47-5.15-13.02-3.33-3.42-7.85-5.38-12.41-5.38-.16,0-.58,0-.63,0Z"/>
        <path class="cls-1" d="M373.47,11.36c.31,0,.63,0,.94,0,34.31.37,61.91,20.89,74.22,54.46,2.24,5.22,7.83,10.82,13.05,13.05,26.85,11.94,54.08,22.38,80.94,34.31,22.38,10.07,35.43,27.97,35.43,52.96s-12.31,41.4-33.57,52.96c-48.86,26.85-97.35,54.46-147.7,82.8,5.97,6.34,11.19,11.56,16.41,17.16,23.87,25.36,47,51.1,71.61,75.72,5.22,5.59,14.55,8.95,22.38,10.07,3.26.37,6.57.49,9.9.49,5.55,0,11.14-.32,16.65-.32,4.41,0,8.76.21,12.99.95h0c8.95,1.86,19.02,7.09,25.36,14.17,4.48,5.22,5.59,16.41,2.98,22.75-2.24,4.85-12.68,8.21-19.4,8.58-10.78.51-21.63.71-32.49.71-13.2,0-26.4-.3-39.5-.71-5.97,0-13.43-3.36-17.53-7.46-34.31-35.81-68.26-71.61-101.82-108.16-4.1-4.48-6.34-11.94-6.71-17.9-1.86-40.65-19.77-71.99-55.57-90.63-15.76-8.29-31.51-12.31-47.1-12.31-19.47,0-38.69,6.26-57.33,18.28-12.68,8.58-24.62,17.9-36.55,27.23-8.58,6.34-11.94,14.55-4.48,23.87,3.49,4.26,7.48,6.21,11.65,6.21,3.87,0,7.9-1.67,11.84-4.72,10.82-7.83,21.26-16.04,32.08-23.5,14.2-9.97,29.54-14.89,44.45-14.89,17.98,0,35.3,7.16,49.17,21.23,25.74,26.11,27.23,63.78,4.1,95.11-9.7,13.05-19.02,26.11-30.58,41.77h51.84c8.58,0,16.78.37,25.36.37,17.53.37,29.09,9.7,31.7,24.62,2.24,14.17-3.36,21.26-18.28,21.63-4.48.12-8.99.17-13.54.17-9.09,0-18.29-.17-27.49-.17H83.12c-48.86,0-73.85-26.11-71.61-75.34C18.22,222.85,133.47,97.15,286.39,76.64c4.48-.75,10.44-6.34,12.31-10.82,12.57-34.01,40.15-54.46,74.78-54.46M373.02,113.2c.22,0,.43,0,.65,0,13.05-.37,22.75-10.07,23.12-23.12.37-13.21-10.46-24.25-23.24-24.25-.21,0-.42,0-.63,0-12.31,0-23.12,11.19-23.5,23.5-.37,12.84,10.46,23.88,23.59,23.88M373.48,0h0c-39.06,0-70.93,23-85.31,61.54-.59,1.19-2.74,3.3-3.98,3.93-38.6,5.26-75.48,17.04-109.61,35.02-33.43,17.61-63.32,40.66-88.83,68.52-25.53,27.87-45.86,59.65-60.44,94.47C10.32,299.27,1.86,337.26.15,376.4c-1.26,27.72,5.42,49.45,19.84,64.55,14.37,15.03,35.6,22.66,63.12,22.66h245.79c4.56,0,9.22.04,13.73.08,4.51.04,9.18.08,13.76.08,5.2,0,9.73-.06,13.85-.17,10.75-.27,18.83-3.54,23.98-9.72,5.11-6.13,6.86-14.56,5.21-25.05,0-.06-.02-.12-.03-.19-3.59-20.5-19.93-33.54-42.66-34.02-.08,0-.16,0-.24,0-4.16,0-8.36-.09-12.43-.18-4.19-.09-8.52-.19-12.93-.19h-29.44c.68-.93,1.35-1.86,2.03-2.78,5.26-7.22,10.22-14.04,15.28-20.85,12.94-17.53,19.33-37.15,18.5-56.77-.84-19.9-9.01-38.26-23.64-53.1-15.64-15.87-35.98-24.62-57.26-24.62-17.54,0-35.15,5.85-50.93,16.92-6.78,4.68-13.45,9.67-19.91,14.49-4.04,3.02-8.21,6.14-12.35,9.13-.1.07-.19.14-.28.21-2.82,2.18-4.46,2.34-4.89,2.34-.97,0-2.06-1.07-2.82-1.99-1.35-1.71-1.63-2.78-1.59-3.11.08-.58,1.01-2.27,3.99-4.47.08-.06.16-.12.24-.18,11.55-9.03,23.5-18.36,35.82-26.7,16.92-10.88,34.1-16.39,51.07-16.39,13.88,0,27.94,3.7,41.81,11,31.15,16.22,47.79,43.5,49.51,81.1,0,.06,0,.13.01.19.46,7.43,3.25,17.86,9.68,24.87,29.21,31.8,60.66,65.22,102,108.35.06.06.11.12.17.17,6.3,6.3,16.7,10.72,25.37,10.79,15.47.48,28.09.71,39.7.71s22.7-.24,33.02-.72c.03,0,.07,0,.1,0,7.84-.44,24.01-4.17,29.08-15.16.07-.14.13-.29.19-.44,3.85-9.36,3.09-25.2-4.86-34.47-.05-.06-.11-.12-.16-.18-7.57-8.46-19.64-15.25-31.51-17.72-.11-.02-.23-.05-.34-.07-4.35-.77-9.11-1.13-14.96-1.13-2.92,0-5.82.08-8.63.17-2.78.08-5.41.16-8.02.16-3.32,0-6.01-.13-8.45-.4-6.43-.95-12.79-3.63-15.52-6.55-.09-.1-.18-.19-.27-.28-17.05-17.05-33.73-35.02-49.87-52.41-7.02-7.56-14.28-15.38-21.5-23.06-2.1-2.25-4.19-4.43-6.34-6.66,7.91-4.46,15.78-8.9,23.62-13.33,38.19-21.56,74.26-41.92,111.2-62.22,12.51-6.81,22.2-15.38,28.8-25.47,7.08-10.82,10.67-23.42,10.67-37.46,0-28.61-14.96-51.1-42.13-63.33-.02,0-.03-.01-.05-.02-13.56-6.03-27.38-11.74-40.74-17.27-13.23-5.47-26.91-11.13-40.2-17.04-.05-.02-.09-.04-.14-.06-2.48-1.06-5.81-4.36-6.99-6.88-6.84-18.45-18.13-33.85-32.66-44.55C411.7,6.09,393.73.21,374.54,0,374.18,0,373.83,0,373.48,0h0ZM373.02,101.84c-3.31,0-6.45-1.35-8.83-3.8-2.28-2.35-3.49-5.33-3.4-8.39.19-6.28,6.2-12.46,12.14-12.46.11,0,.22,0,.33,0,.1,0,.21,0,.31,0,3.03,0,6.07,1.34,8.33,3.66,2.38,2.44,3.63,5.61,3.54,8.91-.2,7.02-5.06,11.88-12.09,12.08-.11,0-.22,0-.33,0h0Z"/>
      </g>
    </g>
  </g>
</svg>