<?xml version="1.0" encoding="UTF-8"?>
<svg id="Camada_2" data-name="Camada 2" xmlns="http://www.w3.org/2000/svg" xmlns:xlink="http://www.w3.org/1999/xlink" viewBox="0 0 2088.67 530.79">
  <defs>
    <style>
      .cls-1 {
        fill: #ffde9b;
      }

      .cls-2 {
        isolation: isolate;
      }

      .cls-3 {
        fill: none;
        stroke: #fff;
        stroke-linecap: round;
        stroke-linejoin: round;
        stroke-width: 8px;
      }

      .cls-4 {
        fill: #efefef;
      }

      .cls-5 {
        fill: url(#Gradiente_sem_nome_18-5);
      }

      .cls-6 {
        fill: url(#Gradiente_sem_nome_18-3);
      }

      .cls-7 {
        fill: url(#Gradiente_sem_nome_18-4);
      }

      .cls-8 {
        fill: url(#Gradiente_sem_nome_18);
      }

      .cls-9 {
        fill: url(#Gradiente_sem_nome_18-2);
      }
    </style>
    <linearGradient id="Gradiente_sem_nome_18" data-name="Gradiente sem nome 18" x1="189.98" y1="318.07" x2="507.06" y2="318.07" gradientUnits="userSpaceOnUse">
      <stop offset="0" stop-color="#662c91"/>
      <stop offset="1" stop-color="#392c8d"/>
    </linearGradient>
    <linearGradient id="Gradiente_sem_nome_18-2" data-name="Gradiente sem nome 18" x1="139.08" y1="348.02" x2="456.16" y2="348.02" xlink:href="#Gradiente_sem_nome_18"/>
    <linearGradient id="Gradiente_sem_nome_18-3" data-name="Gradiente sem nome 18" x1="130.37" y1="212.78" x2="423.84" y2="212.78" xlink:href="#Gradiente_sem_nome_18"/>
    <linearGradient id="Gradiente_sem_nome_18-4" data-name="Gradiente sem nome 18" x1="71.42" y1="246.88" x2="364.88" y2="246.88" xlink:href="#Gradiente_sem_nome_18"/>
    <linearGradient id="Gradiente_sem_nome_18-5" data-name="Gradiente sem nome 18" x1="4" y1="365.25" x2="368.57" y2="365.25" xlink:href="#Gradiente_sem_nome_18"/>
  </defs>
  <g id="Camada_1-2" data-name="Camada 1">
    <g>
      <g>
        <path class="cls-4" d="M879.63,270.02h-30.8V119.21c0-1.14-.23-2.05-.23-3.19-29.43,0-41.3,6.84-55.22,35.14v-43.12h139.18v43.35c-14.83-25.55-23.73-34.91-52.02-35.37-.91.91-.91,2.51-.91,3.65v150.36Z"/>
        <path class="cls-4" d="M988.92,252.45c0,3.19.23,7.07,2.28,9.58h29.43c26.47,0,29.66-5.93,44.26-28.06v36.05h-106.78V108.02h106.78v33.77c-12.55-18.71-22.13-26.01-47-25.78l-26.7.23c-2.51,2.51-2.28,6.39-2.28,9.58v57.5h18.25c7.3,0,18.48-3.88,24.19-11.64h2.05v36.51h-1.14s-14.15-18.02-25.1-18.02h-18.25v62.29ZM1028.62,53.04l18.94,18.02-43.81,29.21-2.51-2.51,27.38-44.72Z"/>
        <path class="cls-4" d="M1211.15,160.5c3.88-20.08-7.76-46.32-35.59-47.46h-1.6c-23.5,0-45.63,18.71-45.63,61.6,0,36.51,20.53,74.84,61.15,74.84,26.24,0,45.86-13.23,55.44-37.65l3.88,1.83c-9.35,34.45-35.59,58.64-72.33,58.64-47.46,0-83.28-36.96-83.28-83.96,0-59.32,41.07-82.6,82.82-82.6,28.06,0,68.91,9.58,73.47,54.76h-38.33Z"/>
        <path class="cls-4" d="M1281.88,169.17c0,37.88,12.09,78.72,24.41,100.85h-31.94V108.02h28.06l103.36,119.56v-39.47c0-17.57-9.13-67.99-23.96-80.09h31.94v162h-10.5l-121.38-133.25v32.4Z"/>
        <path class="cls-4" d="M1451.64,270.02V108.02h30.8v162h-30.8Z"/>
        <path class="cls-4" d="M1630.06,160.5c3.88-20.08-7.76-46.32-35.59-47.46h-1.6c-23.5,0-45.63,18.71-45.63,61.6,0,36.51,20.53,74.84,61.15,74.84,26.24,0,45.86-13.23,55.44-37.65l3.88,1.83c-9.35,34.45-35.59,58.64-72.33,58.64-47.46,0-83.28-36.96-83.28-83.96,0-59.32,41.07-82.6,82.82-82.6,28.06,0,68.91,9.58,73.47,54.76h-38.33Z"/>
        <path class="cls-4" d="M1699.88,224.62c-8.67,25.78,1.83,41.98,7.76,45.4h-35.37l58.64-162h25.33l68.91,162h-36.51l-27.38-65.25h-54.76l-6.62,19.85ZM1758.06,197.24l-27.15-64.34-21.68,64.34h48.83Z"/>
      </g>
      <g>
        <path class="cls-4" d="M805.25,475.48v-162h42.21c52.48,0,97.2,23.27,97.2,81.46s-44.26,80.54-97.2,80.54h-42.21ZM847.46,467.49c43.12,0,61.15-33.54,61.15-72.56s-18.71-73.24-61.15-73.24h-9.81c-1.6,2.51-1.6,6.39-1.6,9.35v126.86c0,2.97,0,7.07,1.83,9.58h9.58Z"/>
        <path class="cls-4" d="M972.04,430.07c-8.67,25.78,1.83,41.98,7.76,45.4h-35.37l58.64-162h25.33l68.91,162h-36.51l-27.38-65.25h-54.76l-6.62,19.85ZM1030.22,402.69l-27.15-64.34-21.68,64.34h48.83Z"/>
        <path class="cls-4" d="M1233.28,475.48h-30.8v-150.82c0-1.14-.23-2.05-.23-3.19-29.43,0-41.3,6.84-55.22,35.14v-43.12h139.18v43.35c-14.83-25.55-23.73-34.91-52.02-35.37-.91.91-.91,2.51-.91,3.65v150.36Z"/>
        <path class="cls-4" d="M1387.29,311.2c47.91,0,83.74,35.37,83.74,83.28s-36.05,83.28-83.74,83.28-83.96-35.37-83.96-83.28,35.82-83.28,83.96-83.28ZM1404.63,465.89c4.56,0,8.9-.91,13.23-2.74,23.96-10.5,29.21-47.91,11.64-87.39-14.6-32.86-38.33-52.93-59.55-52.93-4.56,0-9.13.91-13.23,2.74-24.41,10.95-29.43,47.92-11.86,87.62,14.6,32.63,38.33,52.71,59.78,52.71Z"/>
        <path class="cls-4" d="M1504.8,430.07c-8.67,25.78,1.83,41.98,7.76,45.4h-35.37l58.64-162h25.33l68.91,162h-36.51l-27.38-65.25h-54.76l-6.62,19.85ZM1562.98,402.69l-27.15-64.34-21.68,64.34h48.83Z"/>
        <path class="cls-4" d="M1650.59,475.48v-162h30.8v144.43c0,3.42,0,7.76,2.51,10.27h17.8c26.47,0,40.84-9.81,51.57-31.94v39.24h-102.67Z"/>
        <path class="cls-4" d="M1811.45,475.7h-30.8v-162.23h30.8v74.61h71.87v-74.61h30.8v162.23h-30.8v-79.4l-71.87-.23v79.63Z"/>
        <path class="cls-4" d="M1963.41,430.07c-8.67,25.78,1.83,41.98,7.76,45.4h-35.37l58.64-162h25.33l68.91,162h-36.51l-27.38-65.25h-54.76l-6.62,19.85ZM2021.59,402.69l-27.15-64.34-21.68,64.34h48.83Z"/>
      </g>
    </g>
    <g>
      <g id="_117" data-name="117">
        <g class="cls-2">
          <path class="cls-4" d="M658.15,290.47l-343.64,199.63-249.15-131.61c-13.28-7.67-24.22-25.96-32.78-41.01-8.71-15.05-11.41-31.73-11.41-47.08,0-15.2,13.73-25.82,22.44-30.84L387.25,39.94c-8.71,5.02-14.02,15.49-14.16,30.84,0,15.2,5.31,32.02,14.02,47.07,8.56,14.9,20.51,27.89,33.79,35.56l237.26,137.07Z"/>
          <path class="cls-4" d="M72.15,293.84L415.81,94.12c.04,2.66.89,5.39,2.4,8.01,1.51,2.61,3.45,4.73,5.74,6.05L80.29,307.9c-2.29-1.32-4.23-3.44-5.74-6.05-1.51-2.61-2.37-5.35-2.4-8.01Z"/>
          <path class="cls-1" d="M74.59,288.63L418.25,88.91c-1.52.87-2.39,2.6-2.44,5.21L72.15,293.84c.05-2.61.92-4.34,2.44-5.21h0Z"/>
          <path class="cls-4" d="M56.62,257.5L400.28,57.79c6.07-3.46,14.56-2.89,23.81,2.45L80.43,259.95c-9.25-5.34-17.74-5.91-23.81-2.45Z"/>
          <path class="cls-4" d="M80.29,307.9L423.95,108.18l216.06,124.74-343.66,199.71-216.06-124.74Z"/>
          <path class="cls-4" d="M314.47,490.13l343.66-199.71c7.91,4.57,14.97,5.01,20.22,2.07l-343.66,199.71c-5.25,2.94-12.31,2.5-20.22-2.07Z"/>
          <path class="cls-4" d="M648.97,263.07l-343.66,199.71c2.28-1.33,3.7-4.14,3.71-8.14.02-8.1-5.67-17.95-12.67-22l343.66-199.71c7,4.04,12.69,13.9,12.67,22-.01,4-1.43,6.82-3.71,8.14Z"/>
          <path class="cls-4" d="M712.3,288.7c-.15,17.26-6.2,29.36-16.08,34.82l-343.64,199.78c9.89-5.61,8.38-17.08,8.38-34.2.15-17.12-4.44-35.85-14.18-52.67-9.74-16.97-24.63-27.86-39.39-36.42l-230.49-137.98L424.14,60.3l234.31,135.15c14.9,8.71,28.33,23.46,38.07,40.28,9.74,16.82,15.79,36,15.79,52.97Z"/>
          <path class="cls-8" d="M498.35,438.61c5.46-6.49,8.56-16.23,8.71-28.62,0-34.16-24.07-75.85-53.86-93.25l-234.31-135.15-28.92,17.71,234.31,135.3c29.45,17.08,54,58.95,53.71,93.25,0,11.21-2.51,20.21-7.23,26.71l27.59-15.94Z"/>
          <path class="cls-9" d="M449.52,466.94c4.13-6.34,6.49-15.2,6.64-25.97,0-34.16-24.07-75.85-53.86-93.25l-234.31-135.15-28.92,17.56,234.31,135.3c29.45,17.08,54,58.95,53.71,93.25,0,10.18-2.07,18.44-5.9,24.79l28.33-16.53Z"/>
          <path class="cls-4" d="M622.21,130.08L421.28,14.07c-20.24-11.68-38.68-12.88-51.96-5.26L25.66,208.52c13.27-7.61,31.72-6.42,51.96,5.26l200.93,116.01c7.05,4.07,12.74,13.92,12.71,21.97-.01,4.02-1.43,6.85-3.72,8.18l343.66-199.71c2.29-1.33,3.71-4.16,3.72-8.18.02-8.05-5.67-17.9-12.71-21.97Z"/>
          <g>
            <path class="cls-6" d="M411.12,252.54l-200.93-116.01c-20.24-11.68-38.68-12.88-51.96-5.26l-27.86,16.4c13.27-7.61,31.72-6.42,51.96,5.26l200.93,116.01c7.05,4.07,12.74,13.92,12.71,21.97-.01,4.02-1.43,6.85-3.72,8.18l27.87-16.19c2.29-1.33,3.7-4.37,3.72-8.39.02-8.05-5.67-17.9-12.71-21.97Z"/>
            <path class="cls-7" d="M352.17,286.47l-200.93-116.01c-20.24-11.68-38.68-12.88-51.96-5.26l-27.86,16.4c13.27-7.61,31.72-6.42,51.96,5.26l200.93,116.01c7.05,4.07,12.74,13.92,12.71,21.97-.01,4.02-1.44,7.19-3.73,8.52l27.85-16.07c2.29-1.33,3.73-4.83,3.74-8.85.02-8.05-5.67-17.9-12.71-21.97Z"/>
          </g>
          <path class="cls-5" d="M278.55,329.79c7.05,4.07,12.74,13.92,12.71,21.97-.02,8.1-5.75,11.36-12.8,7.29l-200.93-116.01c-26.69-15.41-47.98-2.76-48.06,27.39-.04,15.25,5.28,32.01,13.94,47.07,8.66,15,20.54,27.98,33.81,35.64l237.25,136.98c7.91,4.57,14.97,5.01,20.22,2.07,5.21-3.02,8.39-9.29,8.45-18.41-.02-9.12-3.15-19.04-8.32-28.05-5.21-8.98-12.25-16.68-20.17-21.25l-234.31-135.28c-2.29-1.32-4.24-1.45-5.76-.59-1.52.87-2.39,2.6-2.44,5.21.04,2.66.89,5.39,2.4,8.01,1.51,2.61,3.45,4.73,5.74,6.05l216.06,124.74c7,4.04,12.69,13.9,12.67,22-.02,8.05-5.75,11.31-12.75,7.27l-216.06-124.74c-18.79-10.85-33.63-36.98-33.49-58-.03-21.16,14.94-30.04,33.71-19.21l234.31,135.28c14.87,8.59,28.43,23.38,38.13,40.23,9.74,16.82,15.79,35.94,15.7,53.01,0,17.17-6.15,29.25-15.95,34.78-9.76,5.61-23.36,4.73-38.23-3.86l-237.25-136.98c-20.24-11.68-38.63-31.76-51.82-54.65-13.23-22.87-21.39-48.78-21.32-72.03.13-46.57,33.06-65.36,73.61-41.95l200.93,116.01Z"/>
        </g>
      </g>
      <path class="cls-3" d="M696.51,235.73c-9.74-16.82-23.17-31.57-38.07-40.28l-44.09-25.43,16.84-9.79c2.29-1.33,3.71-4.16,3.72-8.18.02-8.05-5.67-17.9-12.71-21.97L421.28,14.07c-20.24-11.68-38.68-12.88-51.96-5.26l-208.2,120.99c-.98.45-1.95.93-2.88,1.47l-27.86,16.4s0,0,.01,0l-26.2,15.22c-1.7.65-3.34,1.41-4.91,2.31l-27.86,16.4c1.16-.67,2.37-1.24,3.61-1.77l-49.21,28.6c-13.41,7.55-21.75,23.92-21.81,47.3-.07,23.25,8.09,49.16,21.32,72.03,13.19,22.89,31.58,42.97,51.82,54.65l237.25,136.98c14.87,8.59,28.47,9.47,38.23,3.86.32-.18.63-.39.95-.59-.33.22-.63.44-.99.64l68.65-39.91s-.03.05-.04.07l25.38-14.8,36.66-21.31,15.13-8.74s.06-.07.09-.11l197.78-114.98c9.89-5.46,15.94-17.56,16.08-34.82,0-16.97-6.05-36.15-15.79-52.97ZM82.82,216.79l-5.21-3.01c-1.02-.59-2.03-1.13-3.04-1.67,1.01.54,2.02,1.08,3.04,1.67l5.21,3.01h0ZM42.42,203.78c-4.4.22-8.53,1.12-12.33,2.63,3.8-1.51,7.92-2.41,12.33-2.63ZM313.61,489.63l.9.47-.04.02-.86-.5ZM331.55,493.49c-1.1.31-2.27.49-3.48.55,1.21-.06,2.38-.24,3.48-.55s2.15-.74,3.14-1.29h0s0,0,0,0c-.98.55-2.03.98-3.14,1.29Z"/>
    </g>
  </g>
</svg>