<?xml version="1.0" encoding="UTF-8"?>
<svg id="Camada_2" data-name="Camada 2" xmlns="http://www.w3.org/2000/svg" xmlns:xlink="http://www.w3.org/1999/xlink" viewBox="0 0 1862.94 598.93">
  <defs>
    <style>
      .cls-1 {
        fill: #fff;
      }

      .cls-2 {
        fill: #e4ecf2;
      }

      .cls-3 {
        fill: #060606;
      }

      .cls-4 {
        fill: url(#Gradiente_sem_nome_422);
      }

      .cls-5 {
        fill: url(#Gradiente_sem_nome_422-2);
      }

      .cls-6 {
        fill: #c68ff0;
      }

      .cls-7 {
        fill: url(#Gradiente_sem_nome_18-3);
      }

      .cls-8 {
        fill: url(#Gradiente_sem_nome_18);
      }

      .cls-9 {
        fill: #f0f5fa;
      }

      .cls-10 {
        fill: url(#Gradiente_sem_nome_18-2);
      }
    </style>
    <linearGradient id="Gradiente_sem_nome_18" data-name="Gradiente sem nome 18" x1="337.1" y1="322.19" x2="586.65" y2="322.19" gradientUnits="userSpaceOnUse">
      <stop offset="0" stop-color="#662c91"/>
      <stop offset="1" stop-color="#392c8d"/>
    </linearGradient>
    <linearGradient id="Gradiente_sem_nome_18-2" data-name="Gradiente sem nome 18" x1="8.77" y1="322.19" x2="270.03" y2="322.19" xlink:href="#Gradiente_sem_nome_18"/>
    <linearGradient id="Gradiente_sem_nome_18-3" data-name="Gradiente sem nome 18" x1="285.62" y1="392.38" x2="337.1" y2="392.38" xlink:href="#Gradiente_sem_nome_18"/>
    <linearGradient id="Gradiente_sem_nome_422" data-name="Gradiente sem nome 422" x1="258.33" y1="254.9" x2="337.1" y2="254.9" gradientUnits="userSpaceOnUse">
      <stop offset="0" stop-color="#623189"/>
      <stop offset="1" stop-color="#e84d95"/>
    </linearGradient>
    <linearGradient id="Gradiente_sem_nome_422-2" data-name="Gradiente sem nome 422" y1="529.86" y2="529.86" xlink:href="#Gradiente_sem_nome_422"/>
  </defs>
  <g id="Camada_1-2" data-name="Camada 1">
    <g>
      <g>
        <g>
          <path d="M795.36,137.14c3.88-20.08-7.76-46.32-35.59-47.46h-1.6c-23.5,0-45.63,18.71-45.63,61.6,0,36.51,20.53,74.84,61.15,74.84,26.24,0,45.86-13.23,55.44-37.65l3.88,1.83c-9.36,34.45-35.59,58.64-72.33,58.64-47.46,0-83.28-36.96-83.28-83.96,0-59.32,41.07-82.6,82.82-82.6,28.06,0,68.91,9.58,73.47,54.76h-38.33Z"/>
          <path d="M933.63,82.38c47.91,0,83.74,35.37,83.74,83.28s-36.05,83.28-83.74,83.28-83.96-35.37-83.96-83.28,35.82-83.28,83.96-83.28ZM950.97,237.07c4.56,0,8.9-.91,13.23-2.74,23.96-10.5,29.21-47.91,11.64-87.39-14.6-32.86-38.33-52.94-59.55-52.94-4.56,0-9.13.91-13.23,2.74-24.41,10.95-29.43,47.92-11.87,87.62,14.6,32.63,38.33,52.71,59.78,52.71Z"/>
          <path d="M1054.33,145.81c0,37.88,12.09,78.72,24.41,100.85h-31.94V84.66h28.06l103.36,119.56v-39.47c0-17.57-9.13-67.99-23.96-80.09h31.94v162h-10.49l-121.38-133.25v32.4Z"/>
          <path d="M1298.47,246.65h-30.8V95.84c0-1.14-.23-2.05-.23-3.19-29.43,0-41.3,6.84-55.22,35.14v-43.12h139.18v43.35c-14.83-25.55-23.73-34.91-52.02-35.37-.91.91-.91,2.51-.91,3.65v150.36Z"/>
          <path d="M1452.48,82.38c47.91,0,83.74,35.37,83.74,83.28s-36.05,83.28-83.74,83.28-83.96-35.37-83.96-83.28,35.82-83.28,83.96-83.28ZM1469.82,237.07c4.56,0,8.9-.91,13.23-2.74,23.96-10.5,29.21-47.91,11.64-87.39-14.6-32.86-38.33-52.94-59.55-52.94-4.56,0-9.13.91-13.23,2.74-24.41,10.95-29.43,47.92-11.87,87.62,14.6,32.63,38.33,52.71,59.78,52.71Z"/>
          <path d="M1587.1,197.6c.23,23.96,10.27,44.49,34,44.49,14.15,0,34.45-5.25,34.45-22.82,0-39.7-98.34-38.56-98.34-94.69,0-34.22,38.79-42.21,65.94-42.21,30.8,0,62.06,9.81,64.34,46.32h-34.68c-.46-19.39-6.16-39.47-30.35-39.47-17.57,0-31.49,9.36-31.49,28.06,0,35.59,99.02,40.61,99.02,89.9,0,22.82-33.08,41.75-69.36,41.75-33.54,0-67.08-12.55-68.22-51.34h34.68Z"/>
        </g>
        <g>
          <path d="M716.19,434.54c0,3.19.23,7.07,2.28,9.58h29.43c26.47,0,29.66-5.93,44.26-28.06v36.05h-106.78v-162h106.78v33.77c-12.55-18.71-22.13-26.01-47-25.78l-26.7.23c-2.51,2.51-2.28,6.39-2.28,9.58v57.5h18.25c7.3,0,18.48-3.88,24.18-11.64h2.05v36.51h-1.14s-14.15-18.02-25.1-18.02h-18.25v62.29Z"/>
          <path d="M820.92,452.11v-162h69.13c9.81,0,48.6,6.16,51.11,34.91,2.28,28.75-44.04,37.19-56.36,49.51-6.85,7.07,4.33,18.48,19.39,31.03,18.48,15.52,38.1,32.86,42.21,46.55h-37.88l-29.89-29.89c-25.78-25.78-13.69-40.16,1.14-52.25,13.23-10.72,25.33-21.45,25.33-42.44,0-27.38-25.55-29.21-25.55-29.21h-25.55c-2.28,3.19-2.28,7.53-2.28,11.18v142.6h-30.8Z"/>
          <path d="M1043.15,287.83c47.92,0,83.74,35.37,83.74,83.28s-36.05,83.28-83.74,83.28-83.96-35.37-83.96-83.28,35.82-83.28,83.96-83.28ZM1060.49,442.53c4.56,0,8.9-.91,13.23-2.74,23.96-10.49,29.21-47.91,11.64-87.39-14.6-32.86-38.33-52.93-59.55-52.93-4.56,0-9.13.91-13.23,2.74-24.41,10.95-29.43,47.91-11.86,87.62,14.6,32.63,38.33,52.71,59.78,52.71ZM1052.5,235.81l18.94,18.03-43.81,29.21-2.51-2.51,27.38-44.72Z"/>
          <path d="M1230.25,452.11h-30.8v-150.82c0-1.14-.23-2.05-.23-3.2-29.43,0-41.3,6.85-55.22,35.14v-43.12h139.18v43.35c-14.83-25.55-23.73-34.91-52.02-35.37-.91.91-.91,2.51-.91,3.65v150.36Z"/>
          <path d="M1308.73,452.11v-162h30.8v162h-30.8Z"/>
          <path d="M1487.16,342.59c3.88-20.08-7.76-46.32-35.59-47.46h-1.6c-23.5,0-45.63,18.71-45.63,61.61,0,36.51,20.54,74.84,61.15,74.84,26.24,0,45.86-13.23,55.44-37.65l3.88,1.82c-9.35,34.45-35.59,58.64-72.33,58.64-47.46,0-83.28-36.96-83.28-83.96,0-59.32,41.07-82.6,82.82-82.6,28.06,0,68.91,9.58,73.47,54.76h-38.33Z"/>
          <path d="M1625.42,287.83c47.91,0,83.74,35.37,83.74,83.28s-36.05,83.28-83.74,83.28-83.96-35.37-83.96-83.28,35.82-83.28,83.96-83.28ZM1642.76,442.53c4.56,0,8.9-.91,13.23-2.74,23.96-10.49,29.21-47.91,11.64-87.39-14.6-32.86-38.33-52.93-59.55-52.93-4.56,0-9.13.91-13.23,2.74-24.41,10.95-29.43,47.91-11.86,87.62,14.6,32.63,38.33,52.71,59.78,52.71Z"/>
          <path d="M1760.04,403.05c.23,23.96,10.27,44.49,34,44.49,14.15,0,34.45-5.25,34.45-22.82,0-39.7-98.34-38.56-98.34-94.69,0-34.22,38.79-42.21,65.94-42.21,30.8,0,62.06,9.81,64.34,46.32h-34.68c-.46-19.39-6.16-39.47-30.35-39.47-17.57,0-31.49,9.35-31.49,28.06,0,35.59,99.02,40.61,99.02,89.9,0,22.82-33.08,41.75-69.36,41.75-33.54,0-67.08-12.55-68.22-51.34h34.68Z"/>
        </g>
      </g>
      <g>
        <g>
          <g>
            <path class="cls-9" d="M297.71,194.59s-14.52-125.58-168.76-185.82v185.82h168.76Z"/>
            <path class="cls-2" d="M297.71,194.59s14.52-125.58,168.76-185.82v185.82h-168.76Z"/>
          </g>
          <g>
            <path class="cls-2" d="M299.57,194.59C232.22,74.26,70.87,37.28,70.87,37.28l-32.05,32.56,221.77,147.53,38.98-22.78Z"/>
            <path class="cls-9" d="M295.85,194.59c67.35-120.34,228.7-157.31,228.7-157.31l32.05,32.56-221.77,147.53-38.98-22.79Z"/>
          </g>
          <path class="cls-6" d="M580.69,453.14l-226.16,127.22c-7.8,4.39-17.43-1.25-17.43-10.2l-11.7-185.88,11.7-182.84c0-4.23,2.28-8.12,5.96-10.2l226.16-127.22c7.8-4.39,17.43,1.25,17.43,10.2v368.72c0,4.23-2.28,8.13-5.96,10.2h0Z"/>
          <path class="cls-8" d="M569.22,64.02l-29.36,16.51v362.41c0,4.23-2.28,8.12-5.96,10.2l-196.8,110.7v6.32c0,8.95,9.64,14.58,17.43,10.2l226.16-127.22c3.68-2.07,5.96-5.97,5.96-10.2V74.22c0-8.95-9.64-14.58-17.43-10.19h0Z"/>
          <path class="cls-6" d="M240.9,580.35L14.74,453.14c-3.68-2.07-5.96-5.97-5.96-10.19V74.22c0-8.95,9.64-14.58,17.43-10.2l226.16,127.22c3.68,2.07,5.96,5.97,5.96,10.2v368.72c0,8.95-9.64,14.58-17.43,10.2h0Z"/>
          <path class="cls-10" d="M252.37,191.24L26.21,64.02c-7.8-4.39-17.43,1.25-17.43,10.19v6.32l196.8,110.7c3.68,2.07,5.96,5.97,5.96,10.2v362.41l29.36,16.51c7.8,4.39,17.43-1.25,17.43-10.2l11.7-185.3-11.7-183.43c0-4.23-2.28-8.12-5.96-10.2h0Z"/>
          <path class="cls-1" d="M543.76,217.38l-163.78,93.58v-56.56l163.78-93.58v56.56Z"/>
          <g>
            <path class="cls-6" d="M325.4,590.16h-55.37c-6.46,0-11.7-5.24-11.7-11.7V206.29c0-6.46,5.24-11.7,11.7-11.7h55.37c6.46,0,11.7,5.24,11.7,11.7v372.17c0,6.46-5.24,11.7-11.7,11.7Z"/>
            <path class="cls-7" d="M325.4,194.59h-39.77c6.46,0,11.7,5.24,11.7,11.7v372.17c0,6.46-5.24,11.7-11.7,11.7h39.77c6.46,0,11.7-5.24,11.7-11.7V206.29c0-6.46-5.24-11.7-11.7-11.7h0Z"/>
            <g>
              <path class="cls-4" d="M258.33,235.4h78.77v38.99h-78.77v-38.99Z"/>
              <path class="cls-5" d="M258.33,510.36h78.77v38.99h-78.77v-38.99Z"/>
            </g>
          </g>
        </g>
        <g>
          <path class="cls-3" d="M297.71,330.96c-4.85,0-8.77,3.93-8.77,8.77v105.28c0,4.85,3.93,8.77,8.77,8.77s8.77-3.93,8.77-8.77v-105.28c0-4.85-3.93-8.77-8.77-8.77Z"/>
          <path class="cls-3" d="M586.65,348.51c4.85,0,8.77-3.93,8.77-8.77V74.22c0-15.22-17.15-25.36-30.51-17.84l-5.96,3.35-28.15-28.6c-2.14-2.17-5.25-3.08-8.21-2.4-1.15.26-20.02,4.66-47.35,15.09V8.77c0-2.9-1.43-5.61-3.83-7.24-2.39-1.63-5.44-1.98-8.14-.93-82.01,32.03-124.98,82.52-146.59,119.22-8.77,14.9-14.82,28.73-18.98,40.3-4.16-11.57-10.21-25.4-18.98-40.3C257.13,83.12,214.16,32.63,132.15.6c-2.7-1.05-5.75-.71-8.14.93-2.39,1.63-3.83,4.35-3.83,7.24v35.04c-27.28-10.4-46.14-14.8-47.35-15.08-2.97-.68-6.08.23-8.21,2.4l-28.15,28.6-5.96-3.35c-13.27-7.46-30.51,2.52-30.51,17.84v368.72c0,7.38,4,14.22,10.43,17.84l226.16,127.22c4.93,2.21,11.11,3.35,16.31,1.65,3.66,5.58,9.96,9.28,17.12,9.28h55.37c7.16,0,13.46-3.7,17.12-9.28,5.55,1.77,10.99,1.22,16.31-1.65l226.16-127.22c6.44-3.62,10.43-10.46,10.43-17.84v-47.06c0-11.34-17.55-11.34-17.55,0v47.06c0,1.06-.57,2.03-1.49,2.55l-226.16,127.22c-2.43.82-3.88-.03-4.36-2.55V206.29c-.32-1.75-.39-6.35,1.49-7.4l226.16-127.22c2.43-.82,3.88.03,4.36,2.55v265.52c0,4.84,3.93,8.77,8.77,8.77h0ZM457.7,21.88v29.02c-8.29,3.53-17.07,7.54-26.15,12.06-32.04,15.96-72.11,40.73-105.56,76.29,1.78-3.43,3.72-6.94,5.83-10.52,19.13-32.5,56.31-76.61,125.88-106.85ZM328.32,265.62h-61.22v-21.45h61.22v21.45ZM267.1,283.17h61.22v218.42h-61.22v-218.42ZM267.1,519.13h61.22v21.45h-61.22v-21.45ZM328.32,226.63h-61.22v-20.34c0-1.61,1.31-2.92,2.92-2.92h55.37c1.61,0,2.92,1.31,2.92,2.92v20.34ZM73.59,47.02c12.76,3.41,49.96,14.37,91.52,36.28,9.68,5.1,18.19-10.25,8.18-15.52-12.44-6.56-24.43-12.14-35.56-16.88v-29.02c69.18,30.06,106.28,73.83,125.43,106.08,2.24,3.77,4.28,7.46,6.15,11.07-13.78-14.66-29.55-28.43-47.29-41.21-9.2-6.63-19.46,7.61-10.26,14.24,30.29,21.82,54.52,46.59,72.23,73.76-10.18-.83-18.89,2.52-27.33-2.23L52.32,68.64l21.28-21.62ZM248.11,572.68c-.97.02-1.94.02-2.91.02L19.04,445.49c-.92-.52-1.49-1.49-1.49-2.55V74.22c0-2.34,2.58-3.55,4.36-2.55l226.16,127.21c1.88,1.06,1.81,5.65,1.49,7.41v363.87c0,1.46-.91,2.21-1.45,2.53h0ZM328.32,578.46c0,1.61-1.31,2.92-2.92,2.92h-55.37c-1.61,0-2.92-1.31-2.92-2.92v-20.33h61.22v20.33ZM338.76,183.59c-8.59,4.83-16.94,1.51-27.31,2.23,34.36-52.63,87.52-86.98,127.54-106.96,37.89-18.92,70.98-28.66,82.86-31.84l21.27,21.62-204.35,114.95Z"/>
          <path class="cls-3" d="M539.41,153.21l-163.78,93.58c-2.73,1.56-4.42,4.47-4.42,7.62v56.56c0,6.62,7.38,10.9,13.13,7.62l163.78-93.58c2.73-1.56,4.42-4.47,4.42-7.62v-56.56c0-6.14-7.07-11.08-13.13-7.62h0ZM534.99,212.29l-146.23,83.56v-36.35l146.23-83.56v36.35Z"/>
        </g>
      </g>
    </g>
  </g>
</svg>