<?xml version="1.0" encoding="UTF-8"?>
<svg id="Camada_2" data-name="Camada 2" xmlns="http://www.w3.org/2000/svg" xmlns:xlink="http://www.w3.org/1999/xlink" viewBox="0 0 1292.11 538.43">
  <defs>
    <style>
      .cls-1 {
        fill: #111;
      }

      .cls-2 {
        fill: url(#Gradiente_sem_nome_17);
      }

      .cls-3 {
        fill: url(#Gradiente_sem_nome_3);
      }

      .cls-4 {
        fill: url(#Gradiente_sem_nome_18);
      }
    </style>
    <linearGradient id="Gradiente_sem_nome_18" data-name="Gradiente sem nome 18" x1="107.9" y1="-386.78" x2="412.31" y2="-386.78" gradientTransform="translate(0 -123.41) scale(1 -1)" gradientUnits="userSpaceOnUse">
      <stop offset="0" stop-color="#662c91"/>
      <stop offset="1" stop-color="#392c8d"/>
    </linearGradient>
    <linearGradient id="Gradiente_sem_nome_17" data-name="Gradiente sem nome 17" x1="257.88" y1="-223.57" x2="23.65" y2="-457.8" gradientTransform="translate(0 -123.41) scale(1 -1)" gradientUnits="userSpaceOnUse">
      <stop offset="0" stop-color="#662c91"/>
      <stop offset="1" stop-color="#34008f"/>
    </linearGradient>
    <linearGradient id="Gradiente_sem_nome_3" data-name="Gradiente sem nome 3" x1="215.5" y1="-398.97" x2="519.9" y2="-398.97" gradientTransform="translate(0 -123.41) scale(1 -1)" gradientUnits="userSpaceOnUse">
      <stop offset="0" stop-color="#fb74ab"/>
      <stop offset="1" stop-color="#662c91"/>
    </linearGradient>
  </defs>
  <g id="Camada_1-2" data-name="Camada 1">
    <g id="uuid-6b6454a9-0455-4abb-a8cd-4190861f9fb8" data-name="Camada 1-2">
      <g>
        <g>
          <path class="cls-1" d="M610.77,150.29v-58.47h3.59l27.14,46.87h-1.92l27.07-46.87h3.5l.09,58.47h-4.18l-.09-52.04h1.17l-25.65,44.27h-2.09l-25.73-44.27h1.26v52.04h-4.18.02Z"/>
          <path class="cls-1" d="M690.63,150.29v-58.47h39.1v3.84h-34.83v50.8h36.09v3.84h-40.34l-.02-.02ZM694.39,122.47v-3.76h31.67v3.76h-31.67Z"/>
          <path class="cls-1" d="M746.51,150.29v-58.47h3.59l41.68,53.21h-1.92v-53.21h4.25v58.47h-3.5l-41.77-53.21h1.92v53.21s-4.25,0-4.25,0Z"/>
          <path class="cls-1" d="M825.7,150.29v-54.63h-21.05v-3.84h46.36v3.84h-21.05v54.63h-4.25Z"/>
          <path class="cls-1" d="M885.51,150.71c-4.34,0-8.37-.73-12.07-2.21s-6.94-3.57-9.69-6.26c-2.76-2.7-4.88-5.85-6.39-9.44-1.5-3.59-2.26-7.5-2.26-11.73s.75-8.15,2.26-11.73c1.5-3.59,3.64-6.73,6.39-9.44s5.99-4.8,9.69-6.26c3.71-1.48,7.72-2.21,12.07-2.21s8.37.73,12.07,2.21,6.92,3.55,9.64,6.22,4.86,5.8,6.39,9.4c1.53,3.59,2.3,7.53,2.3,11.82s-.77,8.23-2.3,11.82c-1.53,3.59-3.66,6.72-6.39,9.4-2.74,2.67-5.95,4.74-9.64,6.22-3.71,1.48-7.72,2.21-12.07,2.21v-.03ZM885.51,146.79c3.72,0,7.18-.65,10.36-1.92,3.18-1.28,5.94-3.1,8.27-5.43,2.35-2.35,4.17-5.07,5.48-8.18,1.31-3.11,1.96-6.51,1.96-10.19s-.65-7.14-1.96-10.24c-1.31-3.1-3.13-5.8-5.48-8.15-2.35-2.35-5.1-4.15-8.27-5.43-3.18-1.28-6.63-1.92-10.36-1.92s-7.18.65-10.36,1.92c-3.18,1.28-5.95,3.1-8.32,5.43-2.36,2.35-4.2,5.05-5.51,8.15s-1.96,6.5-1.96,10.24.65,7.07,1.96,10.19c1.31,3.11,3.15,5.85,5.51,8.18,2.36,2.35,5.14,4.15,8.32,5.43,3.18,1.28,6.63,1.92,10.36,1.92Z"/>
          <path class="cls-1" d="M930.71,150.29v-58.47h20.97c7.35,0,13.11,1.73,17.3,5.19,4.18,3.45,6.26,8.3,6.26,14.54,0,4.06-.95,7.57-2.84,10.48s-4.59,5.19-8.1,6.77-7.72,2.38-12.62,2.38h-18.62l1.92-2.01v21.14h-4.25l-.02-.02ZM934.97,129.4l-1.92-2.01h18.62c6.29,0,11.07-1.39,14.32-4.18,3.27-2.79,4.88-6.68,4.88-11.7s-1.63-8.98-4.88-11.73c-3.27-2.76-8.03-4.13-14.32-4.13h-18.62l1.92-2.09v35.85ZM971.31,150.29l-15.2-21.22h4.85l15.2,21.22s-4.85,0-4.85,0Z"/>
          <path class="cls-1" d="M990.85,150.29v-58.47h4.25v58.47h-4.25Z"/>
          <path class="cls-1" d="M1005.73,150.29l26.9-58.47h4.25l26.9,58.47h-4.59l-25.39-55.8h1.84l-25.31,55.8h-4.61ZM1015.58,133.83l1.41-3.59h35l1.41,3.59h-37.84.02Z"/>
        </g>
        <g>
          <path class="cls-1" d="M703.62,216.43c3.11-16.07-6.21-37.09-28.5-38.01h-1.28c-18.83,0-36.55,14.98-36.55,49.34,0,29.23,16.45,59.93,48.96,59.93,21.02,0,36.72-10.6,44.4-30.15l3.11,1.46c-7.48,27.59-28.5,46.96-57.93,46.96-38.01,0-66.68-29.59-66.68-67.24,0-47.5,32.89-66.14,66.33-66.14,22.47,0,55.19,7.67,58.83,43.84h-30.7v.02Z"/>
          <path class="cls-1" d="M778.52,304.32h-24.66v-129.91h24.66v59.74h57.55v-59.74h24.66v129.91h-24.66v-63.59l-57.55-.19v63.78Z"/>
          <path class="cls-1" d="M900.2,267.77c-6.94,20.65,1.46,33.62,6.21,36.36h-28.32l46.96-129.73h20.29l55.19,129.73h-29.23l-21.92-52.26h-43.84l-5.31,15.9h-.02ZM946.8,245.85l-21.75-51.53-17.36,51.53h39.12Z"/>
          <path class="cls-1" d="M1076.14,305.78l-52.81-112.19v39.47c0,15.17,3.66,47.69,19.56,71.07h-25.58v-129.73h23.93l46.22,99.22,41.84-99.22h21.92l1.28,129.73h-25.03v-108.35l-45.87,110h-5.48.02Z"/>
          <path class="cls-1" d="M1191.78,267.77c-6.94,20.65,1.46,33.62,6.21,36.36h-28.32l46.96-129.73h20.29l55.19,129.73h-29.23l-21.92-52.26h-43.84l-5.31,15.9h-.02ZM1238.38,245.85l-21.75-51.53-17.36,51.53h39.12Z"/>
        </g>
        <g>
          <path class="cls-1" d="M624.86,408.88c-6.94,20.65,1.46,33.62,6.21,36.36h-28.32l46.96-129.73h20.29l55.19,129.73h-29.23l-21.92-52.26h-43.84l-5.31,15.9h-.02ZM671.46,386.94l-21.75-51.53-17.36,51.53h39.12Z"/>
          <path class="cls-1" d="M820.54,357.53c3.11-16.09-6.21-37.09-28.5-38.01h-1.28c-18.83,0-36.55,14.98-36.55,49.34,0,29.23,16.45,59.93,48.96,59.93,21.02,0,36.72-10.6,44.4-30.15l3.11,1.46c-7.48,27.59-28.5,46.96-57.93,46.96-38.01,0-66.68-29.61-66.68-67.24,0-47.5,32.89-66.14,66.33-66.14,22.47,0,55.19,7.67,58.83,43.86h-30.7Z"/>
          <path class="cls-1" d="M895.46,431.16c0,2.55.19,5.66,1.84,7.67h23.57c21.19,0,23.76-4.74,35.44-22.47v28.88h-85.51v-129.73h85.51v27.04c-10.05-14.98-17.72-20.83-37.64-20.65l-21.38.19c-2.01,2.01-1.84,5.12-1.84,7.67v46.04h14.63c5.85,0,14.8-3.11,19.37-9.32h1.65v29.23h-.92s-11.33-14.44-20.1-14.44h-14.63v49.88h0Z"/>
          <path class="cls-1" d="M996.85,405.95c.19,19.18,8.21,35.63,27.23,35.63,11.33,0,27.58-4.2,27.58-18.27,0-31.79-78.74-30.88-78.74-75.83,0-27.41,31.05-33.81,52.81-33.81,24.66,0,49.69,7.86,51.53,37.09h-27.77c-.36-15.53-4.93-31.62-24.3-31.62-14.06,0-25.22,7.5-25.22,22.47,0,28.5,79.3,32.52,79.3,71.99,0,18.27-26.5,33.44-55.54,33.44-26.85,0-53.72-10.05-54.63-41.11h27.77l-.02.02Z"/>
          <path class="cls-1" d="M1108.3,408.88c-6.94,20.65,1.46,33.62,6.21,36.36h-28.32l46.96-129.73h20.29l55.19,129.73h-29.23l-21.92-52.26h-43.84l-5.31,15.9h-.02ZM1154.9,386.94l-21.75-51.53-17.36,51.53h39.12Z"/>
        </g>
        <g>
          <path class="cls-4" d="M412.23,110.27v-5.56c-.12-25.7-7.45-50.49-20.2-73.16-4.42-7.87-8.71-12.13-12.14-18.86l-12.4-12.69c-9.81,10.29-20.31,19.42-29.22,29.86-.2.24-.51.41-.7.66-.2.02-.48-.05-.66.03-.68.31-1.22.87-1.53,1.55-.09.19,0,.46-.03.66-.29.12-.44.61-.71.68-1.09.31-1.55,1.21-2.06,2.09-.32.56-1.34.78-1.5,1.55-.07.29-.58.43-.7.71-1,.32-1.79,1.07-2.13,2.07-.26.19-.49.41-.73.65l-49.37,49.06c-2.91,2.89-5.49,5.36-8.18,8.37-.8.9-9.42,9.63-10.46,9.35-.22,1.04-.87,1.9-1.8,2.82l-25.56,25.34-4.3,4.34-17.38,17.09-16.04,16.22-30.63,30.43c-1,.99-1.9,1.84-2.04,2.99-.26.24-.49.48-.71.75.09,1.51-1.22,1.5-2.11,2.02-1.19.71-3.37,2.21-3.71,3.67-.61,2.6-2.16,4.59-4.98,4.95-1.87.24-3.15,2.01-3.54,3.67.36,1.34-.94,1.51-1.55,2.13-10.73,10.56-18.45,24.13-24.68,38.4-15.41,35.29-16.65,75.31-3.79,111.51,6.24,17.6,15.54,32.5,26.34,47.01.14.19.46.54.68.6.7,1.22,1.73,2.23,2.93,2.96l102.53,102.53c.03-1.19-.54-1.63-1.38-2.7-9.42-12.26-17.35-25.51-22.36-40.24-1.85-5.43-4.51-10.17-5.49-15.78-1.41-7.93-3.44-15.44-3.88-23.5-.51-9.22-.85-18.1-.03-27.47,2.91-33.13,16.89-64.37,39.13-88.88,2.96-3.25,5.53-5.87,8.54-8.83,2.33-2.3,12.57-13.88,14.44-13.91.41-1.29,1.36-2.35,2.65-2.77.03-.85.85-1.82,1.65-2.06.19-.43.19-.88.05-1.33l5.97-4.85c.22-.19.78-.41,1.09-.43.29-.58.56-1.17.78-1.8,1.28-.32,1.84-1.55,2.82-2.26.09-.48.48-.94.68-1.38.14-.31.44-.73.73-.9,4.27-2.43,7.18-6.73,10.83-10.07.43-.37.9-.9,1.31-1.31l25.43-25.71,40.05-40.31c23.62-23.78,36.12-55.54,39.35-88.42.05-.48.07-.95.07-1.43v-2.87c0-.56.05-1.29.71-1.43l-.05-5.83-.03-.02Z"/>
          <path class="cls-2" d="M160.26,63.13c2.23,2.07,5.29.82,7.89,1.04,34.1,2.91,67.43,18.64,91.33,43.18-.22,1.04-.87,1.9-1.8,2.82l-25.56,25.34-4.3,4.34-17.38,17.09-16.04,16.22-30.63,30.43c-1,.99-1.9,1.84-2.04,2.99-.26.24-.49.48-.71.75-1.07.17-1.77,1.02-2.11,2.02-1.19.71-3.37,2.21-3.71,3.67-2.16.92-4.03,2.82-4.98,4.95-1.87.24-3.15,2.01-3.54,3.67-.43.65-1.43,1.22-1.55,2.13-10.73,10.56-18.45,24.13-24.68,38.4-15.41,35.29-16.65,75.31-3.79,111.51,6.24,17.6,15.54,32.5,26.34,47.01-1.11-.7-2.14-1.36-3.47-2.69l-97.24-97.74C-.07,277.65-11.31,213.42,11.75,156.96c20.49-50.2,69.49-88.2,124.81-92.77,2.91-.24,5.68-.54,8.62-1.05,4.9-.87,10.15.51,15.09,0h-.02Z"/>
          <path class="cls-3" d="M517.7,188.67c-.1-.58.12-1.05-.24-1.53-.17-.2-.34-.73-.78-.2.22-2.36-.7-5.14-1.58-7.5-.83-2.26-.46-4.17-1.17-6.51-6.96-22.69-18.11-44.46-35.24-61.55L379.86,12.69c3.44,6.73,7.72,11,12.14,18.86,12.76,22.67,20.09,47.47,20.19,73.16v5.56l.09,5.83c-.66.15-.71.87-.71,1.43v2.87c0,.48-.02.97-.07,1.43-3.23,32.87-15.73,64.64-39.35,88.42l-40.05,40.31-25.43,25.71c-.41.41-.88.92-1.31,1.31-3.66,3.32-6.56,7.62-10.83,10.07-.29.17-.6.6-.73.9-.2.43-.6.9-.68,1.38-.99.71-1.55,1.94-2.82,2.26-.22.61-.48,1.21-.78,1.8-.29.02-.85.26-1.09.43l-5.97,4.85c.14.44.14.9-.05,1.33-.82.24-1.62,1.21-1.65,2.06-1.29.43-2.24,1.48-2.65,2.77-1.87.03-12.11,11.62-14.44,13.91-3.01,2.96-5.58,5.58-8.54,8.83-22.26,24.51-36.24,55.75-39.13,88.88-.82,9.39-.48,18.27.03,27.47.44,8.06,2.47,15.58,3.88,23.5,1,5.61,3.66,10.34,5.49,15.78,5.02,14.74,12.94,27.98,22.36,40.24.83,1.09,1.41,1.51,1.38,2.7-.03,1.46,8.69,9.61,11.09,11.7l177.94-178.95c3.55-3.57,6.92-7.38,10.75-10.68.29-.24.54-.54.8-.82.39-.44.75-1,1.31-1.28,1.9-.94,3.33-2.67,4.39-4.44.71-.6,1.75-1.04,2.09-2.07.19-.54,1.45-.73,1.5-1.51,0-.22.49-.49.65-.65.99-.48,1.56-1.38,2.23-2.23.39-.49,1.05-.75,1.38-1.38.29-.56,1.39-.71,1.51-1.5.03-.22.44-.53.63-.63.87-.48,1.77-1.36,2.21-2.24.12-.2.46-.53.65-.66.92-.46,1.77-1.31,2.24-2.21.1-.2.44-.54.65-.65.66-.31,1.07-.92,1.56-1.46,1.02-1.14,1.97-2.94,3.49-3.52,1.04-.41.87-1,1.48-1.56,7.62-6.85,13.06-15.49,18.86-24.3,10.56-16.04,16.85-33.33,20.51-52.13,3.55-18.23,3.83-36.43.63-54.91l.03.02Z"/>
        </g>
      </g>
    </g>
  </g>
</svg>