<?xml version="1.0" encoding="UTF-8"?>
<svg id="Camada_2" data-name="Camada 2" xmlns="http://www.w3.org/2000/svg" xmlns:xlink="http://www.w3.org/1999/xlink" viewBox="0 0 1791.89 561.42">
  <defs>
    <style>
      .cls-1 {
        fill: url(#Gradiente_sem_nome_67);
      }

      .cls-2 {
        fill: url(#Gradiente_sem_nome_18);
      }

      .cls-3 {
        fill: url(#Gradiente_sem_nome_18-2);
      }

      .cls-4 {
        fill: url(#Gradiente_sem_nome_67-2);
      }
    </style>
    <linearGradient id="Gradiente_sem_nome_67" data-name="Gradiente sem nome 67" x1="61.63" y1="137.66" x2="385.22" y2="137.66" gradientUnits="userSpaceOnUse">
      <stop offset="0" stop-color="#fb74ab"/>
      <stop offset="1" stop-color="#662c91"/>
    </linearGradient>
    <linearGradient id="Gradiente_sem_nome_18" data-name="Gradiente sem nome 18" x1="31.44" y1="482.89" x2="130" y2="482.89" gradientUnits="userSpaceOnUse">
      <stop offset="0" stop-color="#662c91"/>
      <stop offset="1" stop-color="#392c8d"/>
    </linearGradient>
    <linearGradient id="Gradiente_sem_nome_18-2" data-name="Gradiente sem nome 18" x1="316.84" x2="415.4" xlink:href="#Gradiente_sem_nome_18"/>
    <linearGradient id="Gradiente_sem_nome_67-2" data-name="Gradiente sem nome 67" x1="4" y1="339.98" x2="442.84" y2="339.98" xlink:href="#Gradiente_sem_nome_67"/>
  </defs>
  <g id="Camada_1-2" data-name="Camada 1">
    <g>
      <g>
        <g>
          <path d="M579.89,267.22V105.22h69.13c9.81,0,48.6,6.16,51.11,34.91,2.28,28.75-44.04,37.19-56.36,49.51-6.85,7.07,4.33,18.48,19.39,31.03,18.48,15.52,38.1,32.86,42.21,46.55h-37.88l-29.89-29.89c-25.78-25.78-13.69-40.16,1.14-52.25,13.23-10.72,25.33-21.45,25.33-42.44,0-27.38-25.55-29.21-25.55-29.21h-25.55c-2.28,3.19-2.28,7.53-2.28,11.18v142.6h-30.8Z"/>
          <path d="M738.23,221.81c-8.67,25.78,1.83,41.98,7.76,45.4h-35.37l58.64-162h25.33l68.91,162h-36.51l-27.38-65.25h-54.76l-6.62,19.85ZM796.41,194.43l-27.15-64.34-21.68,64.34h48.83Z"/>
          <path d="M884.03,267.22V105.22h30.8v162h-30.8Z"/>
          <path d="M960.46,166.37c0,37.88,12.09,78.72,24.41,100.85h-31.94V105.22h28.06l103.36,119.56v-39.47c0-17.57-9.13-67.99-23.96-80.09h31.94v162h-10.5l-121.38-133.25v32.4Z"/>
          <path d="M1161.02,267.44h-30.8V105.22h30.8v74.61h71.87v-74.61h30.8v162.23h-30.8v-79.4l-71.87-.23v79.63Z"/>
          <path d="M1312.98,221.81c-8.67,25.78,1.83,41.98,7.76,45.4h-35.37l58.64-162h25.33l68.91,162h-36.51l-27.38-65.25h-54.76l-6.62,19.85ZM1371.16,194.43l-27.15-64.34-21.68,64.34h48.83Z"/>
          <path d="M1499.84,267.22V105.22h42.21c52.48,0,97.2,23.27,97.2,81.46s-44.26,80.54-97.2,80.54h-42.21ZM1542.05,259.23c43.12,0,61.15-33.54,61.15-72.56s-18.71-73.24-61.15-73.24h-9.81c-1.6,2.51-1.6,6.39-1.6,9.35v126.86c0,2.97,0,7.07,1.83,9.58h9.58Z"/>
          <path d="M1666.63,221.81c-8.67,25.78,1.83,41.98,7.76,45.4h-35.37l58.64-162h25.33l68.91,162h-36.51l-27.38-65.25h-54.76l-6.62,19.85ZM1724.81,194.43l-27.15-64.34-21.68,64.34h48.83Z"/>
        </g>
        <g>
          <path d="M601.79,423.61c.23,23.96,10.27,44.49,34,44.49,14.15,0,34.45-5.25,34.45-22.82,0-39.7-98.34-38.56-98.34-94.69,0-34.22,38.79-42.21,65.94-42.21,30.8,0,62.06,9.81,64.34,46.32h-34.68c-.46-19.39-6.16-39.47-30.35-39.47-17.57,0-31.49,9.35-31.49,28.06,0,35.59,99.02,40.61,99.02,89.9,0,22.82-33.08,41.75-69.36,41.75-33.54,0-67.08-12.55-68.22-51.34h34.68Z"/>
          <path d="M760.14,455.1c0,3.19.23,7.07,2.28,9.58h29.43c26.47,0,29.66-5.93,44.26-28.06v36.05h-106.78v-162h106.78v33.77c-12.55-18.71-22.13-26.01-47-25.78l-26.7.23c-2.51,2.51-2.28,6.39-2.28,9.58v57.5h18.25c7.3,0,18.48-3.88,24.19-11.64h2.05v36.51h-1.14s-14.15-18.02-25.1-18.02h-18.25v62.29Z"/>
          <path d="M872.85,371.82c0,37.88,12.09,78.72,24.41,100.85h-31.94v-162h28.06l103.36,119.56v-39.47c0-17.57-9.13-67.99-23.96-80.09h31.94v162h-10.5l-121.38-133.25v32.4Z"/>
          <path d="M1116.99,472.67h-30.8v-150.82c0-1.14-.23-2.05-.23-3.19-29.43,0-41.3,6.84-55.21,35.14v-43.12h139.18v43.35c-14.83-25.55-23.73-34.91-52.02-35.37-.91.91-.91,2.51-.91,3.65v150.36Z"/>
          <path d="M1190.23,427.27c-8.67,25.78,1.83,41.98,7.76,45.4h-35.37l58.64-162h25.33l68.91,162h-36.51l-27.38-65.25h-54.76l-6.62,19.85ZM1248.41,399.89l-27.15-64.34-21.68,64.34h48.83Z"/>
          <path d="M1336.03,472.67v-162h42.21c52.48,0,97.2,23.27,97.2,81.46s-44.26,80.54-97.2,80.54h-42.21ZM1378.24,464.69c43.12,0,61.15-33.54,61.15-72.56s-18.71-73.24-61.15-73.24h-9.81c-1.6,2.51-1.6,6.39-1.6,9.35v126.86c0,2.97,0,7.07,1.82,9.58h9.58Z"/>
          <path d="M1502.81,427.27c-8.67,25.78,1.83,41.98,7.76,45.4h-35.37l58.64-162h25.33l68.91,162h-36.51l-27.38-65.25h-54.76l-6.62,19.85ZM1561,399.89l-27.15-64.34-21.68,64.34h48.83Z"/>
        </g>
      </g>
      <g>
        <g>
          <path class="cls-1" d="M65.63,271.33c-2.21,0-4-1.79-4-4V52.04c0-26.49,21.31-48.04,47.5-48.04h228.59c26.19,0,47.5,21.55,47.5,48.04v215.29c0,2.21-1.79,4-4,4H65.63Z"/>
          <path d="M337.72,8c24.01,0,43.5,20.17,43.5,44.04v215.28H65.63V52.04c0-24.01,19.48-44.04,43.5-44.04h228.59M337.72,0H109.12c-13.74,0-26.69,5.47-36.46,15.41-9.7,9.87-15.04,22.88-15.04,36.63v215.28c0,4.42,3.58,8,8,8h315.59c4.42,0,8-3.58,8-8V52.04c0-13.7-5.34-26.69-15.03-36.58-9.78-9.97-22.73-15.47-36.46-15.47h0Z"/>
        </g>
        <g>
          <path class="cls-2" d="M80.72,557.42c-13.19,0-25.6-5.14-34.94-14.48-9.26-9.26-14.49-21.96-14.34-34.84v-95.73c0-1.33.66-2.57,1.76-3.31.67-.45,1.45-.69,2.24-.69.5,0,1.01.09,1.48.29.18.07.49.13.71.13h88.36c2.21,0,4,1.79,4,4v95.36c0,27.17-22.11,49.28-49.28,49.28Z"/>
          <path d="M35.44,412.36c.69.27,1.51.41,2.2.41h88.36v95.36c0,24.97-20.31,45.28-45.28,45.28-12.07,0-23.6-4.8-32.11-13.31-8.51-8.51-13.31-20.03-13.17-31.97v-95.77M35.44,404.36c-1.58,0-3.14.47-4.49,1.38-2.2,1.49-3.51,3.97-3.51,6.62v95.73c-.15,13.93,5.51,27.66,15.52,37.67,10.09,10.09,23.51,15.65,37.76,15.65,29.38,0,53.28-23.9,53.28-53.28v-95.36c0-4.42-3.58-8-8-8H37.98c-.83-.28-1.68-.41-2.53-.41h0Z"/>
        </g>
        <g>
          <path class="cls-3" d="M366.26,557.42c-13.19,0-25.6-5.14-34.94-14.48-9.2-9.2-14.48-21.89-14.48-34.8v-95.36c0-2.21,1.79-4,4-4h88.36c.33,0,.51-.05.71-.13.48-.19.98-.29,1.48-.29.79,0,1.57.23,2.24.69,1.1.74,1.76,1.99,1.76,3.31v95.77c0,27.17-22.05,49.28-49.14,49.28Z"/>
          <path d="M411.4,412.36v95.77c0,24.97-20.17,45.28-45.14,45.28-12.07,0-23.6-4.8-32.11-13.31-8.51-8.51-13.31-20.03-13.31-31.97v-95.36h88.36c.82,0,1.51-.14,2.2-.41M411.4,404.36c-.85,0-1.71.14-2.53.41h-88.03c-4.42,0-8,3.58-8,8v95.36c0,13.97,5.71,27.68,15.65,37.63,10.09,10.09,23.51,15.65,37.76,15.65,29.3,0,53.14-23.9,53.14-53.28v-95.77c0-2.65-1.32-5.14-3.51-6.62-1.34-.91-2.91-1.38-4.49-1.38h0Z"/>
        </g>
        <g>
          <path class="cls-4" d="M37.64,389.19c-4.09,0-8.4-.86-12.46-2.48-12.72-5.18-21.02-17.33-21.17-30.97v-32.15c0-18.09,15.09-32.81,33.64-32.81h371.43c18.55,0,33.64,14.72,33.64,32.81v31.21c.09.35.14.72.14,1.08-.15,13.42-8.22,25.31-20.61,30.47-.22.15-.46.27-.71.37-4.12,1.65-8.26,2.48-12.33,2.48H37.64Z"/>
          <path d="M409.07,294.77c16.05,0,29.64,12.76,29.64,28.81v32.24h.14c-.14,11.94-7.55,22.64-18.66,27.03l-.14.14c-3.43,1.37-7.13,2.2-10.84,2.2H37.64c-3.7,0-7.55-.82-10.98-2.2-11.11-4.53-18.52-15.23-18.66-27.31v-32.11c0-16.05,13.58-28.81,29.64-28.81h371.43M438.84,355.83h0M409.07,286.77H37.64c-20.75,0-37.64,16.51-37.64,36.81v32.11s0,.06,0,.09c.17,15.25,9.45,28.84,23.64,34.62.02,0,.03.01.05.02,4.53,1.81,9.35,2.77,13.95,2.77h371.57c4.57,0,9.22-.93,13.81-2.77.36-.15.72-.32,1.05-.51,13.63-5.81,22.51-18.94,22.77-33.76,0-.11,0-.21,0-.32,0-.51-.05-1.01-.14-1.5v-30.75c0-20.3-16.88-36.81-37.64-36.81h0Z"/>
        </g>
      </g>
    </g>
  </g>
</svg>