<?xml version="1.0" encoding="UTF-8"?>
<svg id="Camada_2" data-name="Camada 2" xmlns="http://www.w3.org/2000/svg" xmlns:xlink="http://www.w3.org/1999/xlink" viewBox="0 0 2873.35 518.54">
  <defs>
    <style>
      .cls-1 {
        fill: none;
        stroke: #fff;
        stroke-linecap: round;
        stroke-linejoin: round;
        stroke-width: 8px;
      }

      .cls-2 {
        fill: #c68ff0;
      }

      .cls-3 {
        fill: url(#Gradiente_sem_nome_3);
      }

      .cls-4 {
        fill: #fefefe;
      }

      .cls-5 {
        fill: url(#Gradiente_sem_nome_18);
      }
    </style>
    <linearGradient id="Gradiente_sem_nome_18" data-name="Gradiente sem nome 18" x1="13.68" y1="321.16" x2="512.33" y2="321.16" gradientUnits="userSpaceOnUse">
      <stop offset="0" stop-color="#662c91"/>
      <stop offset="1" stop-color="#392c8d"/>
    </linearGradient>
    <linearGradient id="Gradiente_sem_nome_3" data-name="Gradiente sem nome 3" x1="4" y1="85.56" x2="213.35" y2="85.56" gradientUnits="userSpaceOnUse">
      <stop offset="0" stop-color="#fb74ab"/>
      <stop offset="1" stop-color="#662c91"/>
    </linearGradient>
  </defs>
  <g id="Camada_1-2" data-name="Camada 1">
    <g>
      <g>
        <g>
          <path class="cls-4" d="M663.58,272.45v-135.76h-31.94v-7.99c12.09-.46,43.35-4.11,51.11-18.25h11.64v162h-30.8Z"/>
          <path class="cls-4" d="M789.99,108.39c50.2,0,66.4,44.49,66.4,84.19s-16.2,82.14-66.4,82.14-66.17-41.98-66.17-82.14,16.2-84.19,66.17-84.19ZM789.99,265.83c28.98,0,33.54-48.83,33.54-73.24s-4.56-76.21-33.54-76.21-33.31,52.02-33.31,76.21,4.56,73.24,33.31,73.24Z"/>
          <path class="cls-4" d="M937.61,108.39c50.2,0,66.4,44.49,66.4,84.19s-16.2,82.14-66.4,82.14-66.17-41.98-66.17-82.14,16.2-84.19,66.17-84.19ZM937.61,265.83c28.98,0,33.54-48.83,33.54-73.24s-4.56-76.21-33.54-76.21-33.31,52.02-33.31,76.21,4.56,73.24,33.31,73.24Z"/>
          <path class="cls-4" d="M1071.31,272.45V110.45h53.85c30.8,0,63.89,4.33,63.89,42.89,0,42.67-57.5,43.12-86.93,43.12v75.98h-30.8ZM1123.1,189.39c23.27,0,30.35-15.29,30.35-36.28,0-18.03-7.99-34.45-28.29-34.45h-19.85c-2.97,2.97-3.19,4.11-3.19,8.21v62.52h20.99Z"/>
          <path class="cls-4" d="M1288.75,108.17c47.92,0,83.74,35.37,83.74,83.28s-36.05,83.28-83.74,83.28-83.96-35.37-83.96-83.28,35.82-83.28,83.96-83.28ZM1306.09,262.86c4.56,0,8.9-.91,13.23-2.74,23.96-10.5,29.21-47.91,11.64-87.39-14.6-32.86-38.33-52.94-59.55-52.94-4.56,0-9.13.91-13.23,2.74-24.41,10.95-29.43,47.92-11.86,87.62,14.6,32.63,38.33,52.71,59.78,52.71Z"/>
          <path class="cls-4" d="M1423.37,223.39c.23,23.96,10.27,44.49,34,44.49,14.15,0,34.45-5.25,34.45-22.82,0-39.7-98.34-38.56-98.34-94.69,0-34.22,38.79-42.21,65.94-42.21,30.8,0,62.06,9.81,64.34,46.32h-34.68c-.46-19.39-6.16-39.47-30.35-39.47-17.57,0-31.49,9.36-31.49,28.06,0,35.59,99.02,40.61,99.02,89.9,0,22.82-33.08,41.75-69.36,41.75-33.54,0-67.08-12.55-68.22-51.34h34.68Z"/>
          <path class="cls-4" d="M1550.91,272.45V110.45h30.8v162h-30.8Z"/>
          <path class="cls-4" d="M1729.33,162.93c3.88-20.08-7.76-46.32-35.59-47.46h-1.6c-23.5,0-45.63,18.71-45.63,61.6,0,36.51,20.53,74.84,61.15,74.84,26.24,0,45.86-13.23,55.44-37.65l3.88,1.83c-9.81,36.05-36.28,58.64-74.15,58.64l-8.44,11.64c13.69,0,30.12,7.76,30.12,20.08,0,11.64-8.67,25.1-28.75,25.1-11.18,0-23.73-10.04-26.24-22.36l2.28-1.37c3.19,5.02,11.86,13.46,21.9,13.46,5.25,0,8.9-1.37,10.72-4.34,1.6-2.96,2.51-5.25,2.51-7.3,0-.91-.23-1.83-.46-2.74-1.6-4.79-7.76-9.13-16.88-9.13-3.65,0-7.76.46-12.32,2.28l20.31-25.55c-43.81-3.42-76.21-39.24-76.21-83.74,0-59.32,41.07-82.6,82.82-82.6,28.06,0,68.91,9.58,73.47,54.76h-38.33Z"/>
          <path class="cls-4" d="M1867.6,108.17c47.91,0,83.74,35.37,83.74,83.28s-36.05,83.28-83.74,83.28-83.96-35.37-83.96-83.28,35.82-83.28,83.96-83.28ZM1884.94,262.86c4.56,0,8.9-.91,13.23-2.74,23.96-10.5,29.21-47.91,11.64-87.39-14.6-32.86-38.33-52.94-59.55-52.94-4.56,0-9.13.91-13.23,2.74-24.41,10.95-29.43,47.92-11.87,87.62,14.6,32.63,38.33,52.71,59.78,52.71ZM1902.97,71.89c0,10.27-3.88,26.7-17.8,26.7-8.9,0-20.31-11.18-27.61-12.32h-.91c-3.65,0-9.58,1.6-14.37,11.41h-1.6c0-11.64,3.65-28.06,17.34-28.06,8.9,0,23.04,12.55,31.71,12.55,3.42,0,9.58-3.19,11.64-10.27h1.6Z"/>
          <path class="cls-4" d="M2011.12,254.88c0,3.2.23,7.07,2.28,9.58h29.43c26.47,0,29.66-5.93,44.26-28.06v36.05h-106.78V110.45h106.78v33.77c-12.55-18.71-22.13-26.01-47-25.78l-26.7.23c-2.51,2.51-2.28,6.39-2.28,9.58v57.5h18.25c7.3,0,18.48-3.88,24.19-11.64h2.05v36.51h-1.14s-14.15-18.03-25.1-18.03h-18.25v62.29Z"/>
          <path class="cls-4" d="M2137.75,223.39c.23,23.96,10.27,44.49,34,44.49,14.15,0,34.45-5.25,34.45-22.82,0-39.7-98.34-38.56-98.34-94.69,0-34.22,38.79-42.21,65.94-42.21,30.8,0,62.06,9.81,64.34,46.32h-34.68c-.46-19.39-6.16-39.47-30.35-39.47-17.57,0-31.49,9.36-31.49,28.06,0,35.59,99.02,40.61,99.02,89.9,0,22.82-33.08,41.75-69.36,41.75-33.54,0-67.08-12.55-68.22-51.34h34.68Z"/>
          <path class="cls-4" d="M2306.36,272.45V110.45h53.85c30.8,0,63.89,4.33,63.89,42.89,0,42.67-57.5,43.12-86.93,43.12v75.98h-30.8ZM2358.16,189.39c23.27,0,30.35-15.29,30.35-36.28,0-18.03-7.99-34.45-28.29-34.45h-19.85c-2.97,2.97-3.19,4.11-3.19,8.21v62.52h20.99Z"/>
          <path class="cls-4" d="M2443.95,227.04c-8.67,25.78,1.83,41.98,7.76,45.4h-35.37l58.64-162h25.33l68.91,162h-36.51l-27.38-65.25h-54.76l-6.62,19.85ZM2502.13,199.66l-27.15-64.34-21.68,64.34h48.83Z"/>
          <path class="cls-4" d="M2589.74,272.45V110.45h69.13c9.81,0,48.6,6.16,51.11,34.91,2.28,28.75-44.04,37.19-56.36,49.51-6.85,7.07,4.33,18.48,19.39,31.03,18.48,15.52,38.1,32.86,42.21,46.54h-37.88l-29.89-29.89c-25.78-25.78-13.69-40.16,1.14-52.25,13.23-10.72,25.33-21.45,25.33-42.44,0-27.38-25.55-29.21-25.55-29.21h-25.55c-2.28,3.2-2.28,7.53-2.28,11.18v142.6h-30.8Z"/>
          <path class="cls-4" d="M2748.09,227.04c-8.67,25.78,1.83,41.98,7.76,45.4h-35.37l58.64-162h25.33l68.91,162h-36.51l-27.38-65.25h-54.76l-6.62,19.85ZM2806.27,199.66l-27.15-64.34-21.68,64.34h48.83Z"/>
        </g>
        <g>
          <path class="cls-4" d="M666.78,429.78c.23,23.96,10.27,44.49,34,44.49,14.15,0,34.45-5.25,34.45-22.82,0-39.7-98.34-38.56-98.34-94.69,0-34.22,38.79-42.21,65.94-42.21,30.8,0,62.06,9.81,64.34,46.32h-34.68c-.46-19.39-6.16-39.47-30.35-39.47-17.57,0-31.49,9.35-31.49,28.06,0,35.59,99.02,40.61,99.02,89.9,0,22.82-33.08,41.75-69.36,41.75-33.54,0-67.08-12.55-68.22-51.34h34.68Z"/>
          <path class="cls-4" d="M825.13,461.27c0,3.19.23,7.07,2.28,9.58h29.43c26.47,0,29.66-5.93,44.26-28.06v36.05h-106.78v-162h106.78v33.77c-12.55-18.71-22.13-26.01-47-25.78l-26.7.23c-2.51,2.51-2.28,6.39-2.28,9.58v57.5h18.25c7.3,0,18.48-3.88,24.19-11.64h2.05v36.51h-1.14s-14.15-18.02-25.1-18.02h-18.25v62.29Z"/>
          <path class="cls-4" d="M929.85,478.84v-162h69.13c9.81,0,48.6,6.16,51.11,34.91,2.28,28.75-44.04,37.19-56.36,49.51-6.85,7.07,4.33,18.48,19.39,31.03,18.48,15.52,38.1,32.86,42.21,46.55h-37.88l-29.89-29.89c-25.78-25.78-13.69-40.16,1.14-52.25,13.23-10.72,25.33-21.45,25.33-42.44,0-27.38-25.55-29.21-25.55-29.21h-25.55c-2.28,3.19-2.28,7.53-2.28,11.18v142.6h-30.8Z"/>
          <path class="cls-4" d="M1117.63,478.84v-162h30.8v162h-30.8Z"/>
          <path class="cls-4" d="M1194.06,377.99c0,37.88,12.09,78.72,24.41,100.85h-31.94v-162h28.06l103.36,119.56v-39.47c0-17.57-9.13-67.99-23.96-80.09h31.94v162h-10.5l-121.38-133.25v32.4Z"/>
          <path class="cls-4" d="M1394.62,461.27c0,3.19.23,7.07,2.28,9.58h29.43c26.47,0,29.66-5.93,44.26-28.06v36.05h-106.78v-162h106.78v33.77c-12.55-18.71-22.13-26.01-47-25.78l-26.7.23c-2.51,2.51-2.28,6.39-2.28,9.58v57.5h18.25c7.3,0,18.48-3.88,24.19-11.64h2.05v36.51h-1.14s-14.15-18.02-25.1-18.02h-18.25v62.29Z"/>
          <path class="cls-4" d="M1521.25,429.78c.23,23.96,10.27,44.49,34,44.49,14.15,0,34.45-5.25,34.45-22.82,0-39.7-98.34-38.56-98.34-94.69,0-34.22,38.79-42.21,65.94-42.21,30.8,0,62.06,9.81,64.34,46.32h-34.68c-.46-19.39-6.16-39.47-30.35-39.47-17.57,0-31.49,9.35-31.49,28.06,0,35.59,99.02,40.61,99.02,89.9,0,22.82-33.08,41.75-69.36,41.75-33.54,0-67.08-12.55-68.22-51.34h34.68Z"/>
          <path class="cls-4" d="M1797.33,518.54l-40.16-43.81-2.28.91c-9.81,3.65-20.08,5.48-30.57,5.48-41.98,0-83.96-29.66-83.96-83.28s41.98-83.28,83.96-83.28,83.74,29.43,83.74,83.28c0,26.7-10.5,47.69-26.24,61.6-4.79,4.33-9.81,7.99-15.52,10.95l42.21,42.44-11.18,5.7ZM1731.39,435.26l23.27,23.5c1.6-2.05,3.19-4.11,4.56-6.39,7.53-13.01,11.41-31.71,11.41-54.53,0-45.63-15.29-75.29-46.32-75.29s-46.54,29.66-46.54,75.29,15.74,75.29,46.54,75.29c7.76,0,14.6-1.83,20.31-5.48,1.14-.68,2.51-1.6,3.65-2.51l-23.04-25.1,6.16-4.79Z"/>
          <path class="cls-4" d="M1958.64,422.25c0,36.05-21.68,58.87-57.95,58.87s-65.94-21.45-65.94-58.87v-105.41h30.8v99.25c0,25.78,10.04,52.48,39.93,52.48s44.26-20.76,44.26-47.91c0-36.51-9.81-73.01-32.86-103.82h41.75v105.41Z"/>
          <path class="cls-4" d="M2025.04,461.27c0,3.19.23,7.07,2.28,9.58h29.43c26.47,0,29.66-5.93,44.26-28.06v36.05h-106.78v-162h106.78v33.77c-12.55-18.71-22.13-26.01-47-25.78l-26.7.23c-2.51,2.51-2.28,6.39-2.28,9.58v57.5h18.25c7.3,0,18.48-3.88,24.19-11.64h2.05v36.51h-1.14s-14.15-18.02-25.1-18.02h-18.25v62.29Z"/>
          <path class="cls-4" d="M2239.74,369.32c3.88-20.08-7.76-46.32-35.59-47.46h-1.6c-23.5,0-45.63,18.71-45.63,61.6,0,36.51,20.53,74.84,61.15,74.84,26.24,0,45.86-13.23,55.44-37.65l3.88,1.83c-9.36,34.45-35.59,58.64-72.33,58.64-47.46,0-83.28-36.96-83.28-83.96,0-59.32,41.07-82.6,82.82-82.6,28.06,0,68.91,9.58,73.47,54.76h-38.33Z"/>
          <path class="cls-4" d="M2302.49,478.84v-162h30.8v162h-30.8ZM2339.45,261.39l18.94,18.03-43.81,29.21-2.51-2.51,27.38-44.72Z"/>
          <path class="cls-4" d="M2449.2,478.84h-25.33l-64.34-162h36.51l53.16,137.13,26.47-91.72c7.53-26.24-1.83-41.98-7.76-45.41h35.37l-54.07,162Z"/>
          <path class="cls-4" d="M2558.03,461.27c0,3.19.23,7.07,2.28,9.58h29.43c26.47,0,29.66-5.93,44.26-28.06v36.05h-106.78v-162h106.78v33.77c-12.55-18.71-22.13-26.01-47-25.78l-26.7.23c-2.51,2.51-2.28,6.39-2.28,9.58v57.5h18.25c7.3,0,18.48-3.88,24.19-11.64h2.05v36.51h-1.14s-14.15-18.02-25.1-18.02h-18.25v62.29Z"/>
          <path class="cls-4" d="M2662.76,478.84v-162h30.8v144.43c0,3.42,0,7.76,2.51,10.27h17.8c26.47,0,40.84-9.81,51.57-31.94v39.24h-102.67Z"/>
        </g>
      </g>
      <g>
        <path class="cls-5" d="M204.34,156.61c4.63,13.42,10.13,26.09,17.27,38.94,18,32.41,49.97,52.91,87.24,55.47,9.55.65,19.05,1.13,28.59,0l36.64-4.34c34.72-4.11,74.14,7.47,98.79,32.31,13.71,13.81,24.84,28.79,31.33,47.14,6.11,17.29,9.54,34.23,7.56,52.47-2.33,21.47-6.56,41.9-17.82,60.94-28.37,48-89.57,69.95-141.31,71.35l-26.49.71c-3.48.09-5.98.13-9.58.05l-25.63-.61-16.13-1.37c-56.19-4.76-117.95-24.53-160.07-63.35-8.59-7.92-16.9-15.68-24.43-24.55-26.47-31.2-45.52-71.79-56.32-111.2-8.81-32.13-14.76-64.42-17.14-97.7l-1.26-17.61c-.75-10.48-2.06-22.49-1.9-31.61,8.69,2.07,20.02-19.71,30.45-28.02,8.99-7.17,24.19-6.79,31.64,1.87l18.44,21.43c5.03,5.85,11.15,8.1,18.8,8.19,19.74.22,23.37-16.99,39.34-31.08,7.87-6.94,21.34-6.89,29.57-.65,10.25,7.76,15.16,22.31,22.41,21.21ZM457.48,312.31c0-20.01-16.22-36.23-36.23-36.23s-36.23,16.22-36.23,36.23,16.22,36.23,36.23,36.23,36.23-16.22,36.23-36.23Z"/>
        <path class="cls-3" d="M204.34,156.61c-7.25,1.1-12.16-13.44-22.41-21.21-8.23-6.24-21.7-6.3-29.57.65-15.97,14.08-19.6,31.3-39.34,31.08-7.64-.09-13.76-2.34-18.8-8.19l-18.44-21.43c-7.45-8.65-22.65-9.03-31.64-1.87-10.43,8.31-21.76,30.1-30.45,28.02-6.51-1.55-9.43-8.54-9.64-15.18-1.5-47,27.65-88.97,72.57-103.53l.17-17.14c.15-14.46,14.81-24.13,28.28-23.79,14.37.36,25.48,11.34,26.78,26.24.37,4.26-.65,8.39.05,12.45,40.62,6.79,77.9,49.71,80.56,89.23l.86,12.75c.4,6.02-3.79,11.68-8.98,11.92Z"/>
        <circle class="cls-2" cx="421.25" cy="312.31" r="36.23"/>
      </g>
      <path class="cls-1" d="M504.21,326.13c-6.49-18.35-17.62-33.33-31.33-47.14-24.65-24.83-64.07-36.42-98.79-32.31l-36.64,4.34c-9.53,1.13-19.03.65-28.59,0-37.27-2.55-69.25-23.06-87.24-55.47-7.13-12.85-12.64-25.52-17.27-38.94,5.2-.24,9.39-5.91,8.98-11.92l-.86-12.75c-2.66-39.52-39.94-82.44-80.56-89.23-.7-4.06.32-8.19-.05-12.45-1.3-14.9-12.41-25.87-26.78-26.24-13.47-.34-28.13,9.33-28.28,23.79l-.17,17.14C31.71,59.5,2.56,101.48,4.06,148.48c.21,6.64,3.13,13.63,9.64,15.18-.15,9.12,1.16,21.13,1.9,31.61l1.26,17.61c2.37,33.28,8.33,65.57,17.14,97.7,10.8,39.41,29.85,80,56.32,111.2,7.53,8.88,15.85,16.64,24.43,24.55,42.12,38.82,103.88,58.59,160.07,63.35l16.13,1.37,25.63.61c3.6.09,6.1.05,9.58-.05l26.49-.71c51.74-1.4,112.95-23.34,141.31-71.35,11.25-19.04,15.49-39.48,17.82-60.94,1.98-18.25-1.45-35.19-7.56-52.47Z"/>
    </g>
  </g>
</svg>