<?xml version="1.0" encoding="UTF-8"?>
<svg id="Camada_2" data-name="Camada 2" xmlns="http://www.w3.org/2000/svg" xmlns:xlink="http://www.w3.org/1999/xlink" viewBox="0 0 1876.68 550.69">
  <defs>
    <style>
      .cls-1 {
        fill: url(#Gradiente_sem_nome_3-2);
      }

      .cls-2 {
        fill: url(#Gradiente_sem_nome_3-3);
      }

      .cls-3 {
        fill: none;
        stroke: #111;
        stroke-linecap: round;
        stroke-linejoin: round;
        stroke-width: 10.07px;
      }

      .cls-4 {
        fill: url(#Gradiente_sem_nome_3);
      }

      .cls-5 {
        fill: #fefefe;
      }
    </style>
    <linearGradient id="Gradiente_sem_nome_3" data-name="Gradiente sem nome 3" x1="179.1" y1="130.33" x2="546.06" y2="130.33" gradientUnits="userSpaceOnUse">
      <stop offset="0" stop-color="#fb74ab"/>
      <stop offset="1" stop-color="#662c91"/>
    </linearGradient>
    <linearGradient id="Gradiente_sem_nome_3-2" data-name="Gradiente sem nome 3" x1="256.15" y1="420.01" x2="507.12" y2="420.01" xlink:href="#Gradiente_sem_nome_3"/>
    <linearGradient id="Gradiente_sem_nome_3-3" data-name="Gradiente sem nome 3" x1="5.03" y1="352.55" x2="198.01" y2="352.55" xlink:href="#Gradiente_sem_nome_3"/>
  </defs>
  <g id="Camada_1-2" data-name="Camada 1">
    <g>
      <g>
        <g>
          <g>
            <path class="cls-4" d="M526.68,195.26c-37.8,58.49-113.37,77.07-173.92,44.26l-159.93-86.63c-8.68-4.7-13.71-13.51-13.73-22.44-.02-8.52,4.8-17.94,13.43-22.64L351.86,20.91c12.86-7.01,26.67-10.37,40.48-13.62,13.09-3.08,24.84-2.54,38.12-1.1,51.19,5.56,95.72,40.39,110.48,89.99,10.22,34.35,4.96,69.35-14.26,99.08ZM488.23,141.06c.19,12.03,11.19,19.08,21.05,18.06,11.2-1.16,17.63-10.44,17.28-21.74-.87-27.79-10.55-52.92-28.93-73.63-22.38-25.21-53.35-40.23-87.49-39.72-11.15.17-19.16,10.19-18.54,20.37.67,10.95,9.81,18.53,21.05,18.39,15.23-.19,29.01,4.79,41.2,13.19,21.69,14.95,33.97,38.36,34.38,65.07Z"/>
            <path class="cls-5" d="M488.23,141.06c-.42-26.71-12.7-50.12-34.38-65.07-12.19-8.4-25.97-13.39-41.2-13.19-11.24.14-20.38-7.44-21.05-18.39-.62-10.18,7.4-20.2,18.54-20.37,34.14-.51,65.12,14.51,87.49,39.72,18.38,20.71,28.06,45.84,28.93,73.63.35,11.29-6.08,20.58-17.28,21.74-9.86,1.02-20.86-6.03-21.05-18.06Z"/>
          </g>
          <g>
            <g>
              <path class="cls-1" d="M495.65,486.44c-12.71,24.97-33.31,43.28-58.86,52.65-57.85,21.22-122.82-10.76-139.42-70.75l-40.45-146.2c-2.25-8.12.66-15.5,5.71-20.96,4.94-5.34,13.02-8.34,21.33-6.03l147.04,40.74c62.9,17.43,94.76,91.38,64.64,150.56ZM449.59,449.84c.05,11.49,10.8,19.43,21.03,18.33,11.79-1.27,17.8-10.9,17.35-22.79-1.92-50.93-43.35-91.59-94.32-93.09-10.94-.32-19.46,6.13-21.15,16.83-1.44,9.1,5.48,21.4,16.45,21.34,33.63-.18,60.5,25.61,60.64,59.37Z"/>
              <path class="cls-5" d="M449.59,449.84c-.14-33.77-27.01-59.56-60.64-59.37-10.97.06-17.89-12.23-16.45-21.34,1.7-10.7,10.22-17.15,21.15-16.83,50.97,1.5,92.39,42.16,94.32,93.09.45,11.89-5.57,21.51-17.35,22.79-10.23,1.11-20.98-6.83-21.03-18.33Z"/>
            </g>
            <g>
              <path class="cls-2" d="M140.78,479.35c-20.7,9.16-43.25,10.58-64.31,5.2-15.11-3.86-28.36-12.15-39.61-22.25-33.55-30.13-41.57-78.31-19.31-117.53l65.95-116.22c3.98-7.02,9.92-10.83,16.82-11.1,8-.31,14.83,2.88,19.06,10.33l66.04,116.6c28.9,51.02,5.54,112.75-44.64,134.97ZM105.48,468.31c41.71-2.28,74.36-37.3,73.32-78.4-.28-10.92-10.04-18.67-19.91-18.26-9.66.4-18.18,8.41-18.4,18.93-.44,21.85-17.13,38.63-38.94,39.31-11.6.36-20.33,10.24-19.11,20.98s10.46,18.12,23.05,17.43Z"/>
              <path class="cls-5" d="M105.48,468.31c-12.59.69-21.77-6.19-23.05-17.43s7.51-20.62,19.11-20.98c21.81-.68,38.5-17.46,38.94-39.31.21-10.52,8.74-18.52,18.4-18.93,9.88-.41,19.64,7.34,19.91,18.26,1.04,41.09-31.61,76.11-73.32,78.4Z"/>
            </g>
          </g>
        </g>
        <g>
          <path class="cls-3" d="M540.94,96.18c-14.76-49.61-59.29-84.43-110.48-89.99-13.28-1.44-25.03-1.98-38.12,1.1-13.81,3.25-27.62,6.61-40.48,13.62l-159.33,86.9c-8.63,4.71-13.45,14.12-13.43,22.64.02,8.93,5.05,17.74,13.73,22.44l159.93,86.63c60.56,32.8,136.12,14.23,173.92-44.26,19.22-29.74,24.48-64.73,14.26-99.08Z"/>
          <path class="cls-3" d="M431.01,335.88l-147.04-40.74c-8.31-2.3-16.39.69-21.33,6.03-5.06,5.47-7.96,12.84-5.71,20.96l40.45,146.2c16.6,59.99,81.57,91.97,139.42,70.75,25.54-9.37,46.15-27.68,58.86-52.65,30.12-59.18-1.74-133.13-64.64-150.56Z"/>
          <path class="cls-3" d="M119.38,227.78c-4.22-7.45-11.06-10.65-19.06-10.33-6.9.27-12.84,4.08-16.82,11.1l-65.95,116.22c-22.25,39.22-14.24,87.39,19.31,117.53,11.25,10.11,24.5,18.39,39.61,22.25,21.05,5.38,43.61,3.97,64.31-5.2,50.18-22.22,73.54-83.95,44.64-134.97l-66.04-116.6Z"/>
        </g>
      </g>
      <g>
        <g>
          <path d="M762.94,276.22V50.12h149.03v47.13c-17.51-26.11-30.89-36.3-65.6-35.98l-37.26.32c-3.5,3.5-3.18,8.92-3.18,13.38v80.25h25.48c10.19,0,25.79-5.41,33.76-16.24h2.87v50.95h-1.59s-19.74-25.16-35.03-25.16h-25.48v111.46h-42.99Z"/>
          <path d="M1052.4,46.94c66.87,0,116.87,49.36,116.87,116.23s-50.32,116.23-116.87,116.23-117.19-49.36-117.19-116.23,50-116.23,117.19-116.23ZM1076.61,262.85c6.37,0,12.42-1.27,18.47-3.82,33.44-14.65,40.76-66.88,16.24-121.97-20.38-45.86-53.5-73.88-83.12-73.88-6.37,0-12.74,1.27-18.47,3.82-34.07,15.29-41.08,66.88-16.56,122.29,20.38,45.54,53.5,73.56,83.43,73.56Z"/>
          <path d="M1371.17,185.15c0-12.74-9.24-19.74-20.38-19.74v-4.46h66.56l.32,64.96c.32,43.95-66.24,53.5-99.04,53.5-70.38,0-120.69-44.58-120.69-116.55,0-77.07,47.77-116.24,121.01-116.24,48.72,0,97.45,23.57,99.04,76.75h-53.5c8.28-41.08-10.51-66.88-51.59-66.88-53.82,0-62.73,49.68-62.73,94.9,0,51.91,22.29,113.37,83.43,113.37,11.46,0,37.58-3.82,37.58-19.11v-60.51Z"/>
          <path d="M1571.48,46.94c66.87,0,116.87,49.36,116.87,116.23s-50.32,116.23-116.87,116.23-117.19-49.36-117.19-116.23,50-116.23,117.19-116.23ZM1595.68,262.85c6.37,0,12.42-1.27,18.47-3.82,33.44-14.65,40.76-66.88,16.24-121.97-20.38-45.86-53.5-73.88-83.12-73.88-6.37,0-12.74,1.27-18.47,3.82-34.07,15.29-41.08,66.88-16.56,122.29,20.38,45.54,53.5,73.56,83.43,73.56Z"/>
        </g>
        <g>
          <path d="M780.06,449.42c.24,25.5,10.93,47.36,36.19,47.36,15.06,0,36.68-5.59,36.68-24.29,0-42.26-104.69-41.05-104.69-100.8,0-36.43,41.29-44.93,70.2-44.93,32.79,0,66.07,10.44,68.49,49.31h-36.92c-.49-20.65-6.56-42.02-32.3-42.02-18.7,0-33.52,9.96-33.52,29.88,0,37.89,105.41,43.23,105.41,95.7,0,24.29-35.22,44.45-73.84,44.45-35.7,0-71.41-13.36-72.62-54.65h36.92Z"/>
          <path d="M948.62,482.94c0,3.4.24,7.53,2.43,10.2h31.33c28.18,0,31.58-6.32,47.12-29.88v38.38h-113.67v-172.45h113.67v35.95c-13.36-19.92-23.56-27.69-50.04-27.45l-28.42.24c-2.67,2.67-2.43,6.8-2.43,10.2v61.21h19.43c7.77,0,19.67-4.13,25.75-12.39h2.19v38.86h-1.21s-15.06-19.19-26.72-19.19h-19.43v66.31Z"/>
          <path d="M1177.17,385.05c4.13-21.37-8.26-49.31-37.89-50.52h-1.7c-25.02,0-48.58,19.92-48.58,65.58,0,38.86,21.86,79.67,65.09,79.67,27.93,0,48.82-14.09,59.02-40.08l4.13,1.94c-9.96,36.68-37.89,62.42-77,62.42-50.52,0-88.65-39.35-88.65-89.38,0-63.15,43.72-87.93,88.17-87.93,29.88,0,73.35,10.2,78.21,58.29h-40.81Z"/>
          <path d="M1243.96,501.64v-172.45h73.6c10.44,0,51.74,6.56,54.41,37.16,2.43,30.6-46.88,39.59-59.99,52.71-7.29,7.53,4.61,19.67,20.65,33.03,19.67,16.52,40.56,34.98,44.93,49.55h-40.32l-31.82-31.82c-27.45-27.45-14.57-42.75,1.21-55.62,14.09-11.42,26.96-22.83,26.96-45.18,0-29.15-27.2-31.09-27.2-31.09h-27.2c-2.43,3.4-2.43,8.01-2.43,11.9v151.81h-32.79Z"/>
          <path d="M1432.93,482.94c0,3.4.24,7.53,2.43,10.2h31.33c28.18,0,31.58-6.32,47.12-29.88v38.38h-113.67v-172.45h113.67v35.95c-13.36-19.92-23.56-27.69-50.04-27.45l-28.42.24c-2.67,2.67-2.43,6.8-2.43,10.2v61.21h19.43c7.77,0,19.67-4.13,25.75-12.39h2.19v38.86h-1.21s-15.06-19.19-26.72-19.19h-19.43v66.31Z"/>
          <path d="M1623.59,501.64h-32.79v-160.55c0-1.21-.24-2.19-.24-3.4-31.33,0-43.96,7.29-58.78,37.41v-45.91h148.16v46.15c-15.79-27.2-25.26-37.16-55.38-37.65-.97.97-.97,2.67-.97,3.89v160.06Z"/>
          <path d="M1787.54,326.76c51.01,0,89.14,37.65,89.14,88.66s-38.38,88.65-89.14,88.65-89.38-37.65-89.38-88.65,38.13-88.66,89.38-88.66ZM1806,491.44c4.86,0,9.47-.97,14.09-2.92,25.5-11.17,31.09-51.01,12.39-93.03-15.54-34.98-40.81-56.35-63.39-56.35-4.86,0-9.72.97-14.09,2.92-25.99,11.66-31.33,51.01-12.63,93.27,15.54,34.73,40.81,56.11,63.64,56.11Z"/>
        </g>
      </g>
    </g>
  </g>
</svg>