<?xml version="1.0" encoding="UTF-8"?>
<svg id="Camada_2" data-name="Camada 2" xmlns="http://www.w3.org/2000/svg" xmlns:xlink="http://www.w3.org/1999/xlink" viewBox="0 0 2085.13 789.67">
  <defs>
    <style>
      .cls-1 {
        fill: url(#Gradiente_sem_nome_422);
      }

      .cls-2 {
        fill: none;
        stroke: #fff;
        stroke-linecap: round;
        stroke-linejoin: round;
        stroke-width: 8px;
      }

      .cls-3 {
        fill: url(#Gradiente_sem_nome_18-6);
      }

      .cls-4 {
        fill: url(#Gradiente_sem_nome_18-5);
      }

      .cls-5 {
        fill: url(#Gradiente_sem_nome_3);
      }

      .cls-6 {
        fill: #fefefe;
      }

      .cls-7 {
        fill: url(#Gradiente_sem_nome_18-3);
      }

      .cls-8 {
        fill: url(#Gradiente_sem_nome_18-4);
      }

      .cls-9 {
        fill: url(#Gradiente_sem_nome_18);
      }

      .cls-10 {
        fill: url(#Gradiente_sem_nome_18-2);
      }
    </style>
    <linearGradient id="Gradiente_sem_nome_18" data-name="Gradiente sem nome 18" x1="514.72" y1="534.64" x2="664.82" y2="534.64" gradientTransform="translate(-28.64 20.74) rotate(-5.81)" gradientUnits="userSpaceOnUse">
      <stop offset="0" stop-color="#662c91"/>
      <stop offset="1" stop-color="#392c8d"/>
    </linearGradient>
    <linearGradient id="Gradiente_sem_nome_18-2" data-name="Gradiente sem nome 18" x1="31.71" y1="419.46" x2="349.34" y2="419.46" xlink:href="#Gradiente_sem_nome_18"/>
    <linearGradient id="Gradiente_sem_nome_422" data-name="Gradiente sem nome 422" x1="-38.3" y1="404.62" x2="602.79" y2="404.62" gradientTransform="translate(-28.64 20.74) rotate(-5.81)" gradientUnits="userSpaceOnUse">
      <stop offset="0" stop-color="#623189"/>
      <stop offset="1" stop-color="#e84d95"/>
    </linearGradient>
    <linearGradient id="Gradiente_sem_nome_3" data-name="Gradiente sem nome 3" x1="-38.3" y1="404.62" x2="602.79" y2="404.62" gradientTransform="translate(-28.64 20.74) rotate(-5.81)" gradientUnits="userSpaceOnUse">
      <stop offset="0" stop-color="#fb74ab"/>
      <stop offset="1" stop-color="#662c91"/>
    </linearGradient>
    <linearGradient id="Gradiente_sem_nome_18-3" data-name="Gradiente sem nome 18" x1="-38.3" y1="604.91" x2="500" y2="604.91" xlink:href="#Gradiente_sem_nome_18"/>
    <linearGradient id="Gradiente_sem_nome_18-4" data-name="Gradiente sem nome 18" x1="-38.3" y1="626.74" x2="499.99" y2="626.74" xlink:href="#Gradiente_sem_nome_18"/>
    <linearGradient id="Gradiente_sem_nome_18-5" data-name="Gradiente sem nome 18" x1="286.26" y1="581.53" x2="536.89" y2="581.53" xlink:href="#Gradiente_sem_nome_18"/>
    <linearGradient id="Gradiente_sem_nome_18-6" data-name="Gradiente sem nome 18" x1="286.26" y1="585.25" x2="536.89" y2="585.25" xlink:href="#Gradiente_sem_nome_18"/>
  </defs>
  <g id="Camada_1-2" data-name="Camada 1">
    <g>
      <g>
        <g>
          <path class="cls-6" d="M961.91,358.17h-40.82v-199.86c0-1.51-.3-2.72-.3-4.23-39,0-54.73,9.07-73.17,46.56v-57.15h184.44v57.45c-19.65-33.86-31.44-46.26-68.94-46.86-1.21,1.21-1.21,3.33-1.21,4.84v199.25Z"/>
          <path class="cls-6" d="M1166,140.48c63.49,0,110.96,46.87,110.96,110.36s-47.77,110.36-110.96,110.36-111.27-46.86-111.27-110.36,47.47-110.36,111.27-110.36ZM1188.98,345.47c6.05,0,11.79-1.21,17.54-3.63,31.75-13.91,38.7-63.49,15.42-115.8-19.35-43.54-50.8-70.15-78.91-70.15-6.05,0-12.09,1.21-17.54,3.63-32.35,14.51-39,63.49-15.72,116.1,19.35,43.24,50.8,69.84,79.22,69.84Z"/>
          <path class="cls-6" d="M1512.19,410.78l-53.21-58.05-3.02,1.21c-13,4.84-26.61,7.26-40.52,7.26-55.63,0-111.27-39.31-111.27-110.36s55.63-110.36,111.27-110.36,110.96,39,110.96,110.36c0,35.38-13.91,63.19-34.77,81.63-6.35,5.75-13,10.58-20.56,14.51l55.94,56.24-14.81,7.56ZM1424.81,300.42l30.84,31.14c2.12-2.72,4.23-5.44,6.05-8.47,9.98-17.23,15.12-42.03,15.12-72.26,0-60.47-20.26-99.78-61.38-99.78s-61.68,39.31-61.68,99.78,20.86,99.78,61.68,99.78c10.28,0,19.35-2.42,26.91-7.26,1.51-.91,3.33-2.12,4.84-3.33l-30.54-33.26,8.16-6.35Z"/>
          <path class="cls-6" d="M1725.95,283.19c0,47.77-28.72,78.01-76.8,78.01s-87.38-28.42-87.38-78.01v-139.69h40.82v131.52c0,34.17,13.3,69.54,52.91,69.54s58.66-27.51,58.66-63.49c0-48.38-13-96.75-43.54-137.57h55.33v139.69Z"/>
          <path class="cls-6" d="M1813.93,334.89c0,4.23.3,9.37,3.02,12.7h39c35.07,0,39.31-7.86,58.66-37.19v47.77h-141.5v-214.67h141.5v44.75c-16.63-24.79-29.33-34.47-62.28-34.17l-35.38.3c-3.32,3.33-3.02,8.47-3.02,12.7v76.19h24.19c9.67,0,24.49-5.14,32.05-15.42h2.72v48.38h-1.51s-18.75-23.89-33.26-23.89h-24.19v82.54Z"/>
        </g>
        <g>
          <path class="cls-6" d="M863.35,646.17v-214.67h55.94c69.54,0,128.8,30.84,128.8,107.94s-58.66,106.73-128.8,106.73h-55.94ZM919.28,635.59c57.14,0,81.03-44.45,81.03-96.15s-24.79-97.06-81.03-97.06h-13c-2.12,3.33-2.12,8.47-2.12,12.4v168.11c0,3.93,0,9.37,2.42,12.7h12.7Z"/>
          <path class="cls-6" d="M1127.3,622.89c0,4.23.3,9.37,3.02,12.7h39c35.07,0,39.31-7.86,58.66-37.19v47.77h-141.5v-214.67h141.5v44.75c-16.63-24.79-29.33-34.47-62.28-34.17l-35.38.3c-3.33,3.33-3.02,8.47-3.02,12.7v76.19h24.19c9.67,0,24.49-5.14,32.05-15.42h2.72v48.38h-1.51s-18.75-23.89-33.26-23.89h-24.19v82.54Z"/>
          <path class="cls-6" d="M1349.52,581.17c.3,31.75,13.61,58.96,45.05,58.96,18.75,0,45.65-6.95,45.65-30.24,0-52.61-130.31-51.1-130.31-125.48,0-45.35,51.4-55.94,87.38-55.94,40.82,0,82.24,13,85.26,61.38h-45.96c-.61-25.7-8.16-52.31-40.21-52.31-23.28,0-41.72,12.4-41.72,37.19,0,47.17,131.22,53.82,131.22,119.13,0,30.24-43.84,55.33-91.92,55.33-44.45,0-88.89-16.63-90.4-68.03h45.96Z"/>
          <path class="cls-6" d="M1559.35,622.89c0,4.23.3,9.37,3.02,12.7h39c35.07,0,39.31-7.86,58.66-37.19v47.77h-141.5v-214.67h141.5v44.75c-16.63-24.79-29.33-34.47-62.28-34.17l-35.38.3c-3.32,3.33-3.02,8.47-3.02,12.7v76.19h24.19c9.67,0,24.49-5.14,32.05-15.42h2.72v48.38h-1.51s-18.75-23.89-33.26-23.89h-24.19v82.54Z"/>
          <path class="cls-6" d="M1698.13,646.17v-214.67h55.94c69.54,0,128.8,30.84,128.8,107.94s-58.66,106.73-128.8,106.73h-55.94ZM1754.06,635.59c57.14,0,81.03-44.45,81.03-96.15s-24.79-97.06-81.03-97.06h-13c-2.12,3.33-2.12,8.47-2.12,12.4v168.11c0,3.93,0,9.37,2.42,12.7h12.7Z"/>
          <path class="cls-6" d="M1919.14,586c-11.49,34.17,2.42,55.63,10.28,60.17h-46.87l77.71-214.67h33.56l91.31,214.67h-48.38l-36.28-86.47h-72.56l-8.77,26.3ZM1996.24,549.72l-35.98-85.26-28.72,85.26h64.7Z"/>
        </g>
      </g>
      <g>
        <g>
          <g>
            <path class="cls-2" d="M632.27,392.27c-16-10.41-33.9-16.3-52.65-18.05l-45.78,89.61,19.64,22.2c15.34,2.62,29.98,8.15,43.29,16.82,34.03,22.14,52.85,60.45,55.64,104.18l9.04,2.87c44.41-82.83,32.98-177.19-29.18-217.63Z"/>
            <path class="cls-2" d="M359.78,386.93c-8.73-27.15-24.98-50.14-48.47-65.42-66.68-43.39-166.47-8.29-222.88,78.39-20.98,32.24-33,67.08-36.39,100.35l20.75,8.08c52.9-81.3,128.75-125.77,169.4-99.32,27.47,17.87,31.84,63.55,15.47,116.37l71.94-64.66,30.17-73.8Z"/>
            <path class="cls-2" d="M586.73,144.3c-7.25-34.28-17.67-67.09-30.86-98.18-30.4-71.62-137.95-45.82-131.82,31.74,9.42,119.33-19.01,242.59-89.35,350.68-70.46,108.28-171.88,184.29-285.04,223.95-73.31,25.7-53.33,134.3,24.34,133.18,33.98-.49,68.41-4.26,102.91-11.56,287.42-60.82,470.64-342.39,409.82-629.81Z"/>
          </g>
          <g>
            <path class="cls-2" d="M586.73,144.3c-7.25-34.28-17.67-67.09-30.86-98.18C541.44,12.12,509.64.09,480.86,5.1c7.88,22.16,14.42,45.08,19.42,68.72,60.82,287.42-122.4,568.99-409.82,629.81-28.94,6.12-57.83,9.76-86.45,11.06-.6,35.52,25.02,71.63,69.98,70.98,33.98-.49,68.41-4.26,102.91-11.56,287.42-60.82,470.64-342.39,409.82-629.81Z"/>
            <path class="cls-2" d="M338.83,422.03c-1.37,2.17-2.73,4.35-4.14,6.51-70.46,108.28-171.88,184.29-285.04,223.95-73.31,25.7-53.33,134.3,24.34,133.18,33.98-.49,68.41-4.26,102.91-11.56,152.23-32.21,275.23-126.35,348.22-250.49l-133.07-102.25-53.23.66Z"/>
          </g>
          <path class="cls-2" d="M90.46,703.63c-28.94,6.12-57.83,9.76-86.45,11.06-.6,35.52,25.02,71.63,69.98,70.98,33.98-.49,68.41-4.26,102.91-11.56,152.23-32.21,275.23-126.35,348.22-250.49l-88.1-67.69c-73.19,122.76-195.48,215.74-346.57,247.71Z"/>
          <path class="cls-2" d="M338.86,422.03c8.75,2.99,17.17,7.03,25.11,12.2,66.68,43.39,75.01,148.84,18.6,235.53-14.71,22.61-32.38,41.69-51.63,56.8l1.26,5.95c63.73,17.66,143.25-18.73,191.31-92.58,56.41-86.69,48.08-192.14-18.6-235.53-47.74-31.06-112.44-21.89-166.05,17.62"/>
          <path class="cls-2" d="M504.91,404.4c-10.69-6.96-22.24-11.88-34.32-14.91-15.77,37.53-35.78,73.09-59.58,105.97,17.98,50.5,9.14,116.56-28.43,174.29-14.71,22.61-32.38,41.69-51.63,56.8l1.26,5.95c63.73,17.66,143.25-18.73,191.31-92.58,56.41-86.69,48.08-192.14-18.6-235.53Z"/>
        </g>
        <g>
          <g>
            <path class="cls-9" d="M632.27,392.27c-16-10.41-33.9-16.3-52.65-18.05l-45.78,89.61,19.64,22.2c15.34,2.62,29.98,8.15,43.29,16.82,34.03,22.14,52.85,60.45,55.64,104.18l9.04,2.87c44.41-82.83,32.98-177.19-29.18-217.63Z"/>
            <path class="cls-10" d="M359.78,386.93c-8.73-27.15-24.98-50.14-48.47-65.42-66.68-43.39-166.47-8.29-222.88,78.39-20.98,32.24-33,67.08-36.39,100.35l20.75,8.08c52.9-81.3,128.75-125.77,169.4-99.32,27.47,17.87,31.84,63.55,15.47,116.37l71.94-64.66,30.17-73.8Z"/>
            <path class="cls-1" d="M586.73,144.3c-7.25-34.28-17.67-67.09-30.86-98.18-30.4-71.62-137.95-45.82-131.82,31.74,9.42,119.33-19.01,242.59-89.35,350.68-70.46,108.28-171.88,184.29-285.04,223.95-73.31,25.7-53.33,134.3,24.34,133.18,33.98-.49,68.41-4.26,102.91-11.56,287.42-60.82,470.64-342.39,409.82-629.81Z"/>
          </g>
          <g>
            <path class="cls-5" d="M586.73,144.3c-7.25-34.28-17.67-67.09-30.86-98.18C541.44,12.12,509.64.09,480.86,5.1c7.88,22.16,14.42,45.08,19.42,68.72,60.82,287.42-122.4,568.99-409.82,629.81-28.94,6.12-57.83,9.76-86.45,11.06-.6,35.52,25.02,71.63,69.98,70.98,33.98-.49,68.41-4.26,102.91-11.56,287.42-60.82,470.64-342.39,409.82-629.81Z"/>
            <path class="cls-7" d="M338.83,422.03c-1.37,2.17-2.73,4.35-4.14,6.51-70.46,108.28-171.88,184.29-285.04,223.95-73.31,25.7-53.33,134.3,24.34,133.18,33.98-.49,68.41-4.26,102.91-11.56,152.23-32.21,275.23-126.35,348.22-250.49l-133.07-102.25-53.23.66Z"/>
          </g>
          <path class="cls-8" d="M90.46,703.63c-28.94,6.12-57.83,9.76-86.45,11.06-.6,35.52,25.02,71.63,69.98,70.98,33.98-.49,68.41-4.26,102.91-11.56,152.23-32.21,275.23-126.35,348.22-250.49l-88.1-67.69c-73.19,122.76-195.48,215.74-346.57,247.71Z"/>
          <path class="cls-4" d="M338.86,422.03c8.75,2.99,17.17,7.03,25.11,12.2,66.68,43.39,75.01,148.84,18.6,235.53-14.71,22.61-32.38,41.69-51.63,56.8l1.26,5.95c63.73,17.66,143.25-18.73,191.31-92.58,56.41-86.69,48.08-192.14-18.6-235.53-47.74-31.06-112.44-21.89-166.05,17.62"/>
          <path class="cls-3" d="M504.91,404.4c-10.69-6.96-22.24-11.88-34.32-14.91-15.77,37.53-35.78,73.09-59.58,105.97,17.98,50.5,9.14,116.56-28.43,174.29-14.71,22.61-32.38,41.69-51.63,56.8l1.26,5.95c63.73,17.66,143.25-18.73,191.31-92.58,56.41-86.69,48.08-192.14-18.6-235.53Z"/>
        </g>
      </g>
    </g>
  </g>
</svg>