<?xml version="1.0" encoding="UTF-8"?>
<svg id="Camada_2" data-name="Camada 2" xmlns="http://www.w3.org/2000/svg" xmlns:xlink="http://www.w3.org/1999/xlink" viewBox="0 0 2743.97 676.28">
  <defs>
    <style>
      .cls-1 {
        fill: #fff;
      }

      .cls-2 {
        fill: url(#Gradiente_sem_nome_422);
      }

      .cls-3 {
        fill: url(#Gradiente_sem_nome_422-2);
      }

      .cls-4 {
        fill: #fefefe;
      }

      .cls-5 {
        fill: url(#Gradiente_sem_nome_18);
      }
    </style>
    <linearGradient id="Gradiente_sem_nome_422" data-name="Gradiente sem nome 422" x1="104.82" y1="444.47" x2="613.64" y2="444.47" gradientUnits="userSpaceOnUse">
      <stop offset="0" stop-color="#623189"/>
      <stop offset="1" stop-color="#e84d95"/>
    </linearGradient>
    <linearGradient id="Gradiente_sem_nome_18" data-name="Gradiente sem nome 18" x1="285.33" y1="436.84" x2="361.09" y2="436.84" gradientUnits="userSpaceOnUse">
      <stop offset="0" stop-color="#662c91"/>
      <stop offset="1" stop-color="#392c8d"/>
    </linearGradient>
    <linearGradient id="Gradiente_sem_nome_422-2" data-name="Gradiente sem nome 422" x1="77.37" y1="310.58" x2="138.88" y2="310.58" xlink:href="#Gradiente_sem_nome_422"/>
  </defs>
  <g id="Camada_1-2" data-name="Camada 1">
    <g>
      <g>
        <path class="cls-4" d="M791.08,323.21V108.64h91.57c13,0,64.37,8.16,67.7,46.24,3.02,38.08-58.33,49.26-74.65,65.58-9.07,9.37,5.74,24.48,25.69,41.1,24.48,20.55,50.47,43.52,55.91,61.65h-50.17l-39.59-39.59c-34.15-34.15-18.13-53.19,1.51-69.21,17.53-14.2,33.55-28.41,33.55-56.21,0-36.27-33.85-38.68-33.85-38.68h-33.85c-3.02,4.23-3.02,9.97-3.02,14.81v188.88h-40.8Z"/>
        <path class="cls-4" d="M1000.82,263.07c-11.48,34.15,2.42,55.61,10.28,60.14h-46.84l77.67-214.57h33.55l91.27,214.57h-48.35l-36.27-86.43h-72.53l-8.76,26.29ZM1077.88,226.8l-35.96-85.22-28.71,85.22h64.67Z"/>
        <path class="cls-4" d="M1193.93,323.21V108.64h40.8v214.57h-40.8Z"/>
        <path class="cls-4" d="M1295.17,189.63c0,50.17,16.02,104.26,32.34,133.58h-42.31V108.64h37.17l136.9,158.36v-52.28c0-23.27-12.09-90.06-31.73-106.08h42.31v214.57h-13.9l-160.78-176.49v42.92Z"/>
        <path class="cls-4" d="M1560.81,323.51h-40.8V108.64h40.8v98.82h95.2v-98.82h40.8v214.88h-40.8v-105.17l-95.2-.3v105.47Z"/>
        <path class="cls-4" d="M1762.08,263.07c-11.48,34.15,2.42,55.61,10.28,60.14h-46.84l77.67-214.57h33.55l91.27,214.57h-48.35l-36.27-86.43h-72.53l-8.76,26.29ZM1839.15,226.8l-35.96-85.22-28.71,85.22h64.67Z"/>
        <path class="cls-4" d="M2009.59,323.21V108.64h55.91c69.51,0,128.74,30.83,128.74,107.89s-58.63,106.68-128.74,106.68h-55.91ZM2065.5,312.63c57.12,0,80.99-44.43,80.99-96.1s-24.78-97.01-80.99-97.01h-13c-2.12,3.32-2.12,8.46-2.12,12.39v168.03c0,3.93,0,9.37,2.42,12.69h12.69Z"/>
        <path class="cls-4" d="M2332.65,105.61c63.46,0,110.91,46.84,110.91,110.31s-47.75,110.31-110.91,110.31-111.22-46.84-111.22-110.31,47.45-110.31,111.22-110.31ZM2355.62,310.52c6.04,0,11.79-1.21,17.53-3.63,31.73-13.9,38.68-63.47,15.41-115.75-19.34-43.52-50.77-70.11-78.88-70.11-6.04,0-12.09,1.21-17.53,3.63-32.34,14.51-38.99,63.46-15.72,116.05,19.34,43.22,50.77,69.81,79.18,69.81Z"/>
        <path class="cls-4" d="M816.47,623.7h-25.39l75.86-93.99-75.86-120.58h47.15l55.61,88.25,64.07-88.25h22.67l-80.39,97.31,80.39,117.26h-53.19l-54.4-84.62-56.51,84.62Z"/>
        <path class="cls-4" d="M1061.56,600.43c0,4.23.3,9.37,3.02,12.69h38.99c35.06,0,39.29-7.86,58.63-37.17v47.75h-141.44v-214.57h141.44v44.73c-16.62-24.78-29.32-34.45-62.26-34.15l-35.36.3c-3.32,3.32-3.02,8.46-3.02,12.69v76.16h24.18c9.67,0,24.48-5.14,32.04-15.41h2.72v48.35h-1.51s-18.74-23.88-33.24-23.88h-24.18v82.5Z"/>
        <path class="cls-4" d="M1397.02,676.28l-53.19-58.03-3.02,1.21c-13,4.84-26.59,7.25-40.5,7.25-55.61,0-111.22-39.29-111.22-110.31s55.61-110.31,111.22-110.31,110.91,38.99,110.91,110.31c0,35.36-13.9,63.16-34.75,81.6-6.35,5.74-13,10.58-20.55,14.51l55.91,56.21-14.81,7.56ZM1309.68,565.97l30.83,31.13c2.12-2.72,4.23-5.44,6.04-8.46,9.97-17.23,15.11-42.01,15.11-72.23,0-60.44-20.25-99.73-61.35-99.73s-61.65,39.29-61.65,99.73,20.85,99.73,61.65,99.73c10.28,0,19.34-2.42,26.9-7.25,1.51-.91,3.32-2.12,4.84-3.32l-30.52-33.24,8.16-6.35Z"/>
        <path class="cls-4" d="M1610.68,548.75c0,47.75-28.71,77.97-76.76,77.97s-87.34-28.41-87.34-77.97v-139.62h40.8v131.46c0,34.15,13.3,69.51,52.89,69.51s58.63-27.5,58.63-63.47c0-48.35-13-96.71-43.52-137.51h55.31v139.62Z"/>
        <path class="cls-4" d="M1698.62,600.43c0,4.23.3,9.37,3.02,12.69h38.99c35.06,0,39.29-7.86,58.63-37.17v47.75h-141.44v-214.57h141.44v44.73c-16.62-24.78-29.32-34.45-62.26-34.15l-35.36.3c-3.32,3.32-3.02,8.46-3.02,12.69v76.16h24.18c9.67,0,24.48-5.14,32.04-15.41h2.72v48.35h-1.51s-18.74-23.88-33.24-23.88h-24.18v82.5Z"/>
        <path class="cls-4" d="M1817.69,524.57h100.03v24.78h-100.03v-24.78Z"/>
        <path class="cls-4" d="M2045.86,626.42l-87.34-185.56v65.28c0,25.08,6.04,78.88,32.34,117.56h-42.31v-214.57h39.59l76.46,164.1,69.21-164.1h36.27l2.12,214.57h-41.4v-179.21l-75.86,181.93h-9.07Z"/>
        <path class="cls-4" d="M2237.16,563.56c-11.48,34.15,2.42,55.61,10.28,60.14h-46.84l77.67-214.57h33.55l91.27,214.57h-48.35l-36.27-86.43h-72.53l-8.76,26.29ZM2314.23,527.29l-35.96-85.22-28.71,85.22h64.67Z"/>
        <path class="cls-4" d="M2498.58,623.7h-40.8v-199.76c0-1.51-.3-2.72-.3-4.23-38.99,0-54.7,9.07-73.14,46.54v-57.12h184.35v57.42c-19.64-33.85-31.43-46.24-68.91-46.84-1.21,1.21-1.21,3.32-1.21,4.83v199.16Z"/>
        <path class="cls-4" d="M2643.33,600.43c0,4.23.3,9.37,3.02,12.69h38.99c35.06,0,39.29-7.86,58.63-37.17v47.75h-141.44v-214.57h141.44v44.73c-16.62-24.78-29.32-34.45-62.26-34.15l-35.36.3c-3.32,3.32-3.02,8.46-3.02,12.69v76.16h24.18c9.67,0,24.48-5.14,32.04-15.41h2.72v48.35h-1.51s-18.74-23.88-33.24-23.88h-24.18v82.5Z"/>
      </g>
      <g>
        <path class="cls-2" d="M540.36,348.13c3.04.41,6.17.46,9.35.09l-16.45,19.8c-4.6,5.53-10.12,10.39-16.25,14.53-7.67,5.18-16.29,9.23-25.25,12-9.28,2.88-18.92,4.41-28.24,4.41-22.88,0-48.42-9.12-64.41-25.11l-25.39-25.39h12.63c20.92,0,37.88-16.96,37.88-37.88s-16.96-37.88-37.88-37.88h-19.38c3.08-5.32,5.21-11.25,6.17-17.57-44.28,5.67-86.95,41.16-110.7,93.32h10.28l-17.19,17.19-8.2,8.2c-16.07,16.07-41.68,25.11-64.41,25.11-25.8,0-53.65-11.56-69.74-30.94l-8.34-10.04,58.89,165.14v110.68h361.51c13.95,0,25.25-11.3,25.25-25.25v-83.33l2.01-6.7,61.17-203.89c-28.61,1.87-54.34,14.33-73.29,33.5Z"/>
        <circle class="cls-5" cx="323.21" cy="436.84" r="37.88"/>
        <path class="cls-3" d="M138.88,310.58c0-20.92-16.96-37.88-37.88-37.88-8.94,0-17.16,3.1-23.64,8.29l24.06,67.46c20.26-.18,37.45-16.7,37.45-37.88Z"/>
        <path class="cls-1" d="M323.21,592.13c6.97,0,12.63-5.66,12.63-12.63s-5.66-12.63-12.63-12.63-12.63,5.66-12.63,12.63,5.66,12.63,12.63,12.63Z"/>
        <path class="cls-1" d="M310.58,12.63v83.33c0,6.97,5.65,12.63,12.63,12.63s12.63-5.65,12.63-12.63V12.63c0-6.97-5.65-12.63-12.63-12.63s-12.63,5.65-12.63,12.63Z"/>
        <path class="cls-1" d="M55.46,118.59c-4.93,4.93-4.93,12.92,0,17.86l71.35,71.35c4.93,4.93,12.92,4.93,17.86,0,4.93-4.93,4.93-12.92,0-17.86l-71.35-71.35c-4.93-4.93-12.93-4.93-17.86,0Z"/>
        <path class="cls-1" d="M573.18,118.51l-71.42,71.42c-4.93,4.93-4.93,12.92,0,17.86,4.93,4.93,12.92,4.93,17.86,0l71.42-71.42c4.93-4.93,4.93-12.92,0-17.86-4.93-4.93-12.92-4.93-17.86,0Z"/>
        <path class="cls-1" d="M633.79,234.83c-25.44,0-49.14,11.65-64.66,31.13-7.21-3.84-15.3-5.88-23.72-5.88-27.85,0-50.5,22.66-50.5,50.5,0,20.92,12.79,38.91,30.96,46.57l-2.32,2.8c-13.12,15.78-37.25,26.39-60.04,26.39-19.33,0-41.77-7.7-55.49-21.41l-6.25-6.25c20.32-6.54,35.06-25.62,35.06-48.09,0-27.85-22.66-50.5-50.5-50.5h-1.28c1.81-8.95,1.69-18.33-.45-27.56-5.38-23.19-24.72-42-48.12-46.82-40.14-8.27-76.4,22.1-76.4,61.76,0,4.26.43,8.49,1.27,12.63h-1.27c-27.85,0-50.5,22.66-50.5,50.5,0,22.46,14.74,41.55,35.06,48.09l-6.25,6.25c-13.01,13.01-34.79,21.41-55.49,21.41-22.04,0-46.35-9.9-60.03-26.39l-2.32-2.8c18.17-7.66,30.96-25.65,30.96-46.57,0-27.85-22.66-50.5-50.5-50.5-8.42,0-16.51,2.04-23.72,5.88-15.52-19.48-39.22-31.13-64.66-31.13-3.99,0-7.75,1.89-10.13,5.09s-3.11,7.34-1.96,11.16l78.45,261.51h-8.28c-6.97,0-12.63,5.65-12.63,12.63s5.65,12.63,12.63,12.63h12.63v70.7c0,20.88,16.99,37.88,37.88,37.88h404.01c20.88,0,37.88-16.99,37.88-37.88v-70.7h12.63c6.97,0,12.63-5.65,12.63-12.63s-5.65-12.63-12.63-12.63h-8.28l78.45-261.51c1.15-3.82.42-7.96-1.96-11.16-2.38-3.2-6.14-5.09-10.13-5.09ZM537.84,566.88h-164.13c-6.97,0-12.63,5.65-12.63,12.63s5.65,12.63,12.63,12.63h164.13v16.41c0,6.96-5.66,12.63-12.63,12.63H121.2c-6.96,0-12.63-5.66-12.63-12.63v-16.41h164.13c6.97,0,12.63-5.65,12.63-12.63s-5.65-12.63-12.63-12.63H108.58v-29.04h429.26v29.04ZM541.07,512.59H105.35L30.44,262.91c13.71,4.47,25.46,14.02,32.59,27.06,4.06,7.44,14.14,8.81,20.06,2.83,4.76-4.81,11.12-7.46,17.91-7.46,13.92,0,25.25,11.33,25.25,25.25,0,15.25-13.42,26.81-28.08,25.1-5.13-.59-10.1,1.98-12.56,6.52-2.46,4.54-1.91,10.12,1.39,14.09l16.45,19.79c18.73,22.56,50.28,35.51,79.46,35.51,27.47,0,55.57-11.04,73.34-28.81l25.39-25.39c3.61-3.61,4.69-9.04,2.74-13.76-1.95-4.72-6.56-7.79-11.66-7.79h-12.63c-13.92,0-25.25-11.33-25.25-25.25s11.33-25.25,25.25-25.25h19.38c4.51,0,8.68-2.41,10.94-6.32,2.25-3.91,2.25-8.72,0-12.63-3.31-5.72-5.06-12.27-5.06-18.93,0-23.31,21.18-42.15,46.06-37.02,13.7,2.82,25.47,14.25,28.62,27.79,2.91,12.55-.56,22.24-3.98,28.16-2.26,3.91-2.26,8.72,0,12.63,2.25,3.91,6.42,6.32,10.94,6.32h19.38c13.92,0,25.25,11.33,25.25,25.25s-11.33,25.25-25.25,25.25h-12.63c-5.11,0-9.71,3.08-11.66,7.79-1.95,4.72-.87,10.15,2.74,13.76l25.39,25.39c18.49,18.49,47.3,28.81,73.34,28.81,30.34,0,61.52-13.93,79.45-35.5l16.45-19.8c3.3-3.97,3.85-9.55,1.39-14.09-2.46-4.54-7.44-7.12-12.56-6.52-.9.1-1.82.16-2.83.16-13.92,0-25.25-11.33-25.25-25.25s11.33-25.25,25.25-25.25c6.79,0,13.16,2.65,17.91,7.46,2.81,2.84,6.79,4.18,10.74,3.62,3.95-.56,7.41-2.95,9.32-6.45,7.12-13.04,18.88-22.59,32.59-27.06l-74.9,249.68Z"/>
        <path class="cls-1" d="M323.21,386.34c-27.85,0-50.5,22.66-50.5,50.5s22.66,50.5,50.5,50.5,50.5-22.66,50.5-50.5-22.66-50.5-50.5-50.5ZM323.21,462.09c-13.92,0-25.25-11.33-25.25-25.25s11.33-25.25,25.25-25.25,25.25,11.33,25.25,25.25-11.33,25.25-25.25,25.25Z"/>
      </g>
    </g>
  </g>
</svg>