<?xml version="1.0" encoding="UTF-8"?>
<svg id="Camada_2" data-name="Camada 2" xmlns="http://www.w3.org/2000/svg" xmlns:xlink="http://www.w3.org/1999/xlink" viewBox="0 0 1757.22 513.41">
  <defs>
    <style>
      .cls-1 {
        fill: #e5e5e5;
      }

      .cls-2 {
        fill: url(#Gradiente_sem_nome_3-2);
      }

      .cls-3 {
        fill: url(#Gradiente_sem_nome_3-3);
      }

      .cls-4 {
        fill: none;
        stroke: #fff;
        stroke-linecap: round;
        stroke-linejoin: round;
        stroke-width: 8px;
      }

      .cls-5 {
        fill: #efefef;
      }

      .cls-6 {
        fill: #c68ff0;
      }

      .cls-7 {
        fill: url(#Gradiente_sem_nome_3);
      }

      .cls-8 {
        fill: url(#Gradiente_sem_nome_3-4);
      }

      .cls-9 {
        fill: url(#Gradiente_sem_nome_18);
      }

      .cls-10 {
        fill: #e4e5e5;
      }

      .cls-11 {
        fill: url(#Gradiente_sem_nome_18-2);
      }

      .cls-12 {
        fill: #fdfefe;
      }
    </style>
    <linearGradient id="Gradiente_sem_nome_18" data-name="Gradiente sem nome 18" x1="145.23" y1="256.41" x2="286.77" y2="256.41" gradientUnits="userSpaceOnUse">
      <stop offset="0" stop-color="#662c91"/>
      <stop offset="1" stop-color="#392c8d"/>
    </linearGradient>
    <linearGradient id="Gradiente_sem_nome_18-2" data-name="Gradiente sem nome 18" x1="427.73" y1="251.45" x2="539.18" y2="251.45" xlink:href="#Gradiente_sem_nome_18"/>
    <linearGradient id="Gradiente_sem_nome_3" data-name="Gradiente sem nome 3" x1="407.59" y1="307.62" x2="489.16" y2="307.62" gradientUnits="userSpaceOnUse">
      <stop offset="0" stop-color="#fb74ab"/>
      <stop offset="1" stop-color="#662c91"/>
    </linearGradient>
    <linearGradient id="Gradiente_sem_nome_3-2" data-name="Gradiente sem nome 3" x1="428.48" y1="367.65" x2="489.09" y2="367.65" xlink:href="#Gradiente_sem_nome_3"/>
    <linearGradient id="Gradiente_sem_nome_3-3" data-name="Gradiente sem nome 3" x1="246.26" y1="236.06" x2="487.78" y2="236.06" xlink:href="#Gradiente_sem_nome_3"/>
    <linearGradient id="Gradiente_sem_nome_3-4" data-name="Gradiente sem nome 3" x1="44.31" y1="246.13" x2="246.29" y2="246.13" xlink:href="#Gradiente_sem_nome_3"/>
  </defs>
  <g id="Camada_1-2" data-name="Camada 1">
    <g>
      <g>
        <g>
          <path class="cls-5" d="M814.9,232.17l-65.94-140.09v49.28c0,18.94,4.56,59.55,24.41,88.76h-31.94V68.12h29.89l57.73,123.89,52.25-123.89h27.38l1.6,162h-31.26V94.82l-57.27,137.36h-6.85Z"/>
          <path class="cls-5" d="M959.33,184.71c-8.67,25.78,1.83,41.98,7.76,45.4h-35.37l58.64-162h25.33l68.91,162h-36.51l-27.38-65.25h-54.76l-6.62,19.85ZM1017.51,157.33l-27.15-64.34-21.68,64.34h48.83Z"/>
          <path class="cls-5" d="M1105.12,230.12V68.12h53.85c30.8,0,63.89,4.33,63.89,42.9,0,42.67-57.5,43.12-86.93,43.12v75.98h-30.8ZM1156.92,147.07c23.27,0,30.35-15.29,30.35-36.28,0-18.03-7.99-34.45-28.29-34.45h-19.85c-2.97,2.97-3.19,4.11-3.19,8.21v62.52h20.99Z"/>
          <path class="cls-5" d="M1242.71,184.71c-8.67,25.78,1.83,41.98,7.76,45.4h-35.37l58.64-162h25.33l68.91,162h-36.51l-27.38-65.25h-54.76l-6.62,19.85ZM1300.89,157.33l-27.15-64.34-21.68,64.34h48.83Z"/>
          <path class="cls-5" d="M1429.57,230.12V68.12h42.21c52.48,0,97.2,23.27,97.2,81.46s-44.26,80.54-97.2,80.54h-42.21ZM1471.78,222.13c43.12,0,61.15-33.54,61.15-72.56s-18.71-73.24-61.15-73.24h-9.81c-1.6,2.51-1.6,6.39-1.6,9.35v126.86c0,2.97,0,7.07,1.83,9.58h9.58Z"/>
          <path class="cls-5" d="M1673.48,65.84c47.91,0,83.74,35.37,83.74,83.28s-36.05,83.28-83.74,83.28-83.96-35.37-83.96-83.28,35.82-83.28,83.96-83.28ZM1690.82,220.54c4.56,0,8.9-.91,13.23-2.74,23.96-10.5,29.21-47.91,11.64-87.39-14.6-32.86-38.33-52.93-59.55-52.93-4.56,0-9.13.91-13.23,2.74-24.41,10.95-29.43,47.92-11.87,87.62,14.6,32.63,38.33,52.71,59.78,52.71Z"/>
        </g>
        <g>
          <path class="cls-5" d="M740.98,435.57v-162h53.85c30.8,0,63.89,4.33,63.89,42.9,0,42.67-57.5,43.12-86.93,43.12v75.98h-30.8ZM792.77,352.52c23.27,0,30.35-15.29,30.35-36.28,0-18.03-7.99-34.45-28.29-34.45h-19.85c-2.97,2.97-3.2,4.11-3.2,8.21v62.52h20.99Z"/>
          <path class="cls-5" d="M882.89,435.57v-162h69.13c9.81,0,48.6,6.16,51.11,34.91,2.28,28.75-44.04,37.19-56.36,49.51-6.84,7.07,4.34,18.48,19.39,31.03,18.48,15.52,38.1,32.86,42.21,46.55h-37.88l-29.89-29.89c-25.78-25.78-13.69-40.16,1.14-52.25,13.23-10.72,25.33-21.45,25.33-42.44,0-27.38-25.55-29.21-25.55-29.21h-25.55c-2.28,3.19-2.28,7.53-2.28,11.18v142.6h-30.8Z"/>
          <path class="cls-5" d="M1041.24,390.17c-8.67,25.78,1.83,41.98,7.76,45.4h-35.37l58.64-162h25.33l68.91,162h-36.51l-27.38-65.25h-54.76l-6.62,19.85ZM1099.42,362.79l-27.15-64.34-21.68,64.34h48.83Z"/>
          <path class="cls-5" d="M1169.92,432.15l94.46-151.27h-19.85c-39.47,0-60.46,11.64-71.87,26.47v-33.77h129.83v3.42l-93.55,151.04h20.76c35.14,0,62.97-7.3,72.56-24.64v32.17h-132.34v-3.42Z"/>
          <path class="cls-5" d="M1356.79,418c0,3.19.23,7.07,2.28,9.58h29.43c26.47,0,29.66-5.93,44.26-28.06v36.05h-106.78v-162h106.78v33.77c-12.55-18.71-22.13-26.01-47-25.78l-26.7.23c-2.51,2.51-2.28,6.39-2.28,9.58v57.5h18.25c7.3,0,18.48-3.88,24.18-11.64h2.05v36.51h-1.14s-14.15-18.02-25.1-18.02h-18.25v62.29Z"/>
          <path class="cls-5" d="M1461.52,435.57v-162h69.13c9.81,0,48.6,6.16,51.11,34.91,2.28,28.75-44.04,37.19-56.36,49.51-6.85,7.07,4.33,18.48,19.39,31.03,18.48,15.52,38.1,32.86,42.21,46.55h-37.88l-29.89-29.89c-25.78-25.78-13.69-40.16,1.14-52.25,13.23-10.72,25.33-21.45,25.33-42.44,0-27.38-25.55-29.21-25.55-29.21h-25.55c-2.28,3.19-2.28,7.53-2.28,11.18v142.6h-30.8Z"/>
        </g>
      </g>
      <g>
        <path class="cls-12" d="M145.12,4.06v40.41s-101.83,26.97-101.83,26.97c-5.7,1.51-9.88,6.36-9.88,12.6v360.06c0,4.98,3.31,8.52,5.77,10.56,4.01,3.34,8.29,3.2,13.26,1.72l92.64-27.48.03,39.26-62.86,21.01-60.2,19.64c-6.87,2.24-17.84-1.93-17.85-11l-.23-446.76c1.79-3.8,3.84-8.3,8.02-9.48L145.12,4.06Z"/>
        <g>
          <path class="cls-12" d="M428.33,4.07l-.06,40.96-141.15,38.57.02-40.4L414.44,7.25c5.09-1.44,9.21-3.68,13.89-3.17Z"/>
          <path class="cls-1" d="M428.35,469.34l.11-40.24,92.87,28.17c8.94,2.71,17.81-4.14,17.81-13.96l.04-358.49c-.15-6.29-3.28-11.6-9.4-13.2l-101.51-26.58.06-40.96,130.87,36.87c5.45,1.53,9.95,6.34,9.95,12.69l.05,442.84c-2.38,9.93-10.03,15.03-19.38,12.02l-121.47-39.15Z"/>
          <path class="cls-10" d="M287.14,43.21l-.02,40.4c-.1.45-.43.79-.91.81l-140.08-38.94-1.02-1.01V4.06s142.02,39.14,142.02,39.14Z"/>
          <g>
            <path class="cls-10" d="M286.09,467.34c.37.1.64.61,1.01.75l.18,40.41-142.15-40.33-.03-39.26.26-.97,140.73,39.4Z"/>
            <polygon class="cls-12" points="428.19 428.08 428.46 429.1 428.35 469.34 287.29 508.49 287.1 468.08 428.19 428.08"/>
          </g>
        </g>
        <g>
          <g>
            <path class="cls-6" d="M145.12,44.47l1.02,1.01-.76,80.51c-3.83,4.9-7.53,9.56-13.36,13.71-6.43,4.58-18.99,8.81-25.61,2.99-3.1-5.21-2.18-14.99-10.72-16.7-6.48-1.3-14.84-1.82-21.59,0-7.41,1.99-9.95,10.22-9.56,17.2,1.96,35.51-28.12,38.28-18.23,51.86,2.22,3.05,6.97,2.25,9.45-.18l26.92-26.33c2.59-2.53,7.24-3.99,10.11-1.97-1.65,4.77-7.2,7.32-7.36,12.12-.58,16.99-.55,33.61-.03,50.58.16,5.27,4.85,9.31,8.55,12.08l22.42,16.79c10.68,8,20,18.41,28.39,28.76,2.47,8.4-.2,18.14.58,26.08l.02,114.94-.26.97-92.64,27.48c-4.97,1.47-9.25,1.61-13.26-1.72-2.46-2.04-5.76-5.58-5.76-10.56V84.04c0-6.24,4.18-11.09,9.87-12.6l101.83-26.97Z"/>
            <path class="cls-9" d="M286.22,84.41l.53,86.32c.02,3.32-.19,7.76-1.62,11.13-2.87,6.79-18.83-1.51-18.82,11.03l.02,24.85c0,11.02,12.27,5.83,17.37,9.51,3.8,2.74,3.26,13.36.85,15.78-1.13,1.14-4.17,2.77-6.08,2.4-10-1.96-14.56,3.48-20.94,9.18-10.46,9.35-15.8,23.67-6.47,36.11,3.99,5.32,9.46,10.61,14.93,14.71,4.88,3.66,20.7-2.87,20.72,9.41l.05,45.15-.68,107.35-140.73-39.4-.02-114.94c2.48,25.49,19.79,29.5,19.98,35.63l1,32.12c.13,4.17,5.37,6.21,8.22,6.61,22.72,3.21-2.02-32.77,27.96-48.37l14.56-7.58c4.98-2.59,8.33-7.01,8.75-11.54.53-5.7-.42-12.36-5.73-15.49-11.18-6.6-22.69-12.53-34.98-16.88-6.21-2.19-14.04.89-19.64-1.89-8.33-5.07-13.87-13.54-20.23-19.95l.11-27.06c1.58,6.02,6.46,8.34,12.11,7.62,13.82-1.76,3.38-20.04,13.31-19.93,11.88.13,21.09-5.39,29.02-14,2.59-2.81,5.71-6.45,2.31-10.01l-15.09-15.8c-3.51-3.67,3.1-19.73-10-20.89-18.53-1.64-4.12,20.58-22.18,20.08-6.79-.19-9.74-5.12-9.51-12.46.13-4.11,1.38-7.6,6.4-7.73,11.3-.31,1.99-16.12,8.07-18.98,6.47-3.04,20.46.83,24.18-2.83,4.04-3.97-1.86-18.13,11.31-18.59,6.56-.23,10.6,3.61,10.67,10.73l.44,42.74c.07,6.47,7.38,7.83,11.82,7.26,6.16-.79,8.46-6.36,7.86-12.43-1.49-15.04,14.13-13.84,19.3-34.18,4.26-16.75-6.63-33.55-24.12-34.24-11.79-.46-23.22-.25-34.96.03-13.67.33-26.21,5.44-35.16,15.71-1.83,2.1-4.38,3.52-5.76,5.28l.76-80.51,140.08,38.94Z"/>
            <path class="cls-6" d="M145.34,238.6l-.11,27.06c-5.99-6.05-13.96-10.63-18.9-18.94-2.4-4.04-2.69-14.66.51-18.36,3.38-3.89,13.24-2.99,16.56-.3,3.05,2.47,1.95,7.7,1.93,10.55Z"/>
          </g>
          <g>
            <path class="cls-6" d="M428.28,45.04l-.04,79.55c-4.51.14-9.13.3-14.21.06-9.56-.46-3.98-11.11-11.01-16.97-3.05-2.54-7.12-2.6-11.3-2.97-13.7-1.2-25.01,7.59-24.99,21.67,0,2.15-1.58,4.5-3.11,5.86l-36.52,32.56-33.34.51c-3.84.06-6.32,2.3-7,5.43l-.53-86.32c.47-.02.81-.36.91-.81l141.15-38.57Z"/>
            <path class="cls-6" d="M428.23,266.01c-.08,7.73.32,15.45-.47,23.14-3.51-3.77-14.87-5.28-18.02-.12-8.69,14.25,11.15,35.57,18.46,38.27l.27,32.68.07,22.19-.36,45.91-141.09,40c-.37-.14-.64-.65-1.01-.75l.68-107.35c.04,5.12,4.24,6.52,8.62,7.22,8.38,1.33,13.07-1.49,18.42-6.7,21.99-21.39,9.44-38.16,14.1-53.9,4.19-14.15,13.35-25.97,18.61-39.69,2.16-5.63-1.08-15.61,3.08-18.86,3.45-2.69,12.82-2.76,15.76.6,3.27,3.74.23,11.89,4.27,15.36,3.26,2.8,12.51,2.8,15.37-.36,3.5-3.86.6-11.68,4.21-15.31,2.87-2.89,13.3-3.32,16.38.45,3.9,4.77-1.8,17,9.52,17.1l13.12.11Z"/>
            <g>
              <path class="cls-11" d="M428.46,429.1l-.27-1.01.36-45.91c2.14,3.86,5.43,5.93,10.43,5.91l40.67-.14c12.4-.04,8.84-15.63,9.32-27.89.28-7.37-4.99-12.86-12.39-12.85l-31.37.03c-8.62,0-13.85,5.59-16.72,12.74l-.27-32.68c5.91,2.18,14.09,2.11,19.22-1.33,2.39-4.76-.1-9.52,1.8-14.11,1.69-4.09,7.58-4.43,11.56-3.53,13.34,3.05,1.65,17.66,18.16,20.64,2.18.39,4.37,1.04,6.29,0,5.28-2.85,3.75-13.1,3.63-22.04-.16-11.77-9.63-21.09-21.54-20.69-5.89.2-11.74-.81-17.4.51-6.29,1.47-10.73,14.75-17.96,11.43-2.85-1.31-4.52-5.8-4.19-9.04.78-7.68.39-15.41.47-23.14h9.21c3.64-.01,6.58-1.82,7.93-5.19l17.77-44.54c1.07-2.69.14-5.93-1.37-7.88-3.81-4.94-13.99-1.03-14-10.3v-24.81c-.02-2.64.86-5.07,2.28-6.17,3.28-2.54,11.59-2.65,15.07-.02,4.82,3.63-1.09,16.94,10.78,18.1,5.71.56,11.66-1.93,11.69-8.65l.19-39.68c.08-17.85-14.2-32.28-32.12-31.9-13.75.29-3.36,16.79-12.5,19.16-5.09,1.33-10.22.31-14.93.45l.04-79.55,101.51,26.58c6.11,1.6,9.24,6.91,9.4,13.2l-.04,358.49c0,9.82-8.87,16.68-17.81,13.96l-92.87-28.17Z"/>
              <path class="cls-7" d="M427.77,289.15c-.33,3.24,1.34,7.73,4.19,9.04,7.23,3.33,11.67-9.95,17.96-11.43,5.67-1.33,11.51-.31,17.4-.51,11.91-.4,21.38,8.92,21.54,20.69.12,8.93,1.65,19.18-3.63,22.04-1.91,1.03-4.11.39-6.29,0-16.52-2.98-4.83-17.59-18.16-20.64-3.98-.91-9.87-.56-11.56,3.53-1.9,4.6.6,9.35-1.8,14.11-5.13,3.44-13.31,3.51-19.22,1.33-7.31-2.7-27.15-24.02-18.46-38.27,3.15-5.17,14.52-3.66,18.02.12Z"/>
              <path class="cls-2" d="M428.55,382.17l-.07-22.19c2.87-7.15,8.1-12.73,16.72-12.74l31.37-.03c7.41,0,12.68,5.48,12.39,12.85-.47,12.26,3.09,27.85-9.32,27.89l-40.67.14c-5,.02-8.29-2.05-10.43-5.91Z"/>
            </g>
          </g>
          <g>
            <path class="cls-3" d="M428.23,124.59c4.72-.14,9.84.87,14.93-.45,9.13-2.38-1.26-18.87,12.5-19.16,17.92-.38,32.21,14.05,32.12,31.9l-.19,39.68c-.03,6.71-5.98,9.21-11.69,8.65-11.86-1.16-5.96-14.47-10.78-18.1-3.48-2.63-11.8-2.52-15.07.02-1.42,1.1-2.29,3.54-2.29,6.17v24.81c.02,9.27,10.2,5.37,14.01,10.3,1.5,1.95,2.44,5.19,1.37,7.88l-17.77,44.54c-1.35,3.37-4.29,5.17-7.93,5.18h-9.21s-13.12-.1-13.12-.1c-11.31-.1-5.62-12.33-9.52-17.1-3.08-3.77-13.51-3.34-16.38-.45-3.61,3.63-.71,11.44-4.21,15.31-2.86,3.16-12.11,3.16-15.37.36-4.04-3.47-1-11.62-4.27-15.36-2.94-3.36-12.3-3.3-15.76-.6-4.17,3.25-.92,13.22-3.08,18.86-5.26,13.72-14.43,25.54-18.61,39.69-4.66,15.74,7.89,32.52-14.1,53.9-5.35,5.21-10.04,8.03-18.42,6.7-4.37-.7-8.58-2.1-8.62-7.22l-.05-45.15c-.01-12.28-15.84-5.75-20.72-9.41-5.47-4.1-10.94-9.39-14.93-14.71-9.33-12.44-3.99-26.76,6.47-36.11,6.37-5.7,10.94-11.14,20.94-9.18,1.91.37,4.95-1.26,6.08-2.4,2.41-2.42,2.95-13.04-.85-15.78-5.1-3.68-17.36,1.51-17.37-9.51l-.02-24.85c-.01-12.54,15.94-4.24,18.82-11.03,1.43-3.37,1.64-7.81,1.62-11.13.68-3.13,3.17-5.37,7-5.43l33.34-.51,36.52-32.56c1.53-1.36,3.11-3.72,3.11-5.86-.03-14.08,11.29-22.87,24.99-21.67,4.18.36,8.25.42,11.3,2.97,7.04,5.87,1.45,16.51,11.01,16.97,5.08.25,9.7.08,14.21-.06Z"/>
            <path class="cls-8" d="M145.34,238.6c.01-2.84,1.12-8.08-1.93-10.55-3.32-2.69-13.18-3.59-16.56.3s-2.91,14.32-.51,18.36c4.94,8.31,12.91,12.89,18.9,18.94,6.36,6.41,11.89,14.88,20.23,19.95,5.61,2.78,13.44-.3,19.64,1.89,12.29,4.34,23.79,10.27,34.98,16.88,5.31,3.13,6.26,9.8,5.73,15.49-.43,4.53-3.77,8.95-8.75,11.54l-14.56,7.58c-29.98,15.6-5.24,51.58-27.96,48.37-2.85-.4-8.09-2.44-8.22-6.61l-1-32.12c-.19-6.13-17.51-10.14-19.98-35.63-.77-7.95,1.89-17.68-.58-26.08-8.4-10.35-17.71-20.76-28.39-28.76l-22.42-16.79c-3.7-2.77-8.39-6.81-8.55-12.08-.52-16.97-.55-33.59.03-50.58.16-4.8,5.71-7.35,7.36-12.12-2.88-2.02-7.52-.56-10.11,1.97l-26.92,26.33c-2.48,2.42-7.22,3.22-9.45.18-9.89-13.58,20.18-16.35,18.23-51.86-.38-6.99,2.16-15.21,9.56-17.2,6.75-1.82,15.11-1.3,21.59,0,8.54,1.71,7.62,11.49,10.72,16.7,6.62,5.82,19.18,1.59,25.61-2.99,5.82-4.15,9.53-8.81,13.36-13.71,1.38-1.76,3.92-3.18,5.76-5.28,8.94-10.26,21.49-15.38,35.16-15.71,11.74-.28,23.17-.49,34.96-.03,17.49.69,28.37,17.49,24.12,34.24-5.17,20.34-20.79,19.15-19.3,34.18.6,6.07-1.69,11.64-7.86,12.43-4.44.57-11.75-.79-11.82-7.26l-.44-42.74c-.07-7.12-4.11-10.96-10.67-10.73-13.17.46-7.27,14.61-11.31,18.59-3.72,3.66-17.71-.22-24.18,2.83-6.08,2.86,3.23,18.66-8.07,18.98-5.02.14-6.27,3.62-6.4,7.73-.23,7.35,2.71,12.27,9.51,12.46,18.06.5,3.65-21.71,22.18-20.08,13.1,1.16,6.5,17.22,10,20.89l15.09,15.8c3.4,3.56.28,7.2-2.31,10.01-7.93,8.6-17.14,14.13-29.02,14-9.93-.11.51,18.16-13.31,19.93-5.65.72-10.52-1.6-12.11-7.62Z"/>
          </g>
        </g>
      </g>
      <path class="cls-4" d="M569.15,53.63c0-6.34-4.5-11.15-9.95-12.69L428.33,4.07c-4.69-.51-8.81,1.74-13.89,3.17l-127.29,35.96L145.12,4.06,12.02,41.58c-4.18,1.18-6.23,5.68-8.02,9.48l.23,446.76c0,9.07,10.98,13.24,17.85,11l60.2-19.64,62.86-21.01,142.15,40.33,141.07-39.15,121.47,39.15c9.35,3.01,16.99-2.09,19.38-12.02l-.05-442.84Z"/>
    </g>
  </g>
</svg>