<?xml version="1.0" encoding="UTF-8"?>
<svg id="Camada_2" data-name="Camada 2" xmlns="http://www.w3.org/2000/svg" xmlns:xlink="http://www.w3.org/1999/xlink" viewBox="0 0 1595.56 444.26">
  <defs>
    <style>
      .cls-1 {
        fill: url(#Gradiente_sem_nome_422);
      }
    </style>
    <linearGradient id="Gradiente_sem_nome_422" data-name="Gradiente sem nome 422" x1="4" y1="222.13" x2="501.27" y2="222.13" gradientUnits="userSpaceOnUse">
      <stop offset="0" stop-color="#623189"/>
      <stop offset="1" stop-color="#e84d95"/>
    </linearGradient>
  </defs>
  <g id="Camada_1-2" data-name="Camada 1">
    <g>
      <g>
        <path d="M626.68,201.84l86.41-138.38h-18.16c-36.11,0-55.31,10.65-65.75,24.21v-30.89h118.76v3.13l-85.58,138.18h18.99c32.14,0,57.61-6.68,66.37-22.54v29.43h-121.06v-3.13Z"/>
        <path d="M838.53,54.69c43.83,0,76.6,32.35,76.6,76.18s-32.98,76.18-76.6,76.18-76.81-32.35-76.81-76.18,32.77-76.18,76.81-76.18ZM854.39,196.21c4.17,0,8.14-.83,12.11-2.5,21.92-9.6,26.72-43.83,10.64-79.94-13.36-30.06-35.07-48.42-54.48-48.42-4.17,0-8.35.83-12.11,2.5-22.33,10.02-26.93,43.83-10.85,80.15,13.36,29.85,35.07,48.21,54.69,48.21Z"/>
        <path d="M941.64,204.97V56.78h38.61c48.01,0,88.92,21.29,88.92,74.51s-40.49,73.68-88.92,73.68h-38.61ZM980.25,197.67c39.45,0,55.94-30.68,55.94-66.37s-17.12-67-55.94-67h-8.98c-1.46,2.3-1.46,5.84-1.46,8.56v116.05c0,2.71,0,6.47,1.67,8.77h8.77Z"/>
        <path d="M1095.67,204.97V56.78h28.18v148.19h-28.18ZM1129.49,6.06l17.32,16.49-40.08,26.72-2.3-2.3,25.05-40.91Z"/>
        <path d="M1168.93,163.44c-7.93,23.59,1.67,38.41,7.1,41.54h-32.35l53.64-148.19h23.17l63.04,148.19h-33.4l-25.05-59.7h-50.09l-6.05,18.16ZM1222.16,138.39l-24.84-58.86-19.83,58.86h44.67Z"/>
        <path d="M1392.47,104.79c3.55-18.37-7.1-42.37-32.56-43.41h-1.46c-21.5,0-41.74,17.12-41.74,56.36,0,33.4,18.79,68.46,55.94,68.46,24,0,41.95-12.11,50.72-34.44l3.55,1.67c-8.56,31.52-32.56,53.64-66.17,53.64-43.42,0-76.18-33.81-76.18-76.81,0-54.27,37.57-75.56,75.77-75.56,25.67,0,63.04,8.77,67.21,50.09h-35.07Z"/>
        <path d="M1518.96,54.69c43.83,0,76.6,32.35,76.6,76.18s-32.98,76.18-76.6,76.18-76.81-32.35-76.81-76.18,32.77-76.18,76.81-76.18ZM1534.82,196.21c4.17,0,8.14-.83,12.11-2.5,21.92-9.6,26.72-43.83,10.64-79.94-13.36-30.06-35.07-48.42-54.48-48.42-4.17,0-8.35.83-12.11,2.5-22.33,10.02-26.93,43.83-10.85,80.15,13.36,29.85,35.07,48.21,54.69,48.21Z"/>
        <path d="M642.33,382.67v-148.19h38.61c48.01,0,88.92,21.29,88.92,74.51s-40.49,73.68-88.92,73.68h-38.61ZM680.95,375.37c39.45,0,55.94-30.68,55.94-66.37s-17.12-67-55.94-67h-8.98c-1.46,2.3-1.46,5.84-1.46,8.56v116.05c0,2.71,0,6.47,1.67,8.77h8.77Z"/>
        <path d="M865.46,232.39c43.83,0,76.6,32.35,76.6,76.18s-32.98,76.18-76.6,76.18-76.81-32.35-76.81-76.18,32.77-76.18,76.81-76.18ZM881.32,373.91c4.17,0,8.14-.83,12.11-2.5,21.92-9.6,26.72-43.83,10.64-79.94-13.36-30.06-35.07-48.42-54.48-48.42-4.17,0-8.35.83-12.11,2.5-22.33,10.02-26.93,43.83-10.85,80.15,13.36,29.85,35.07,48.21,54.69,48.21Z"/>
        <path d="M1026.17,337.8c.21,21.92,9.39,40.7,31.1,40.7,12.94,0,31.52-4.8,31.52-20.87,0-36.32-89.96-35.27-89.96-86.62,0-31.31,35.48-38.61,60.32-38.61,28.18,0,56.77,8.98,58.86,42.37h-31.73c-.42-17.74-5.64-36.11-27.76-36.11-16.07,0-28.8,8.56-28.8,25.67,0,32.56,90.59,37.15,90.59,82.24,0,20.87-30.27,38.2-63.45,38.2-30.68,0-61.37-11.48-62.41-46.96h31.73Z"/>
        <path d="M1171.02,366.6c0,2.92.21,6.47,2.09,8.77h26.92c24.21,0,27.13-5.43,40.49-25.67v32.98h-97.68v-148.19h97.68v30.89c-11.48-17.12-20.25-23.79-43-23.59l-24.42.21c-2.3,2.3-2.09,5.84-2.09,8.77v52.6h16.7c6.68,0,16.91-3.55,22.12-10.65h1.88v33.4h-1.04s-12.94-16.49-22.96-16.49h-16.7v56.98Z"/>
        <path d="M1284.36,382.67h-17.53l52.39-64.91-52.39-83.28h32.56l38.41,60.95,44.25-60.95h15.65l-55.52,67.21,55.52,80.99h-36.74l-37.57-58.44-39.03,58.44Z"/>
        <path d="M1476.17,232.39c43.83,0,76.6,32.35,76.6,76.18s-32.98,76.18-76.6,76.18-76.81-32.35-76.81-76.18,32.77-76.18,76.81-76.18ZM1492.03,373.91c4.17,0,8.14-.83,12.11-2.5,21.92-9.6,26.72-43.83,10.64-79.94-13.36-30.06-35.07-48.42-54.48-48.42-4.17,0-8.35.83-12.11,2.5-22.33,10.02-26.93,43.83-10.85,80.15,13.36,29.85,35.07,48.21,54.69,48.21Z"/>
      </g>
      <g>
        <path class="cls-1" d="M283.2,440.26c-14.92,0-27.76-10.64-30.53-25.3-3.17-16.84,7.96-33.14,24.81-36.32,15.85-3,36.25-11.27,56.27-22.78-.02-29.46-.74-258.67-.75-261.06,0-21.1-12.37-28.61-23.95-28.61-6.68,0-22.22,2.79-22.22,28.6v232.81c0,17.14-13.95,31.08-31.09,31.08s-31.09-13.94-31.09-31.08c0-1.86.69-185.13.69-228.52,0-28.58-15.47-32.85-24.7-32.85-6.12,0-26.09,2.06-26.09,28.55v232.83c0,17.14-13.95,31.08-31.09,31.08s-31.09-13.94-31.09-31.08V98.42c0-21.1-12.36-28.61-23.93-28.61-6.68,0-22.22,2.79-22.22,28.61,0,17.14-13.95,31.08-31.09,31.08s-31.09-13.94-31.09-31.08c0-34.23,14.03-55.35,25.8-67.04,15.44-15.33,36.26-23.78,58.62-23.78,18.49,0,36.81,6.38,51.98,18.04,15.19-13.99,35.08-21.65,56.37-21.65s40.79,7.7,56.34,21.24c15.14-13.72,34.86-21.24,55.95-21.24,15.22,0,37.14,2.32,55.07,13.35,20.6,12.68,31.05,33.5,31.05,61.88v19.05c19.6.79,40.01,8.32,57.83,21.41,36.91,27.14,54.26,71.43,46.39,118.48-7.32,43.76-31.19,85.96-69.17,122.45,12.31,3.18,25.47,5.84,37.72,7.62,16.97,2.43,28.81,18.22,26.38,35.2-2.15,15.2-15.47,26.67-30.97,26.67h0c-1.39,0-2.79-.09-4.17-.28-20.58-2.95-58.92-9.97-87.95-24.27-28.58,17.21-58.46,29.64-82.27,34.18-2.15.36-4.07.53-5.79.53ZM396.53,160.69c-.02,29.97-.18,78.06-.32,117.09-.04,10.08-.08,19.85-.11,29.03,23.05-24.92,37.5-52.04,41.96-78.92,5.16-30.8-9.92-48.41-19.37-56.16-7.84-6.44-16.1-9.8-22.16-11.05Z"/>
        <path d="M309.07,8c31.77,0,82.12,10.27,82.12,71.23v22.98c.2,0,.41,0,.61,0,19.08,0,40.32,7.09,58.85,20.7,35.67,26.22,52.43,69.05,44.81,114.6-8.44,50.47-37.75,92.64-73.19,125.1,13.67,3.85,29.71,7.35,45.12,9.59,14.85,2.13,25.12,15.82,23,30.67-1.92,13.55-13.78,23.24-27.01,23.24-1.2,0-2.41-.08-3.63-.24-20.08-2.87-59.68-10.03-88.66-24.88-30.82,18.84-61.1,30.67-82.84,34.81-1.67.28-3.41.46-5.05.46-12.78,0-24.14-9.05-26.6-22.05-2.77-14.72,6.91-28.87,21.62-31.65,16.13-3.06,37.51-11.5,59.52-24.4.03-16.1-.75-263.38-.75-263.38,0-24.08-15.06-32.6-27.95-32.6-6.16,0-26.22,2.34-26.22,32.6v232.81c0,14.95-12.12,27.08-27.09,27.08s-27.09-12.11-27.09-27.08c0,0,.69-184.62.69-228.52,0-35.12-22.22-36.85-28.7-36.85s-30.09,2.29-30.09,32.55v232.83c0,14.95-12.12,27.08-27.09,27.08s-27.09-12.11-27.09-27.08V98.42c0-24.08-15.04-32.61-27.93-32.61-6.16,0-26.22,2.35-26.22,32.61,0,14.97-12.12,27.08-27.09,27.08s-27.09-12.11-27.09-27.08c0-32.84,13.39-53.05,24.62-64.2,14.71-14.6,34.52-22.61,55.81-22.61,18.41,0,37.2,6.82,52.26,19.39.11-.11.2-.29.32-.38,14.71-14.6,34.52-22.61,55.78-22.61,20.11,0,40.79,7.81,56.4,22.71.03-.03.05-.06.08-.09,14.71-14.6,34.49-22.61,55.81-22.61M392.07,316.74c24.68-24.48,44.34-54.51,49.94-88.19,5.49-32.77-10.66-51.6-20.78-59.9-11.18-9.17-22.63-12.22-28.7-12.52,0,28.84-.17,77.81-.32,121.64-.06,13.81-.11,27.03-.14,38.97M309.07,0c-20.89,0-40.51,7.05-56,19.98C237.18,7.21,217.05,0,196.78,0s-41.01,7.24-56.6,20.51C124.85,9.57,106.72,3.61,88.42,3.61c-23.42,0-45.25,8.86-61.44,24.94C14.67,40.77,0,62.81,0,98.42c0,19.34,15.74,35.08,35.09,35.08s35.09-15.74,35.09-35.08c0-21.42,11.42-24.61,18.22-24.61,4.68,0,19.93,1.77,19.93,24.61v229.19c0,19.34,15.74,35.08,35.09,35.08s35.09-15.74,35.09-35.08V94.78c0-21.36,13.84-24.55,22.09-24.55,13.73,0,20.7,9.71,20.7,28.85,0,43.38-.68,226.64-.69,228.49,0,19.37,15.74,35.11,35.09,35.11s35.09-15.74,35.09-35.08V94.78c0-10.29,2.56-17.44,7.62-21.26,3.99-3.01,8.74-3.34,10.6-3.34,4.68,0,19.95,1.77,19.95,24.6,0,2.36.7,221.29.75,258.75-18.99,10.69-38.11,18.35-53.01,21.17-19,3.6-31.56,21.98-27.99,40.99,3.14,16.56,17.63,28.57,34.47,28.57,1.94,0,4.08-.19,6.35-.57.06-.01.13-.02.19-.03,23.74-4.52,53.32-16.69,81.73-33.56,29.26,13.9,66.82,20.78,87.15,23.69.02,0,.04,0,.06,0,1.55.21,3.14.32,4.7.32,17.48,0,32.5-12.95,34.93-30.12,1.33-9.28-1.03-18.53-6.65-26.03-5.62-7.49-13.83-12.35-23.13-13.68-9.84-1.43-20.27-3.43-30.38-5.82,14.89-14.99,27.52-30.91,37.67-47.46,14.12-23.04,23.38-47.32,27.54-72.16,8.12-48.57-9.81-94.31-47.97-122.36-17.31-12.72-37-20.37-56.2-21.95v-15.28c0-15.66-3.14-29.35-9.35-40.69-5.51-10.08-13.46-18.36-23.61-24.6-18.73-11.52-41.43-13.94-57.17-13.94h0ZM400.53,156.13h0,0ZM400.14,296.18c.02-6.03.05-12.17.07-18.37.13-36.82.28-81.71.32-111.85,4.3,1.47,9.83,4.12,15.63,8.88,8.78,7.2,22.79,23.59,17.96,52.4-3.87,23.3-15.52,46.85-33.98,68.94h0Z"/>
      </g>
    </g>
  </g>
</svg>