<?xml version="1.0" encoding="UTF-8"?>
<svg id="Camada_2" data-name="Camada 2" xmlns="http://www.w3.org/2000/svg" xmlns:xlink="http://www.w3.org/1999/xlink" viewBox="0 0 1918.91 521.35">
  <defs>
    <style>
      .cls-1 {
        fill: none;
        stroke: #111;
        stroke-linecap: round;
        stroke-linejoin: round;
        stroke-width: 8px;
      }

      .cls-2 {
        fill: #c68ff0;
      }

      .cls-3 {
        fill: url(#Gradiente_sem_nome_18);
      }
    </style>
    <linearGradient id="Gradiente_sem_nome_18" data-name="Gradiente sem nome 18" x1="4" y1="261.69" x2="387.14" y2="261.69" gradientUnits="userSpaceOnUse">
      <stop offset="0" stop-color="#662c91"/>
      <stop offset="1" stop-color="#392c8d"/>
    </linearGradient>
  </defs>
  <g id="Camada_1-2" data-name="Camada 1">
    <g>
      <g>
        <g>
          <g>
            <path d="M686.6,107.65c47.92,0,83.74,35.37,83.74,83.28s-36.05,83.28-83.74,83.28-83.96-35.37-83.96-83.28,35.82-83.28,83.96-83.28ZM703.94,262.35c4.56,0,8.9-.91,13.23-2.74,23.96-10.5,29.21-47.91,11.64-87.39-14.6-32.86-38.33-52.93-59.55-52.93-4.56,0-9.13.91-13.23,2.74-24.41,10.95-29.43,47.92-11.86,87.62,14.6,32.63,38.33,52.71,59.78,52.71Z"/>
            <path d="M862.28,222.87c.23,23.96,10.27,44.49,34,44.49,14.15,0,34.45-5.25,34.45-22.82,0-39.7-98.34-38.56-98.34-94.69,0-34.22,38.79-42.21,65.94-42.21,30.8,0,62.06,9.81,64.34,46.32h-34.68c-.46-19.39-6.16-39.47-30.35-39.47-17.57,0-31.49,9.35-31.49,28.06,0,35.59,99.02,40.61,99.02,89.9,0,22.82-33.08,41.75-69.36,41.75-33.54,0-67.08-12.55-68.22-51.34h34.68Z"/>
            <path d="M1020.63,254.36c0,3.19.23,7.07,2.28,9.58h29.43c26.47,0,29.66-5.93,44.26-28.06v36.05h-106.78V109.93h106.78v33.77c-12.55-18.71-22.13-26.01-47-25.78l-26.7.23c-2.51,2.51-2.28,6.39-2.28,9.58v57.5h18.25c7.3,0,18.48-3.88,24.18-11.64h2.05v36.51h-1.14s-14.15-18.02-25.1-18.02h-18.25v62.29Z"/>
            <path d="M1241.04,206.67c0-9.13-6.62-14.15-14.6-14.15v-3.19h47.69l.23,46.55c.23,31.49-47.46,38.33-70.96,38.33-50.42,0-86.47-31.94-86.47-83.51,0-55.22,34.22-83.28,86.7-83.28,34.91,0,69.82,16.88,70.96,54.99h-38.33c5.93-29.43-7.53-47.92-36.96-47.92-38.56,0-44.95,35.59-44.95,67.99,0,37.19,15.97,81.23,59.78,81.23,8.21,0,26.92-2.74,26.92-13.69v-43.35Z"/>
            <path d="M1309.03,271.93V109.93h69.13c9.81,0,48.6,6.16,51.11,34.91,2.28,28.75-44.04,37.19-56.36,49.51-6.85,7.07,4.33,18.48,19.39,31.03,18.48,15.52,38.1,32.86,42.21,46.55h-37.88l-29.89-29.89c-25.78-25.78-13.69-40.16,1.14-52.25,13.23-10.72,25.33-21.45,25.33-42.44,0-27.38-25.55-29.21-25.55-29.21h-25.55c-2.28,3.19-2.28,7.53-2.28,11.18v142.6h-30.8Z"/>
            <path d="M1486.54,254.36c0,3.19.23,7.07,2.28,9.58h29.43c26.47,0,29.66-5.93,44.26-28.06v36.05h-106.78V109.93h106.78v33.77c-12.55-18.71-22.13-26.01-47-25.78l-26.7.23c-2.51,2.51-2.28,6.39-2.28,9.58v57.5h18.25c7.3,0,18.48-3.88,24.18-11.64h2.05v36.51h-1.14s-14.15-18.02-25.1-18.02h-18.25v62.29Z"/>
            <path d="M1591.27,271.93V109.93h42.21c52.48,0,97.2,23.27,97.2,81.46s-44.26,80.54-97.2,80.54h-42.21ZM1633.48,263.94c43.12,0,61.15-33.54,61.15-72.56s-18.71-73.24-61.15-73.24h-9.81c-1.6,2.51-1.6,6.39-1.6,9.35v126.86c0,2.97,0,7.07,1.83,9.58h9.58Z"/>
            <path d="M1835.17,107.65c47.91,0,83.74,35.37,83.74,83.28s-36.05,83.28-83.74,83.28-83.96-35.37-83.96-83.28,35.82-83.28,83.96-83.28ZM1852.52,262.35c4.56,0,8.9-.91,13.23-2.74,23.96-10.5,29.21-47.91,11.64-87.39-14.6-32.86-38.33-52.93-59.55-52.93-4.56,0-9.13.91-13.23,2.74-24.41,10.95-29.43,47.92-11.86,87.62,14.6,32.63,38.33,52.71,59.78,52.71Z"/>
          </g>
          <g>
            <path d="M604.73,71.44V.51h47.42v4.66h-42.26v66.27h-5.17ZM609.29,40.13v-4.66h38.41v4.66h-38.41Z"/>
            <path d="M697.85,71.95c-5.27,0-10.15-.89-14.64-2.69-4.49-1.79-8.41-4.32-11.75-7.6-3.34-3.28-5.93-7.09-7.75-11.45s-2.74-9.1-2.74-14.24.91-9.88,2.74-14.24,4.41-8.17,7.75-11.45c3.34-3.28,7.26-5.81,11.75-7.6,4.49-1.79,9.37-2.68,14.64-2.68s10.15.9,14.64,2.68c4.49,1.79,8.39,4.31,11.7,7.55,3.31,3.24,5.89,7.04,7.75,11.4,1.86,4.36,2.79,9.14,2.79,14.34s-.93,9.98-2.79,14.34c-1.86,4.36-4.44,8.16-7.75,11.4-3.31,3.24-7.21,5.76-11.7,7.55-4.49,1.79-9.37,2.69-14.64,2.69ZM697.85,67.18c4.52,0,8.71-.78,12.57-2.33,3.85-1.55,7.19-3.75,10.03-6.59s5.05-6.15,6.64-9.93c1.59-3.78,2.38-7.9,2.38-12.36s-.79-8.66-2.38-12.41c-1.59-3.75-3.8-7.04-6.64-9.88-2.84-2.84-6.18-5.03-10.03-6.59-3.85-1.55-8.04-2.33-12.57-2.33s-8.71.78-12.57,2.33c-3.85,1.55-7.21,3.75-10.08,6.59-2.87,2.84-5.1,6.13-6.69,9.88-1.59,3.75-2.38,7.89-2.38,12.41s.79,8.58,2.38,12.36c1.59,3.78,3.82,7.09,6.69,9.93,2.87,2.84,6.23,5.03,10.08,6.59,3.85,1.55,8.04,2.33,12.57,2.33Z"/>
            <path d="M782.97,71.95c-5.34,0-10.27-.89-14.79-2.69-4.53-1.79-8.46-4.31-11.8-7.55-3.34-3.24-5.93-7.04-7.75-11.4s-2.74-9.14-2.74-14.34.91-9.98,2.74-14.34,4.42-8.16,7.8-11.4c3.38-3.24,7.31-5.76,11.8-7.55,4.49-1.79,9.44-2.68,14.85-2.68s9.9.81,14.29,2.43c4.39,1.62,8.14,4.05,11.25,7.3l-3.24,3.45c-3.11-3.04-6.5-5.2-10.18-6.49-3.68-1.28-7.69-1.93-12.01-1.93-4.59,0-8.85.78-12.77,2.33-3.92,1.55-7.33,3.75-10.23,6.59-2.91,2.84-5.15,6.15-6.74,9.93-1.59,3.78-2.38,7.9-2.38,12.36s.79,8.58,2.38,12.36c1.59,3.78,3.83,7.09,6.74,9.93,2.9,2.84,6.32,5.03,10.23,6.59,3.92,1.55,8.17,2.33,12.77,2.33,4.19,0,8.16-.64,11.91-1.93,3.75-1.28,7.18-3.41,10.29-6.38l2.94,3.95c-3.18,3.04-6.98,5.32-11.4,6.84-4.43,1.52-9.07,2.28-13.93,2.28ZM808.31,62.83l-4.96-.61v-25.94h4.96v26.55Z"/>
            <path d="M861.1,71.95c-5.27,0-10.15-.89-14.64-2.69-4.49-1.79-8.41-4.32-11.75-7.6-3.34-3.28-5.93-7.09-7.75-11.45s-2.74-9.1-2.74-14.24.91-9.88,2.74-14.24,4.41-8.17,7.75-11.45c3.34-3.28,7.26-5.81,11.75-7.6,4.49-1.79,9.37-2.68,14.64-2.68s10.15.9,14.64,2.68c4.49,1.79,8.39,4.31,11.7,7.55,3.31,3.24,5.89,7.04,7.75,11.4,1.86,4.36,2.79,9.14,2.79,14.34s-.93,9.98-2.79,14.34c-1.86,4.36-4.44,8.16-7.75,11.4-3.31,3.24-7.21,5.76-11.7,7.55-4.49,1.79-9.37,2.69-14.64,2.69ZM861.1,67.18c4.52,0,8.71-.78,12.57-2.33,3.85-1.55,7.19-3.75,10.03-6.59s5.05-6.15,6.64-9.93c1.59-3.78,2.38-7.9,2.38-12.36s-.79-8.66-2.38-12.41c-1.59-3.75-3.8-7.04-6.64-9.88-2.84-2.84-6.18-5.03-10.03-6.59-3.85-1.55-8.04-2.33-12.57-2.33s-8.71.78-12.57,2.33c-3.85,1.55-7.21,3.75-10.08,6.59-2.87,2.84-5.1,6.13-6.69,9.88-1.59,3.75-2.38,7.89-2.38,12.41s.79,8.58,2.38,12.36c1.59,3.78,3.82,7.09,6.69,9.93,2.87,2.84,6.23,5.03,10.08,6.59,3.85,1.55,8.04,2.33,12.57,2.33Z"/>
            <path d="M960.61,71.95c-5.27,0-10.25-.89-14.95-2.69-4.7-1.79-8.33-4.1-10.89-6.94l2.33-3.85c2.43,2.5,5.76,4.61,9.98,6.33,4.22,1.72,8.7,2.58,13.43,2.58s8.6-.62,11.6-1.87c3-1.25,5.23-2.92,6.69-5.02,1.45-2.09,2.18-4.42,2.18-6.99,0-3.04-.81-5.47-2.43-7.3-1.62-1.82-3.75-3.28-6.38-4.36-2.63-1.08-5.51-1.99-8.61-2.74-3.11-.74-6.25-1.54-9.42-2.38-3.18-.84-6.08-1.94-8.71-3.29-2.63-1.35-4.75-3.19-6.33-5.52-1.59-2.33-2.38-5.35-2.38-9.07,0-3.38.88-6.49,2.63-9.32,1.76-2.84,4.49-5.13,8.21-6.89,3.71-1.76,8.48-2.63,14.29-2.63,3.92,0,7.79.57,11.6,1.72,3.82,1.15,7.08,2.7,9.78,4.66l-1.93,4.15c-2.97-2.03-6.17-3.53-9.58-4.51-3.41-.98-6.71-1.47-9.88-1.47-4.53,0-8.28.64-11.25,1.92-2.97,1.28-5.17,2.99-6.59,5.12-1.42,2.13-2.13,4.51-2.13,7.14,0,3.04.79,5.47,2.38,7.3,1.59,1.82,3.7,3.28,6.33,4.36,2.63,1.08,5.54,1.99,8.71,2.74,3.17.74,6.32,1.54,9.42,2.38,3.11.85,5.98,1.94,8.61,3.29,2.63,1.35,4.76,3.18,6.38,5.47,1.62,2.3,2.43,5.27,2.43,8.92,0,3.31-.91,6.4-2.74,9.27-1.82,2.87-4.61,5.17-8.36,6.89-3.75,1.72-8.56,2.58-14.44,2.58Z"/>
            <path d="M1003.67,71.44V.51h47.42v4.66h-42.26v61.61h43.78v4.66h-48.94ZM1008.23,37.7v-4.56h38.41v4.56h-38.41Z"/>
            <path d="M1101.16,71.95c-5.27,0-10.15-.89-14.64-2.69-4.49-1.79-8.4-4.31-11.7-7.55-3.31-3.24-5.88-7.04-7.7-11.4s-2.74-9.14-2.74-14.34.91-9.98,2.74-14.34,4.41-8.16,7.75-11.4c3.34-3.24,7.25-5.76,11.7-7.55,4.46-1.79,9.32-2.68,14.59-2.68,5,0,9.68.81,14.03,2.43s8.09,4.09,11.2,7.4l-3.24,3.34c-3.04-2.97-6.4-5.12-10.08-6.43-3.68-1.32-7.58-1.98-11.7-1.98-4.53,0-8.73.78-12.62,2.33-3.89,1.55-7.26,3.75-10.13,6.59-2.87,2.84-5.1,6.15-6.69,9.93-1.59,3.78-2.38,7.9-2.38,12.36s.79,8.58,2.38,12.36c1.59,3.78,3.82,7.09,6.69,9.93,2.87,2.84,6.25,5.03,10.13,6.59,3.88,1.55,8.09,2.33,12.62,2.33,4.12,0,8.02-.66,11.7-1.98,3.68-1.32,7.04-3.5,10.08-6.54l3.24,3.34c-3.11,3.31-6.84,5.79-11.2,7.45s-9.04,2.48-14.03,2.48Z"/>
            <path d="M1142.7,71.44V.51h25.43c8.92,0,15.91,2.09,20.98,6.28,5.07,4.19,7.6,10.07,7.6,17.63,0,4.93-1.15,9.17-3.45,12.72-2.3,3.55-5.57,6.28-9.83,8.21-4.26,1.93-9.36,2.89-15.3,2.89h-22.6l2.33-2.43v25.64h-5.17ZM1147.87,46.11l-2.33-2.43h22.6c7.63,0,13.43-1.69,17.38-5.07,3.95-3.38,5.93-8.11,5.93-14.19s-1.98-10.89-5.93-14.24-9.75-5.02-17.38-5.02h-22.6l2.33-2.53v43.47ZM1191.95,71.44l-18.44-25.74h5.88l18.44,25.74h-5.88Z"/>
            <path d="M1215.66,71.44V.51h47.42v4.66h-42.26v61.61h43.78v4.66h-48.94ZM1220.22,37.7v-4.56h38.41v4.56h-38.41Z"/>
            <path d="M1297.03,71.44V5.17h-25.54V.51h56.24v4.66h-25.54v66.27h-5.17Z"/>
            <path d="M1369.58,71.95c-5.27,0-10.15-.89-14.64-2.69-4.49-1.79-8.41-4.32-11.75-7.6-3.34-3.28-5.93-7.09-7.75-11.45s-2.74-9.1-2.74-14.24.91-9.88,2.74-14.24,4.41-8.17,7.75-11.45c3.34-3.28,7.26-5.81,11.75-7.6,4.49-1.79,9.37-2.68,14.64-2.68s10.15.9,14.64,2.68c4.49,1.79,8.39,4.31,11.7,7.55,3.31,3.24,5.89,7.04,7.75,11.4,1.86,4.36,2.79,9.14,2.79,14.34s-.93,9.98-2.79,14.34c-1.86,4.36-4.44,8.16-7.75,11.4-3.31,3.24-7.21,5.76-11.7,7.55-4.49,1.79-9.37,2.69-14.64,2.69ZM1369.58,67.18c4.52,0,8.71-.78,12.57-2.33,3.85-1.55,7.19-3.75,10.03-6.59s5.05-6.15,6.64-9.93c1.59-3.78,2.38-7.9,2.38-12.36s-.79-8.66-2.38-12.41c-1.59-3.75-3.8-7.04-6.64-9.88-2.84-2.84-6.18-5.03-10.03-6.59-3.85-1.55-8.04-2.33-12.57-2.33s-8.71.78-12.57,2.33c-3.85,1.55-7.21,3.75-10.08,6.59-2.87,2.84-5.1,6.13-6.69,9.88-1.59,3.75-2.38,7.89-2.38,12.41s.79,8.58,2.38,12.36c1.59,3.78,3.82,7.09,6.69,9.93,2.87,2.84,6.23,5.03,10.08,6.59,3.85,1.55,8.04,2.33,12.57,2.33Z"/>
          </g>
          <g>
            <path d="M611.07,477.38v-162h42.21c52.48,0,97.2,23.27,97.2,81.46s-44.26,80.54-97.2,80.54h-42.21ZM653.28,469.4c43.12,0,61.15-33.54,61.15-72.56s-18.71-73.24-61.15-73.24h-9.81c-1.6,2.51-1.6,6.39-1.6,9.35v126.86c0,2.97,0,7.07,1.82,9.58h9.58Z"/>
            <path d="M777.86,431.98c-8.67,25.78,1.83,41.98,7.76,45.4h-35.37l58.64-162h25.33l68.91,162h-36.51l-27.38-65.25h-54.76l-6.62,19.85ZM836.04,404.6l-27.15-64.34-21.68,64.34h48.83Z"/>
            <path d="M964.72,477.38v-162h30.8v144.43c0,3.42,0,7.76,2.51,10.27h17.8c26.47,0,40.84-9.81,51.57-31.94v39.24h-102.67Z"/>
            <path d="M1094.78,477.38v-162h30.8v162h-30.8ZM1131.74,259.94l18.94,18.03-43.81,29.21-2.51-2.51,27.38-44.72Z"/>
            <path d="M1163.22,477.38v-162h50.88c23.27,0,65.71,2.51,65.71,34.22,0,25.55-25.55,34.22-46.55,36.51,24.64,2.74,56.36,14.15,56.36,43.81,0,38.33-41.75,47.46-72.33,47.46h-54.07ZM1208.63,381.78c20.08,0,38.56-6.39,38.56-29.66,0-19.17-15.52-28.52-33.08-28.52h-17.8c-2.28,2.28-2.28,5.7-2.28,8.67v49.51h14.6ZM1217.3,469.4c27.84,0,36.73-12.09,36.73-38.79,0-28.75-18.48-40.84-45.4-40.84h-14.6v69.13c0,3.65,0,7.53,2.51,10.5h20.76Z"/>
            <path d="M1314.27,477.38v-162h30.8v162h-30.8Z"/>
            <path d="M1382.72,477.38v-162h42.21c52.48,0,97.2,23.27,97.2,81.46s-44.26,80.54-97.2,80.54h-42.21ZM1424.93,469.4c43.12,0,61.15-33.54,61.15-72.56s-18.71-73.24-61.15-73.24h-9.81c-1.6,2.51-1.6,6.39-1.6,9.35v126.86c0,2.97,0,7.07,1.82,9.58h9.58Z"/>
            <path d="M1626.62,313.11c47.92,0,83.74,35.37,83.74,83.28s-36.05,83.28-83.74,83.28-83.96-35.37-83.96-83.28,35.82-83.28,83.96-83.28ZM1643.96,467.8c4.56,0,8.9-.91,13.23-2.74,23.96-10.5,29.21-47.91,11.64-87.39-14.6-32.86-38.33-52.93-59.55-52.93-4.56,0-9.13.91-13.23,2.74-24.41,10.95-29.43,47.92-11.86,87.62,14.6,32.63,38.33,52.71,59.78,52.71Z"/>
          </g>
        </g>
        <g>
          <path class="cls-3" d="M107.67,495.07c-18.17-9.86-32.39-22.25-46.48-36.47C25.1,422.18,3.3,364.44,4.36,313c.07-3.42-.61-6.01-.27-9.74l1.48-16.24c3.1-34.11,17.48-78.79,33.63-108.9,13.33-24.83,27.16-48.37,45.14-70.56,3.15,2.42,4.02,5.72,4.77,9.04l6.33,27.77c1.22,5.37,1.99,10.24,5.8,15.41l17.62-28.06L185.23,17.31c3.27-5.64,8.09-12.73,15.56-11.01,8.2,1.88,29.17,21.23,36.55,28.01l15.9,14.59c2.85,2.62,5.07,4.85,7.75,7.63l25.4,26.32c28.64,29.67,60.96,82.44,77.16,121.8,12.4,30.14,19.89,60.82,22.68,93.51,4.87,57.19-9.59,110.89-48.31,153.88-5.18,6.48-10.1,11.45-16.59,16.57-31.58,28.53-71.68,45.51-114.28,48.04-3.53.21-6.35,1.71-9.68-.42-31.54,1.7-61.52-5.85-89.71-21.15ZM304.52,446.5c20.52-25.37,29.02-55.78,27.25-87.74-1.13-20.46-4.4-39.71-12.45-58.43-22.38-60.04-71.72-111.33-124-148.17-57.34,39.06-117.97,104.34-132.01,173.04-15.71,61.67,11.35,125.32,66.64,156.73,15.75,8.95,32.72,13.94,51.09,15.66,47.58,4.44,93.17-13.6,123.5-51.09Z"/>
          <path class="cls-2" d="M304.52,446.5c-30.33,37.49-75.92,55.53-123.5,51.09-18.37-1.71-35.33-6.71-51.09-15.66-55.29-31.41-82.34-95.06-66.64-156.73,14.04-68.7,74.67-133.99,132.01-173.04,52.28,36.84,101.63,88.13,124,148.17,8.06,18.71,11.32,37.97,12.45,58.43,1.77,31.96-6.73,62.37-27.25,87.74Z"/>
        </g>
      </g>
      <path class="cls-1" d="M386.23,298.15c-2.79-32.69-10.28-63.37-22.68-93.51-16.2-39.36-48.52-92.12-77.16-121.8l-25.4-26.32c-2.68-2.78-4.9-5.01-7.75-7.63l-15.9-14.59c-7.38-6.78-28.35-26.12-36.55-28.01-7.47-1.72-12.29,5.37-15.56,11.01l-66.37,114.42-17.62,28.06c-3.81-5.17-4.58-10.04-5.8-15.41l-6.33-27.77c-.76-3.32-1.62-6.62-4.77-9.04-17.98,22.2-31.81,45.73-45.14,70.56-16.16,30.11-30.53,74.78-33.63,108.9l-1.48,16.24c-.34,3.74.34,6.32.27,9.74-1.07,51.44,20.74,109.18,56.82,145.6,14.09,14.22,28.32,26.6,46.48,36.47,28.18,15.3,58.17,22.85,89.71,21.15,3.32,2.13,6.15.63,9.68.42,42.6-2.54,82.7-19.51,114.28-48.04,6.49-5.13,11.41-10.09,16.59-16.57,38.72-42.98,53.18-96.68,48.31-153.88Z"/>
    </g>
  </g>
</svg>